<svg width="148" height="28" viewBox="0 0 148 28" fill="none" xmlns="http://www.w3.org/2000/svg">
<g id="brand-3">
<path id="Vector" fill-rule="evenodd" clip-rule="evenodd" d="M125.885 1.82375L127.004 1.86295C127.77 1.86295 128.33 1.89274 128.644 1.94134C128.967 1.99073 129.203 2.08872 129.361 2.21651C129.568 2.36389 129.704 2.61946 129.753 2.96283C129.793 3.31639 129.822 4.00313 129.822 5.03402V20.1791L114.793 1.1668H106.795V1.82453H109.848L110.543 2.28549V23.8511C110.543 23.8998 110.534 23.9585 110.525 24.0072C110.517 24.0558 110.506 24.0957 110.506 24.1247C110.427 24.9698 110.26 25.5468 110.014 25.8628C109.77 26.1662 109.121 26.3143 108.071 26.2853H104.94L95.2322 0.783447H94.692L93.4565 4.22891L86.5758 23.3886C86.4582 23.7422 86.3296 24.0667 86.2316 24.3317C86.1337 24.6061 86.0263 24.8523 85.9267 25.0482C85.6131 25.6668 85.2407 26.0392 84.7986 26.1567C84.4552 26.2453 83.9057 26.2947 83.1405 26.2947V26.2853H79.3917V1.82375H83.1413V1.16602H75.6421L67.7602 20.5327L59.3351 1.16602H52.1401V1.82375H55.3895L55.7329 2.52068V23.9288C55.7329 24.8813 55.5659 25.5288 55.2327 25.8424C54.8988 26.1654 54.2512 26.3143 53.2995 26.2845H51.9942V26.9415H60.4546V26.2845L59.3359 26.3229C57.913 26.3229 57.068 26.087 56.7936 25.6064C56.5286 25.1345 56.3906 24.4195 56.3906 23.4662V23.1542V22.8493C56.3628 22.7402 56.3496 22.6279 56.3514 22.5153V3.95374L66.0591 26.4413L75.6389 3.13922V26.2853H71.9285V26.9423H90.5982V26.2853L89.4011 26.3237C88.469 26.3237 87.8105 26.2351 87.4091 26.0791C87.0156 25.9122 86.8102 25.6072 86.8102 25.205C86.8102 25.078 86.8486 24.8711 86.9262 24.5881C87.0062 24.3035 87.1238 23.9099 87.2704 23.4286L89.0468 18.5211H97.8615L100.835 26.2853H96.978V26.9423H115.175V26.3237C113.223 26.3237 112.055 26.1567 111.69 25.8032C111.338 25.4598 111.151 24.2533 111.151 22.1915V2.98164L130.174 27.1375H130.399V5.07322C130.399 4.09171 130.419 3.45358 130.439 3.13922C130.459 2.83505 130.548 2.57948 130.675 2.40309C130.695 2.40309 130.724 2.38349 130.733 2.36389C130.75 2.3352 130.77 2.30861 130.793 2.28471C130.92 2.10832 131.136 1.99073 131.45 1.94134C131.755 1.89274 132.295 1.84335 133.069 1.82375H134.149V1.16602H125.884L125.885 1.82375ZM93.4549 17.8626H89.2828L93.3374 6.42788L93.4549 6.73206L97.6256 17.8633L93.4549 17.8626ZM147.333 1.82375V1.16602H135.977V1.82375H139.716V26.2853H135.977V26.9423H147.333V26.2853H143.584V1.82375H147.333ZM49.5687 26.3629C49.4017 26.4115 49.2551 26.4413 49.1266 26.4413C49.0482 26.4609 48.9698 26.4813 48.8914 26.4813H48.6256C47.7821 26.4813 47.2223 25.9702 46.977 24.9698C46.7316 23.9687 46.5646 22.8093 46.4564 21.4938C46.4368 21.3668 46.4078 21.2382 46.3976 21.1112C46.3874 20.9842 46.378 20.8463 46.378 20.7193C46.3109 19.8256 46.1896 18.9368 46.0151 18.0578C45.8481 17.2048 45.5541 16.5063 45.1417 15.9678C44.6322 15.2708 43.9439 14.7417 43.1003 14.3787C42.2568 14.0142 41.0291 13.7202 39.4291 13.4944C39.5083 13.4944 39.5765 13.4842 39.6447 13.4748C39.7128 13.4627 39.7817 13.4561 39.8509 13.4552C41.6869 13.2004 43.3551 12.6407 44.8768 11.7964C46.3976 10.9419 47.1534 9.43041 47.1534 7.27141C47.1534 5.08262 46.3976 3.55079 44.8964 2.69785C43.3943 1.83394 41.7355 1.34319 39.9293 1.24441C39.7675 1.21659 39.6035 1.20347 39.4393 1.20521C39.2817 1.20521 39.1155 1.18562 38.9681 1.16602H25.6379V1.82375H29.3867V26.2853H23.1151L13.4169 0.783447H12.8775L11.6405 4.22891L4.75975 23.3886C4.63196 23.7422 4.51437 24.0667 4.41638 24.3317C4.31838 24.6061 4.2102 24.8523 4.1028 25.0482C3.79862 25.6668 3.42546 26.0392 2.9841 26.1567C2.55215 26.2657 1.77604 26.3143 0.666748 26.2853V26.9423H8.77435V26.2853L7.57647 26.3237C6.65377 26.3237 5.99603 26.2351 5.59465 26.0791C5.1917 25.9122 4.99571 25.6072 4.99571 25.205C4.99571 25.078 5.03491 24.8711 5.11331 24.5881C5.18151 24.3035 5.29989 23.9099 5.45668 23.4286L7.2331 18.5211H16.0486L19.0229 26.2853H15.1557V26.9423H37.1525V26.2853H33.1677V13.7986L34.6792 13.8385C36.073 13.8385 37.2411 13.9256 38.174 14.1129C39.3711 14.3395 40.1958 14.7221 40.6278 15.252C41.3937 16.1935 41.9236 17.8626 42.2082 20.2575C42.2576 20.5625 42.3062 20.8761 42.3258 21.1896C42.3556 21.4946 42.394 21.8192 42.4434 22.1515C42.6496 24.0275 43.1207 25.3532 43.8568 26.0987C44.5828 26.8341 45.7705 27.2166 47.3901 27.2166C47.8025 27.2166 48.185 27.1986 48.5284 27.1586C48.8718 27.1186 49.2151 27.041 49.5491 26.943C49.7067 26.943 49.8541 26.914 50.0007 26.8647C50.1514 26.8115 50.2988 26.7492 50.442 26.6781L50.2068 26.1669C49.9513 26.2453 49.7349 26.3143 49.5687 26.3629ZM11.6405 17.8626H7.46907L11.5229 6.42788L11.6405 6.73206L15.8119 17.8633L11.6405 17.8626ZM36.3372 13.1118C35.7971 13.1604 35.2475 13.1902 34.7074 13.2004C34.1774 13.2106 33.6577 13.2106 33.1669 13.1808V1.82375L34.5216 1.86295C36.004 1.86295 37.2207 1.91155 38.1732 2.01974C38.7424 2.08873 39.2135 2.16712 39.5867 2.26511C40.5878 2.54028 41.4125 3.09924 42.0506 3.95374C42.2866 4.25791 42.492 4.63107 42.659 5.07322C42.826 5.50517 42.9639 5.94654 43.0619 6.38868C43.0815 6.58467 43.1105 6.80026 43.1403 7.00722C43.1599 7.20321 43.1795 7.39919 43.1795 7.58656C43.1795 9.63737 42.463 11.0516 41.0299 11.7979C40.1263 12.266 39.1662 12.6156 38.1732 12.8382C37.5743 12.9746 36.9652 13.0624 36.3372 13.1118Z" fill="#3C2A21"/>
</g>
</svg>
