<svg width="166" height="60" viewBox="0 0 166 60" fill="none" xmlns="http://www.w3.org/2000/svg">
<g id="brand-4">
<path id="Vector" d="M95.6246 31.8568H97.3861C97.3861 33.8094 97.7115 36.0591 98.1785 37.757C98.6171 39.3134 99.7561 40.7778 100.754 41.8885C102.614 44.0251 105.861 45.2348 109.413 45.2348C111.967 45.2348 114.337 44.3505 115.914 43.0771C117.584 41.7046 118.652 39.7308 118.652 37.3608C118.652 35.387 117.817 33.5759 116.7 32.4369C115.561 31.2979 113.077 29.6283 110.198 28.5105L106.067 26.9329C102.586 25.5888 99.5226 23.5159 97.9875 21.6129C96.4523 19.6886 95.4335 16.8729 95.4335 14.1138C95.4335 10.1874 97.0324 6.98266 99.749 4.6622C102.466 2.36297 106.831 1.13199 111.967 1.13199C117.796 1.13199 121.836 2.10828 125.755 4.57023V14.7222H124.177C124.177 13.9299 123.972 13.1446 123.972 12.7484C123.972 12.1683 123.788 11.567 123.788 11.1708C123.788 10.7746 123.392 10.3784 123.392 9.98935C122.996 9.01306 122.395 7.73963 121.631 6.64308C119.749 3.87692 116.502 2.32052 112.943 2.32052C110.594 2.32052 108.302 3.06335 106.838 4.2731C105.26 5.55359 104.496 7.64059 104.496 9.79833C104.496 11.5599 105.076 13.2366 106.074 14.3261C107.142 15.5075 109.392 16.7668 112.158 17.8775L115.921 19.4339C119.798 21.0115 123.003 23.0773 124.772 24.9591C126.654 26.9329 127.722 29.6708 127.722 32.8331C127.722 36.7807 126.144 40.3534 123.01 42.6809C119.897 45.0014 115.532 46.4163 110.212 46.4163C107.637 46.4163 104.178 45.9281 100.365 45.2277C99.0203 44.9943 97.2305 44.5557 95.6246 43.8836V31.8568ZM133.396 31.8568H135.157C135.157 33.8094 135.483 36.0591 135.95 37.757C136.388 39.3134 137.527 40.7778 138.525 41.8885C140.385 44.0251 143.633 45.2348 147.184 45.2348C149.738 45.2348 152.108 44.3505 153.685 43.0771C155.355 41.7046 156.423 39.7308 156.423 37.3608C156.423 35.387 155.589 33.5759 154.471 32.4369C153.332 31.2979 150.849 29.6283 147.969 28.5105L143.838 26.9329C140.357 25.5888 137.294 23.5159 135.759 21.6129C134.223 19.6886 133.205 16.8729 133.205 14.1138C133.205 10.1874 134.803 6.98266 137.527 4.6622C140.244 2.36297 144.609 1.13199 149.738 1.13199C155.567 1.13199 159.607 2.10828 163.533 4.57023V14.7222H161.956C161.956 13.9299 161.75 13.1446 161.75 12.7484C161.75 12.1683 161.567 11.567 161.567 11.1708C161.567 10.7746 161.17 10.3784 161.17 9.98935C160.774 9.01306 160.173 7.73963 159.409 6.64308C157.527 3.87692 154.273 2.32052 150.721 2.32052C148.372 2.32052 146.08 3.06335 144.616 4.2731C143.038 5.55359 142.274 7.64059 142.274 9.79833C142.274 11.5599 142.854 13.2366 143.852 14.3261C144.92 15.5075 147.17 16.7668 149.936 17.8775L153.7 19.4339C157.576 21.0115 160.781 23.0773 162.55 24.9591C164.432 26.9329 165.5 29.6708 165.5 32.8331C165.5 36.7807 163.922 40.3534 160.788 42.6809C157.676 45.0014 153.311 46.4163 147.99 46.4163C145.415 46.4163 141.956 45.9281 138.143 45.2277C136.799 44.9943 135.009 44.5557 133.403 43.8836L133.396 31.8568ZM67.2626 0.70752C73.1628 0.70752 78.2919 2.46909 82.0273 5.63141C86.9511 9.5578 89.5051 15.8683 89.5051 24.1385C89.5051 27.2937 88.9249 30.2438 88.1326 33.01C87.1351 35.7478 85.5787 38.33 83.7888 40.0916C79.8624 44.2231 74.1533 46.3809 66.6542 46.3809C59.7778 46.3809 54.2525 44.4071 50.5172 40.4807C46.5695 36.5331 44.617 30.6329 44.617 23.3461C44.617 16.2645 46.5695 10.7392 50.5172 6.81287C54.4718 2.86526 60.181 0.70752 67.2626 0.70752ZM67.2839 1.88897C63.3363 1.88897 60.181 4.02549 58.2284 7.97309C56.6508 11.3194 55.625 16.6607 55.625 23.3461C55.625 30.64 56.6437 36.1157 58.2284 39.462C59.99 43.2256 62.9189 45.1711 66.6825 45.1711C74.5777 45.1711 78.4758 37.9268 78.4758 23.714C78.4758 16.2362 77.4995 10.7109 75.738 7.36468C74.9456 5.78706 73.5519 4.43581 71.9743 3.41708C70.4391 2.44079 68.628 1.8819 67.0504 1.8819H67.2839V1.88897ZM25.1124 23.3886C29.4562 23.3886 33.1916 24.3649 35.5403 26.3387C37.9103 28.1285 39.0917 30.8664 39.0917 34.2126C39.0917 36.1864 38.5116 38.1602 37.7193 39.7379C36.7218 41.3155 35.1441 42.8931 33.3755 43.6855C31.6776 44.3859 29.8877 44.8528 28.0554 45.0579C26.0816 45.4541 23.1315 45.6381 19.6013 45.6381H0.5V44.4495H5.21166V2.7167H0.5V1.53524H19.2193C21.9571 1.53524 24.5394 1.71918 26.4849 1.93142C29.8524 2.32759 32.5902 3.48782 34.564 5.27769C36.5378 7.03925 37.5141 9.59317 37.5141 12.5716C37.5141 16.4979 35.7525 19.448 32.4063 21.2308C30.8286 22.0232 28.2747 22.8085 24.9072 22.9924L25.1124 23.3886ZM15.4768 44.4495H18.4482C20.4007 44.4495 21.9784 44.2656 23.1386 44.0321C24.3766 43.636 25.4732 42.9002 26.2939 41.8956C27.6875 40.127 28.4799 37.5731 28.4799 34.4178C28.4799 31.0715 27.6875 28.2912 26.2939 26.7065C25.5015 25.9142 24.5323 25.1289 23.3721 24.754C22.1623 24.3366 20.2168 23.9616 18.2147 23.9616H15.4768V44.4495ZM15.4768 22.8085H18.2147C21.0021 22.8085 23.3721 22.0161 24.7162 20.4385C26.1099 18.8608 26.9023 16.3069 26.9023 12.7272C26.9023 9.98934 26.3009 7.43543 25.3246 5.85073C24.7233 4.64098 23.747 3.8557 22.7707 3.48075C21.561 3.06335 19.7994 2.6884 17.8468 2.6884H15.4768V22.8085ZM1.11549 59.1929V53.6182H1.80879V55.9386H4.73766V53.6182H5.43097V59.1929H4.73766V56.5895H1.80879V59.1929H1.11549ZM25.4732 53.6252H26.1665V56.8512C26.1665 57.4101 26.0958 57.87 25.9826 58.1742C25.8411 58.5067 25.6005 58.7826 25.2893 58.9665C24.9638 59.1717 24.5252 59.292 23.9875 59.292C23.4782 59.292 23.0325 59.2 22.707 59.0373C22.3958 58.8604 22.1482 58.5845 22.0137 58.2449C21.9288 58.061 21.8793 57.8629 21.851 57.6648C21.8227 57.396 21.8086 57.1201 21.8015 56.8512V53.6252H22.4948V56.8512C22.4948 57.3394 22.5443 57.7143 22.608 57.9195C22.7 58.153 22.8627 58.3369 23.0961 58.4501C23.3296 58.5704 23.6055 58.634 23.9097 58.634C24.4686 58.634 24.8648 58.5208 25.0912 58.2874C25.3246 58.0539 25.4591 57.5445 25.4591 56.8442L25.4732 53.6252ZM45.0768 57.014V56.3631H47.4256V58.4289C47.0577 58.7048 46.6827 58.9382 46.3078 59.0797C45.9328 59.2212 45.5154 59.292 45.1263 59.292C44.617 59.299 44.1217 59.1858 43.6619 58.9665C43.2304 58.7472 42.8837 58.3935 42.6644 57.969C42.4309 57.5092 42.3107 56.9998 42.3177 56.4834C42.3177 55.9457 42.4309 55.4363 42.6432 54.9694C42.8766 54.5025 43.2021 54.1558 43.6195 53.9224C44.0369 53.6889 44.525 53.5757 45.0839 53.5757C45.4801 53.5757 45.8479 53.6465 46.1734 53.7597C46.4988 53.9011 46.7535 54.0851 46.9162 54.3185C47.1001 54.552 47.2416 54.8491 47.3336 55.2241L46.6827 55.3868C46.612 55.1321 46.4988 54.8987 46.3785 54.7572C46.2583 54.6157 46.0743 54.4813 45.8479 54.3822C45.6074 54.2761 45.3456 54.2266 45.0839 54.2195C44.7585 54.2195 44.4543 54.269 44.2279 54.361C43.9944 54.453 43.7892 54.5945 43.6265 54.7784C43.478 54.9411 43.3648 55.1321 43.2799 55.3373C43.1384 55.6839 43.0676 56.0518 43.0676 56.4268C43.0676 56.9149 43.1596 57.3323 43.3011 57.6577C43.4638 57.9832 43.7185 58.2591 44.0439 58.4006C44.3694 58.5421 44.7372 58.634 45.1122 58.634C45.4164 58.634 45.7418 58.5633 46.0177 58.4713C46.3219 58.351 46.5766 58.1954 46.7393 58.0539V57.0069L45.0768 57.014ZM63.3929 56.5046C63.3929 55.599 63.6475 54.8774 64.1145 54.3681C64.6026 53.8587 65.2535 53.5757 66.0387 53.5757C66.5481 53.5757 67.015 53.7172 67.4112 53.9507C67.8074 54.1841 68.1328 54.552 68.338 54.9694C68.5714 55.3868 68.6846 55.8962 68.6846 56.4551C68.6846 57.014 68.5714 57.5233 68.338 57.9407C68.1045 58.3793 67.7791 58.7331 67.3829 58.9382C66.9655 59.1717 66.4986 59.2849 66.0387 59.2849C65.5506 59.2849 65.0695 59.1575 64.6451 58.9099C64.2347 58.6765 63.9093 58.3228 63.7183 57.8912C63.506 57.4667 63.3929 56.9927 63.3929 56.5187V56.5046ZM64.1357 56.5258C64.1357 57.1767 64.3196 57.686 64.6663 58.061C65.0129 58.4359 65.4799 58.6411 66.0104 58.6411C66.5693 58.6411 67.0292 58.4572 67.3829 58.0822C67.7508 57.7073 67.9418 57.1484 67.9418 56.4551C67.9418 56.0164 67.8498 55.6203 67.7083 55.2948C67.5668 54.9694 67.3122 54.6864 67.0363 54.5025C66.7603 54.3185 66.4066 54.2266 66.0387 54.2266C65.5294 54.2266 65.0624 54.4105 64.6946 54.7572C64.3267 55.1038 64.1357 55.7122 64.1357 56.5258ZM97.3366 59.1929V53.6182H99.4024C99.8198 53.6182 100.166 53.6889 100.4 53.7809C100.655 53.8941 100.86 54.0851 101.001 54.3115C101.143 54.5449 101.235 54.8208 101.235 55.0543C101.235 55.2878 101.164 55.5424 101.051 55.7264C100.895 55.9528 100.69 56.1296 100.449 56.257C100.775 56.3489 101.051 56.5117 101.242 56.7451C101.426 56.9786 101.518 57.2757 101.518 57.5799C101.518 57.8346 101.447 58.0893 101.355 58.3015C101.27 58.5067 101.136 58.6906 100.959 58.8392C100.796 58.9524 100.563 59.0444 100.329 59.0939C100.096 59.1434 99.7702 59.1858 99.4236 59.1858L97.3366 59.1929ZM98.037 55.9881H99.2467C99.5722 55.9881 99.8268 55.9669 99.9683 55.9386C100.138 55.8962 100.294 55.783 100.386 55.6344C100.435 55.5707 100.478 55.5 100.506 55.4293C100.527 55.3373 100.548 55.2453 100.548 55.1533C100.548 54.9694 100.506 54.8067 100.414 54.6652C100.322 54.5237 100.181 54.4105 100.018 54.361C99.8551 54.3115 99.558 54.269 99.1618 54.269H98.0441L98.037 55.9881ZM98.037 58.5421H99.4307C99.6641 58.5421 99.8481 58.5208 99.94 58.5208C100.103 58.4996 100.265 58.4289 100.357 58.3793C100.492 58.3157 100.598 58.2096 100.662 58.0751C100.732 57.9336 100.775 57.7709 100.775 57.587C100.775 57.4031 100.704 57.2191 100.612 57.0776C100.52 56.9361 100.336 56.8017 100.145 56.7522C99.9613 56.6814 99.6571 56.639 99.3316 56.639H98.0299V58.5421H98.037ZM118.192 56.5046C118.192 55.599 118.447 54.8774 118.914 54.3681C119.402 53.8587 120.053 53.5757 120.838 53.5757C121.348 53.5757 121.815 53.7172 122.211 53.9507C122.607 54.1841 122.932 54.552 123.145 54.9694C123.378 55.3868 123.491 55.8962 123.491 56.4551C123.491 57.014 123.378 57.5233 123.145 57.9407C122.911 58.3793 122.586 58.7331 122.19 58.9382C121.772 59.1717 121.305 59.2849 120.845 59.2849C120.357 59.2849 119.876 59.1575 119.452 58.9099C119.041 58.6765 118.716 58.3228 118.525 57.8912C118.313 57.4667 118.199 56.9927 118.199 56.5187L118.192 56.5046ZM118.935 56.5258C118.935 57.1767 119.119 57.686 119.466 58.061C119.812 58.4359 120.279 58.6411 120.81 58.6411C121.369 58.6411 121.836 58.4572 122.182 58.0822C122.557 57.7073 122.741 57.1484 122.741 56.4551C122.741 56.0164 122.649 55.6203 122.508 55.2948C122.366 54.9694 122.112 54.6864 121.836 54.5025C121.56 54.3185 121.206 54.2266 120.838 54.2266C120.329 54.2266 119.862 54.4105 119.494 54.7572C119.119 55.1109 118.935 55.7122 118.935 56.5258ZM140.039 57.4314L140.739 57.3818C140.76 57.6365 140.852 57.87 140.944 58.0327C141.057 58.2166 141.27 58.3793 141.524 58.4713C141.638 58.5208 141.779 58.5845 141.92 58.5845C142.062 58.6057 142.225 58.634 142.359 58.634C142.635 58.634 142.89 58.5845 143.102 58.5208C143.307 58.4501 143.498 58.3369 143.59 58.1954C143.682 58.0539 143.753 57.87 143.753 57.7073C143.753 57.5445 143.703 57.3818 143.611 57.2686C143.519 57.1271 143.335 57.014 143.102 56.922C142.777 56.8229 142.451 56.738 142.126 56.6673C141.616 56.5541 141.22 56.4126 141.036 56.3206C140.781 56.1792 140.569 55.9952 140.456 55.8113C140.329 55.599 140.265 55.3585 140.272 55.1109C140.272 54.835 140.364 54.5803 140.506 54.3468C140.647 54.1134 140.902 53.9082 141.178 53.788C141.496 53.6465 141.85 53.5757 142.196 53.5757C142.593 53.5757 142.96 53.6465 143.265 53.7597C143.59 53.9011 143.845 54.1063 143.986 54.3681C144.163 54.6157 144.262 54.9199 144.262 55.2241L143.562 55.2948C143.541 54.9482 143.399 54.6652 143.194 54.5025C142.982 54.3185 142.635 54.2266 142.218 54.2266C141.8 54.2266 141.454 54.3185 141.27 54.46C141.086 54.6228 140.965 54.8279 140.965 55.0614C140.965 55.2453 141.036 55.4363 141.178 55.5495C141.319 55.6698 141.687 55.8042 142.267 55.9457C142.847 56.0872 143.265 56.2004 143.498 56.2923C143.824 56.4338 144.078 56.639 144.22 56.8725C144.269 56.9644 144.333 57.1059 144.382 57.2191C144.432 57.3606 144.453 57.495 144.453 57.6365C144.453 57.9124 144.361 58.2166 144.199 58.4713C144.022 58.7331 143.774 58.9453 143.477 59.0727C143.13 59.2141 142.762 59.2849 142.387 59.2849C141.899 59.2849 141.454 59.2141 141.135 59.0727C140.817 58.9382 140.541 58.7118 140.343 58.4218C140.244 58.2732 140.166 58.1176 140.109 57.9549C140.067 57.7922 140.039 57.6082 140.039 57.4314ZM161.078 57.4314L161.779 57.3818C161.8 57.6365 161.892 57.87 161.984 58.0327C162.097 58.2166 162.309 58.3793 162.564 58.4713C162.677 58.5208 162.819 58.5845 162.96 58.5845C163.102 58.6057 163.264 58.634 163.399 58.634C163.675 58.634 163.929 58.5845 164.142 58.5208C164.347 58.4501 164.538 58.3369 164.63 58.1954C164.722 58.0539 164.793 57.87 164.793 57.7073C164.793 57.5445 164.743 57.3818 164.651 57.2686C164.559 57.1271 164.375 57.014 164.142 56.922C163.816 56.8229 163.491 56.738 163.165 56.6673C162.656 56.5541 162.26 56.4126 162.076 56.3206C161.821 56.1792 161.609 55.9952 161.496 55.8113C161.376 55.599 161.305 55.3585 161.312 55.1109C161.312 54.835 161.404 54.5803 161.545 54.3468C161.687 54.1134 161.942 53.9082 162.217 53.788C162.536 53.6465 162.889 53.5757 163.236 53.5757C163.632 53.5757 164 53.6465 164.304 53.7597C164.63 53.9011 164.885 54.1063 165.026 54.3681C165.203 54.6157 165.302 54.9199 165.302 55.2241L164.602 55.2948C164.58 54.9482 164.439 54.6652 164.234 54.5025C164.021 54.3185 163.675 54.2266 163.257 54.2266C162.84 54.2266 162.493 54.3185 162.309 54.46C162.125 54.6228 162.005 54.8279 162.005 55.0614C162.005 55.2453 162.076 55.4363 162.21 55.5495C162.352 55.6698 162.72 55.8042 163.3 55.9457C163.88 56.0872 164.297 56.2004 164.531 56.2923C164.856 56.4338 165.111 56.639 165.252 56.8725C165.302 56.9644 165.366 57.1059 165.415 57.2191C165.465 57.3606 165.486 57.495 165.486 57.6365C165.486 57.9124 165.394 58.2166 165.231 58.4713C165.054 58.7331 164.807 58.9453 164.51 59.0727C164.163 59.2141 163.795 59.2849 163.42 59.2849C162.932 59.2849 162.486 59.2141 162.168 59.0727C161.85 58.9382 161.574 58.7118 161.376 58.4218C161.276 58.2732 161.199 58.1176 161.142 57.9549C161.1 57.7922 161.078 57.6082 161.078 57.4314Z" fill="#3C2A21"/>
</g>
</svg>
