<svg width="184" height="20" viewBox="0 0 184 20" fill="none" xmlns="http://www.w3.org/2000/svg">
<g id="brand-9">
<path id="Vector" fill-rule="evenodd" clip-rule="evenodd" d="M183.642 17.3524L183.667 17.9051H177.761V17.3524C179.353 17.3524 179.182 16.8928 179.182 14.8928V3.87731C179.182 3.03359 179.207 2.43093 179.112 2.16635C178.919 1.46668 178.63 1.44316 177.64 1.39514V0.888514L183.62 0.864014V1.39514C182.052 1.39514 182.1 1.90078 182.1 3.87731V14.8928C182.1 16.7243 182.027 17.3524 183.642 17.3524ZM165.975 18.0991C159.659 18.0991 160.093 17.1594 159.105 15.617C157.925 13.7855 156.912 11.1827 154.718 11.1827C154.138 11.2053 152.211 11.1827 151.849 11.1827C150.837 11.1827 150.259 11.2308 149.608 11.1827V16.1951C149.63 17.3759 150.211 17.4739 151.198 17.4739V18.1001H145.174V17.4739C145.993 17.4965 146.666 17.5219 146.666 16.6047V4.45744V3.1796C146.666 1.95076 146.234 1.63718 145.174 1.63718V1.10606H152.885C155.393 1.10606 157.224 1.03354 158.405 1.29911C161.08 1.90177 162.72 3.27564 162.744 5.49323C162.744 7.68731 161.636 9.61582 157.395 10.4115C160.189 10.7231 160.479 11.954 161.563 13.8335C162.721 15.906 163.226 17.5219 165.927 17.4965C165.927 17.6415 165.975 17.9551 165.975 18.0991ZM149.609 9.49431C151.802 9.46981 155.008 9.63934 156.96 9.13271C158.069 8.7231 159.539 8.09594 159.539 5.7098C159.539 4.02235 158.697 3.46868 157.684 2.98656C155.78 2.07032 152.114 2.3839 149.609 2.3839V9.49431ZM128.735 13.76H118.611L117.623 15.4954C117.261 16.1461 117.02 16.5802 117.02 16.8448C117.045 17.6885 117.454 17.762 118.394 17.7366L118.37 18.2912H113.139V17.8091C114.297 17.7846 114.49 17.3995 114.827 16.8213C115.116 16.2666 115.357 15.857 115.983 14.6507L122.998 1.29813H125.216L132.616 14.7968C133.943 17.2309 133.869 17.6405 135.365 17.6405V18.2912H129.097V17.6885C130.519 17.616 130.737 17.1339 129.941 15.809L128.735 13.76ZM127.844 11.855L123.576 3.85282L119.528 11.855H127.844ZM105.885 10.9887C104.15 11.0132 104.028 11.0848 104.076 12.7722L104.124 15.2064C103.377 16.8448 100.919 17.9551 99.0638 18.4353C97.5844 18.826 96.0617 19.0285 94.5316 19.0379C90.6746 19.0379 87.5417 18.1707 85.2751 16.2412C83.3956 14.6507 82.2383 12.6262 82.2383 10.4096C82.2383 7.70985 83.3946 5.54027 85.7327 3.7558C88.0464 1.97232 90.9146 1.05608 94.4581 1.08058C95.8075 1.1041 97.2548 1.24913 98.6767 1.58623C99.9781 1.89981 101.352 2.38193 102.46 3.05613L103.352 6.84064L102.799 7.05819C102.245 5.90089 100.749 4.33397 99.3519 3.56374C98.1211 2.86406 96.4346 2.43093 94.6266 2.40643C92.5306 2.38291 90.409 3.12962 89.1557 3.99785C87.2271 5.3237 85.5877 7.44527 85.5877 10.0235C85.5877 12.6987 87.1311 14.8448 88.7215 15.8825C90.2885 16.8703 92.169 17.5435 94.5786 17.521C96.026 17.4965 97.5684 17.1339 98.4121 16.7978C99.3274 16.4362 100.605 15.858 101.159 14.7977L101.183 13.3278C101.183 12.8202 101.279 11.5189 100.894 11.2298C100.485 10.9642 100.025 10.9887 99.3519 10.9887V10.4106H105.884L105.885 10.9887ZM64.7631 1.73224V2.26238C64.0164 2.28688 63.8713 2.23789 63.5823 2.47895C63.3892 2.672 63.2452 2.91306 63.2452 3.70877V16.8448H71.2238C73.3209 16.8448 74.6467 15.9296 75.2249 14.9898L75.7785 15.2064L74.0196 18.7263H58.858V18.1717C59.8948 18.1472 60.3279 17.9551 60.3279 16.8448V4.45548C60.3279 3.51572 60.3279 2.98558 60.0868 2.672C59.8458 2.33392 59.6047 2.26238 58.761 2.26238V1.73224H64.7631ZM33.3806 1.87726V2.50442C32.4164 2.50442 31.7177 2.72099 32.1753 3.80578C32.3438 4.26341 32.6819 4.84256 33.0915 5.61377L38.7076 16.1951C39.4063 14.5086 45.0468 3.95082 45.1673 3.22762C45.3123 2.31138 43.8895 2.50442 43.8414 2.50442V1.90176L48.9028 1.87824V2.50541C48.5167 2.50541 47.915 2.40839 47.6985 2.67396C47.3369 3.13159 46.4206 5.0601 45.1673 7.47074C43.3113 11.1102 40.9007 15.9315 39.4063 18.8968H36.9721L29.7411 5.20513C29.163 4.07233 28.6808 2.96402 28.2948 2.72296C27.9577 2.52991 27.7166 2.50639 27.1375 2.50639V1.87923H33.3806V1.87726ZM14.3375 9.8804C15.8084 10.1205 17.0617 10.4586 17.8565 10.8927C18.7482 11.3983 19.736 12.097 19.736 14.3871C19.7605 16.2667 18.5797 17.375 17.928 17.7366C16.2406 19.0634 12.1189 19.1359 9.61227 19.1359H0.454764V18.5558C1.22597 18.5803 1.44352 18.5078 1.7571 18.1462C1.97367 17.8816 1.90115 16.8928 1.90115 15.9296V4.57699C1.90115 3.51572 1.85313 3.20312 1.51505 2.91404C1.15346 2.62496 0.936893 2.64848 0.333252 2.64848L0.35775 2.09383C6.28734 2.11833 8.67349 2.04582 12.265 2.07032C14.6756 2.19085 17.8085 3.10709 17.8085 5.99888C17.8085 7.10719 17.3028 8.21648 16.5316 8.77112C15.7849 9.34928 15.5193 9.46981 14.3375 9.8804ZM4.76844 9.4218H8.746C10.409 9.4218 12.6501 9.37378 13.9044 8.36151C14.4345 7.95189 14.9412 6.8671 14.9412 6.23994C14.9412 5.22767 14.7001 4.74554 13.6633 4.07135C12.603 3.39617 10.3854 3.5167 8.48044 3.5167H4.76844V9.4218ZM4.76844 17.2544H9.56523C13.0126 17.2544 16.5071 17.0633 16.5071 14.2666C16.5071 13.2543 15.8799 12.4096 15.2293 11.9275C13.8309 10.8917 11.7583 10.9152 8.72151 10.9397C7.41917 10.9623 6.0698 10.9397 4.76844 10.9397V17.2544Z" fill="#3C2A21"/>
</g>
</svg>
