<svg width="110" height="74" viewBox="0 0 110 74" fill="none" xmlns="http://www.w3.org/2000/svg">
<g id="brand-1">
<path id="Vector" d="M7.86828 73.4093C7.82152 73.4039 7.66304 73.3875 7.5161 73.3727C6.17474 73.238 4.74285 72.6895 3.61726 71.8792C1.92967 70.6642 0.740452 68.8951 0.244415 66.8616C-0.0191841 65.7811 -0.0715737 64.5705 0.0970104 63.4568C0.549037 60.4709 2.52218 57.9133 5.25934 56.7653C5.94244 56.4788 6.62037 56.2976 7.41894 56.1882C7.86162 56.1275 8.9397 56.1272 9.38629 56.1876C10.3334 56.3158 11.1361 56.5546 11.9608 56.9536C12.8683 57.3927 13.4964 57.8448 14.2566 58.6063C14.9211 59.272 15.3315 59.8261 15.8073 60.7001L15.9085 60.8861L15.5498 61.1514C15.0557 61.5169 13.8966 62.3439 13.5192 62.6003L13.2073 62.8121L13.079 62.5333C12.9204 62.1886 12.8075 61.9843 12.6247 61.7113C11.8941 60.6202 10.7291 59.8409 9.45915 59.5938C8.78719 59.463 7.95994 59.4776 7.2975 59.6318C6.60189 59.7938 5.8465 60.1571 5.26944 60.6072C5.03683 60.7887 4.60873 61.2132 4.42038 61.4493C3.40404 62.7228 3.02968 64.3453 3.37824 65.9659C3.49893 66.527 3.8113 67.26 4.13718 67.7469C4.99965 69.0355 6.32165 69.861 7.81907 70.0461C8.08379 70.0788 8.72145 70.0788 8.98616 70.0461C10.3123 69.8822 11.5376 69.1932 12.3749 68.1406C12.6214 67.8307 12.7933 67.5623 12.9893 67.1813C13.0751 67.0143 13.1526 66.8777 13.1613 66.8777C13.1701 66.8777 13.7806 67.3085 14.5181 67.8352L15.8589 68.7926L15.723 69.0496C15.4411 69.5828 14.956 70.2532 14.5042 70.7339C13.7345 71.5529 12.9848 72.1094 12.0094 72.586C11.1669 72.9975 10.2742 73.26 9.32554 73.3752C9.11285 73.401 8.01949 73.4266 7.86828 73.4093ZM19.3323 64.6918V56.3002H22.5869V62.3237H31.0878V56.3002H34.3424V73.0833H31.0878V65.6997H22.5869V73.0833H19.3323V64.6918ZM37.6305 71.5957C37.9933 70.7775 39.667 67.0013 41.3499 63.2041L44.4098 56.3002L46.6929 56.3005L48.976 56.3008L52.6748 64.5888C54.7091 69.1473 56.3945 72.9233 56.4201 72.9801L56.4665 73.0833H52.5694L51.8171 71.4197L51.0647 69.7561L46.7098 69.7621L42.3549 69.768L41.611 71.4257L40.867 73.0833H36.9709L37.6305 71.5957ZM49.6882 66.3702C49.6745 66.311 46.7177 59.7019 46.705 59.7021C46.696 59.7022 43.8879 66.2558 43.8431 66.3814C43.8381 66.3953 44.961 66.4041 46.7655 66.4041C49.2583 66.4041 49.6948 66.399 49.6882 66.3702ZM59.092 64.6918V56.3002L61.3812 56.3007L63.6703 56.3012L67.2528 61.3329L70.8354 66.3646L70.8415 61.3324L70.8476 56.3002H74.1264V73.0838L72.8108 73.0775L71.4952 73.0712L66.9513 66.7633C64.4521 63.2939 62.3991 60.4549 62.3891 60.4544C62.3791 60.4539 62.3709 63.2952 62.3709 66.7684V73.0833H59.092V64.6918ZM80.0527 64.6918V56.3002H91.7839V59.6763H83.3316V63.028H91.1524V66.4041H83.3316V69.7559H92.9983V73.0833H80.0527V64.6918ZM97.5888 64.6918V56.3002H100.868V69.7559H110V73.0833H97.5888V64.6918ZM41.3989 52.0318C37.8957 51.8698 33.9946 50.8061 30.8496 49.1554C28.4352 47.8881 26.5217 46.47 24.517 44.4623C22.9469 42.8899 21.7886 41.4414 20.808 39.8244L20.3788 39.1165L20.9877 38.7935C22.1743 38.1642 27.5835 35.3944 27.626 35.3944C27.6497 35.3944 27.8731 35.6985 28.1226 36.0703C30.9415 40.2718 35.3515 43.005 40.5122 43.7489C41.4144 43.879 44.1273 43.8582 45.1098 43.7138C46.203 43.553 47.5142 43.2549 48.347 42.9778C48.4012 42.9597 48.2977 42.7916 48.0594 42.5107C46.2147 40.3363 44.5332 37.3518 43.5871 34.5734C41.8758 29.5475 41.754 24.1526 43.2374 19.0837C44.1585 15.936 45.7437 12.8808 47.7514 10.384C48.0505 10.012 48.2952 9.6838 48.2952 9.65468C48.2952 9.5556 46.7281 9.13846 45.7009 8.96412C44.114 8.69478 41.6297 8.66139 40.1955 8.89011C37.7823 9.27498 35.3329 10.1788 33.4189 11.3906C31.286 12.741 29.5074 14.4764 28.088 16.5919L27.4613 17.526L26.6636 17.1072C26.2248 16.8769 24.5949 16.0322 23.0416 15.2303C21.4883 14.4283 20.2126 13.7679 20.2067 13.7627C20.182 13.7409 21.1545 12.1942 21.5547 11.6186C22.7701 9.87118 24.9282 7.55691 26.5226 6.29125C30.6919 2.98175 35.3268 1.11787 40.5451 0.65239C41.5131 0.566021 43.9133 0.565268 44.8471 0.651005C48.16 0.955142 50.9998 1.75842 53.9336 3.22113L55.3358 3.92019L55.8055 3.6529C56.564 3.22128 57.9117 2.5985 58.9352 2.20659C61.807 1.10704 64.6991 0.583654 67.8945 0.585209C70.126 0.586301 71.9875 0.805551 74.0084 1.30528C78.5739 2.43424 82.4673 4.59943 85.8219 7.87491C87.6405 9.65067 89.0658 11.4638 90.2166 13.4654L90.3909 13.7688L87.5526 15.2331C85.9915 16.0385 84.3585 16.8839 83.9237 17.1119L83.1331 17.5265L82.5354 16.625C79.5868 12.177 74.7635 9.28115 69.4841 8.78924C67.9211 8.64361 65.6003 8.7777 64.1896 9.09517C63.4635 9.25856 62.2849 9.59532 62.2852 9.63928C62.2854 9.66225 62.4782 9.9175 62.7137 10.2065C65.7392 13.9187 67.6282 18.4437 68.2385 23.4408C68.3842 24.6335 68.4037 27.6786 68.2731 28.8594C67.7218 33.8456 65.8364 38.4472 62.827 42.1516C62.1447 42.9914 62.1738 42.9333 62.3926 43.0178C62.496 43.0577 62.9795 43.1915 63.4672 43.315C65.9457 43.943 68.6137 44.0318 71.1188 43.5695C75.675 42.7287 79.7786 40.0341 82.4179 36.1497C82.6633 35.7885 82.885 35.4687 82.9104 35.4391C82.9359 35.4095 83.5443 35.6798 84.2624 36.0397C85.685 36.7528 90.141 39.0588 90.1888 39.1065C90.2684 39.1861 88.8483 41.2942 87.9774 42.3892C87.1528 43.4259 84.9916 45.5846 83.959 46.403C80.2274 49.3601 76.0398 51.1682 71.4272 51.8138C66.1311 52.555 60.5223 51.5623 55.9587 49.0761L55.3137 48.7248L54.5138 49.148C50.5502 51.2451 46.0038 52.2448 41.3989 52.0318ZM56.1953 37.4633C58.404 34.7292 59.7822 31.4126 60.1218 28.014C60.2358 26.8733 60.1681 24.5497 59.9906 23.511C59.502 20.6529 58.4567 18.2032 56.7705 15.9645C56.453 15.543 55.9906 14.9795 55.7429 14.7123L55.2927 14.2265L54.875 14.6794C54.3243 15.2765 53.4067 16.4947 52.9442 17.2425C50.5957 21.04 49.829 25.7053 50.8235 30.1456C51.4493 32.9398 52.8882 35.7546 54.8273 37.978L55.2738 38.49L55.4693 38.305C55.5767 38.2033 55.9034 37.8245 56.1953 37.4633Z" fill="#3C2A21"/>
</g>
</svg>
