<svg width="148" height="24" viewBox="0 0 148 24" fill="none" xmlns="http://www.w3.org/2000/svg">
<g id="brand-7">
<path id="brand-7_2" fill-rule="evenodd" clip-rule="evenodd" d="M12.4746 21.7724C7.34051 21.7724 2.95823 17.1158 2.95823 12.0365C2.95823 6.97616 7.24878 2.22699 12.4377 2.22699C15.8487 2.22699 18.3048 3.87721 20.3039 6.46267H22.8157C22.0639 5.10565 21.2572 3.85917 20.0287 2.88707C17.9199 1.18199 15.1878 0.173828 12.4746 0.173828C5.96546 0.173828 0.666748 5.54623 0.666748 12.0185C0.666748 18.5088 6.03915 23.8264 12.5114 23.8264C15.1518 23.8264 17.7372 22.855 19.8092 21.2229C21.1114 20.1779 22.0278 18.8208 22.9082 17.427H20.3964C18.4154 20.0124 15.8855 21.7724 12.4746 21.7724ZM38.5111 9.3962C36.9346 7.36107 34.7889 6.07775 32.1305 6.07775C27.3633 6.07775 23.4397 9.94732 23.4397 14.7145C23.4397 19.4809 27.3822 23.3866 32.1305 23.3866C34.8994 23.3866 36.824 22.231 38.5111 20.1042V23.0009H40.5831V6.4807H38.5111V9.3962ZM32.0208 21.4792C28.3715 21.4792 25.4928 18.3074 25.4928 14.7325C25.4928 11.175 28.3535 7.9851 32.0208 7.9851C35.6693 7.9851 38.5111 11.1758 38.5111 14.7325C38.5111 18.3074 35.6505 21.4792 32.0208 21.4792ZM43.0949 23.0009H45.3142V0.649687H43.0949V23.0009ZM53.6931 20.3785L48.0823 6.4807H45.8818L52.6112 23.0009H54.8478L61.5592 6.4807H59.3955L53.6931 20.3785ZM62.4756 23.0009H64.6942V6.4807H62.4756V23.0009ZM62.4756 4.35385H64.6942V0.649687H62.4756V4.35385ZM74.2474 6.07696C72.1566 6.07696 70.6718 7.17763 69.2968 8.6444V6.4807H67.2428V23.0009H69.4246V12.9342C69.4065 10.2758 71.6063 7.98431 74.2835 7.98431C77.638 7.98431 79.3251 10.8998 79.3251 13.907V23.0016H81.3782V13.907C81.379 9.61649 78.868 6.07696 74.2474 6.07696ZM101.97 0.649687L91.8855 13.4665V0.649687H89.7038V23.0009H91.8855V16.8586L94.7461 13.3018L102.025 23.0009H104.795L96.1392 11.5411L104.795 0.649687H101.97ZM105.601 23.0009H107.765V0.649687H105.601V23.0009ZM125.678 10.6427C124.175 7.83693 121.168 6.07696 117.995 6.07696C113.265 6.07696 109.267 10.0194 109.267 14.7498C109.267 19.5162 113.301 23.3858 118.033 23.3858C120.287 23.3858 122.507 22.4874 124.138 20.9289C125.129 19.9936 125.715 18.8201 126.246 17.5916H123.918C122.744 19.8839 120.672 21.4784 117.994 21.4784C116.363 21.4784 114.768 20.8183 113.559 19.6996C112.31 18.5637 111.761 17.1691 111.522 15.5196H126.76C126.761 13.7965 126.522 12.1463 125.678 10.6427ZM111.596 13.6131C112.258 10.5149 114.695 7.98431 118.033 7.98431C120.838 7.98431 123.846 9.70821 124.506 13.6131H111.596ZM128.374 23.0009H130.555V6.4807H128.374V23.0009ZM128.374 4.42754H130.555V0.649687H128.374V4.42754ZM140.146 6.07696C138.018 6.07696 136.533 7.17763 135.139 8.6444V6.4807H133.049V23.0009H135.25V12.9342C135.232 10.2578 137.487 7.98431 140.181 7.98431C143.519 7.98431 145.28 10.8998 145.28 13.907V23.0016H147.333V13.907C147.333 9.61649 144.784 6.07696 140.146 6.07696Z" fill="#3C2A21"/>
</g>
</svg>
