<svg width="110" height="44" viewBox="0 0 110 44" fill="none" xmlns="http://www.w3.org/2000/svg">
<g id="brand-2">
<path id="Vector" fill-rule="evenodd" clip-rule="evenodd" d="M4.46554 1.31658L2.38299 1.20898L1.52457 1.0373L1.35289 0.715097C1.35289 0.414651 1.56749 0.285889 1.99729 0.285889H23.5324C33.6235 0.285889 40.7084 3.35621 44.8312 9.518C47.193 13.0822 48.3736 17.312 48.3736 22.2073C48.3736 24.7626 47.9873 27.2314 47.1924 29.6144C46.2911 32.1267 45.0458 34.3386 43.4354 36.3142C41.6744 38.3961 39.5278 40.0071 37.0584 41.1877C34.4173 42.3901 31.4546 43.0128 28.1267 43.0128H0.665568C0.214604 43.0128 0 42.8623 0 42.6053C0 42.326 0.322201 42.1761 0.923094 42.1761L6.18355 41.8545C6.99964 41.7463 7.57936 41.5099 7.85864 41.1883L8.39545 40.4363C8.58889 39.9219 8.69648 39.1493 8.71765 38.0969V4.04352C8.71765 2.71239 7.96624 1.89631 6.50634 1.5741L4.46554 1.31658ZM16.0601 1.89631L15.9095 2.75531V40.5651C15.9095 40.9943 15.9954 41.2942 16.1671 41.4023L17.0261 41.5311H19.86L26.4299 41.2948C28.1902 41.1019 29.693 40.8226 30.8742 40.4357C32.0487 40.0073 33.1495 39.3992 34.1374 38.6331C34.9964 37.9246 35.8766 36.9151 36.8432 35.6268C38.453 33.5231 39.6125 30.8391 40.321 27.5542C40.7502 25.4081 40.9654 23.325 40.9654 21.3283C40.9654 19.568 40.7078 17.6783 40.171 15.6386C39.4196 12.6971 38.2813 10.1207 36.6709 7.93051C33.5577 3.67958 28.4477 1.57528 21.384 1.57528H17.0255C16.5322 1.53118 16.21 1.63878 16.0601 1.89631ZM52.6028 42.6906C52.5599 42.4324 52.7745 42.3254 53.2472 42.3254L54.75 42.2819C55.5661 42.1749 56.06 41.8962 56.2528 41.4664L56.5321 39.9207V27.446C56.5321 26.9739 56.3599 26.6087 56.0382 26.3941L54.9217 26.286L53.4189 26.6946L52.6028 26.6511C52.4952 26.3936 52.8174 26.1572 53.5688 25.9426C55.3509 25.4705 56.919 24.869 58.2495 24.1176C59.065 23.6454 59.6448 23.3873 59.9023 23.2803L60.5467 23.2162C60.7613 23.2586 60.8695 23.6884 60.8695 24.4609V40.177C60.8695 40.9279 61.0406 41.4653 61.3634 41.7869C61.7491 42.1738 62.6516 42.3666 64.0468 42.3666C64.5407 42.3666 64.7976 42.4748 64.8417 42.71C64.8417 42.904 64.6912 42.9681 64.4331 42.9681H52.9891C52.7316 42.9698 52.6028 42.8617 52.6028 42.6906ZM103.273 27.2314C102.221 28.3268 101.513 29.6144 101.126 31.1601V40.2858C101.126 41.1013 101.405 41.681 101.985 42.0462L103.295 42.2813L104.669 42.4319C104.992 42.4754 105.12 42.54 105.12 42.7111L105.056 42.8617L104.691 42.9698H93.2042C92.8608 42.9698 92.668 42.8617 92.668 42.6906L92.9896 42.4324L94.9222 42.2819C95.673 42.1532 96.1464 41.8962 96.4039 41.5094L96.7267 40.5433V27.6612L96.5109 26.7163L96.1469 26.5017C96.0388 26.3947 95.8677 26.3306 95.6096 26.2871C95.2879 26.2666 94.9011 26.3306 94.4936 26.5017L93.3994 26.8028L92.7756 26.6523C92.6686 26.5017 92.7115 26.3947 92.8614 26.3306L93.7845 25.9438C95.8882 25.3211 97.5845 24.6773 98.7663 24.0123L100.226 23.2174L100.87 23.2597L101.128 23.7971V28.5202C102.739 25.9009 104.026 24.291 104.907 23.7536C105.443 23.432 105.959 23.1739 106.346 23.0669L107.096 23.0028C107.569 22.9593 108.106 23.1098 108.706 23.4967C109.523 23.9688 109.952 24.6773 109.995 25.5786C110.038 26.3306 109.822 26.911 109.35 27.3607C108.921 27.7259 108.491 27.8341 108.105 27.7259C107.74 27.6618 107.461 27.5113 107.268 27.2967L106.667 26.5458C106.195 25.8579 105.744 25.6433 105.207 25.8373C104.582 26.0073 103.939 26.4806 103.273 27.2314ZM58.4001 9.58268C57.6051 9.58268 56.9613 9.86196 56.4251 10.3988C55.8454 10.9356 55.5661 11.6223 55.6084 12.4172C55.5661 13.1686 55.8448 13.813 56.4251 14.3498C56.9613 14.8866 57.6057 15.1653 58.4001 15.1653C59.1509 15.1653 59.817 14.8861 60.3533 14.3498C60.8895 13.813 61.1905 13.1692 61.1905 12.4172C61.1905 11.6223 60.8895 10.9356 60.3533 10.3988C59.817 9.86196 59.1509 9.58268 58.4001 9.58268ZM69.7794 26.7158C70.552 25.6857 71.5192 24.8266 72.678 24.1399C73.7093 23.5384 74.7394 23.1521 75.813 22.9581L79.7853 22.7229C81.2228 22.787 82.5551 23.0663 83.7575 23.6025C86.6561 24.8907 88.4806 27.2532 89.1673 30.688C89.8758 34.1664 89.2755 37.1085 87.3852 39.4915C85.7754 41.5094 83.6493 42.7976 80.9659 43.3555C78.1537 43.9782 75.5343 43.7848 73.1719 42.8193C70.101 41.5734 68.2342 39.1046 67.6322 35.4975C67.0954 32.0844 67.8039 29.1852 69.7794 26.7158ZM82.3605 25.7503C81.0511 24.291 79.3978 23.6466 77.4005 23.8177C75.4691 24.0117 73.9874 25.0842 73.0208 27.1238C72.1412 28.9706 71.8184 31.226 72.1412 33.8877C72.3764 36.5288 73.2148 38.6325 74.5666 40.2429C76.0053 41.9392 77.6374 42.6476 79.4619 42.326C81.3727 41.9609 82.7691 40.9296 83.6922 39.2128C84.5936 37.4524 84.9152 35.1765 84.7006 32.2778C84.4436 29.3792 83.6928 27.2314 82.3605 25.7503ZM52.4523 26.6952V26.9098L51.9796 26.6088V26.7158L52.0225 26.9098H51.9578V26.5012H51.9796L52.4088 26.8239V26.5012H52.4946L52.4523 26.6952Z" fill="#3C2A21"/>
</g>
</svg>
