<svg width="184" height="18" viewBox="0 0 184 18" fill="none" xmlns="http://www.w3.org/2000/svg">
<g id="brand-6">
<path id="Vector" fill-rule="evenodd" clip-rule="evenodd" d="M0.333252 0.647411H6.31184C10.5432 0.684648 14.0014 4.4182 14.0014 8.98079C14.0014 13.561 10.5432 17.2946 6.31184 17.3328H0.333252V0.647411ZM2.94576 2.67097V15.3641H5.63177C9.49468 15.2553 11.4085 12.2557 11.4085 9.05526C11.4085 5.87243 9.45842 3.27854 6.31282 2.74545L2.94576 2.67097ZM24.0644 0.261311C29.1414 0.261311 33.2807 4.19772 33.2807 8.9994C33.2807 13.8011 29.1414 17.7199 24.0644 17.7199C19.0059 17.7199 14.8667 13.8001 14.8667 8.9994C14.8667 4.1987 19.0059 0.261311 24.0644 0.261311ZM24.1016 2.377C27.7803 2.377 30.7789 5.33836 30.7789 8.98079C30.7789 12.6036 27.7803 15.5669 24.1016 15.5669C20.4229 15.5669 17.4057 12.6046 17.4057 8.98079C17.4047 5.33836 20.4219 2.377 24.1016 2.377ZM33.998 0.684643H36.4625V15.4004H41.1721V17.3142H33.998V0.684643ZM49.1752 0.169195C51.0881 0.169195 52.8725 0.739525 54.3444 1.69594V4.73178C53.1116 3.25992 51.2723 2.3035 49.1939 2.3035C45.5152 2.3035 42.5166 5.30211 42.5166 8.98079C42.5166 12.6418 45.5152 15.6395 49.1939 15.6395C51.2733 15.6395 53.1126 14.684 54.3444 13.2122V16.2842C52.8105 17.2957 51.0126 17.8328 49.1752 17.8286C44.0982 17.8286 39.9589 13.855 39.9589 8.99842C39.9589 4.14284 44.0982 0.169195 49.1752 0.169195ZM57.7105 15.3465H63.6705V17.3142H55.1166V0.683663H63.6705V2.56024H57.7105V7.50892H63.6705V9.53151H57.7105V15.3465ZM73.0524 16.2656C72.7829 16.5239 72.4722 16.7356 72.1332 16.8918C71.7956 17.0763 71.4286 17.2007 71.0484 17.2593C70.9563 17.2789 70.8642 17.2955 70.772 17.2955C70.6799 17.3151 70.5878 17.3151 70.4967 17.3151C70.239 17.3151 69.9812 17.2789 69.7235 17.223C69.4719 17.1483 69.2354 17.0299 69.0248 16.8732C68.7827 16.6813 68.5877 16.4366 68.4545 16.1578C68.294 15.8878 68.1937 15.5863 68.1605 15.2739V15.1632C68.1419 15.1093 68.1419 15.0711 68.1419 15.0348C68.1419 14.9986 68.1419 14.979 68.1605 14.9427V14.832V14.7957C68.1791 14.7781 68.1791 14.7781 68.1791 14.7595V14.687V14.6311C68.2899 14.1166 68.529 13.7109 68.8965 13.3797C69.2453 13.0485 69.6314 12.7535 70.0371 12.5144C69.8182 12.2575 69.6157 11.9872 69.4305 11.705C69.2487 11.447 69.152 11.1387 69.1542 10.8231V10.6761C69.1728 10.6398 69.1728 10.6036 69.1728 10.5477C69.1914 10.5477 69.1914 10.5281 69.1914 10.5114V10.4918C69.2042 10.4699 69.2107 10.4448 69.21 10.4193C69.21 10.3997 69.2286 10.3831 69.2286 10.3635C69.3208 9.95778 69.5226 9.64617 69.8539 9.42568C70.1602 9.22018 70.5156 9.09947 70.8838 9.07584H71.1229C71.5648 9.1121 71.9882 9.27868 72.3556 9.57365C72.7241 9.84901 72.9073 10.2527 72.9073 10.7868C72.9073 11.2827 72.7417 11.6883 72.4477 11.9833C72.1538 12.2949 71.8039 12.5713 71.4355 12.829L73.2023 14.9633C73.3679 14.7604 73.5511 14.5576 73.7168 14.3567C73.8637 14.1539 74.0294 13.9314 74.1587 13.7119L74.7653 14.3381C74.6582 14.542 74.5287 14.7332 74.3792 14.9084C74.2508 15.073 74.1029 15.2583 73.9559 15.4229C73.9185 15.4593 73.8815 15.4962 73.8451 15.5336L73.7344 15.6424L75.022 17.2064H73.8814L73.0524 16.2656ZM70.8269 16.5047C71.1395 16.4685 71.4335 16.3764 71.6912 16.2098C71.9488 16.0431 72.1946 15.8591 72.4272 15.6591C72.4458 15.6591 72.4644 15.6395 72.483 15.6228C72.5016 15.6228 72.5202 15.6032 72.5389 15.5865L70.5329 13.1945C70.5143 13.1945 70.5143 13.2141 70.4967 13.2308C70.4781 13.2308 70.4594 13.2504 70.4408 13.267C70.4046 13.2866 70.3859 13.3052 70.3487 13.3229C70.3301 13.3229 70.3125 13.3425 70.2929 13.3611C70.1273 13.4699 69.9803 13.5816 69.8333 13.6904C69.6863 13.8011 69.5569 13.9491 69.4462 14.0961C69.409 14.1686 69.3541 14.243 69.3178 14.3352C69.2759 14.4163 69.2449 14.5026 69.2257 14.5919L69.1708 14.8143C69.1522 14.8869 69.1522 14.9613 69.1522 15.0348C69.1522 15.4219 69.2992 15.7717 69.5942 16.0834C69.8695 16.3783 70.238 16.543 70.679 16.543C70.679 16.543 70.6976 16.543 70.6976 16.5253H70.772C70.7907 16.5253 70.7907 16.5057 70.8093 16.5057L70.8269 16.5047ZM70.091 10.6731V10.729C70.091 10.7486 70.0724 10.7652 70.0724 10.7848V10.8211C70.0724 11.024 70.1273 11.2082 70.238 11.3738C70.3477 11.558 70.4771 11.7217 70.6241 11.8696C70.6613 11.9255 70.7162 11.9804 70.7534 12.0343C70.7897 12.0901 70.8455 12.1283 70.8818 12.1813C70.919 12.1636 70.9367 12.145 70.9739 12.1274C70.9986 12.1034 71.0316 12.0897 71.066 12.0891C71.2865 11.9608 71.4707 11.8138 71.655 11.6492C71.8392 11.4826 71.949 11.2797 71.9862 11.023V10.9671V10.9113C71.9862 10.8936 72.0048 10.875 72.0048 10.8554V10.8191C72.0048 10.5624 71.9127 10.3409 71.7294 10.193C71.5631 10.0363 71.3494 9.93938 71.1219 9.91761H70.9553C70.7711 9.91761 70.5878 9.99208 70.4222 10.1018C70.3293 10.1678 70.2517 10.2529 70.1945 10.3515C70.1374 10.4501 70.1021 10.5597 70.091 10.6731ZM88.4501 0.0957031C91.7603 0.0957031 94.6864 1.78806 96.3229 4.30845L94.1719 5.41186C93.5645 4.44836 92.7229 3.6545 91.7255 3.10442C90.7282 2.55434 89.6077 2.26599 88.4687 2.26627C84.7528 2.24765 81.7356 5.26487 81.7356 8.98079C81.7356 12.6781 84.7528 15.6953 88.4687 15.6953C91.5957 15.6953 94.0612 14.1313 94.2445 10.876H88.8734V8.90729H94.1161C94.1161 8.87005 96.7845 8.90729 96.9491 8.90729V8.9994C96.9491 14.2058 94.1161 17.9041 88.4511 17.9041C82.7665 17.9041 79.1613 13.8922 79.1613 8.9994C79.1613 4.10658 83.3358 0.0957031 88.4501 0.0957031ZM95.5517 17.3142L102.431 0.629767H104.069L111.003 17.3142H108.299L106.387 12.6036H100.077L98.2014 17.3142H95.5517ZM101.033 10.4889L103.259 4.56617L105.522 10.4889H101.033ZM135.176 17.3142L142.057 0.629767H143.693L150.629 17.3142H147.924L146.011 12.6036H139.701L137.825 17.3142H135.176ZM140.677 10.4889L142.884 4.56617L145.146 10.4889H140.677ZM168.214 17.3142L175.094 0.629767H176.731L183.667 17.3142H180.962L179.048 12.6036H172.738L170.863 17.3142H168.214ZM173.696 10.4889L175.921 4.56617L178.186 10.4889H173.696ZM116.963 2.57985C118.602 2.76407 119.208 3.46277 119.208 5.10024C119.228 6.73673 118.104 7.60202 116.67 7.60202H114.498V2.56122H116.963V2.57985ZM117.093 9.6246H117.221C118.434 9.6246 120.605 9.90193 120.605 12.6046C120.605 14.7771 118.71 15.4013 116.909 15.3837L117.349 15.4013H114.498V9.6246H117.093ZM113.891 17.3142H118.196C121.14 17.3142 123.256 15.3827 123.256 12.6036C123.256 10.4713 121.93 8.83282 120.054 8.18998C121.122 7.50892 121.729 6.29478 121.729 4.74942C121.729 2.22903 120.034 0.684644 117.534 0.628787C116.172 0.610168 114.793 0.628787 113.413 0.628787H111.905V17.3132L113.891 17.3142ZM129.601 2.57985C131.239 2.76407 131.846 3.46277 131.865 5.10024C131.883 6.73673 130.761 7.60202 129.325 7.60202H127.155V2.56122H129.601V2.57985ZM129.748 9.6246H129.878C131.072 9.6246 133.262 9.90193 133.262 12.6046C133.262 14.7771 131.35 15.4013 129.564 15.3837L129.988 15.4013H127.155V9.6246H129.748ZM126.548 17.3142H130.853C133.777 17.3142 135.911 15.3827 135.911 12.6036C135.911 10.4713 134.57 8.83282 132.692 8.18998C133.777 7.50892 134.367 6.29478 134.367 4.74942C134.367 2.22903 132.675 0.684644 130.19 0.628787C128.811 0.610168 127.431 0.628787 126.052 0.628787H124.562V17.3132L126.548 17.3142ZM151.731 0.684643H153.314L164.995 13.0269V0.684643H167.258V17.3142H165.529L154.085 5.09926V17.3142H151.731V0.684643Z" fill="#3C2A21"/>
</g>
</svg>
