<svg width="148" height="24" viewBox="0 0 148 24" fill="none" xmlns="http://www.w3.org/2000/svg">
<g id="brand-10">
<path id="Vector" fill-rule="evenodd" clip-rule="evenodd" d="M142.169 1.35995H147.334C146.761 1.80279 146.418 2.34515 146.418 3.08748V20.8294C146.418 21.5708 146.776 22.0995 147.334 22.5414H142.169C142.726 22.0995 143.069 21.5571 143.069 20.8294V3.08657C143.07 2.34424 142.741 1.80188 142.169 1.35995ZM22.458 8.98136C21.6141 7.16891 20.6842 5.38477 19.1246 4.08638C17.4652 2.68756 15.3609 1.84571 13.1862 1.84571C7.40614 1.84571 4.81587 7.05477 4.81587 12.1789C4.81587 17.1323 7.29172 22.1415 12.8713 22.1415C15.1458 22.1415 17.3645 21.1572 18.7658 19.3721V15.3756C18.7658 14.2909 18.4079 13.5924 17.564 12.9505H23.4731C22.8434 13.6636 22.458 14.3913 22.458 15.3756V19.3721C19.7534 21.8849 16.3915 23.4252 12.6571 23.4252C6.06158 23.4252 0.66687 18.5869 0.66687 11.8502C0.66687 5.1565 5.98927 0.574707 12.4997 0.574707C16.5489 0.574707 19.8248 2.05937 22.458 5.04237V8.98136ZM36.937 1.35995H42.5029C41.7441 1.91601 41.4869 2.54421 41.4869 3.47189V16.4183C41.4869 19.9711 45.6643 21.7132 48.7268 21.7132C51.7317 21.7132 55.6519 19.9583 55.6519 16.4895V3.47189C55.6519 2.60082 55.4368 2.00184 54.851 1.35995H57.8843C57.2692 1.98814 57.0404 2.61543 57.0404 3.47189V16.4895C57.0404 21.1709 51.5038 22.9687 47.6687 22.9687C43.7202 22.9687 37.9539 21.2284 37.9539 16.4183V3.47189C37.953 2.58712 37.5951 1.93062 36.937 1.35995ZM92.6789 9.05258C91.9357 7.18261 91.0625 5.54182 89.5313 4.18591C87.8865 2.72956 85.8829 1.81648 83.6661 1.81648C77.9437 1.81648 75.0102 6.8119 75.0102 11.9936C75.0102 17.2027 78.0581 22.1269 83.7091 22.1269C87.9158 22.1269 90.9207 19.1721 92.6799 15.6176V19.4716C90.063 22.0556 86.6856 23.3686 82.9943 23.3686C76.1543 23.3686 71.0324 18.9585 71.0324 11.9224C71.0324 5.08619 75.9539 0.590235 82.6648 0.590235C86.3845 0.590235 89.9889 1.87492 92.6789 4.42969V9.05258ZM128.563 9.05258C127.82 7.18261 126.945 5.54182 125.415 4.18591C123.77 2.72956 121.767 1.81648 119.55 1.81648C113.826 1.81648 110.907 6.8119 110.907 11.9936C110.907 17.2027 113.94 22.1269 119.593 22.1269C123.8 22.1269 126.817 19.1721 128.564 15.6176V19.4716C125.945 22.0556 122.582 23.3686 118.878 23.3686C112.038 23.3686 106.917 18.9585 106.917 11.9224C106.917 5.08619 111.839 0.590235 118.548 0.590235C122.267 0.590235 125.874 1.87492 128.564 4.42969L128.563 9.05258Z" fill="#3C2A21"/>
</g>
</svg>
