<svg width="148" height="82" viewBox="0 0 148 82" fill="none" xmlns="http://www.w3.org/2000/svg">
<g id="brand-5">
<path id="Vector" fill-rule="evenodd" clip-rule="evenodd" d="M135.848 18.9915C136.423 19.4456 137.222 19.5612 137.902 19.2945C139.38 18.7023 139.406 16.584 140.987 16.1602C141.547 16.0427 142.119 16.0021 142.69 16.0393C143.046 16.0652 143.406 16.0367 143.754 15.9556C144.052 15.8879 144.329 15.746 144.558 15.5431C144.787 15.3401 144.961 15.0827 145.064 14.7946C145.298 14.1299 145.054 13.3512 144.713 12.7651C144.426 12.2742 144.186 11.7574 143.995 11.2217C143.861 10.6723 143.926 10.0932 144.177 9.58676C144.51 8.93417 145.12 7.98635 145.094 7.15076C145.048 6.06483 144.109 5.27154 143.051 5.27672C142.525 5.27413 141.999 5.26463 141.473 5.25427C140.443 5.23355 139.669 4.43421 139.219 3.58136C138.816 2.80101 138.163 1.95505 137.233 1.82125C136.026 1.6512 135.09 2.66635 134.66 3.67631C134.465 4.13371 134.141 4.52458 133.728 4.80158C133.314 5.07858 132.83 5.22983 132.332 5.23701C131.82 5.21431 131.307 5.20883 130.795 5.2206C129.748 5.24477 128.904 6.16928 128.976 7.20687C129.033 7.59359 129.151 7.96909 129.325 8.31955C129.822 9.27341 130.535 10.5087 129.974 11.605C129.463 12.558 128.764 13.6681 129.162 14.7954C129.35 15.1679 129.642 15.4778 130.003 15.6874C130.364 15.897 130.778 15.9974 131.195 15.9763C131.571 15.9521 131.948 15.9469 132.325 15.959C132.959 15.9517 133.577 16.1646 134.073 16.5616C134.78 17.3013 135.064 18.3165 135.848 18.9915ZM126.894 10.6546C126.894 5.01171 131.47 0.435791 137.115 0.435791C142.757 0.435791 147.333 5.01171 147.333 10.6546C147.333 16.2991 142.757 20.8742 137.115 20.8742C131.47 20.8742 126.894 16.2991 126.894 10.6546ZM0.877251 44.7672V14.426H4.1428L17.6271 30.7554L31.1123 14.8481H34.2725V44.8725H25.7396V34.5476L17.6271 43.2919L9.72695 34.3369V44.7672H0.877251ZM71.6714 45.0831H79.4663V31.2829L94.8471 44.9778H97.4808V14.9534H89.4753V28.0165L74.7272 14.8481H71.6714V45.0831ZM100.746 22.4332V15.164H124.03V22.327H116.549V45.0831H108.331V22.4332H100.746ZM71.5031 81.2373H79.2971V67.4379L94.6788 81.1328H97.3142V51.1092H89.307V64.1723L74.558 51.0031H71.5031V81.2373ZM8.77914 68.0482V74.2642L12.9925 74.2426C12.9925 74.2426 15.8368 73.8429 15.8368 71.1048C15.8368 67.942 12.2562 67.986 12.2562 67.986L8.77914 68.0482ZM8.98977 56.0589L9.01048 62.1921L12.9925 62.2542C12.9925 62.2542 15.9007 62.5693 15.9007 59.3038C15.9007 56.0382 12.9925 56.1427 12.9925 56.1427L8.98977 56.0589ZM0.666626 50.6655H15.9413C15.9413 50.6655 22.7892 50.8762 22.7892 58.04C22.7892 64.0454 18.8917 65.0977 18.8917 65.0977C18.8917 65.0977 23.5488 66.1871 23.5488 72.0941C23.5488 80.7331 14.7845 81.0059 14.7845 81.0059H0.666626V50.6655ZM25.908 50.5611H34.0619V73.8222H40.5939V81.1129H25.8449L25.908 50.5611ZM41.8153 81.1129L54.0998 50.4765H57.9756L70.2169 81.0905L61.2835 81.0706L56.1007 67.942L50.3275 81.0905L41.8153 81.1129ZM122.555 57.5143L123.292 50.7717C123.292 50.7717 113.525 49.0893 108.964 51.8257C105.805 53.7205 99.9591 56.4387 100.074 66.5531C100.178 75.9285 108.86 79.7422 108.86 79.7422C108.86 79.7422 112.758 82.7349 123.609 81.0491C123.816 81.0171 123.609 74.4757 123.609 74.4757C123.609 74.4757 118.131 75.2129 115.371 74.3911C113.705 73.8956 108.205 71.8843 108.205 65.563C108.205 59.2416 114.759 57.5143 114.759 57.5143C117.498 56.3541 122.555 57.5143 122.555 57.5143ZM45.2285 29.5961C45.2285 34.0762 48.6719 37.7078 52.9189 37.7078C57.1668 37.7078 60.6102 34.0762 60.6102 29.5961C60.6102 25.1169 57.1668 21.4845 52.9189 21.4845C48.6719 21.4845 45.2285 25.1169 45.2285 29.5961ZM37.8549 29.5443C37.8549 20.6713 44.5759 13.4781 52.8671 13.4781C61.1574 13.4781 67.8793 20.6713 67.8793 29.5443C67.8793 38.4182 61.1574 45.6097 52.8671 45.6097C44.5759 45.6097 37.8549 38.4182 37.8549 29.5443Z" fill="#3C2A21"/>
</g>
</svg>
