<svg width="148" height="20" viewBox="0 0 148 20" fill="none" xmlns="http://www.w3.org/2000/svg">
<path id="Vector" d="M74.0345 19.72C78.2355 19.7008 81.3987 17.5927 81.4047 13.7983C81.428 10.4096 77.8814 9.43646 74.6819 8.81536C72.0558 8.30958 69.7019 7.34556 69.6756 5.1009C69.6756 5.04324 69.6756 4.98255 69.6807 4.91882C69.8142 3.16173 71.8576 2.19063 73.7522 2.18456C75.5852 2.17849 76.9518 2.95942 78.1859 4.41506L80.1039 2.9048C77.2553 0.971698 75.8836 0.938314 73.7533 0.92921C72.5576 0.927186 70.7772 1.22054 69.3297 2.05002C67.8751 2.88659 66.7553 4.21578 66.7512 6.38053V6.46752C66.7735 10.3641 71.3235 11.0469 72.7872 11.3433C74.5574 11.7155 77.9775 12.4813 78.015 15.4411C77.9887 17.4207 75.7976 18.4677 74.0142 18.4718L73.99 18.4738C72.4382 18.4697 70.0196 18.148 68.3758 15.8255L66.2829 17.4167C67.9803 18.847 69.967 19.7129 74.0345 19.72ZM24.478 19.2476H36.4761V18.1248H28.0528V10.5927H34.8111V9.54369L28.0528 9.56898V2.34034H36.4761V1.22459H24.478V19.2476ZM110.673 10.3034C110.704 17.1051 114.157 19.6512 119.69 19.6866C123.799 19.6826 125.73 18.7206 126.719 17.3681C127.266 16.6135 127.415 16.041 127.442 15.2742H125.043C124.905 17.3186 123.125 18.9684 120.74 18.9704C119.321 18.9704 117.721 18.755 116.481 17.5502C115.246 16.3465 114.423 14.206 114.423 10.4794C114.425 6.48067 115.225 4.22995 116.344 2.96751C117.464 1.70508 118.89 1.49164 119.968 1.49366C121.081 1.49366 122.182 1.85075 123.023 2.61144C123.813 3.33673 124.351 4.43125 124.395 5.88284H127.479C127.364 3.22243 125.707 0.972707 119.968 0.93528C114.083 0.982823 110.71 3.49858 110.673 10.3034ZM7.11243 19.2476H10.4314L17.1542 1.22863H15.4002L9.8477 16.8229L9.61302 17.4895L4.30433 1.22661H0.666748L7.11243 19.2476ZM51.2773 11.3564L56.1308 19.2476H59.7745L54.8481 11.2512L54.6944 10.9983L54.9726 10.8941C56.6457 10.2831 58.9642 8.96204 58.9601 6.03558C58.948 3.13341 56.7671 1.2519 50.9101 1.22459L44.0608 1.22358V19.2456H47.6337V11.3554L51.2773 11.3564ZM50.0847 10.5451L47.6337 10.5401V2.0915H50.5682C53.4319 2.09554 55.3044 3.9113 55.3094 6.10032C55.3033 8.28227 53.3692 10.5411 50.0847 10.5451ZM99.7859 12.9425L102.377 19.2466H105.759L98.0844 1.22661H94.7412L86.3958 19.2466H87.9758L90.88 13.0781L90.9417 12.9385L99.7859 12.9425ZM91.4061 11.9259L95.3997 3.36708L95.6314 2.87243L99.3772 11.9259H91.4061ZM135.332 19.2507H147.331V18.1238H138.908V10.5896H145.667V9.54268L138.908 9.56797V2.33933H147.333V1.22661H135.332V19.2507Z" fill="#3C2A21"/>
</svg>
