<svg width="236" height="242" viewBox="0 0 236 242" fill="none" xmlns="http://www.w3.org/2000/svg">
<rect x="0.126709" width="235.746" height="241.226" rx="10" fill="#1A120B"/>
<rect x="108.298" y="12.9365" width="19.4049" height="25.8732" rx="3.88098" fill="url(#paint0_linear_140_3881)"/>
<circle cx="118.003" cy="25.8731" r="3.23415" fill="#3C2A21"/>
<circle cx="118.003" cy="25.8731" r="1.29366" fill="#E5E5CB"/>
<path d="M105.061 51.7464L59.3227 97.4842" stroke="url(#paint1_linear_140_3881)" stroke-width="6.46831" stroke-linecap="round"/>
<path d="M130.939 51.7561L176.677 97.4939" stroke="url(#paint2_linear_140_3881)" stroke-width="6.46831" stroke-linecap="round"/>
<path d="M112.699 69.9967L140.141 97.4394" stroke="url(#paint3_linear_140_3881)" stroke-width="6.46831" stroke-linecap="round"/>
<path d="M112.699 70.0511L130.994 51.756" stroke="url(#paint4_linear_140_3881)" stroke-width="6.46831" stroke-linecap="round"/>
<path d="M105.066 143.272L123.361 124.977" stroke="url(#paint5_linear_140_3881)" stroke-width="6.46831" stroke-linecap="round"/>
<path d="M95.8811 97.5518L123.324 124.994" stroke="url(#paint6_linear_140_3881)" stroke-width="6.46831" stroke-linecap="round"/>
<path d="M105.009 143.16L59.2707 97.4223" stroke="url(#paint7_linear_140_3881)" stroke-width="6.46831" stroke-linecap="round"/>
<path d="M130.991 143.17L176.729 97.4321" stroke="url(#paint8_linear_140_3881)" stroke-width="6.46831" stroke-linecap="round"/>
<g filter="url(#filter0_d_140_3881)">
<path d="M33.2 185.417C34.096 183.583 35.216 182.153 36.56 181.129C37.9253 180.105 39.2693 179.593 40.592 179.593C41.9147 179.593 43.0027 180.127 43.856 181.193C44.7307 182.239 45.168 183.764 45.168 185.769C45.168 188.969 44.2933 191.689 42.544 193.929C40.7947 196.169 38.6933 197.289 36.24 197.289C35.3653 197.289 34.48 197.119 33.584 196.777C35.6747 196.287 37.3387 194.932 38.576 192.713C39.8133 190.495 40.432 188.287 40.432 186.089C40.432 185.065 40.24 184.233 39.856 183.593C39.4933 182.953 38.9707 182.633 38.288 182.633C36.9867 182.633 35.8347 183.423 34.832 185.001C33.8293 186.58 33.0613 188.745 32.528 191.497C31.9947 194.228 31.728 197.076 31.728 200.041C31.728 203.028 31.9413 205.62 32.368 207.817C30.6187 207.753 29.3173 207.465 28.464 206.953C27.632 206.463 27.216 205.513 27.216 204.105C27.216 203.593 27.536 200.895 28.176 196.009C28.8373 191.103 29.168 187.327 29.168 184.681C29.168 182.036 29.008 179.807 28.688 177.993C30.3947 178.42 31.568 179.209 32.208 180.361C32.8693 181.513 33.2 183.199 33.2 185.417ZM56.0933 189.417C55.0693 189.417 54.0666 189.3 53.0853 189.065C53.0639 189.279 53.0533 189.609 53.0533 190.057C53.0533 191.828 53.3839 193.161 54.0453 194.057C54.7066 194.953 55.4959 195.401 56.4133 195.401C57.3306 195.401 58.2053 195.124 59.0373 194.569C59.8693 194.015 60.5946 193.247 61.2133 192.265C61.9813 192.436 62.3653 192.831 62.3653 193.449C60.4879 196.329 58.0666 197.769 55.1013 197.769C53.3093 197.769 51.7413 197.087 50.3973 195.721C49.0533 194.335 48.3813 192.415 48.3813 189.961C48.3813 188.127 48.7333 186.388 49.4373 184.745C50.1413 183.081 51.2613 181.684 52.7973 180.553C54.3333 179.401 56.0293 178.825 57.8853 178.825C59.7626 178.825 61.1386 179.252 62.0133 180.105C62.8879 180.959 63.3253 182.079 63.3253 183.465C63.3253 185.471 62.6213 186.964 61.2133 187.945C59.8266 188.927 58.1199 189.417 56.0933 189.417ZM57.4373 180.809C56.3493 180.809 55.4319 181.481 54.6853 182.825C53.9386 184.169 53.4479 185.801 53.2133 187.721H53.6933C55.5493 187.721 56.9146 187.241 57.7893 186.281C58.6853 185.321 59.1333 184.169 59.1333 182.825C59.1333 182.271 58.9839 181.801 58.6853 181.417C58.4079 181.012 57.9919 180.809 57.4373 180.809ZM71.6315 186.889C72.3995 184.116 73.3168 182.079 74.3835 180.777C75.4715 179.455 76.4742 178.793 77.3915 178.793C78.3302 178.793 79.0342 179.145 79.5035 179.849C79.9728 180.532 80.2075 181.428 80.2075 182.537C80.2075 183.625 79.8768 184.628 79.2155 185.545C78.5755 186.463 77.6902 186.921 76.5595 186.921C76.2608 186.921 75.9088 186.836 75.5035 186.665C76.1648 185.833 76.4955 184.831 76.4955 183.657C76.4955 182.975 76.2182 182.633 75.6635 182.633C75.2582 182.633 74.8208 182.921 74.3515 183.497C73.8822 184.052 73.4342 184.831 73.0075 185.833C72.5808 186.815 72.2182 188.084 71.9195 189.641C71.6422 191.177 71.5035 192.82 71.5035 194.569C71.5035 194.783 71.5568 195.689 71.6635 197.289C70.9808 197.332 70.5435 197.353 70.3515 197.353C69.1355 197.353 68.2608 197.14 67.7275 196.713C67.1942 196.287 66.9275 195.583 66.9275 194.601C66.9275 194.175 67.1515 192.532 67.5995 189.673C68.0475 186.815 68.2715 184.543 68.2715 182.857C68.2715 181.151 68.0902 179.583 67.7275 178.153C69.2848 178.644 70.3728 179.348 70.9915 180.265C71.6102 181.161 71.9195 182.217 71.9195 183.433C71.9195 184.628 71.8235 185.78 71.6315 186.889ZM92.588 178.601C92.6307 179.028 92.652 179.348 92.652 179.561C92.652 180.585 92.4707 181.3 92.108 181.705C91.7453 182.089 91.1053 182.281 90.188 182.281C89.292 182.281 88.5987 182.271 88.108 182.249C87.276 188.308 86.86 192.649 86.86 195.273C86.86 196.532 86.8813 197.439 86.924 197.993C86.988 198.569 87.1373 199.54 87.372 200.905C85.836 200.415 84.7053 199.615 83.98 198.505C83.2547 197.417 82.892 196.127 82.892 194.633C82.892 192.393 83.212 189.087 83.852 184.713C84.0013 183.604 84.0973 182.868 84.14 182.505C83.0093 182.697 81.8573 183.06 80.684 183.593C80.6413 183.124 80.62 182.772 80.62 182.537C80.62 181.385 80.972 180.607 81.676 180.201C82.38 179.796 83.3933 179.583 84.716 179.561C85.1427 177.471 85.708 175.668 86.412 174.153C87.1373 172.639 87.9267 171.497 88.78 170.729C90.4013 169.236 92.0973 168.489 93.868 168.489C95.0627 168.489 96.0653 168.852 96.876 169.577C97.708 170.281 98.124 171.156 98.124 172.201C98.124 173.225 97.772 174.121 97.068 174.889C96.364 175.657 95.436 176.041 94.284 176.041C93.836 176.041 93.3987 175.967 92.972 175.817C93.3133 175.561 93.644 175.113 93.964 174.473C94.3053 173.833 94.476 173.236 94.476 172.681C94.476 172.105 94.348 171.657 94.092 171.337C93.8573 171.017 93.5373 170.857 93.132 170.857C92.2573 170.857 91.3613 171.593 90.444 173.065C89.548 174.516 88.876 176.713 88.428 179.657C90.3267 179.657 91.7133 179.305 92.588 178.601ZM105.139 178.825C105.779 178.783 106.227 178.761 106.483 178.761C107.592 178.761 108.435 178.964 109.01 179.369C109.587 179.775 109.875 180.521 109.875 181.609C109.875 181.951 109.672 183.455 109.267 186.121C108.861 188.767 108.659 191.039 108.659 192.937C108.659 194.836 108.861 196.511 109.267 197.961C107.667 197.449 106.557 196.724 105.939 195.785C105.32 194.847 105.011 193.684 105.011 192.297C105.011 191.764 105.128 190.559 105.363 188.681C104.701 191.113 103.688 193.161 102.323 194.825C100.979 196.468 99.7092 197.289 98.5145 197.289C96.0612 197.289 94.8345 195.519 94.8345 191.977C94.8345 190.804 95.0052 189.172 95.3465 187.081C95.7092 184.969 95.8905 183.369 95.8905 182.281C95.8905 181.193 95.7412 180.095 95.4425 178.985C97.2132 178.985 98.4932 179.22 99.2825 179.689C100.093 180.137 100.499 181.044 100.499 182.409C100.499 183.135 100.275 184.575 99.8265 186.729C99.3785 188.884 99.1545 190.505 99.1545 191.593C99.1545 193.172 99.5812 193.961 100.435 193.961C100.861 193.961 101.352 193.673 101.907 193.097C102.461 192.5 102.995 191.721 103.507 190.761C104.019 189.78 104.445 188.564 104.787 187.113C105.149 185.641 105.331 184.159 105.331 182.665C105.331 181.151 105.267 179.871 105.139 178.825ZM128.033 193.897C128.033 194.964 128.097 196.095 128.225 197.289C127.542 197.332 127.094 197.353 126.881 197.353C125.686 197.353 124.822 197.151 124.289 196.745C123.755 196.319 123.489 195.7 123.489 194.889C123.489 194.079 123.713 192.415 124.161 189.897C124.63 187.359 124.865 185.439 124.865 184.137C124.865 182.815 124.438 182.153 123.585 182.153C123.115 182.153 122.603 182.441 122.049 183.017C121.494 183.572 120.971 184.34 120.481 185.321C119.99 186.281 119.574 187.519 119.233 189.033C118.913 190.548 118.753 192.009 118.753 193.417C118.753 194.804 118.817 196.095 118.945 197.289C118.262 197.332 117.814 197.353 117.601 197.353C116.406 197.353 115.542 197.151 115.009 196.745C114.475 196.319 114.209 195.615 114.209 194.633C114.209 194.399 114.422 192.809 114.849 189.865C115.297 186.921 115.521 184.596 115.521 182.889C115.521 181.161 115.339 179.583 114.977 178.153C116.555 178.644 117.654 179.348 118.273 180.265C118.891 181.183 119.201 182.313 119.201 183.657C119.201 184.34 119.126 185.204 118.977 186.249C119.702 184.116 120.705 182.345 121.985 180.937C123.286 179.529 124.534 178.825 125.729 178.825C126.945 178.825 127.819 179.273 128.353 180.169C128.907 181.065 129.185 182.356 129.185 184.041C129.995 182.484 130.923 181.225 131.969 180.265C133.014 179.305 133.974 178.825 134.849 178.825C136.15 178.825 137.067 179.22 137.601 180.009C138.155 180.777 138.433 181.833 138.433 183.177C138.433 184.5 138.219 186.367 137.793 188.777C137.387 191.188 137.185 192.948 137.185 194.057C137.185 195.145 137.323 195.945 137.601 196.457C137.878 196.948 138.347 197.375 139.009 197.737C138.731 197.759 138.337 197.769 137.825 197.769C136.033 197.769 134.753 197.492 133.985 196.937C133.238 196.383 132.865 195.412 132.865 194.025C132.865 193.236 133.078 191.7 133.505 189.417C133.931 187.113 134.145 185.396 134.145 184.265C134.145 182.857 133.718 182.153 132.865 182.153C132.225 182.153 131.531 182.623 130.785 183.561C130.059 184.479 129.419 185.876 128.865 187.753C128.31 189.609 128.033 191.657 128.033 193.897ZM149.906 189.417C148.882 189.417 147.879 189.3 146.898 189.065C146.876 189.279 146.866 189.609 146.866 190.057C146.866 191.828 147.196 193.161 147.858 194.057C148.519 194.953 149.308 195.401 150.226 195.401C151.143 195.401 152.018 195.124 152.85 194.569C153.682 194.015 154.407 193.247 155.026 192.265C155.794 192.436 156.178 192.831 156.178 193.449C154.3 196.329 151.879 197.769 148.914 197.769C147.122 197.769 145.554 197.087 144.21 195.721C142.866 194.335 142.194 192.415 142.194 189.961C142.194 188.127 142.546 186.388 143.25 184.745C143.954 183.081 145.074 181.684 146.61 180.553C148.146 179.401 149.842 178.825 151.698 178.825C153.575 178.825 154.951 179.252 155.826 180.105C156.7 180.959 157.138 182.079 157.138 183.465C157.138 185.471 156.434 186.964 155.026 187.945C153.639 188.927 151.932 189.417 149.906 189.417ZM151.25 180.809C150.162 180.809 149.244 181.481 148.498 182.825C147.751 184.169 147.26 185.801 147.026 187.721H147.506C149.362 187.721 150.727 187.241 151.602 186.281C152.498 185.321 152.946 184.169 152.946 182.825C152.946 182.271 152.796 181.801 152.498 181.417C152.22 181.012 151.804 180.809 151.25 180.809ZM173.671 166.665C175.185 167.071 176.22 167.807 176.775 168.873C177.351 169.919 177.639 171.081 177.639 172.361C177.639 173.641 177.436 175.828 177.031 178.921C176.625 181.993 176.348 184.447 176.199 186.281C176.839 183.999 177.745 182.185 178.919 180.841C180.113 179.497 181.393 178.825 182.759 178.825C184.124 178.825 185.297 179.476 186.279 180.777C187.281 182.079 187.783 183.743 187.783 185.769C187.783 188.905 186.94 191.615 185.255 193.897C183.591 196.159 181.681 197.289 179.527 197.289C178.78 197.289 178.033 197.119 177.286 196.777C178.204 196.521 179.036 195.999 179.783 195.209C180.529 194.42 181.137 193.513 181.607 192.489C182.567 190.356 183.047 188.223 183.047 186.089C183.047 185.044 182.844 184.127 182.439 183.337C182.055 182.548 181.532 182.153 180.871 182.153C179.804 182.153 178.716 183.241 177.607 185.417C176.519 187.593 175.943 190.303 175.879 193.545V194.153C175.921 194.9 176.103 196.137 176.423 197.865C173.351 197.161 171.815 194.953 171.815 191.241C171.815 189.727 172.167 186.676 172.871 182.089C173.596 177.503 173.959 174.153 173.959 172.041C173.959 169.929 173.863 168.137 173.671 166.665ZM195.451 190.825C195.451 193.364 196.219 194.633 197.755 194.633C198.565 194.633 199.355 194.196 200.123 193.321C200.891 192.447 201.509 191.273 201.979 189.801C202.469 188.329 202.885 186.761 203.227 185.097C203.589 183.412 203.856 181.631 204.027 179.753C204.325 176.127 204.475 173.3 204.475 171.273C204.475 169.225 204.389 167.689 204.219 166.665C205.755 167.007 206.832 167.732 207.451 168.841C208.069 169.951 208.378 171.348 208.378 173.033C208.378 174.719 208.016 177.855 207.291 182.441C206.587 187.028 206.235 190.377 206.235 192.489C206.235 194.601 206.331 196.393 206.523 197.865C205.008 197.46 203.963 196.735 203.387 195.689C202.832 194.623 202.555 193.289 202.555 191.689C201.893 193.524 200.901 194.975 199.579 196.041C198.256 197.108 196.891 197.641 195.483 197.641C194.075 197.641 192.923 197.108 192.027 196.041C191.152 194.953 190.715 193.364 190.715 191.273C190.715 187.967 191.621 185.129 193.435 182.761C195.248 180.372 197.392 179.177 199.867 179.177C200.571 179.177 201.68 179.348 203.195 179.689C201.872 180.031 200.688 180.628 199.643 181.481C198.619 182.313 197.819 183.273 197.243 184.361C196.048 186.516 195.451 188.671 195.451 190.825Z" fill="#D49F6A"/>
</g>
<path d="M69.1972 216.446C69.1972 215.982 69.2857 215.547 69.4628 215.141C69.6399 214.735 69.8795 214.381 70.1816 214.078C70.4889 213.771 70.8456 213.529 71.2519 213.352C71.6581 213.175 72.093 213.086 72.5566 213.086H77.6972V215.328H72.5566C72.4003 215.328 72.2545 215.357 72.1191 215.414C71.9836 215.472 71.8639 215.552 71.7597 215.657C71.6607 215.756 71.5826 215.873 71.5253 216.008C71.468 216.144 71.4394 216.289 71.4394 216.446C71.4394 216.602 71.468 216.75 71.5253 216.891C71.5826 217.026 71.6607 217.146 71.7597 217.25C71.8639 217.349 71.9836 217.427 72.1191 217.485C72.2545 217.542 72.4003 217.571 72.5566 217.571H74.7988C75.2623 217.571 75.6972 217.659 76.1034 217.836C76.5149 218.008 76.8717 218.248 77.1738 218.555C77.481 218.857 77.7206 219.214 77.8925 219.625C78.0696 220.032 78.1581 220.467 78.1581 220.93C78.1581 221.394 78.0696 221.828 77.8925 222.235C77.7206 222.641 77.481 222.998 77.1738 223.305C76.8717 223.607 76.5149 223.847 76.1034 224.024C75.6972 224.201 75.2623 224.289 74.7988 224.289H69.8222V222.047H74.7988C74.955 222.047 75.1008 222.019 75.2363 221.961C75.3717 221.904 75.4889 221.826 75.5878 221.727C75.692 221.623 75.7727 221.503 75.83 221.368C75.8873 221.232 75.9159 221.086 75.9159 220.93C75.9159 220.774 75.8873 220.628 75.83 220.493C75.7727 220.357 75.692 220.24 75.5878 220.141C75.4889 220.037 75.3717 219.956 75.2363 219.899C75.1008 219.842 74.955 219.813 74.7988 219.813H72.5566C72.093 219.813 71.6581 219.724 71.2519 219.547C70.8456 219.37 70.4889 219.131 70.1816 218.828C69.8795 218.521 69.6399 218.164 69.4628 217.758C69.2857 217.347 69.1972 216.909 69.1972 216.446ZM83.6838 213.649C83.6838 213.847 83.6447 214.032 83.5666 214.203C83.4936 214.375 83.3921 214.526 83.2619 214.657C83.1317 214.782 82.978 214.883 82.8009 214.961C82.6291 215.034 82.4442 215.071 82.2463 215.071C82.0483 215.071 81.8608 215.034 81.6838 214.961C81.5119 214.883 81.3608 214.782 81.2306 214.657C81.1056 214.526 81.0041 214.375 80.9259 214.203C80.853 214.032 80.8166 213.847 80.8166 213.649C80.8166 213.456 80.853 213.274 80.9259 213.102C81.0041 212.925 81.1056 212.774 81.2306 212.649C81.3608 212.519 81.5119 212.417 81.6838 212.344C81.8608 212.266 82.0483 212.227 82.2463 212.227C82.4442 212.227 82.6291 212.266 82.8009 212.344C82.978 212.417 83.1317 212.519 83.2619 212.649C83.3921 212.774 83.4936 212.925 83.5666 213.102C83.6447 213.274 83.6838 213.456 83.6838 213.649ZM83.3166 224.289H81.1681V215.922H83.3166V224.289ZM88.8422 224.289H86.7094V215.922H87.225L87.9281 216.735C88.2719 216.422 88.6599 216.183 89.0922 216.016C89.5297 215.844 89.9854 215.758 90.4594 215.758C90.9698 215.758 91.4516 215.857 91.9047 216.055C92.3578 216.248 92.7536 216.516 93.0922 216.86C93.4307 217.198 93.6964 217.597 93.8891 218.055C94.087 218.508 94.1859 218.993 94.1859 219.508V224.289H92.0531V219.508C92.0531 219.289 92.0115 219.084 91.9281 218.891C91.8448 218.693 91.7302 218.521 91.5844 218.375C91.4385 218.23 91.2693 218.115 91.0766 218.032C90.8839 217.948 90.6781 217.907 90.4594 217.907C90.2354 217.907 90.0245 217.948 89.8266 218.032C89.6286 218.115 89.4568 218.23 89.3109 218.375C89.1651 218.521 89.0505 218.693 88.9672 218.891C88.8839 219.084 88.8422 219.289 88.8422 219.508V224.289ZM104.782 217.586L103.219 219.157C103.141 218.938 103.034 218.743 102.899 218.571C102.764 218.394 102.61 218.245 102.438 218.125C102.271 218.006 102.089 217.914 101.891 217.852C101.693 217.789 101.49 217.758 101.282 217.758C100.99 217.758 100.714 217.818 100.454 217.938C100.199 218.058 99.9746 218.227 99.7819 218.446C99.5944 218.659 99.4459 218.914 99.3366 219.211C99.2272 219.508 99.1725 219.836 99.1725 220.196C99.1725 220.487 99.2272 220.761 99.3366 221.016C99.4459 221.271 99.5944 221.495 99.7819 221.688C99.9746 221.881 100.199 222.032 100.454 222.141C100.714 222.25 100.99 222.305 101.282 222.305C101.49 222.305 101.691 222.276 101.883 222.219C102.076 222.162 102.256 222.081 102.423 221.977C102.594 221.868 102.745 221.737 102.876 221.586C103.011 221.43 103.12 221.258 103.204 221.071L104.766 222.641C104.568 222.922 104.339 223.175 104.079 223.399C103.824 223.623 103.545 223.813 103.243 223.969C102.946 224.125 102.631 224.243 102.298 224.321C101.969 224.404 101.631 224.446 101.282 224.446C100.693 224.446 100.139 224.336 99.6178 224.118C99.1022 223.894 98.6491 223.589 98.2584 223.203C97.873 222.818 97.5683 222.368 97.3444 221.852C97.1204 221.336 97.0084 220.784 97.0084 220.196C97.0084 219.555 97.1204 218.956 97.3444 218.399C97.5683 217.842 97.873 217.357 98.2584 216.946C98.6491 216.529 99.1022 216.201 99.6178 215.961C100.139 215.722 100.693 215.602 101.282 215.602C101.631 215.602 101.972 215.646 102.305 215.735C102.644 215.823 102.964 215.953 103.266 216.125C103.574 216.292 103.855 216.498 104.11 216.743C104.37 216.987 104.594 217.269 104.782 217.586ZM110.792 222.243C110.875 222.269 110.959 222.287 111.042 222.297C111.125 222.302 111.209 222.305 111.292 222.305C111.5 222.305 111.701 222.276 111.893 222.219C112.086 222.162 112.266 222.081 112.433 221.977C112.604 221.868 112.755 221.737 112.886 221.586C113.021 221.43 113.13 221.258 113.214 221.071L114.776 222.641C114.578 222.922 114.349 223.175 114.089 223.399C113.834 223.623 113.555 223.813 113.253 223.969C112.956 224.125 112.641 224.243 112.308 224.321C111.979 224.404 111.641 224.446 111.292 224.446C110.703 224.446 110.149 224.336 109.628 224.118C109.112 223.899 108.659 223.594 108.268 223.203C107.883 222.813 107.578 222.349 107.354 221.813C107.13 221.271 107.018 220.677 107.018 220.032C107.018 219.37 107.13 218.766 107.354 218.219C107.578 217.672 107.883 217.206 108.268 216.821C108.659 216.435 109.112 216.136 109.628 215.922C110.149 215.709 110.703 215.602 111.292 215.602C111.641 215.602 111.982 215.644 112.315 215.727C112.649 215.81 112.964 215.93 113.261 216.086C113.563 216.243 113.844 216.435 114.104 216.664C114.365 216.888 114.594 217.141 114.792 217.422L110.792 222.243ZM111.886 217.844C111.787 217.808 111.688 217.784 111.589 217.774C111.495 217.763 111.396 217.758 111.292 217.758C111 217.758 110.724 217.813 110.464 217.922C110.209 218.026 109.985 218.177 109.792 218.375C109.604 218.573 109.456 218.813 109.347 219.094C109.237 219.37 109.183 219.683 109.183 220.032C109.183 220.11 109.185 220.198 109.19 220.297C109.201 220.396 109.214 220.498 109.229 220.602C109.25 220.701 109.274 220.797 109.3 220.891C109.326 220.985 109.36 221.068 109.401 221.141L111.886 217.844ZM131.593 216.446C131.593 216.909 131.505 217.347 131.328 217.758C131.15 218.164 130.908 218.521 130.601 218.828C130.299 219.131 129.945 219.37 129.538 219.547C129.132 219.724 128.697 219.813 128.234 219.813H127.109C126.953 219.813 126.807 219.842 126.671 219.899C126.536 219.956 126.416 220.037 126.312 220.141C126.213 220.24 126.135 220.357 126.078 220.493C126.02 220.628 125.992 220.774 125.992 220.93V222.047H131.288V224.289H123.749V220.93C123.749 220.467 123.838 220.032 124.015 219.625C124.192 219.214 124.432 218.857 124.734 218.555C125.041 218.248 125.398 218.008 125.804 217.836C126.21 217.659 126.645 217.571 127.109 217.571H128.234C128.39 217.571 128.536 217.542 128.671 217.485C128.807 217.427 128.924 217.349 129.023 217.25C129.127 217.146 129.208 217.026 129.265 216.891C129.322 216.75 129.351 216.602 129.351 216.446C129.351 216.289 129.322 216.144 129.265 216.008C129.208 215.873 129.127 215.756 129.023 215.657C128.924 215.552 128.807 215.472 128.671 215.414C128.536 215.357 128.39 215.328 128.234 215.328H124.234V213.086H128.234C128.697 213.086 129.132 213.175 129.538 213.352C129.945 213.529 130.299 213.771 130.601 214.078C130.908 214.381 131.15 214.735 131.328 215.141C131.505 215.547 131.593 215.982 131.593 216.446ZM141.447 218.688C141.447 217.443 141.239 216.519 140.822 215.914C140.41 215.31 139.835 215.008 139.095 215.008C138.361 215.008 137.791 215.308 137.384 215.907C136.978 216.506 136.775 217.433 136.775 218.688C136.775 219.933 136.978 220.857 137.384 221.461C137.791 222.065 138.361 222.368 139.095 222.368C139.465 222.368 139.796 222.295 140.088 222.149C140.379 221.998 140.624 221.771 140.822 221.469C141.025 221.167 141.179 220.787 141.283 220.328C141.392 219.865 141.447 219.318 141.447 218.688ZM143.58 218.688C143.58 219.75 143.463 220.649 143.228 221.383C142.994 222.118 142.673 222.711 142.267 223.164C141.861 223.618 141.384 223.946 140.838 224.149C140.296 224.347 139.715 224.446 139.095 224.446C138.476 224.446 137.892 224.344 137.345 224.141C136.804 223.933 136.33 223.602 135.923 223.149C135.522 222.69 135.205 222.097 134.97 221.368C134.736 220.633 134.619 219.74 134.619 218.688C134.619 217.625 134.736 216.73 134.97 216C135.205 215.266 135.522 214.672 135.923 214.219C136.33 213.766 136.804 213.438 137.345 213.235C137.892 213.032 138.476 212.93 139.095 212.93C139.715 212.93 140.296 213.034 140.838 213.243C141.384 213.446 141.861 213.776 142.267 214.235C142.673 214.693 142.994 215.287 143.228 216.016C143.463 216.745 143.58 217.636 143.58 218.688ZM154.535 216.446C154.535 216.909 154.446 217.347 154.269 217.758C154.092 218.164 153.85 218.521 153.543 218.828C153.241 219.131 152.887 219.37 152.48 219.547C152.074 219.724 151.639 219.813 151.176 219.813H150.051C149.894 219.813 149.749 219.842 149.613 219.899C149.478 219.956 149.358 220.037 149.254 220.141C149.155 220.24 149.077 220.357 149.019 220.493C148.962 220.628 148.933 220.774 148.933 220.93V222.047H154.23V224.289H146.691V220.93C146.691 220.467 146.78 220.032 146.957 219.625C147.134 219.214 147.374 218.857 147.676 218.555C147.983 218.248 148.34 218.008 148.746 217.836C149.152 217.659 149.587 217.571 150.051 217.571H151.176C151.332 217.571 151.478 217.542 151.613 217.485C151.749 217.427 151.866 217.349 151.965 217.25C152.069 217.146 152.15 217.026 152.207 216.891C152.264 216.75 152.293 216.602 152.293 216.446C152.293 216.289 152.264 216.144 152.207 216.008C152.15 215.873 152.069 215.756 151.965 215.657C151.866 215.552 151.749 215.472 151.613 215.414C151.478 215.357 151.332 215.328 151.176 215.328H147.176V213.086H151.176C151.639 213.086 152.074 213.175 152.48 213.352C152.887 213.529 153.241 213.771 153.543 214.078C153.85 214.381 154.092 214.735 154.269 215.141C154.446 215.547 154.535 215.982 154.535 216.446ZM164.389 218.688C164.389 217.443 164.18 216.519 163.764 215.914C163.352 215.31 162.777 215.008 162.037 215.008C161.303 215.008 160.732 215.308 160.326 215.907C159.92 216.506 159.717 217.433 159.717 218.688C159.717 219.933 159.92 220.857 160.326 221.461C160.732 222.065 161.303 222.368 162.037 222.368C162.407 222.368 162.738 222.295 163.029 222.149C163.321 221.998 163.566 221.771 163.764 221.469C163.967 221.167 164.121 220.787 164.225 220.328C164.334 219.865 164.389 219.318 164.389 218.688ZM166.522 218.688C166.522 219.75 166.404 220.649 166.17 221.383C165.936 222.118 165.615 222.711 165.209 223.164C164.803 223.618 164.326 223.946 163.779 224.149C163.238 224.347 162.657 224.446 162.037 224.446C161.417 224.446 160.834 224.344 160.287 224.141C159.746 223.933 159.272 223.602 158.865 223.149C158.464 222.69 158.147 222.097 157.912 221.368C157.678 220.633 157.561 219.74 157.561 218.688C157.561 217.625 157.678 216.73 157.912 216C158.147 215.266 158.464 214.672 158.865 214.219C159.272 213.766 159.746 213.438 160.287 213.235C160.834 213.032 161.417 212.93 162.037 212.93C162.657 212.93 163.238 213.034 163.779 213.243C164.326 213.446 164.803 213.776 165.209 214.235C165.615 214.693 165.936 215.287 166.17 216.016C166.404 216.745 166.522 217.636 166.522 218.688Z" fill="#D49F6A"/>
<defs>
<filter id="filter0_d_140_3881" x="27.2161" y="166.665" width="181.809" height="41.7988" filterUnits="userSpaceOnUse" color-interpolation-filters="sRGB">
<feFlood flood-opacity="0" result="BackgroundImageFix"/>
<feColorMatrix in="SourceAlpha" type="matrix" values="0 0 0 0 0 0 0 0 0 0 0 0 0 0 0 0 0 0 127 0" result="hardAlpha"/>
<feOffset dx="0.64683" dy="0.64683"/>
<feComposite in2="hardAlpha" operator="out"/>
<feColorMatrix type="matrix" values="0 0 0 0 0.54902 0 0 0 0 0.333333 0 0 0 0 0.101961 0 0 0 1 0"/>
<feBlend mode="normal" in2="BackgroundImageFix" result="effect1_dropShadow_140_3881"/>
<feBlend mode="normal" in="SourceGraphic" in2="effect1_dropShadow_140_3881" result="shape"/>
</filter>
<linearGradient id="paint0_linear_140_3881" x1="118" y1="12.9365" x2="118" y2="38.8097" gradientUnits="userSpaceOnUse">
<stop stop-color="#D5CEA3"/>
<stop offset="0.475" stop-color="#CA965C"/>
<stop offset="1" stop-color="#876445"/>
</linearGradient>
<linearGradient id="paint1_linear_140_3881" x1="101.601" y1="47.2465" x2="61.4996" y2="99.2649" gradientUnits="userSpaceOnUse">
<stop stop-color="#D4CB9F"/>
<stop offset="0.904502" stop-color="#D39E69"/>
</linearGradient>
<linearGradient id="paint2_linear_140_3881" x1="-23.1296" y1="251.611" x2="-62.3444" y2="200.743" gradientUnits="userSpaceOnUse">
<stop offset="0.11" stop-color="#D49F6A"/>
<stop offset="1" stop-color="#D4CCA0"/>
</linearGradient>
<linearGradient id="paint3_linear_140_3881" x1="20.4441" y1="189.667" x2="-3.04064" y2="159.203" gradientUnits="userSpaceOnUse">
<stop stop-color="#D49F6A"/>
<stop offset="1" stop-color="#D3B787"/>
</linearGradient>
<linearGradient id="paint4_linear_140_3881" x1="192.103" y1="131.151" x2="207.722" y2="110.889" gradientUnits="userSpaceOnUse">
<stop stop-color="#D3B686"/>
<stop offset="1" stop-color="#D4CCA1"/>
</linearGradient>
<linearGradient id="paint5_linear_140_3881" x1="123.09" y1="124.751" x2="107.471" y2="145.012" gradientUnits="userSpaceOnUse">
<stop offset="0.158379" stop-color="#A37952"/>
<stop offset="0.826282" stop-color="#8C6746"/>
</linearGradient>
<linearGradient id="paint6_linear_140_3881" x1="95.9139" y1="97.5092" x2="119.399" y2="127.973" gradientUnits="userSpaceOnUse">
<stop stop-color="#D29D69"/>
<stop offset="1" stop-color="#A87D54"/>
</linearGradient>
<linearGradient id="paint7_linear_140_3881" x1="-94.7981" y1="297.277" x2="-134.013" y2="246.408" gradientUnits="userSpaceOnUse">
<stop stop-color="#8A6646"/>
<stop offset="1" stop-color="#D49F6A"/>
</linearGradient>
<linearGradient id="paint8_linear_140_3881" x1="176.69" y1="97.3676" x2="137.475" y2="148.236" gradientUnits="userSpaceOnUse">
<stop stop-color="#D49F6A"/>
<stop offset="1" stop-color="#8C6847"/>
</linearGradient>
</defs>
</svg>
