<svg width="500" height="190" viewBox="0 0 500 190" fill="none" xmlns="http://www.w3.org/2000/svg">
<rect width="500" height="190" rx="5" fill="#3C2A21"/>
<path d="M50.0547 89H46.6914V72.1953H58.457V75.5586H50.0547V78.9219H55.0937V82.2852H50.0547V89ZM64.5836 89H61.3844V76.4492H62.1578L63.2125 77.9375C63.7281 77.4688 64.3141 77.1094 64.9703 76.8594C65.6266 76.6016 66.3062 76.4727 67.0094 76.4727H69.8336V79.6602H67.0094C66.6734 79.6602 66.357 79.7227 66.0602 79.8477C65.7633 79.9727 65.5055 80.1445 65.2867 80.3633C65.068 80.582 64.8961 80.8398 64.7711 81.1367C64.6461 81.4336 64.5836 81.75 64.5836 82.0859V89ZM78.4797 85.9297C78.6047 85.9688 78.7297 85.9961 78.8547 86.0117C78.9797 86.0195 79.1047 86.0234 79.2297 86.0234C79.5422 86.0234 79.843 85.9805 80.132 85.8945C80.4211 85.8086 80.6906 85.6875 80.9406 85.5312C81.1984 85.3672 81.425 85.1719 81.6203 84.9453C81.8234 84.7109 81.9875 84.4531 82.1125 84.1719L84.4562 86.5273C84.1594 86.9492 83.8156 87.3281 83.425 87.6641C83.0422 88 82.6242 88.2852 82.1711 88.5195C81.7258 88.7539 81.2531 88.9297 80.7531 89.0469C80.2609 89.1719 79.7531 89.2344 79.2297 89.2344C78.3469 89.2344 77.5148 89.0703 76.7336 88.7422C75.9601 88.4141 75.2805 87.957 74.6945 87.3711C74.1164 86.7852 73.6594 86.0898 73.3234 85.2852C72.9875 84.4727 72.8195 83.582 72.8195 82.6133C72.8195 81.6211 72.9875 80.7148 73.3234 79.8945C73.6594 79.0742 74.1164 78.375 74.6945 77.7969C75.2805 77.2188 75.9601 76.7695 76.7336 76.4492C77.5148 76.1289 78.3469 75.9688 79.2297 75.9688C79.7531 75.9688 80.2648 76.0312 80.7648 76.1562C81.2648 76.2812 81.7375 76.4609 82.1828 76.6953C82.6359 76.9297 83.0578 77.2188 83.4484 77.5625C83.8391 77.8984 84.1828 78.2773 84.4797 78.6992L78.4797 85.9297ZM80.1203 79.332C79.9719 79.2773 79.8234 79.2422 79.675 79.2266C79.5344 79.2109 79.3859 79.2031 79.2297 79.2031C78.7922 79.2031 78.3781 79.2852 77.9875 79.4492C77.6047 79.6055 77.2687 79.832 76.9797 80.1289C76.6984 80.4258 76.4758 80.7852 76.3117 81.207C76.1476 81.6211 76.0656 82.0898 76.0656 82.6133C76.0656 82.7305 76.0695 82.8633 76.0773 83.0117C76.093 83.1602 76.1125 83.3125 76.1359 83.4688C76.1672 83.6172 76.2023 83.7617 76.2414 83.9023C76.2805 84.043 76.3312 84.168 76.3937 84.2773L80.1203 79.332ZM93.3953 85.9297C93.5203 85.9688 93.6453 85.9961 93.7703 86.0117C93.8953 86.0195 94.0203 86.0234 94.1453 86.0234C94.4578 86.0234 94.7586 85.9805 95.0477 85.8945C95.3367 85.8086 95.6062 85.6875 95.8562 85.5312C96.1141 85.3672 96.3406 85.1719 96.5359 84.9453C96.7391 84.7109 96.9031 84.4531 97.0281 84.1719L99.3719 86.5273C99.075 86.9492 98.7312 87.3281 98.3406 87.6641C97.9578 88 97.5398 88.2852 97.0867 88.5195C96.6414 88.7539 96.1687 88.9297 95.6687 89.0469C95.1766 89.1719 94.6687 89.2344 94.1453 89.2344C93.2625 89.2344 92.4305 89.0703 91.6492 88.7422C90.8758 88.4141 90.1961 87.957 89.6102 87.3711C89.032 86.7852 88.575 86.0898 88.2391 85.2852C87.9031 84.4727 87.7352 83.582 87.7352 82.6133C87.7352 81.6211 87.9031 80.7148 88.2391 79.8945C88.575 79.0742 89.032 78.375 89.6102 77.7969C90.1961 77.2188 90.8758 76.7695 91.6492 76.4492C92.4305 76.1289 93.2625 75.9688 94.1453 75.9688C94.6687 75.9688 95.1805 76.0312 95.6805 76.1562C96.1805 76.2812 96.6531 76.4609 97.0984 76.6953C97.5516 76.9297 97.9734 77.2188 98.3641 77.5625C98.7547 77.8984 99.0984 78.2773 99.3953 78.6992L93.3953 85.9297ZM95.0359 79.332C94.8875 79.2773 94.7391 79.2422 94.5906 79.2266C94.45 79.2109 94.3016 79.2031 94.1453 79.2031C93.7078 79.2031 93.2937 79.2852 92.9031 79.4492C92.5203 79.6055 92.1844 79.832 91.8953 80.1289C91.6141 80.4258 91.3914 80.7852 91.2273 81.207C91.0633 81.6211 90.9812 82.0898 90.9812 82.6133C90.9812 82.7305 90.9852 82.8633 90.993 83.0117C91.0086 83.1602 91.0281 83.3125 91.0516 83.4688C91.0828 83.6172 91.118 83.7617 91.157 83.9023C91.1961 84.043 91.2469 84.168 91.3094 84.2773L95.0359 79.332ZM111.895 77.2344C111.895 76.5391 112.027 75.8867 112.293 75.2773C112.559 74.668 112.918 74.1367 113.371 73.6836C113.832 73.2227 114.367 72.8594 114.977 72.5938C115.586 72.3281 116.238 72.1953 116.934 72.1953H124.645V75.5586H116.934C116.699 75.5586 116.48 75.6016 116.277 75.6875C116.074 75.7734 115.895 75.8945 115.738 76.0508C115.59 76.1992 115.473 76.375 115.387 76.5781C115.301 76.7812 115.258 77 115.258 77.2344C115.258 77.4688 115.301 77.6914 115.387 77.9023C115.473 78.1055 115.59 78.2852 115.738 78.4414C115.895 78.5898 116.074 78.707 116.277 78.793C116.48 78.8789 116.699 78.9219 116.934 78.9219H120.297C120.992 78.9219 121.645 79.0547 122.254 79.3203C122.871 79.5781 123.406 79.9375 123.859 80.3984C124.32 80.8516 124.68 81.3867 124.937 82.0039C125.203 82.6133 125.336 83.2656 125.336 83.9609C125.336 84.6562 125.203 85.3086 124.937 85.918C124.68 86.5273 124.32 87.0625 123.859 87.5234C123.406 87.9766 122.871 88.3359 122.254 88.6016C121.645 88.8672 120.992 89 120.297 89H112.832V85.6367H120.297C120.531 85.6367 120.75 85.5938 120.953 85.5078C121.156 85.4219 121.332 85.3047 121.48 85.1562C121.637 85 121.758 84.8203 121.844 84.6172C121.93 84.4141 121.973 84.1953 121.973 83.9609C121.973 83.7266 121.93 83.5078 121.844 83.3047C121.758 83.1016 121.637 82.9258 121.48 82.7773C121.332 82.6211 121.156 82.5 120.953 82.4141C120.75 82.3281 120.531 82.2852 120.297 82.2852H116.934C116.238 82.2852 115.586 82.1523 114.977 81.8867C114.367 81.6211 113.832 81.2617 113.371 80.8086C112.918 80.3477 112.559 79.8125 112.293 79.2031C112.027 78.5859 111.895 77.9297 111.895 77.2344ZM132.81 89H129.611V71.457H132.81V77C133.193 76.7109 133.587 76.5078 133.994 76.3906C134.4 76.2656 134.814 76.2031 135.236 76.2031C136.009 76.2031 136.736 76.3516 137.416 76.6484C138.095 76.9375 138.685 77.3398 139.185 77.8555C139.693 78.3633 140.091 78.9609 140.38 79.6484C140.677 80.3281 140.826 81.0547 140.826 81.8281V89H137.603V81.8281H137.627C137.627 81.5 137.564 81.1914 137.439 80.9023C137.314 80.6055 137.142 80.3477 136.923 80.1289C136.705 79.9102 136.451 79.7383 136.162 79.6133C135.873 79.4883 135.564 79.4258 135.236 79.4258C134.9 79.4258 134.584 79.4883 134.287 79.6133C133.99 79.7383 133.732 79.9102 133.513 80.1289C133.295 80.3477 133.123 80.6055 132.998 80.9023C132.873 81.1914 132.81 81.5 132.81 81.8281V89ZM149.284 73.0391C149.284 73.3359 149.226 73.6133 149.109 73.8711C148.999 74.1289 148.847 74.3555 148.652 74.5508C148.456 74.7383 148.226 74.8906 147.96 75.0078C147.702 75.1172 147.425 75.1719 147.128 75.1719C146.831 75.1719 146.55 75.1172 146.284 75.0078C146.027 74.8906 145.8 74.7383 145.605 74.5508C145.417 74.3555 145.265 74.1289 145.148 73.8711C145.038 73.6133 144.984 73.3359 144.984 73.0391C144.984 72.75 145.038 72.4766 145.148 72.2188C145.265 71.9531 145.417 71.7266 145.605 71.5391C145.8 71.3438 146.027 71.1914 146.284 71.082C146.55 70.9648 146.831 70.9062 147.128 70.9062C147.425 70.9062 147.702 70.9648 147.96 71.082C148.226 71.1914 148.456 71.3438 148.652 71.5391C148.847 71.7266 148.999 71.9531 149.109 72.2188C149.226 72.4766 149.284 72.75 149.284 73.0391ZM148.734 89H145.511V76.4492H148.734V89ZM156.805 93.7812H153.583V76.4492H154.356L155.634 77.9609C155.923 77.6875 156.239 77.4297 156.583 77.1875C156.927 76.9453 157.282 76.7383 157.649 76.5664C158.024 76.3867 158.411 76.2461 158.809 76.1445C159.208 76.043 159.61 75.9922 160.016 75.9922C160.899 75.9922 161.727 76.1523 162.501 76.4727C163.282 76.7852 163.962 77.2305 164.54 77.8086C165.126 78.3867 165.587 79.0859 165.923 79.9062C166.259 80.7188 166.427 81.6211 166.427 82.6133C166.427 83.6445 166.259 84.5742 165.923 85.4023C165.587 86.2227 165.126 86.9219 164.54 87.5C163.962 88.0703 163.282 88.5078 162.501 88.8125C161.727 89.1172 160.899 89.2695 160.016 89.2695C159.735 89.2695 159.454 89.2383 159.173 89.1758C158.899 89.1133 158.626 89.0312 158.352 88.9297C158.087 88.8203 157.821 88.6992 157.555 88.5664C157.298 88.4336 157.048 88.2969 156.805 88.1562V93.7812ZM163.216 82.6133C163.216 82.082 163.13 81.6055 162.958 81.1836C162.794 80.7617 162.567 80.4062 162.278 80.1172C161.989 79.8203 161.649 79.5938 161.259 79.4375C160.868 79.2812 160.454 79.2031 160.016 79.2031C159.579 79.2031 159.165 79.2812 158.774 79.4375C158.391 79.5938 158.055 79.8203 157.766 80.1172C157.477 80.4062 157.247 80.7617 157.075 81.1836C156.911 81.6055 156.829 82.082 156.829 82.6133C156.829 83.1211 156.911 83.5859 157.075 84.0078C157.247 84.4297 157.477 84.7891 157.766 85.0859C158.055 85.3828 158.391 85.6133 158.774 85.7773C159.165 85.9414 159.579 86.0234 160.016 86.0234C160.454 86.0234 160.868 85.9414 161.259 85.7773C161.649 85.6133 161.989 85.3828 162.278 85.0859C162.567 84.7891 162.794 84.4297 162.958 84.0078C163.13 83.5859 163.216 83.1211 163.216 82.6133ZM173.83 93.7812H170.608V76.4492H171.381L172.659 77.9609C172.948 77.6875 173.264 77.4297 173.608 77.1875C173.952 76.9453 174.307 76.7383 174.674 76.5664C175.049 76.3867 175.436 76.2461 175.834 76.1445C176.233 76.043 176.635 75.9922 177.041 75.9922C177.924 75.9922 178.752 76.1523 179.526 76.4727C180.307 76.7852 180.987 77.2305 181.565 77.8086C182.151 78.3867 182.612 79.0859 182.948 79.9062C183.284 80.7188 183.452 81.6211 183.452 82.6133C183.452 83.6445 183.284 84.5742 182.948 85.4023C182.612 86.2227 182.151 86.9219 181.565 87.5C180.987 88.0703 180.307 88.5078 179.526 88.8125C178.752 89.1172 177.924 89.2695 177.041 89.2695C176.76 89.2695 176.479 89.2383 176.198 89.1758C175.924 89.1133 175.651 89.0312 175.377 88.9297C175.112 88.8203 174.846 88.6992 174.58 88.5664C174.323 88.4336 174.073 88.2969 173.83 88.1562V93.7812ZM180.241 82.6133C180.241 82.082 180.155 81.6055 179.983 81.1836C179.819 80.7617 179.592 80.4062 179.303 80.1172C179.014 79.8203 178.674 79.5938 178.284 79.4375C177.893 79.2812 177.479 79.2031 177.041 79.2031C176.604 79.2031 176.19 79.2812 175.799 79.4375C175.416 79.5938 175.08 79.8203 174.791 80.1172C174.502 80.4062 174.272 80.7617 174.1 81.1836C173.936 81.6055 173.854 82.082 173.854 82.6133C173.854 83.1211 173.936 83.5859 174.1 84.0078C174.272 84.4297 174.502 84.7891 174.791 85.0859C175.08 85.3828 175.416 85.6133 175.799 85.7773C176.19 85.9414 176.604 86.0234 177.041 86.0234C177.479 86.0234 177.893 85.9414 178.284 85.7773C178.674 85.6133 179.014 85.3828 179.303 85.0859C179.592 84.7891 179.819 84.4297 179.983 84.0078C180.155 83.5859 180.241 83.1211 180.241 82.6133ZM191.406 73.0391C191.406 73.3359 191.348 73.6133 191.23 73.8711C191.121 74.1289 190.969 74.3555 190.773 74.5508C190.578 74.7383 190.348 74.8906 190.082 75.0078C189.824 75.1172 189.547 75.1719 189.25 75.1719C188.953 75.1719 188.672 75.1172 188.406 75.0078C188.148 74.8906 187.922 74.7383 187.727 74.5508C187.539 74.3555 187.387 74.1289 187.27 73.8711C187.16 73.6133 187.105 73.3359 187.105 73.0391C187.105 72.75 187.16 72.4766 187.27 72.2188C187.387 71.9531 187.539 71.7266 187.727 71.5391C187.922 71.3438 188.148 71.1914 188.406 71.082C188.672 70.9648 188.953 70.9062 189.25 70.9062C189.547 70.9062 189.824 70.9648 190.082 71.082C190.348 71.1914 190.578 71.3438 190.773 71.5391C190.969 71.7266 191.121 71.9531 191.23 72.2188C191.348 72.4766 191.406 72.75 191.406 73.0391ZM190.855 89H187.633V76.4492H190.855V89ZM198.904 89H195.705V76.4492H196.478L197.533 77.668C198.048 77.1992 198.63 76.8398 199.279 76.5898C199.935 76.332 200.619 76.2031 201.33 76.2031C202.095 76.2031 202.818 76.3516 203.498 76.6484C204.177 76.9375 204.771 77.3398 205.279 77.8555C205.787 78.3633 206.185 78.9609 206.474 79.6484C206.771 80.3281 206.92 81.0547 206.92 81.8281V89H203.72V81.8281C203.72 81.5 203.658 81.1914 203.533 80.9023C203.408 80.6055 203.236 80.3477 203.017 80.1289C202.798 79.9102 202.545 79.7383 202.255 79.6133C201.966 79.4883 201.658 79.4258 201.33 79.4258C200.994 79.4258 200.677 79.4883 200.38 79.6133C200.084 79.7383 199.826 79.9102 199.607 80.1289C199.388 80.3477 199.216 80.6055 199.091 80.9023C198.966 81.1914 198.904 81.5 198.904 81.8281V89ZM220.534 82.6133C220.534 82.1758 220.448 81.7539 220.277 81.3477C220.112 80.9336 219.886 80.5703 219.597 80.2578C219.308 79.9375 218.968 79.6836 218.577 79.4961C218.195 79.3008 217.784 79.2031 217.347 79.2031C216.909 79.2031 216.495 79.2773 216.105 79.4258C215.722 79.5742 215.386 79.793 215.097 80.082C214.816 80.3711 214.593 80.7305 214.429 81.1602C214.265 81.582 214.183 82.0664 214.183 82.6133C214.183 83.1367 214.265 83.6094 214.429 84.0312C214.593 84.4453 214.816 84.8008 215.097 85.0977C215.386 85.3945 215.722 85.625 216.105 85.7891C216.495 85.9453 216.909 86.0234 217.347 86.0234C217.784 86.0234 218.195 85.9297 218.577 85.7422C218.968 85.5469 219.308 85.293 219.597 84.9805C219.886 84.6602 220.112 84.2969 220.277 83.8906C220.448 83.4766 220.534 83.0508 220.534 82.6133ZM223.757 87.418C223.757 88.3008 223.589 89.1289 223.253 89.9023C222.917 90.6758 222.456 91.3516 221.87 91.9297C221.292 92.5078 220.612 92.9648 219.831 93.3008C219.058 93.6367 218.23 93.8047 217.347 93.8047L215.741 93.7812V90.582L217.323 90.6055C217.823 90.6055 218.249 90.5391 218.601 90.4062C218.952 90.2812 219.249 90.1055 219.491 89.8789C219.734 89.6602 219.925 89.4062 220.066 89.1172C220.214 88.8281 220.331 88.5234 220.417 88.2031C220.292 88.4062 220.112 88.5742 219.878 88.707C219.644 88.832 219.382 88.9336 219.093 89.0117C218.812 89.0977 218.515 89.1562 218.202 89.1875C217.898 89.2188 217.612 89.2344 217.347 89.2344C216.464 89.2344 215.632 89.082 214.851 88.7773C214.077 88.4727 213.398 88.0391 212.812 87.4766C212.234 86.9062 211.777 86.2109 211.441 85.3906C211.105 84.5703 210.937 83.6445 210.937 82.6133C210.937 81.668 211.105 80.7891 211.441 79.9766C211.777 79.1641 212.234 78.4609 212.812 77.8672C213.398 77.2734 214.077 76.8086 214.851 76.4727C215.632 76.1367 216.464 75.9688 217.347 75.9688C217.753 75.9688 218.155 76.0195 218.554 76.1211C218.952 76.2227 219.339 76.3633 219.714 76.543C220.089 76.7227 220.445 76.9336 220.78 77.1758C221.124 77.418 221.445 77.6797 221.741 77.9609L222.984 76.4727H223.757V87.418Z" fill="#FFFCF6"/>
<path d="M47.9539 121H45.7195V113C45.7195 112.844 45.6883 112.698 45.6258 112.562C45.5685 112.427 45.4878 112.31 45.3836 112.211C45.2846 112.107 45.1674 112.026 45.032 111.969C44.8966 111.911 44.7508 111.883 44.5945 111.883C44.4383 111.883 44.2924 111.911 44.157 111.969C44.0216 112.026 43.9018 112.107 43.7977 112.211C43.6987 112.31 43.6206 112.427 43.5633 112.562C43.506 112.698 43.4773 112.844 43.4773 113V121H41.2352V113C41.2352 112.844 41.2065 112.698 41.1492 112.562C41.0919 112.427 41.0112 112.31 40.907 112.211C40.8081 112.107 40.6909 112.026 40.5555 111.969C40.42 111.911 40.2742 111.883 40.118 111.883C39.9617 111.883 39.8159 111.911 39.6805 111.969C39.545 112.026 39.4253 112.107 39.3211 112.211C39.2221 112.31 39.144 112.427 39.0867 112.562C39.0294 112.698 39.0008 112.844 39.0008 113V121H36.7586V113C36.7586 112.536 36.8445 112.102 37.0164 111.695C37.1935 111.284 37.4331 110.927 37.7352 110.625C38.0424 110.318 38.3992 110.078 38.8055 109.906C39.2169 109.729 39.6544 109.641 40.118 109.641C40.5346 109.641 40.9357 109.716 41.3211 109.867C41.7065 110.013 42.0529 110.227 42.3602 110.508C42.6674 110.227 43.0112 110.013 43.3914 109.867C43.7768 109.716 44.1779 109.641 44.5945 109.641C45.0581 109.641 45.493 109.729 45.8992 109.906C46.3107 110.078 46.6674 110.318 46.9695 110.625C47.2768 110.927 47.5164 111.284 47.6883 111.695C47.8654 112.102 47.9539 112.536 47.9539 113V121ZM53.8508 110.359C53.8508 110.557 53.8117 110.742 53.7336 110.914C53.6607 111.086 53.5591 111.237 53.4289 111.367C53.2987 111.492 53.145 111.594 52.968 111.672C52.7961 111.745 52.6112 111.781 52.4133 111.781C52.2154 111.781 52.0279 111.745 51.8508 111.672C51.6789 111.594 51.5279 111.492 51.3977 111.367C51.2727 111.237 51.1711 111.086 51.093 110.914C51.02 110.742 50.9836 110.557 50.9836 110.359C50.9836 110.167 51.02 109.984 51.093 109.812C51.1711 109.635 51.2727 109.484 51.3977 109.359C51.5279 109.229 51.6789 109.128 51.8508 109.055C52.0279 108.977 52.2154 108.938 52.4133 108.938C52.6112 108.938 52.7961 108.977 52.968 109.055C53.145 109.128 53.2987 109.229 53.4289 109.359C53.5591 109.484 53.6607 109.635 53.7336 109.812C53.8117 109.984 53.8508 110.167 53.8508 110.359ZM53.4836 121H51.3352V112.633H53.4836V121ZM58.8492 121H56.7164V112.633H57.232L57.9352 113.445C58.2789 113.133 58.6669 112.893 59.0992 112.727C59.5367 112.555 59.9924 112.469 60.4664 112.469C60.9768 112.469 61.4586 112.568 61.9117 112.766C62.3648 112.958 62.7607 113.227 63.0992 113.57C63.4378 113.909 63.7034 114.307 63.8961 114.766C64.094 115.219 64.193 115.703 64.193 116.219V121H62.0602V116.219C62.0602 116 62.0185 115.794 61.9352 115.602C61.8518 115.404 61.7372 115.232 61.5914 115.086C61.4456 114.94 61.2763 114.826 61.0836 114.742C60.8909 114.659 60.6852 114.617 60.4664 114.617C60.2424 114.617 60.0315 114.659 59.8336 114.742C59.6357 114.826 59.4638 114.94 59.318 115.086C59.1721 115.232 59.0575 115.404 58.9742 115.602C58.8909 115.794 58.8492 116 58.8492 116.219V121ZM69.832 110.359C69.832 110.557 69.793 110.742 69.7148 110.914C69.6419 111.086 69.5404 111.237 69.4102 111.367C69.2799 111.492 69.1263 111.594 68.9492 111.672C68.7773 111.745 68.5924 111.781 68.3945 111.781C68.1966 111.781 68.0091 111.745 67.832 111.672C67.6602 111.594 67.5091 111.492 67.3789 111.367C67.2539 111.237 67.1523 111.086 67.0742 110.914C67.0013 110.742 66.9648 110.557 66.9648 110.359C66.9648 110.167 67.0013 109.984 67.0742 109.812C67.1523 109.635 67.2539 109.484 67.3789 109.359C67.5091 109.229 67.6602 109.128 67.832 109.055C68.0091 108.977 68.1966 108.938 68.3945 108.938C68.5924 108.938 68.7773 108.977 68.9492 109.055C69.1263 109.128 69.2799 109.229 69.4102 109.359C69.5404 109.484 69.6419 109.635 69.7148 109.812C69.793 109.984 69.832 110.167 69.832 110.359ZM69.4648 121H67.3164V112.633H69.4648V121ZM83.3383 121H81.2133V115.688C81.2133 115.542 81.1846 115.404 81.1273 115.273C81.0753 115.143 80.9997 115.029 80.9008 114.93C80.8018 114.831 80.6872 114.755 80.557 114.703C80.4268 114.646 80.2888 114.617 80.143 114.617C79.9971 114.617 79.8591 114.646 79.7289 114.703C79.6039 114.755 79.4919 114.831 79.393 114.93C79.2992 115.029 79.2237 115.143 79.1664 115.273C79.1143 115.404 79.0883 115.542 79.0883 115.688V121H76.9555V115.688C76.9555 115.542 76.9268 115.404 76.8695 115.273C76.8174 115.143 76.7419 115.029 76.643 114.93C76.544 114.831 76.4294 114.755 76.2992 114.703C76.169 114.646 76.031 114.617 75.8852 114.617C75.7393 114.617 75.6013 114.646 75.4711 114.703C75.3461 114.755 75.2341 114.831 75.1352 114.93C75.0414 115.029 74.9659 115.143 74.9086 115.273C74.8565 115.404 74.8305 115.542 74.8305 115.688V121H72.6977V112.633H73.2133L73.7914 113.273C74.0883 113.023 74.4138 112.831 74.768 112.695C75.1273 112.555 75.4997 112.484 75.8852 112.484C76.2758 112.484 76.656 112.557 77.0258 112.703C77.4008 112.849 77.7289 113.102 78.0102 113.461C78.1404 113.284 78.2888 113.133 78.4555 113.008C78.6221 112.883 78.7966 112.781 78.9789 112.703C79.1664 112.625 79.3591 112.57 79.557 112.539C79.7549 112.503 79.9503 112.484 80.143 112.484C80.5857 112.484 80.9997 112.568 81.3852 112.734C81.7758 112.901 82.1143 113.13 82.4008 113.422C82.6924 113.708 82.9216 114.047 83.0883 114.438C83.2549 114.828 83.3383 115.245 83.3383 115.688V121ZM92.6492 120.023C92.4773 120.18 92.2924 120.328 92.0945 120.469C91.9018 120.604 91.6987 120.724 91.4852 120.828C91.2716 120.927 91.0503 121.005 90.8211 121.062C90.5971 121.125 90.368 121.156 90.1336 121.156C89.618 121.156 89.1336 121.065 88.6805 120.883C88.2273 120.701 87.8289 120.443 87.4852 120.109C87.1466 119.771 86.8784 119.362 86.6805 118.883C86.4878 118.398 86.3914 117.857 86.3914 117.258V112.633H88.5164V117.258C88.5164 117.539 88.5581 117.792 88.6414 118.016C88.7299 118.234 88.8471 118.419 88.993 118.57C89.1388 118.721 89.3081 118.836 89.5008 118.914C89.6987 118.992 89.9096 119.031 90.1336 119.031C90.3523 119.031 90.5581 118.982 90.7508 118.883C90.9487 118.779 91.1206 118.643 91.2664 118.477C91.4122 118.31 91.5268 118.122 91.6102 117.914C91.6935 117.701 91.7352 117.482 91.7352 117.258V112.633H93.868V121H93.3523L92.6492 120.023ZM107.741 121H105.616V115.688C105.616 115.542 105.588 115.404 105.53 115.273C105.478 115.143 105.403 115.029 105.304 114.93C105.205 114.831 105.09 114.755 104.96 114.703C104.83 114.646 104.692 114.617 104.546 114.617C104.4 114.617 104.262 114.646 104.132 114.703C104.007 114.755 103.895 114.831 103.796 114.93C103.702 115.029 103.627 115.143 103.57 115.273C103.517 115.404 103.491 115.542 103.491 115.688V121H101.359V115.688C101.359 115.542 101.33 115.404 101.273 115.273C101.221 115.143 101.145 115.029 101.046 114.93C100.947 114.831 100.833 114.755 100.702 114.703C100.572 114.646 100.434 114.617 100.288 114.617C100.142 114.617 100.004 114.646 99.8742 114.703C99.7492 114.755 99.6372 114.831 99.5383 114.93C99.4445 115.029 99.369 115.143 99.3117 115.273C99.2596 115.404 99.2336 115.542 99.2336 115.688V121H97.1008V112.633H97.6164L98.1945 113.273C98.4914 113.023 98.8169 112.831 99.1711 112.695C99.5305 112.555 99.9029 112.484 100.288 112.484C100.679 112.484 101.059 112.557 101.429 112.703C101.804 112.849 102.132 113.102 102.413 113.461C102.543 113.284 102.692 113.133 102.859 113.008C103.025 112.883 103.2 112.781 103.382 112.703C103.57 112.625 103.762 112.57 103.96 112.539C104.158 112.503 104.353 112.484 104.546 112.484C104.989 112.484 105.403 112.568 105.788 112.734C106.179 112.901 106.517 113.13 106.804 113.422C107.096 113.708 107.325 114.047 107.491 114.438C107.658 114.828 107.741 115.245 107.741 115.688V121ZM116.559 113.156C116.559 112.693 116.647 112.258 116.824 111.852C117.001 111.445 117.241 111.091 117.543 110.789C117.85 110.482 118.207 110.24 118.613 110.062C119.02 109.885 119.454 109.797 119.918 109.797H125.059V112.039H119.918C119.762 112.039 119.616 112.068 119.48 112.125C119.345 112.182 119.225 112.263 119.121 112.367C119.022 112.466 118.944 112.583 118.887 112.719C118.829 112.854 118.801 113 118.801 113.156C118.801 113.312 118.829 113.461 118.887 113.602C118.944 113.737 119.022 113.857 119.121 113.961C119.225 114.06 119.345 114.138 119.48 114.195C119.616 114.253 119.762 114.281 119.918 114.281H122.16C122.624 114.281 123.059 114.37 123.465 114.547C123.876 114.719 124.233 114.958 124.535 115.266C124.842 115.568 125.082 115.924 125.254 116.336C125.431 116.742 125.52 117.177 125.52 117.641C125.52 118.104 125.431 118.539 125.254 118.945C125.082 119.352 124.842 119.708 124.535 120.016C124.233 120.318 123.876 120.557 123.465 120.734C123.059 120.911 122.624 121 122.16 121H117.184V118.758H122.16C122.316 118.758 122.462 118.729 122.598 118.672C122.733 118.615 122.85 118.536 122.949 118.438C123.053 118.333 123.134 118.214 123.191 118.078C123.249 117.943 123.277 117.797 123.277 117.641C123.277 117.484 123.249 117.339 123.191 117.203C123.134 117.068 123.053 116.951 122.949 116.852C122.85 116.747 122.733 116.667 122.598 116.609C122.462 116.552 122.316 116.523 122.16 116.523H119.918C119.454 116.523 119.02 116.435 118.613 116.258C118.207 116.081 117.85 115.841 117.543 115.539C117.241 115.232 117.001 114.875 116.824 114.469C116.647 114.057 116.559 113.62 116.559 113.156ZM130.44 124.188H128.291V112.633H128.807L129.659 113.641C129.851 113.458 130.062 113.286 130.291 113.125C130.521 112.964 130.758 112.826 131.002 112.711C131.252 112.591 131.51 112.497 131.776 112.43C132.041 112.362 132.31 112.328 132.58 112.328C133.169 112.328 133.721 112.435 134.237 112.648C134.758 112.857 135.211 113.154 135.596 113.539C135.987 113.924 136.294 114.391 136.518 114.938C136.742 115.479 136.854 116.081 136.854 116.742C136.854 117.43 136.742 118.049 136.518 118.602C136.294 119.148 135.987 119.615 135.596 120C135.211 120.38 134.758 120.672 134.237 120.875C133.721 121.078 133.169 121.18 132.58 121.18C132.393 121.18 132.205 121.159 132.018 121.117C131.836 121.076 131.653 121.021 131.471 120.953C131.294 120.88 131.117 120.799 130.94 120.711C130.768 120.622 130.601 120.531 130.44 120.438V124.188ZM134.713 116.742C134.713 116.388 134.656 116.07 134.541 115.789C134.432 115.508 134.281 115.271 134.088 115.078C133.896 114.88 133.669 114.729 133.409 114.625C133.148 114.521 132.872 114.469 132.58 114.469C132.289 114.469 132.013 114.521 131.752 114.625C131.497 114.729 131.273 114.88 131.08 115.078C130.888 115.271 130.734 115.508 130.62 115.789C130.51 116.07 130.455 116.388 130.455 116.742C130.455 117.081 130.51 117.391 130.62 117.672C130.734 117.953 130.888 118.193 131.08 118.391C131.273 118.589 131.497 118.742 131.752 118.852C132.013 118.961 132.289 119.016 132.58 119.016C132.872 119.016 133.148 118.961 133.409 118.852C133.669 118.742 133.896 118.589 134.088 118.391C134.281 118.193 134.432 117.953 134.541 117.672C134.656 117.391 134.713 117.081 134.713 116.742ZM142.97 118.953C143.053 118.979 143.136 118.997 143.22 119.008C143.303 119.013 143.386 119.016 143.47 119.016C143.678 119.016 143.878 118.987 144.071 118.93C144.264 118.872 144.443 118.792 144.61 118.688C144.782 118.578 144.933 118.448 145.063 118.297C145.199 118.141 145.308 117.969 145.391 117.781L146.954 119.352C146.756 119.633 146.527 119.885 146.266 120.109C146.011 120.333 145.733 120.523 145.43 120.68C145.134 120.836 144.818 120.953 144.485 121.031C144.157 121.115 143.818 121.156 143.47 121.156C142.881 121.156 142.326 121.047 141.805 120.828C141.29 120.609 140.837 120.305 140.446 119.914C140.061 119.523 139.756 119.06 139.532 118.523C139.308 117.982 139.196 117.388 139.196 116.742C139.196 116.081 139.308 115.477 139.532 114.93C139.756 114.383 140.061 113.917 140.446 113.531C140.837 113.146 141.29 112.846 141.805 112.633C142.326 112.419 142.881 112.312 143.47 112.312C143.818 112.312 144.16 112.354 144.493 112.438C144.826 112.521 145.141 112.641 145.438 112.797C145.74 112.953 146.022 113.146 146.282 113.375C146.542 113.599 146.772 113.852 146.97 114.133L142.97 118.953ZM144.063 114.555C143.964 114.518 143.865 114.495 143.766 114.484C143.673 114.474 143.574 114.469 143.47 114.469C143.178 114.469 142.902 114.523 142.641 114.633C142.386 114.737 142.162 114.888 141.97 115.086C141.782 115.284 141.634 115.523 141.524 115.805C141.415 116.081 141.36 116.393 141.36 116.742C141.36 116.82 141.363 116.909 141.368 117.008C141.378 117.107 141.391 117.208 141.407 117.312C141.428 117.411 141.451 117.508 141.477 117.602C141.503 117.695 141.537 117.779 141.579 117.852L144.063 114.555ZM151.78 121H149.648V112.633H150.163L150.866 113.445C151.21 113.133 151.598 112.893 152.03 112.727C152.468 112.555 152.924 112.469 153.398 112.469C153.908 112.469 154.39 112.568 154.843 112.766C155.296 112.958 155.692 113.227 156.03 113.57C156.369 113.909 156.635 114.307 156.827 114.766C157.025 115.219 157.124 115.703 157.124 116.219V121H154.991V116.219C154.991 116 154.95 115.794 154.866 115.602C154.783 115.404 154.668 115.232 154.523 115.086C154.377 114.94 154.208 114.826 154.015 114.742C153.822 114.659 153.616 114.617 153.398 114.617C153.174 114.617 152.963 114.659 152.765 114.742C152.567 114.826 152.395 114.94 152.249 115.086C152.103 115.232 151.989 115.404 151.905 115.602C151.822 115.794 151.78 116 151.78 116.219V121ZM164.334 121C163.818 121 163.334 120.904 162.88 120.711C162.427 120.513 162.029 120.245 161.685 119.906C161.347 119.562 161.078 119.164 160.88 118.711C160.688 118.258 160.591 117.773 160.591 117.258V114.773H159.552V112.648H160.591V109.305H162.716V112.648H165.951V114.773H162.716V117.258C162.716 117.482 162.758 117.693 162.841 117.891C162.925 118.083 163.039 118.253 163.185 118.398C163.331 118.544 163.503 118.661 163.701 118.75C163.899 118.833 164.11 118.875 164.334 118.875H165.951V121H164.334ZM182.838 117.477C182.838 118.023 182.742 118.516 182.549 118.953C182.357 119.391 182.099 119.76 181.776 120.062C181.453 120.365 181.078 120.596 180.651 120.758C180.229 120.919 179.786 121 179.323 121H174.807V118.758H179.323C179.474 118.758 179.625 118.734 179.776 118.688C179.932 118.641 180.07 118.565 180.19 118.461C180.315 118.357 180.414 118.224 180.487 118.062C180.565 117.901 180.604 117.706 180.604 117.477C180.604 117.268 180.565 117.086 180.487 116.93C180.414 116.768 180.315 116.635 180.19 116.531C180.07 116.422 179.932 116.341 179.776 116.289C179.625 116.232 179.474 116.203 179.323 116.203H174.807L175.463 109.797H182.377V112.039H177.479L177.276 113.961H179.323C179.786 113.961 180.229 114.042 180.651 114.203C181.078 114.365 181.453 114.599 181.776 114.906C182.099 115.208 182.357 115.578 182.549 116.016C182.742 116.448 182.838 116.935 182.838 117.477ZM192.485 115.398C192.485 114.154 192.277 113.229 191.86 112.625C191.449 112.021 190.873 111.719 190.134 111.719C189.399 111.719 188.829 112.018 188.423 112.617C188.016 113.216 187.813 114.143 187.813 115.398C187.813 116.643 188.016 117.568 188.423 118.172C188.829 118.776 189.399 119.078 190.134 119.078C190.503 119.078 190.834 119.005 191.126 118.859C191.417 118.708 191.662 118.482 191.86 118.18C192.063 117.878 192.217 117.497 192.321 117.039C192.43 116.576 192.485 116.029 192.485 115.398ZM194.618 115.398C194.618 116.461 194.501 117.359 194.266 118.094C194.032 118.828 193.712 119.422 193.305 119.875C192.899 120.328 192.423 120.656 191.876 120.859C191.334 121.057 190.753 121.156 190.134 121.156C189.514 121.156 188.93 121.055 188.384 120.852C187.842 120.643 187.368 120.312 186.962 119.859C186.561 119.401 186.243 118.807 186.009 118.078C185.774 117.344 185.657 116.451 185.657 115.398C185.657 114.336 185.774 113.44 186.009 112.711C186.243 111.977 186.561 111.383 186.962 110.93C187.368 110.477 187.842 110.148 188.384 109.945C188.93 109.742 189.514 109.641 190.134 109.641C190.753 109.641 191.334 109.745 191.876 109.953C192.423 110.156 192.899 110.487 193.305 110.945C193.712 111.404 194.032 111.997 194.266 112.727C194.501 113.456 194.618 114.346 194.618 115.398ZM204.366 115.398C204.366 114.154 204.158 113.229 203.741 112.625C203.33 112.021 202.754 111.719 202.015 111.719C201.28 111.719 200.71 112.018 200.304 112.617C199.898 113.216 199.695 114.143 199.695 115.398C199.695 116.643 199.898 117.568 200.304 118.172C200.71 118.776 201.28 119.078 202.015 119.078C202.385 119.078 202.715 119.005 203.007 118.859C203.299 118.708 203.543 118.482 203.741 118.18C203.945 117.878 204.098 117.497 204.202 117.039C204.312 116.576 204.366 116.029 204.366 115.398ZM206.499 115.398C206.499 116.461 206.382 117.359 206.148 118.094C205.913 118.828 205.593 119.422 205.187 119.875C204.78 120.328 204.304 120.656 203.757 120.859C203.215 121.057 202.635 121.156 202.015 121.156C201.395 121.156 200.812 121.055 200.265 120.852C199.723 120.643 199.249 120.312 198.843 119.859C198.442 119.401 198.124 118.807 197.89 118.078C197.655 117.344 197.538 116.451 197.538 115.398C197.538 114.336 197.655 113.44 197.89 112.711C198.124 111.977 198.442 111.383 198.843 110.93C199.249 110.477 199.723 110.148 200.265 109.945C200.812 109.742 201.395 109.641 202.015 109.641C202.635 109.641 203.215 109.745 203.757 109.953C204.304 110.156 204.78 110.487 205.187 110.945C205.593 111.404 205.913 111.997 206.148 112.727C206.382 113.456 206.499 114.346 206.499 115.398ZM220.59 121H218.355V112.039H214.988V109.797H223.949V112.039H220.59V121ZM228.659 121H226.51V109.305H228.659V116.68L231.838 112.648H234.291L231.518 116.133L234.291 121H231.838L230.143 117.961L228.659 119.93V121Z" fill="#FFFCF6"/>
<path d="M339.884 147.298H296.347C296.347 147.298 283.415 146.578 283.706 150.492C284.047 155.098 334.146 152.064 337.809 154.958C341.471 157.852 343.388 161.26 349.92 162.915C356.452 164.57 368.83 160.361 403.526 164.968C424.519 160.658 356.489 147.298 339.884 147.298Z" fill="#E1CCB9"/>
<path d="M287.991 27.2299C287.933 19.3642 302.856 18.2099 302.68 22.3476L329.471 22.4458C332.57 22.49 335.07 25.2947 335.063 28.7113L334.71 142.798C334.699 146.138 332.209 148.851 329.145 148.852L300.768 148.989C300.495 149.546 299.982 150.051 299.173 150.47C291.233 150.407 287.624 147.279 287.592 143.252C287.296 142.51 287.671 28.7093 287.991 27.2299Z" fill="#876445"/>
<path d="M291.052 74.0455C291.207 74.0501 291.362 74.0237 291.507 73.9679C291.652 73.9121 291.785 73.828 291.897 73.7205C292.009 73.613 292.099 73.4842 292.161 73.3417C292.223 73.1991 292.256 73.0457 292.258 72.8903L292.516 43.1035C292.516 42.7833 292.391 42.4758 292.168 42.2464C291.944 42.0171 291.64 41.884 291.32 41.8755C291.163 41.8708 291.006 41.8976 290.86 41.9543C290.713 42.011 290.579 42.0964 290.466 42.2056C290.353 42.3149 290.263 42.4456 290.201 42.5902C290.139 42.7347 290.107 42.8902 290.106 43.0475L289.863 72.8362C289.864 73.153 289.989 73.4568 290.212 73.6827C290.434 73.9087 290.735 74.0388 291.052 74.0455Z" fill="#604227"/>
<path d="M299.647 150.491L334.563 150.451C337.736 150.451 340.318 147.676 340.33 144.24L340.75 26.9061C340.763 23.3923 338.171 20.512 334.96 20.4747L299.942 20.0199C296.705 19.9835 294.075 22.8166 294.069 26.3472L293.861 144.235C293.859 147.683 296.446 150.486 299.647 150.491Z" fill="#C6A78D"/>
<path d="M298.941 149.658C299.154 149.687 299.369 149.702 299.584 149.702L334.492 149.604C337.219 149.604 339.46 147.166 339.47 144.166L339.885 26.9573C339.896 23.8894 337.646 21.3638 334.887 21.3294L299.879 20.8186C299.799 20.8186 299.717 20.8186 299.637 20.8186C298.989 20.8465 298.354 21.0053 297.77 21.2854C297.186 21.5655 296.664 21.9611 296.237 22.4483C295.306 23.5065 294.799 24.8705 294.811 26.2795L294.595 144.297C294.591 147.01 296.452 149.315 298.941 149.658Z" fill="#3C2A21"/>
<path d="M296.615 26.9124L296.381 144.486L337.775 144.483L338.171 27.2542L296.615 26.9124Z" fill="#FFFCF6"/>
<mask id="mask0_140_3631" style="mask-type:luminance" maskUnits="userSpaceOnUse" x="296" y="26" width="43" height="119">
<path d="M296.579 26.9121L296.346 144.486L337.74 144.483L338.136 27.254L296.579 26.9121Z" fill="white"/>
</mask>
<g mask="url(#mask0_140_3631)">
<path d="M339.65 38.1077H289.157V148.453H339.65V38.1077Z" fill="#E6E6E6"/>
<path d="M345.805 134.624L263.908 109.782L267.152 107.084L344.1 127.094L345.805 134.624Z" fill="#04F2F5"/>
<path d="M263.145 109.928L262.656 111.615L355.84 138.618L356.329 136.93L263.145 109.928Z" fill="#FFFCF6"/>
<path d="M307.778 81.8398C306.313 81.6918 304.836 81.6918 303.37 81.8398C296.574 82.5205 290.738 86.4293 289.864 91.565C288.902 97.2096 294.186 102.331 302.181 103.31C303.061 103.418 303.946 103.473 304.833 103.473C305.725 103.473 306.617 103.418 307.503 103.31C315.564 102.328 321.197 97.2096 320.62 91.565C320.098 86.4322 314.529 82.5205 307.778 81.8398ZM307.553 99.5122C306.697 99.6575 305.831 99.7302 304.963 99.7293C304.101 99.7306 303.24 99.658 302.391 99.5122C297.291 98.6399 293.879 95.3088 294.368 91.5621C294.827 88.0482 298.605 85.275 303.218 84.5933C303.968 84.4819 304.726 84.4261 305.484 84.4263C306.241 84.4258 306.996 84.4816 307.744 84.5933C312.31 85.275 315.897 88.0482 316.118 91.5621C316.351 95.3088 312.713 98.637 307.553 99.5122Z" fill="#D5CEA3"/>
<path d="M307.952 68.1951L307.745 84.5934C306.997 84.4818 306.241 84.4259 305.485 84.4264C304.727 84.4262 303.969 84.482 303.219 84.5934L304.128 68.1951H307.952Z" fill="#D5CEA3"/>
<path d="M349.165 93.277H317.224C317.365 92.7165 317.415 92.1371 317.372 91.5608C317.328 90.9894 317.195 90.4283 316.979 89.8977H347.984L349.165 93.277Z" fill="#D5CEA3"/>
<path d="M304.869 102.456C305.759 102.457 306.647 102.372 307.521 102.204L307.043 144.513H300.156L302.243 102.204C303.108 102.373 303.988 102.457 304.869 102.456Z" fill="#D5CEA3"/>
<path d="M296.594 79.0103H288.663L290.296 75.1055H298.602L296.594 79.0103Z" fill="#FFFCF6"/>
<path d="M302.23 75.1055H300.153L298.074 79.0103H301.952L302.23 75.1055Z" fill="#FFFCF6"/>
<path d="M299.34 81.7814C300.143 81.6449 300.956 81.6252 301.767 81.6183L301.878 80.0535H297.52L296.145 82.637C297.182 82.2571 298.252 81.9708 299.34 81.7814Z" fill="#FFFCF6"/>
<path d="M314.138 91.5616C314.297 95.1109 310.218 98.1562 305.018 98.1562C299.819 98.1562 295.947 95.1109 296.348 91.5616C296.725 88.2217 300.788 85.6567 305.444 85.6567C310.099 85.6567 313.988 88.2217 314.138 91.5616Z" fill="#27C180"/>
<path d="M305.571 86.1367C305.571 86.1367 313.284 87.0424 312.313 91.0082C311.268 95.2765 306.985 95.2765 307.643 92.5249C308.27 89.9011 305.984 89.3303 304.774 88.1309C303.591 86.9589 303.559 86.1868 305.571 86.1367Z" fill="#04F2F5"/>
<path d="M309.278 73.9624L309.292 80.7318C309.292 80.7318 319.827 82.779 321.473 89.065H343.919L338.173 74.0832L309.278 73.9624Z" fill="#27C180"/>
<path d="M333.661 101.005H323.796L322.528 95.0554H331.465L333.661 101.005Z" fill="#FFFCF6"/>
<path d="M345.916 101.005H336.053L333.632 95.0554H342.569L345.916 101.005Z" fill="#FFFCF6"/>
<path d="M337.053 110.197H325.757L324.115 102.5H334.213L337.053 110.197Z" fill="#FFFCF6"/>
<path d="M351.088 110.197H339.792L336.66 102.5H346.758L351.088 110.197Z" fill="#FFFCF6"/>
<path d="M341.17 122.932L337.835 112.31H326.209L327.272 119.525L341.17 122.932Z" fill="#FFFCF6"/>
<path d="M317.038 102.5C315.577 103.919 313.796 105.224 311.698 105.985L311.848 110.197H323.081L321.723 102.5H317.038Z" fill="#FFFCF6"/>
<path d="M265.611 114.106C266.215 114.118 298.568 123.831 298.568 123.831L297.653 136.457H258.431L265.611 114.106Z" fill="#27C180"/>
<path d="M339.555 38.3096H289.47V74.4394H339.555V38.3096Z" fill="#94F3F7"/>
<path d="M312.296 112.174L323.197 112.533L323.774 119.347L312.227 116.045L312.296 112.174Z" fill="#FFFCF6"/>
<path d="M295.079 103.701L293.376 112.352L300.012 113.966L300.908 105.358L295.079 103.701Z" fill="#FFFCF6"/>
</g>
<path d="M325.674 45.5232L321.001 45.4849L305.982 26.9912L310.675 27.0295L325.674 45.5232Z" fill="#876445"/>
<path d="M321 45.4852L316.33 45.4468L301.286 26.9521L305.981 26.9914L321 45.4852Z" fill="#F1E3E0"/>
<path d="M316.331 45.4461L311.658 45.4088L296.596 26.9131L301.287 26.9514L316.331 45.4461Z" fill="#876445"/>
<path d="M330.344 45.5606L325.674 45.5223L310.676 27.0286L315.367 27.0669L330.344 45.5606Z" fill="#F1E3E0"/>
<path d="M339.685 45.6372L335.016 45.5989L320.059 27.1052L324.75 27.1445L339.685 45.6372Z" fill="#F1E3E0"/>
<path d="M353.242 45.7485L349.03 45.7142L334.135 27.2224L338.364 27.2568L353.242 45.7485Z" fill="#876445"/>
<path d="M349.029 45.7134L344.359 45.6751L329.444 27.1833L334.135 27.2217L349.029 45.7134Z" fill="#F1E3E0"/>
<path d="M335.017 45.5997L330.344 45.5613L315.366 27.0676L320.06 27.1059L335.017 45.5997Z" fill="#876445"/>
<path d="M344.358 45.6758L339.685 45.6385L324.75 27.1458L329.443 27.1841L344.358 45.6758Z" fill="#876445"/>
<path d="M316.333 45.4463V48.2617C316.333 51.2451 311.668 51.2087 311.662 48.2243V45.4089L316.333 45.4463Z" fill="#664425"/>
<path d="M321.003 45.4848V48.3003C321.003 51.2837 316.338 51.2473 316.337 48.262V45.4465L321.003 45.4848Z" fill="#F1C5BC"/>
<path d="M325.675 45.5222V48.3376C325.675 51.321 321.004 51.2847 321.005 48.2993V45.4839L325.675 45.5222Z" fill="#664425"/>
<path d="M330.345 45.5596L330.335 48.375C330.326 51.3574 325.663 51.322 325.668 48.3367V45.5212L330.345 45.5596Z" fill="#F1C5BC"/>
<path d="M335.019 45.6003L335.008 48.4157C334.996 51.3981 330.329 51.3628 330.338 48.3774L330.346 45.562L335.019 45.6003Z" fill="#664425"/>
<path d="M339.687 45.6362L339.673 48.4506C339.659 51.434 334.995 51.3977 335.007 48.4133L335.018 45.5979L339.687 45.6362Z" fill="#F1C5BC"/>
<path d="M344.36 45.6753L344.344 48.4897C344.325 51.4731 339.659 51.4368 339.674 48.4514L339.687 45.637L344.36 45.6753Z" fill="#664425"/>
<path d="M349.031 45.7134L349.01 48.5288C348.989 51.5112 344.325 51.4758 344.344 48.4905L344.361 45.676L349.031 45.7134Z" fill="#F1C5BC"/>
<path d="M353.244 45.7478L353.221 48.5632C353.196 51.5456 348.989 51.5102 349.01 48.5288L349.031 45.7134L353.244 45.7478Z" fill="#664425"/>
<path d="M311.659 45.4085L312.024 45.4586L296.577 45.3221L296.598 26.9128L311.659 45.4085Z" fill="#876445"/>
<path d="M310.159 120.152C307.977 117.977 311.417 112.757 316.493 107.836C318.583 105.814 320.816 103.945 323.173 102.242C323.246 102.206 323.312 102.158 323.369 102.101L323.473 102.026C323.473 102 323.469 101.974 323.462 101.948C323.473 101.912 323.476 101.873 323.471 101.836L322.084 94.5661L332.859 94.4679C332.937 94.4678 333.015 94.4485 333.084 94.4116C333.153 94.3747 333.212 94.3214 333.256 94.2563C333.3 94.1913 333.327 94.1164 333.335 94.0384C333.343 93.9603 333.332 93.8815 333.303 93.8087L331.353 89.0188C331.316 88.9314 331.255 88.8568 331.176 88.8043C331.097 88.7519 331.005 88.724 330.91 88.7241H321.086C320.591 87.5735 319.911 86.5116 319.073 85.5806C317.617 83.9371 314.947 81.828 310.526 81.1099C309.544 81.0706 309.587 81.9577 310.373 82.0559C313.686 82.5923 316.365 83.9803 318.33 86.1818C319.803 87.8272 320.299 89.3371 320.304 89.3518C320.336 89.4485 320.397 89.5328 320.479 89.5926C320.561 89.6525 320.66 89.6847 320.761 89.6848H330.591L332.151 93.516H321.385C320.697 93.5347 320.501 93.9993 320.514 94.5966L321.258 101.253C314.429 105.071 306.773 110.106 303.281 113.196C298.551 117.377 298.604 124.701 304.362 130.085C317.48 142.352 338.727 150.604 360.955 156.105C405.545 167.141 435.148 169.129 438.105 169.399C448.188 170.227 461.28 168.696 460.076 157.31C458.872 145.923 477.943 146.689 479.999 146.18C457.37 145.261 329.126 139.053 310.159 120.152Z" fill="#808080"/>
<path d="M479.996 146.164C473.558 146.008 461.053 146.545 459.627 155.103C459.474 156.109 459.591 157.123 459.662 158.126C459.799 160.392 459.213 162.727 457.705 164.455C453.022 169.339 445.426 169.238 439.113 169.012C420.13 167.549 401.283 164.48 382.641 160.652C361.9 156.253 340.826 151.625 321.866 141.814C315.068 138.187 308.331 134.023 303.027 128.373C299.252 124.104 298.781 117.127 303.282 113.182C300.647 115.362 299.33 118.921 299.854 122.297C301.004 129.936 309.886 134.88 315.785 138.906C329.244 147.09 344.362 152.138 359.541 156.066C385.666 162.558 412.201 167.708 439.058 169.904C446.32 170.249 457.202 170.086 460.138 161.982C460.964 159.78 460.375 157.483 460.569 155.231C461.736 147.584 474.379 146.832 480 146.774L479.996 146.164Z" fill="#636363"/>
<path d="M322.674 135.618C328.255 138.097 334.757 140.333 341.814 142.349C342.195 141.77 342.86 140.672 343.059 140.414C336.212 138.701 329.903 136.779 324.458 134.632C323.862 134.962 323.267 135.291 322.674 135.618Z" fill="#FFFCF6"/>
<path d="M305.39 120.564C305.071 120.643 304.757 120.739 304.449 120.851C304.743 122.2 305.568 123.716 306.577 124.947C306.731 125.128 306.89 125.308 307.054 125.488L308.078 124.775C307.01 123.608 305.953 122.126 305.39 120.564Z" fill="#FFFCF6"/>
<path d="M313.636 107.893C314.463 107.252 315.329 106.6 316.25 105.887C316.144 105.852 316.038 105.817 315.93 105.789C315.024 106.389 314.074 107.027 313.125 107.693C313.292 107.756 313.462 107.825 313.636 107.893Z" fill="#FFFCF6"/>
<path d="M312 108.935C310.838 109.765 309.691 110.636 308.64 111.529C308.87 111.674 309.112 111.805 309.355 111.928C310.365 110.946 311.43 110.021 312.544 109.158C312.359 109.082 312.18 109.008 312 108.935Z" fill="#FFFCF6"/>
<path d="M308.078 113.425C307.8 113.275 307.533 113.108 307.276 112.925C305.123 114.98 304.052 116.827 304.249 119.14C304.632 119.136 305.015 119.11 305.396 119.061C305.349 116.558 306.939 114.675 308.078 113.425Z" fill="#FFFCF6"/>
<path d="M309.957 128.206C312.032 129.898 314.518 131.502 317.348 133.02C317.86 132.746 318.371 132.471 318.882 132.194C315.837 130.714 313.189 129.137 311.028 127.458L309.957 128.206Z" fill="#FFFCF6"/>
<path d="M353.341 142.76L350.979 144.776C359.688 146.92 368.956 148.781 378.227 150.397C379.099 149.829 381.186 148.057 381.826 147.591C372.164 146.255 362.458 144.66 353.341 142.76Z" fill="#FFFCF6"/>
<path d="M443.674 153.74C434.614 153.11 414.266 151.368 401.974 150.05C400.442 151.178 398.908 152.304 397.373 153.43C408.934 155.1 428.776 157.223 437.839 158.253C439.77 156.73 441.715 155.226 443.674 153.74Z" fill="#FFFCF6"/>
<path d="M310.578 82.4337C312.527 82.4337 314.106 81.9279 314.106 81.304C314.106 80.6801 312.527 80.1743 310.578 80.1743C308.629 80.1743 307.049 80.6801 307.049 81.304C307.049 81.9279 308.629 82.4337 310.578 82.4337Z" fill="#3C2A21"/>
<path d="M311.847 81.205C311.847 81.4516 311.222 81.652 310.451 81.652C309.68 81.652 309.055 81.4555 309.055 81.205C309.055 80.9545 309.68 80.7571 310.451 80.7571C311.222 80.7571 311.847 80.9575 311.847 81.205Z" fill="#FFFCF6"/>
<path d="M310.45 60.8579C308.52 60.8584 306.669 61.6254 305.305 62.9902C303.94 64.355 303.173 66.206 303.172 68.1361C303.172 72.1569 310.45 79.5078 310.45 79.5078C310.45 79.5078 317.731 72.1569 317.731 68.1361C317.73 66.2057 316.963 64.3544 315.598 62.9895C314.232 61.6247 312.381 60.8579 310.45 60.8579ZM310.45 72.2276C309.638 72.2272 308.845 71.9861 308.17 71.5346C307.495 71.0832 306.969 70.4418 306.658 69.6914C306.348 68.9411 306.267 68.1155 306.425 67.3191C306.584 66.5227 306.975 65.7912 307.55 65.2172C308.124 64.6431 308.856 64.2522 309.652 64.0939C310.449 63.9357 311.274 64.0171 312.024 64.3279C312.774 64.6388 313.416 65.1651 313.867 65.8403C314.318 66.5155 314.559 67.3094 314.559 68.1214C314.559 68.6608 314.453 69.195 314.246 69.6934C314.04 70.1918 313.737 70.6446 313.356 71.0259C312.974 71.4073 312.521 71.7097 312.023 71.9159C311.524 72.1221 310.99 72.228 310.45 72.2276Z" fill="#876445"/>
<path d="M365.48 52.0642C365.48 51.9994 365.489 51.9345 365.489 51.8677C365.489 51.5401 365.424 51.2156 365.299 50.9129C365.173 50.6101 364.99 50.3351 364.758 50.1034C364.526 49.8717 364.251 49.6879 363.948 49.5625C363.646 49.4371 363.321 49.3726 362.993 49.3726C362.666 49.3726 362.341 49.4371 362.039 49.5625C361.736 49.6879 361.461 49.8717 361.229 50.1034C360.997 50.3351 360.814 50.6101 360.688 50.9129C360.563 51.2156 360.498 51.5401 360.498 51.8677C360.498 51.9335 360.498 51.9984 360.506 52.0642H365.48Z" fill="#FFFCF6"/>
<path d="M373.678 52.0642C373.678 51.9994 373.686 51.9345 373.686 51.8677C373.686 51.5401 373.622 51.2156 373.496 50.9129C373.371 50.6101 373.187 50.3351 372.955 50.1034C372.724 49.8717 372.449 49.6879 372.146 49.5625C371.843 49.4371 371.519 49.3726 371.191 49.3726C370.863 49.3726 370.539 49.4371 370.236 49.5625C369.933 49.6879 369.658 49.8717 369.427 50.1034C369.195 50.3351 369.011 50.6101 368.886 50.9129C368.76 51.2156 368.696 51.5401 368.696 51.8677C368.696 51.9335 368.696 51.9984 368.705 52.0642H373.678Z" fill="#FFFCF6"/>
<path d="M375.801 52.0659C375.808 52.0006 375.811 51.935 375.812 51.8694C375.782 51.4218 375.583 51.0024 375.255 50.6959C374.928 50.3895 374.496 50.219 374.047 50.219C373.599 50.219 373.167 50.3895 372.839 50.6959C372.512 51.0024 372.313 51.4218 372.283 51.8694C372.283 51.935 372.287 52.0006 372.294 52.0659H375.801Z" fill="#FFFCF6"/>
<path d="M370.808 52.0653C370.874 51.5504 370.83 51.0273 370.677 50.531C370.525 50.0346 370.269 49.5764 369.926 49.1867C369.583 48.7971 369.161 48.485 368.688 48.2712C368.215 48.0574 367.702 47.9468 367.183 47.9468C366.663 47.9468 366.15 48.0574 365.677 48.2712C365.204 48.485 364.782 48.7971 364.439 49.1867C364.096 49.5764 363.84 50.0346 363.688 50.531C363.536 51.0273 363.491 51.5504 363.557 52.0653H370.808Z" fill="#FFFCF6"/>
<path d="M393.01 42.9348C393.019 42.8297 393.024 42.7236 393.024 42.6155C393.024 41.5361 392.595 40.5009 391.832 39.7377C391.068 38.9744 390.033 38.5457 388.954 38.5457C387.874 38.5457 386.839 38.9744 386.076 39.7377C385.313 40.5009 384.884 41.5361 384.884 42.6155C384.884 42.7236 384.884 42.8297 384.898 42.9348H393.01Z" fill="#FFFCF6"/>
<path d="M406.382 42.9348C406.39 42.8297 406.395 42.7236 406.395 42.6155C406.395 41.5361 405.966 40.5009 405.203 39.7377C404.44 38.9744 403.405 38.5457 402.325 38.5457C401.246 38.5457 400.211 38.9744 399.448 39.7377C398.684 40.5009 398.255 41.5361 398.255 42.6155C398.255 42.7236 398.261 42.8297 398.269 42.9348H406.382Z" fill="#FFFCF6"/>
<path d="M409.845 42.9343C409.891 42.5313 409.851 42.1232 409.729 41.7366C409.606 41.35 409.403 40.9936 409.133 40.691C408.863 40.3883 408.532 40.1461 408.162 39.9803C407.792 39.8145 407.391 39.7288 406.985 39.7288C406.579 39.7288 406.178 39.8145 405.808 39.9803C405.438 40.1461 405.107 40.3883 404.837 40.691C404.567 40.9936 404.364 41.35 404.242 41.7366C404.119 42.1232 404.079 42.5313 404.125 42.9343H409.845Z" fill="#FFFCF6"/>
<path d="M401.701 42.9345C401.733 42.683 401.749 42.4297 401.749 42.1761C401.759 41.3867 401.612 40.6031 401.317 39.8708C401.022 39.1386 400.585 38.4722 400.03 37.9103C399.475 37.3485 398.815 36.9024 398.086 36.598C397.358 36.2935 396.576 36.1367 395.787 36.1367C394.997 36.1367 394.215 36.2935 393.487 36.598C392.759 36.9024 392.098 37.3485 391.543 37.9103C390.989 38.4722 390.551 39.1386 390.256 39.8708C389.961 40.6031 389.814 41.3867 389.824 42.1761C389.824 42.4296 389.84 42.6829 389.871 42.9345H401.701Z" fill="#FFFCF6"/>
<path d="M278.164 125.044C278.164 124.981 278.155 124.917 278.155 124.848C278.155 124.199 278.413 123.577 278.871 123.118C279.33 122.66 279.952 122.402 280.601 122.402C281.25 122.402 281.872 122.66 282.331 123.118C282.789 123.577 283.047 124.199 283.047 124.848C283.047 124.912 283.047 124.976 283.038 125.044H278.164Z" fill="#FFFCF6"/>
<path d="M270.129 125.044C270.124 124.981 270.12 124.917 270.12 124.848C270.12 124.199 270.378 123.577 270.837 123.118C271.296 122.66 271.918 122.402 272.566 122.402C273.215 122.402 273.837 122.66 274.296 123.118C274.755 123.577 275.012 124.199 275.012 124.848C275.012 124.912 275.012 124.976 275.004 125.044H270.129Z" fill="#FFFCF6"/>
<path d="M272.941 125.044C272.922 124.893 272.913 124.74 272.912 124.588C272.912 124.118 273.005 123.652 273.185 123.217C273.365 122.782 273.629 122.387 273.962 122.055C274.294 121.722 274.689 121.458 275.124 121.278C275.559 121.098 276.025 121.005 276.495 121.005C276.966 121.005 277.431 121.098 277.866 121.278C278.301 121.458 278.696 121.722 279.028 122.055C279.361 122.387 279.625 122.782 279.805 123.217C279.985 123.652 280.078 124.118 280.078 124.588C280.078 124.74 280.068 124.893 280.049 125.044H272.941Z" fill="#FFFCF6"/>
<path style="mix-blend-mode:screen" opacity="0.5" d="M409.908 75.4343C390.269 74.6592 369.625 72.3664 348.445 69.2651L347.6 70.7387C368.828 76.9776 385.938 80.7056 401.852 82.1516C402.911 80.739 407.603 76.3793 409.908 75.4343Z" fill="url(#paint0_linear_140_3631)"/>
<path style="mix-blend-mode:screen" opacity="0.5" d="M420.344 61.028C400.705 60.252 388.109 59.8777 368.673 57.6772L368.159 58.5741C389.812 62.3601 400.744 63.2619 416.667 64.7089C416.934 63.5949 418.607 61.6479 420.344 61.028Z" fill="url(#paint1_linear_140_3631)"/>
<path style="mix-blend-mode:screen" opacity="0.5" d="M366.328 118.107C348.688 116.865 331.847 113.859 318.792 104.787L318.277 105.684C331.402 117.366 344.345 124.545 362.014 127.031C362.283 125.917 364.556 120.622 366.328 118.107Z" fill="url(#paint2_linear_140_3631)"/>
<g style="mix-blend-mode:soft-light" opacity="0.6">
<path d="M368.776 139.519L438.976 146.685C447.707 148.276 440.588 156.319 423.83 155.191C423.83 155.191 382.848 150.224 361.544 146.934C353.845 145.744 355.823 137.879 368.776 139.519Z" fill="#3C2A21"/>
</g>
<path d="M382.778 107.209L359.997 105.196L360.385 81.4431L383.166 83.4559L382.778 107.209Z" fill="#948A52"/>
<path d="M359.54 80.5562L359.459 85.5475L383.805 87.6988L383.891 82.4639L359.54 80.5562Z" fill="#948A52"/>
<path d="M371.253 106.381L352.381 104.708L352.771 80.9534L371.643 82.6273L371.253 106.381Z" fill="#D5CEA3"/>
<path d="M352.076 79.9702L351.991 85.0696L372.161 86.8584L372.244 81.5498L352.076 79.9702Z" fill="#D5CEA3"/>
<path d="M352.718 85.0171L352.697 85.248L376.333 87.345L376.354 87.1141L352.718 85.0171Z" fill="#948A52"/>
<path d="M356.466 105.068L355.052 104.943L355.46 80.2285L356.873 80.3533L356.466 105.068Z" fill="#FFFCF6"/>
<path d="M368.296 106.13L366.882 106.005L367.288 81.1816L368.702 81.3074L368.296 106.13Z" fill="#FFFCF6"/>
<path d="M389.262 136.768C391.026 131.351 388.344 125.619 383.271 123.967C378.198 122.315 372.655 125.367 370.891 130.785C369.126 136.203 371.808 141.934 376.881 143.586C381.954 145.238 387.497 142.186 389.262 136.768Z" fill="#3C2A21"/>
<path d="M392.205 134.526C391.655 140.451 386.9 144.965 380.675 144.575C374.45 144.185 369.848 139.065 370.398 133.14C370.948 127.214 376.441 122.727 382.666 123.115C388.891 123.503 392.755 128.599 392.205 134.526Z" fill="#3C2A21"/>
<path d="M386.572 135.892C387.82 132.061 385.923 128.008 382.337 126.84C378.75 125.672 374.831 127.83 373.583 131.661C372.335 135.492 374.232 139.544 377.818 140.713C381.405 141.881 385.324 139.722 386.572 135.892Z" fill="#CCCCCC"/>
<path d="M382.836 134.727C383.418 132.941 382.534 131.052 380.861 130.507C379.189 129.962 377.361 130.969 376.78 132.755C376.198 134.54 377.082 136.43 378.755 136.975C380.427 137.519 382.255 136.513 382.836 134.727Z" fill="#737373"/>
<path d="M407.717 131.899C405.967 132.056 386.793 131.792 407.734 110.441C383.992 108.285 372.553 103.781 362.896 131.424L405.816 134.972C407.866 135.101 408.286 132.644 407.717 131.899Z" fill="#876445"/>
<path d="M411.173 110.645L387.754 108.735C385.227 108.526 385.683 103.136 388.209 103.349L411.63 105.262C414.65 105.508 414.195 110.896 411.173 110.645Z" fill="#3C2A21"/>
<path d="M383.123 109.142L363.039 107.557C362.906 107.547 362.776 107.511 362.657 107.45C362.538 107.389 362.432 107.305 362.345 107.204C362.259 107.102 362.193 106.984 362.153 106.856C362.112 106.729 362.097 106.595 362.108 106.462C362.132 106.192 362.262 105.942 362.469 105.767C362.676 105.592 362.943 105.506 363.214 105.527L383.298 107.112C383.431 107.123 383.561 107.159 383.68 107.22C383.799 107.28 383.905 107.364 383.991 107.466C384.078 107.568 384.143 107.686 384.184 107.813C384.225 107.94 384.24 108.075 384.228 108.208C384.204 108.478 384.074 108.727 383.868 108.902C383.661 109.077 383.393 109.163 383.123 109.142Z" fill="#3C2A21"/>
<path d="M365.425 106.351L364.557 107.021L371.897 116.539L372.765 115.87L365.425 106.351Z" fill="#3C2A21"/>
<path d="M403.52 110.275C403.52 110.275 383.465 131.26 403.531 132.263C407.509 132.369 407.72 131.9 407.72 131.9C401.968 130.918 396.521 128.733 401.183 121.291C405.037 115.133 411.541 110.597 411.541 110.597L403.52 110.275Z" fill="#664425"/>
<path d="M392.34 133.824C392.657 133.159 392.933 132.475 393.166 131.776C395.728 124.066 391.821 118.206 384.785 116.739C368.925 113.434 364.329 130.817 364.198 131.497L392.34 133.824Z" fill="#664425"/>
<path d="M388.655 133.519C388.972 132.854 389.248 132.171 389.481 131.472C392.042 123.762 388.29 117.032 381.1 116.435C373.91 115.839 366.004 121.609 363.44 129.319C363.214 129.997 363.033 130.689 362.898 131.391L388.655 133.519Z" fill="#876445"/>
<path d="M382.957 123.616L373.642 123.047C373.599 123.044 373.557 123.034 373.519 123.015C373.48 122.996 373.446 122.97 373.418 122.937C373.39 122.905 373.368 122.867 373.355 122.826C373.342 122.786 373.337 122.743 373.341 122.7V122.668C373.35 122.581 373.393 122.5 373.46 122.443C373.527 122.386 373.614 122.357 373.702 122.362L383.016 122.931C383.059 122.933 383.101 122.944 383.139 122.963C383.178 122.982 383.212 123.008 383.24 123.04C383.269 123.073 383.29 123.11 383.303 123.151C383.317 123.192 383.322 123.235 383.318 123.277V123.31C383.308 123.397 383.266 123.478 383.199 123.535C383.132 123.592 383.045 123.621 382.957 123.616Z" fill="#3C2A21"/>
<path d="M382.814 125.171L373.499 124.602C373.456 124.6 373.414 124.589 373.375 124.571C373.337 124.552 373.303 124.525 373.274 124.493C373.246 124.461 373.225 124.423 373.212 124.382C373.199 124.341 373.194 124.298 373.198 124.256V124.223C373.207 124.136 373.25 124.055 373.317 123.999C373.384 123.942 373.471 123.913 373.558 123.918L382.874 124.487C382.917 124.489 382.959 124.5 382.997 124.518C383.036 124.537 383.07 124.564 383.098 124.596C383.126 124.628 383.148 124.666 383.161 124.707C383.174 124.748 383.179 124.791 383.175 124.833V124.865C383.165 124.952 383.123 125.033 383.056 125.09C382.988 125.147 382.902 125.176 382.814 125.171Z" fill="#3C2A21"/>
<path d="M382.673 126.727L373.357 126.159C373.314 126.156 373.272 126.146 373.234 126.127C373.195 126.108 373.161 126.082 373.133 126.049C373.104 126.017 373.083 125.979 373.07 125.938C373.057 125.898 373.052 125.855 373.055 125.812V125.78C373.065 125.693 373.108 125.612 373.175 125.555C373.242 125.498 373.329 125.469 373.417 125.474L382.732 126.043C382.774 126.045 382.816 126.056 382.855 126.075C382.893 126.094 382.928 126.12 382.956 126.152C382.984 126.185 383.005 126.222 383.018 126.263C383.032 126.304 383.037 126.347 383.033 126.389V126.422C383.024 126.509 382.981 126.59 382.914 126.647C382.847 126.704 382.76 126.732 382.673 126.727Z" fill="#3C2A21"/>
<path d="M382.531 128.285L373.215 127.716C373.173 127.714 373.131 127.703 373.092 127.684C373.054 127.665 373.02 127.639 372.991 127.607C372.963 127.574 372.942 127.537 372.929 127.496C372.916 127.455 372.911 127.412 372.915 127.37V127.337C372.924 127.25 372.967 127.169 373.034 127.112C373.101 127.055 373.187 127.027 373.275 127.032L382.597 127.597C382.64 127.6 382.681 127.61 382.72 127.629C382.758 127.648 382.793 127.674 382.821 127.707C382.849 127.739 382.87 127.777 382.883 127.818C382.896 127.858 382.901 127.901 382.897 127.944V127.976C382.889 128.065 382.845 128.147 382.777 128.205C382.709 128.263 382.62 128.291 382.531 128.285Z" fill="#3C2A21"/>
<path d="M416.724 79.5706C416.724 79.5706 413.916 89.511 415.042 93.3441C417.348 97.1998 434.793 96.8315 434.793 96.8315L436.07 94.0052L424.556 90.5238L425.718 83.5491C426.881 77.264 419.783 75.1078 416.724 79.5706Z" fill="#876445"/>
<path d="M405.139 131.705L412.246 132.307C414.122 129.812 426.859 112.69 427.192 108.718C427.472 105.388 426.175 102.136 417.86 98.6467C412.287 96.3038 405.861 97.4679 405.861 97.4679C405.861 97.4679 401.163 102.41 405.068 105.34C408.972 108.271 416.391 110 416.391 110L405.139 131.705Z" fill="#74692A"/>
<path d="M405.111 131.758L419.497 132.874C419.497 132.874 423.864 131.106 420.832 127.328C418.461 125.106 413.687 126.222 411.903 128.672L406.96 128.361L405.111 131.758Z" fill="#3C2A21"/>
<path d="M397.221 131.209L404.329 131.81C406.204 129.316 418.942 112.195 419.275 108.221C419.555 104.892 418.258 101.639 409.943 98.1499C404.37 95.807 400.414 96.3993 398.473 96.8522C396.532 97.305 393.245 101.908 397.15 104.84C401.054 107.771 408.474 109.499 408.474 109.499L397.221 131.209Z" fill="#9C8E3E"/>
<path d="M397.191 131.262L411.576 132.378C411.576 132.378 415.942 130.61 412.911 126.832C410.539 124.609 405.765 125.726 403.98 128.176L399.038 127.864C396.623 129.04 397.11 130.15 397.191 131.262Z" fill="#3C2A21"/>
<path d="M416.542 98.6891C420.079 97.2293 422.421 89.6515 424.706 84.9785C428.79 76.6285 415.873 70.6617 408.966 78.0274C402.597 84.45 395.884 90.5965 396.72 97.9995C402.735 100.923 413.85 100.064 416.542 98.6891Z" fill="#D9AE87"/>
<path d="M413.964 99.5482L413.851 99.3459C415.059 98.67 415.521 97.2014 416.05 95.501C416.541 93.9164 417.108 92.1197 418.419 90.7081C421.814 85.8946 422.794 82.4475 423.018 80.4003C423.261 78.188 422.696 77.0967 422.691 77.0858L422.895 76.9768C422.919 77.022 423.495 78.1242 423.251 80.3983C423.029 82.477 422.042 85.9781 418.604 90.8476L418.594 90.8594C417.317 92.2347 416.76 94.0029 416.271 95.5746C415.724 97.3183 415.253 98.8272 413.964 99.5482Z" fill="#386B45"/>
<path d="M409.11 78.7942C409.11 78.7942 399.446 88.1491 402.425 93.3506C404.823 97.5345 419.702 98.4205 420.703 97.2889L421.98 94.4627C420.899 91.9086 415.381 90.879 411.012 89.878L415.988 85.3288C420.32 81.1243 414.549 73.9846 409.11 78.7942Z" fill="#876445"/>
<path d="M423.378 79.7208C423.378 79.7208 424.198 80.212 424.084 81.436C425.777 80.0794 424.084 75.6146 419.783 74.0537C415.702 72.5733 423.378 79.7208 423.378 79.7208Z" fill="#876445"/>
<path d="M418.573 74.931C417.323 76.2689 423.378 79.719 423.378 79.719L427.633 73.9732L422.689 70.7314L418.573 74.931Z" fill="#FFA794"/>
<path d="M421.095 69.0292C421.095 69.0292 422.42 77.7446 429.59 77.0069C432.799 76.6768 434.207 71.9163 434.186 69.1333C434.14 63.0143 428.831 59.9975 425.624 61.3551C420.308 63.6037 421.07 68.206 421.095 69.0292Z" fill="#FFA794"/>
<path d="M422.124 72.3399C422.124 72.3399 423.508 76.285 427.008 77.0158C428.42 77.2123 428.786 77.0502 428.786 77.0502C428.202 77.0316 424.327 75.8449 423.714 71.5255C423.496 70.6934 421.844 71.3202 422.124 72.3399Z" fill="#3C2A21"/>
<path d="M424.218 71.9869C425.004 70.6617 425.405 68.8817 425.861 67.0162C428.199 67.3266 431.289 67.6567 434.611 67.6184C435.555 67.6184 436.052 60.8127 428.441 59.7596C425.369 59.3342 421.54 60.3735 419.917 63.3943C418.17 66.6449 418.609 70.3238 420.163 71.9672C421.154 73.0105 423.153 73.2345 424.218 71.9869Z" fill="#876445"/>
<mask id="mask1_140_3631" style="mask-type:luminance" maskUnits="userSpaceOnUse" x="418" y="59" width="18" height="14">
<path d="M424.22 71.9866C425.006 70.6614 425.406 68.8814 425.862 67.016C428.2 67.3264 431.291 67.6564 434.613 67.6181C435.557 67.6181 436.054 60.8124 428.443 59.7593C425.371 59.334 421.542 60.3733 419.919 63.394C418.171 66.6446 418.611 70.3235 420.165 71.967C421.156 73.0103 423.155 73.2342 424.22 71.9866Z" fill="white"/>
</mask>
<g mask="url(#mask1_140_3631)">
<path d="M432.485 67.5417L432.059 67.6281C432.782 64.8776 431.067 62.7586 429.942 61.849C428.013 60.288 425.268 59.5326 423.95 60.1996L423.781 59.8636C425.242 59.1259 428.113 59.8853 430.18 61.5572C431.373 62.5238 433.261 64.5858 432.485 67.5417Z" fill="#FFFCF6"/>
<path d="M433.245 67.7988L432.885 67.6927C433.465 65.7231 432.974 63.7721 431.51 62.1994C429.834 60.4027 427.249 59.5186 425.082 59.997L425.001 59.6306C427.294 59.1237 430.02 60.053 431.785 61.943C433.344 63.6169 433.863 65.6966 433.245 67.7988Z" fill="#FFFCF6"/>
</g>
<path d="M430.712 71.7287C430.505 71.7315 430.299 71.7141 430.095 71.6766C430.063 71.6701 430.034 71.6509 430.016 71.6233C429.997 71.5957 429.991 71.5619 429.997 71.5293C430.004 71.4967 430.023 71.4681 430.05 71.4497C430.078 71.4312 430.112 71.4245 430.144 71.4311C430.154 71.4311 431.103 71.6177 431.586 71.2346C431.605 71.2188 431.621 71.1986 431.632 71.1756C431.643 71.1526 431.649 71.1274 431.648 71.102C431.673 70.6717 430.863 69.7787 430.552 69.4713C430.54 69.4598 430.531 69.4461 430.525 69.431C430.518 69.4159 430.515 69.3997 430.514 69.3833C430.514 69.3669 430.517 69.3506 430.523 69.3353C430.53 69.3201 430.539 69.3062 430.55 69.2944C430.562 69.2827 430.575 69.2734 430.59 69.2669C430.605 69.2604 430.622 69.257 430.638 69.2568C430.655 69.2567 430.671 69.2597 430.686 69.2658C430.701 69.2719 430.715 69.281 430.727 69.2925C430.851 69.4143 431.932 70.4959 431.899 71.1157C431.897 71.1769 431.882 71.2369 431.855 71.2916C431.827 71.3463 431.788 71.3942 431.74 71.432C431.451 71.6619 431.048 71.7238 430.712 71.7287Z" fill="#B3523D"/>
<path d="M427.76 68.9517C427.729 69.2935 427.496 69.5588 427.241 69.5411C426.987 69.5234 426.805 69.2346 426.838 68.8918C426.87 68.5489 427.102 68.2847 427.356 68.3024C427.611 68.32 427.791 68.6039 427.76 68.9517Z" fill="#3C2A21"/>
<path d="M433.211 69.3713C433.183 69.666 432.985 69.89 432.767 69.8762C432.549 69.8625 432.395 69.6149 432.422 69.3222C432.45 69.0294 432.648 68.8025 432.866 68.8163C433.084 68.83 433.237 69.0786 433.211 69.3713Z" fill="#3C2A21"/>
<path d="M427.217 72.2207C427.217 72.2207 428.614 73.932 431.784 73.7178C431.784 73.7178 429.987 76.1639 427.855 75.1501C425.722 74.1363 427.217 72.2207 427.217 72.2207Z" fill="#B33A20"/>
<path d="M425.859 67.0156C429.372 67.3801 432.756 67.7033 434.785 67.5746C434.785 67.5746 437.115 68.2887 436.499 68.7652C435.883 69.2416 425.859 67.0156 425.859 67.0156Z" fill="#3C2A21"/>
<path d="M419.783 74.0539C419.783 74.0539 418.478 73.4448 417.851 74.7494C418.02 78.0177 420.503 81.1111 421.788 81.4185C421.996 80.89 422.441 80.2397 423.378 79.721C423.378 79.721 419.792 76.7485 419.783 74.0539Z" fill="#876445"/>
<path d="M443.906 141.988C445.563 136.902 443.045 131.521 438.282 129.97C433.519 128.418 428.315 131.284 426.658 136.371C425.001 141.457 427.52 146.838 432.283 148.389C437.046 149.94 442.25 147.075 443.906 141.988Z" fill="#3C2A21"/>
<path d="M446.666 139.877C446.15 145.441 441.686 149.679 435.841 149.308C429.996 148.936 425.676 144.134 426.193 138.57C426.71 133.006 431.866 128.793 437.711 129.159C443.556 129.524 447.183 134.315 446.666 139.877Z" fill="#3C2A21"/>
<path d="M441.38 141.165C442.552 137.568 440.771 133.764 437.404 132.667C434.036 131.57 430.357 133.596 429.185 137.193C428.014 140.79 429.794 144.594 433.162 145.691C436.529 146.788 440.209 144.762 441.38 141.165Z" fill="#CCCCCC"/>
<path d="M437.873 140.07C438.419 138.393 437.589 136.618 436.019 136.107C434.448 135.596 432.733 136.54 432.187 138.218C431.64 139.895 432.47 141.669 434.041 142.18C435.611 142.692 437.327 141.747 437.873 140.07Z" fill="#737373"/>
<path d="M439.957 131.729C438.121 134.052 435.634 135.781 432.755 136.503C432.58 136.546 432.404 136.587 432.228 136.623C431.944 136.682 431.659 136.73 431.371 136.766C430.724 136.852 430.072 136.886 429.42 136.869C429.173 136.864 428.929 136.851 428.678 136.831L428.492 136.815L417.12 135.875L406.271 135.124C401.17 134.804 401.772 132.864 406.647 132.184C421.836 132.245 428.634 116.105 424.793 107.625C423.484 104.523 426.954 102.142 430.288 101.632C430.715 101.568 431.145 101.535 431.576 101.534C431.859 101.533 432.141 101.55 432.421 101.584C432.508 101.596 432.591 101.607 432.676 101.622C433.093 101.675 433.505 101.766 433.906 101.893C435.101 102.272 436.145 102.981 436.836 104.088L441.978 115.711C444.478 121.356 443.287 127.517 439.957 131.729Z" fill="#876445"/>
<path d="M438.988 124.997C438.945 125.282 438.894 125.563 438.835 125.839L440.245 125.9C440.279 125.717 440.31 125.538 440.337 125.36C440.967 121.151 439.807 117.723 439.758 117.579L433.907 101.892C433.371 101.754 432.822 101.67 432.269 101.64L438.497 118.159C438.558 118.342 439.533 121.362 438.988 124.997Z" fill="#FFFCF6"/>
<path d="M439.179 91.4411C439.026 91.4221 438.872 91.4178 438.718 91.4284C438.452 91.4472 438.189 91.5048 437.939 91.5993C436.042 92.3046 434.455 95.0473 434.233 98.2292C434.082 100.399 434.599 102.279 435.521 103.401C435.792 103.741 436.13 104.021 436.514 104.225L434.042 103.365L433.832 103.291C432.129 102.621 431.004 100.255 431.192 97.3676C431.411 93.9962 433.338 91.1435 435.558 90.8242C435.96 90.837 436.377 90.8704 436.805 90.9225C437.609 91.0302 438.403 91.2036 439.179 91.4411Z" fill="#AD7038"/>
<path d="M433.835 103.291L426.56 100.76C426.56 100.76 424.016 99.6047 425.468 96.1429C425.468 96.1429 428.744 90.6083 435.561 90.8274C433.341 91.1466 431.413 93.9994 431.194 97.3708C431.007 100.255 432.132 102.621 433.835 103.291Z" fill="#876445"/>
<path d="M439.179 91.4466C439.118 91.7502 439.019 92.2571 438.897 92.9005C438.417 95.4281 437.563 100.047 437.099 102.567L436.775 104.321L436.514 104.231C436.13 104.027 435.792 103.746 435.521 103.407C434.599 102.285 434.082 100.405 434.233 98.2347C434.455 95.0528 436.041 92.3101 437.939 91.6048C438.189 91.5103 438.452 91.4527 438.718 91.4339C438.872 91.4233 439.026 91.4276 439.179 91.4466Z" fill="#876445"/>
<path d="M442.293 97.6927C442.041 101.301 440.034 104.346 437.808 104.494C437.361 104.525 436.914 104.431 436.516 104.224C436.133 104.02 435.795 103.74 435.523 103.4C434.602 102.278 434.084 100.398 434.235 98.2281C434.457 95.0463 436.044 92.3035 437.942 91.5982C438.192 91.5037 438.454 91.4461 438.721 91.4273C438.874 91.4167 439.029 91.421 439.181 91.44C441.162 91.6788 442.527 94.338 442.293 97.6927Z" fill="#AD7038"/>
<path d="M441.862 97.734C441.653 100.727 439.986 103.254 438.14 103.377C437.769 103.402 437.399 103.324 437.069 103.153C436.75 102.983 436.47 102.748 436.245 102.465C435.48 101.535 435.05 99.9748 435.176 98.1741C435.36 95.5336 436.677 93.2624 438.251 92.6729C438.459 92.5943 438.677 92.5467 438.898 92.5315C439.025 92.5229 439.153 92.5262 439.28 92.5413C440.922 92.7447 442.056 94.951 441.862 97.734Z" fill="#FFFCF6"/>
<path d="M428.224 99.0678L419.568 99.2643L419.589 95.5117L428.242 95.8064C429.921 95.7671 429.822 99.0325 428.224 99.0678Z" fill="#3C2A21"/>
<path d="M420.764 97.405C420.789 96.3685 420.273 95.5151 419.611 95.4988C418.948 95.4825 418.391 96.3095 418.365 97.346C418.34 98.3824 418.856 99.2359 419.518 99.2522C420.181 99.2685 420.738 98.4415 420.764 97.405Z" fill="#3C2A21"/>
<path d="M441.45 128.868C441.084 129.885 440.582 130.847 439.957 131.729C438.12 134.051 435.635 135.781 432.755 136.503C432.299 136.617 431.837 136.705 431.371 136.766C430.479 136.883 429.576 136.905 428.679 136.831L428.492 136.815L417.121 135.875C417.233 135.868 424.252 136.465 429.432 128.37C433.891 121.611 443.306 123.471 441.45 128.868Z" fill="#664425"/>
<path d="M450.12 138.238C450.192 138.182 450.242 138.101 450.259 138.011C451.223 131.232 443.186 123.988 436.938 124.7C431.476 126.139 428.08 130.978 427.346 136.72L450.12 138.238Z" fill="#876445"/>
<path d="M420.473 95.3154C420.473 95.3154 421.725 93.4775 424.598 94.4863C427.472 95.4952 426.496 98.7173 425.722 99.125C424.948 99.5327 422.271 99.904 422.662 99.1928C423.053 98.4816 423.464 97.2939 422.807 96.3135C422.358 95.6436 420.449 95.5384 420.449 95.5384L420.473 95.3154Z" fill="#FFA794"/>
<path d="M384.168 108.239L383.019 108.108L383.707 102.049L378.85 101.745L378.171 107.678L377.022 107.546L377.763 101.062C377.78 100.915 377.852 100.78 377.966 100.685C378.08 100.59 378.226 100.542 378.374 100.551L384.387 100.927C384.465 100.932 384.541 100.953 384.611 100.988C384.682 101.024 384.744 101.073 384.794 101.133C384.845 101.193 384.882 101.263 384.905 101.338C384.928 101.413 384.935 101.492 384.926 101.57L384.168 108.239Z" fill="#3C2A21"/>
<g style="mix-blend-mode:soft-light" opacity="0.8">
<path d="M370.557 132.062L392.34 133.827L391.479 137.661L370.362 134.515L370.557 132.062Z" fill="#3C2A21"/>
</g>
<g style="mix-blend-mode:soft-light" opacity="0.8">
<path d="M426.54 136.655L446.705 138.03C446.759 139.449 446.637 140.762 446.282 141.938L426.144 139.127C426.204 138.229 426.318 137.39 426.54 136.655Z" fill="#3C2A21"/>
</g>
<path d="M373.165 73.922C375.561 71.5266 375.561 67.6429 373.165 65.2475C370.77 62.8521 366.886 62.8521 364.491 65.2475C362.096 67.6429 362.096 71.5266 364.491 73.922C366.886 76.3174 370.77 76.3174 373.165 73.922Z" fill="#876445"/>
<path d="M368.496 72.4677L365.639 68.002L366.118 67.4951L368.487 69.7358L375.647 63.3574L376.112 63.9508L368.496 72.4677Z" fill="#FFFCF6"/>
<path style="mix-blend-mode:screen" opacity="0.5" d="M438.9 92.5363L470.586 91.0952L467.337 111.163L437.716 103.386L438.9 92.5363Z" fill="url(#paint3_linear_140_3631)"/>
<path d="M344.883 56.1357H323.614C322.691 56.1357 321.943 56.8839 321.943 57.8067V70.2236C321.943 71.1465 322.691 71.8946 323.614 71.8946H344.883C345.806 71.8946 346.554 71.1465 346.554 70.2236V57.8067C346.554 56.8839 345.806 56.1357 344.883 56.1357Z" fill="#FFFCF6"/>
<path d="M326.638 67.5708L326.875 68.2987H327.64L327.021 68.7486L327.258 69.4766L326.638 69.0266L326.019 69.4766L326.256 68.7486L325.636 68.2987H326.401L326.638 67.5708Z" fill="#FDF280"/>
<path d="M330.401 67.5708L330.637 68.2987H331.403L330.783 68.7486L331.02 69.4766L330.401 69.0266L329.781 69.4766L330.018 68.7486L329.399 68.2987H330.164L330.401 67.5708Z" fill="#FDF280"/>
<path d="M334.163 67.5708L334.4 68.2987H335.165L334.546 68.7486L334.782 69.4766L334.163 69.0266L333.544 69.4766L333.78 68.7486L333.161 68.2987H333.927L334.163 67.5708Z" fill="#FDF280"/>
<path d="M337.926 67.5708L338.163 68.2987H338.928L338.309 68.7486L338.546 69.4766L337.926 69.0266L337.307 69.4766L337.544 68.7486L336.924 68.2987H337.691L337.926 67.5708Z" fill="#FDF280"/>
<path d="M341.689 67.5708L341.926 68.2987H342.691L342.071 68.7486L342.308 69.4766L341.689 69.0266L341.069 69.4766L341.306 68.7486L340.687 68.2987H341.453L341.689 67.5708Z" fill="#FDF280"/>
<path d="M342.259 60.0451H336.954C336.841 60.0446 336.733 59.9996 336.652 59.9198C336.572 59.8401 336.526 59.7319 336.525 59.6188C336.525 59.5045 336.571 59.3949 336.652 59.3141C336.733 59.2333 336.842 59.1878 336.956 59.1875H342.261C342.375 59.1878 342.485 59.2333 342.566 59.3141C342.647 59.3949 342.692 59.5045 342.692 59.6188C342.691 59.7326 342.645 59.8413 342.564 59.9212C342.482 60.0011 342.373 60.0456 342.259 60.0451Z" fill="#94F3F7"/>
<path d="M342.259 61.9316H335.383C335.326 61.9317 335.27 61.9207 335.217 61.899C335.165 61.8774 335.117 61.8457 335.077 61.8056C335.037 61.7656 335.005 61.718 334.983 61.6656C334.962 61.6132 334.95 61.5571 334.95 61.5003C334.951 61.3859 334.996 61.2762 335.077 61.1953C335.158 61.1145 335.268 61.0691 335.383 61.0691H342.259C342.373 61.0694 342.483 61.1149 342.564 61.1957C342.645 61.2765 342.69 61.386 342.69 61.5003C342.69 61.6147 342.645 61.7244 342.564 61.8053C342.483 61.8862 342.373 61.9316 342.259 61.9316Z" fill="#94F3F7"/>
<path d="M342.259 63.8164H335.383C335.326 63.8165 335.27 63.8054 335.217 63.7838C335.165 63.7622 335.117 63.7305 335.077 63.6904C335.037 63.6503 335.005 63.6028 334.983 63.5504C334.962 63.498 334.95 63.4418 334.95 63.3851C334.95 63.3284 334.962 63.2722 334.983 63.2198C335.005 63.1675 335.037 63.1199 335.077 63.0798C335.117 63.0398 335.165 63.008 335.217 62.9864C335.27 62.9648 335.326 62.9537 335.383 62.9539H342.259C342.373 62.9539 342.483 62.9993 342.564 63.0802C342.645 63.161 342.69 63.2707 342.69 63.3851C342.69 63.4995 342.645 63.6092 342.564 63.6901C342.483 63.7709 342.373 63.8164 342.259 63.8164Z" fill="#94F3F7"/>
<path d="M342.259 65.7026H335.383C335.268 65.7026 335.158 65.6572 335.077 65.5763C334.996 65.4955 334.951 65.3858 334.95 65.2713C334.95 65.2146 334.962 65.1585 334.983 65.1061C335.005 65.0537 335.037 65.0061 335.077 64.9661C335.117 64.926 335.165 64.8942 335.217 64.8726C335.27 64.851 335.326 64.84 335.383 64.8401H342.259C342.373 64.8401 342.483 64.8855 342.564 64.9664C342.645 65.0473 342.69 65.157 342.69 65.2713C342.69 65.3856 342.645 65.4952 342.564 65.576C342.483 65.6568 342.373 65.7023 342.259 65.7026Z" fill="#94F3F7"/>
<path d="M332.852 58.8718H325.047V65.8937H332.852V58.8718Z" fill="#94F3F7"/>
<defs>
<linearGradient id="paint0_linear_140_3631" x1="405.069" y1="79.088" x2="323.827" y2="63.7529" gradientUnits="userSpaceOnUse">
<stop stop-color="white" stop-opacity="0.25"/>
<stop offset="1" stop-opacity="0"/>
</linearGradient>
<linearGradient id="paint1_linear_140_3631" x1="416.334" y1="63.968" x2="348.644" y2="51.1904" gradientUnits="userSpaceOnUse">
<stop stop-color="white" stop-opacity="0.25"/>
<stop offset="1" stop-opacity="0"/>
</linearGradient>
<linearGradient id="paint2_linear_140_3631" x1="362.634" y1="120.153" x2="297.847" y2="107.924" gradientUnits="userSpaceOnUse">
<stop stop-color="white" stop-opacity="0.25"/>
<stop offset="1" stop-opacity="0"/>
</linearGradient>
<linearGradient id="paint3_linear_140_3631" x1="439.12" y1="102.055" x2="471.314" y2="101.054" gradientUnits="userSpaceOnUse">
<stop stop-color="white" stop-opacity="0.25"/>
<stop offset="1" stop-opacity="0"/>
</linearGradient>
</defs>
</svg>
