<svg width="50" height="50" viewBox="0 0 50 50" fill="none" xmlns="http://www.w3.org/2000/svg">
<g id="authentic-icon" clip-path="url(#clip0_1_3976)">
<path id="Vector" fill-rule="evenodd" clip-rule="evenodd" d="M24.9893 0.0321359C22.5644 -0.0017396 20.1569 0.446623 17.9067 1.35117C15.6565 2.25572 13.6086 3.59842 11.8818 5.30126C10.155 7.0041 8.78379 9.03312 7.8479 11.2704C6.91201 13.5078 6.43006 15.9087 6.43006 18.3339C6.43006 20.7591 6.91201 23.1601 7.8479 25.3974C8.78379 27.6347 10.155 29.6637 11.8818 31.3666C13.6086 33.0694 15.6565 34.4121 17.9067 35.3167C20.1569 36.2212 22.5644 36.6696 24.9893 36.6357C29.8437 36.6357 34.4993 34.7073 37.9319 31.2747C41.3645 27.8421 43.2929 23.1865 43.2929 18.3321C43.2929 13.4777 41.3645 8.82214 37.9319 5.38956C34.4993 1.95697 29.8437 0.0321359 24.9893 0.0321359ZM25.7143 8.68571L28.1536 13.5929C28.2078 13.7166 28.2939 13.8239 28.4031 13.9035C28.5122 13.9832 28.6406 14.0325 28.775 14.0464L34.1893 14.8679C34.3443 14.8877 34.4905 14.9513 34.6106 15.0513C34.7308 15.1513 34.8199 15.2835 34.8675 15.4324C34.9151 15.5812 34.9193 15.7406 34.8795 15.8918C34.8397 16.0429 34.7576 16.1796 34.6429 16.2857L30.65 20.0857C30.5906 20.1992 30.5595 20.3254 30.5595 20.4536C30.5595 20.5817 30.5906 20.7079 30.65 20.8214L31.4143 26.2071C31.4465 26.3622 31.4331 26.5233 31.3758 26.6709C31.3185 26.8186 31.2198 26.9466 31.0915 27.0394C30.9632 27.1322 30.8108 27.186 30.6526 27.1942C30.4944 27.2024 30.3373 27.1648 30.2 27.0857L25.3786 24.5357C25.2535 24.479 25.1177 24.4496 24.9804 24.4496C24.843 24.4496 24.7073 24.479 24.5822 24.5357L19.7607 27.0857C19.6235 27.1648 19.4663 27.2024 19.3082 27.1942C19.15 27.186 18.9976 27.1322 18.8693 27.0394C18.7409 26.9466 18.6422 26.8186 18.5849 26.6709C18.5277 26.5233 18.5143 26.3622 18.5464 26.2071L19.45 20.8214C19.4887 20.6965 19.4959 20.564 19.471 20.4356C19.4461 20.3073 19.3898 20.1871 19.3072 20.0857L15.3107 16.2571C15.2034 16.15 15.1278 16.0152 15.0924 15.8677C15.057 15.7202 15.0631 15.5657 15.1101 15.4215C15.157 15.2773 15.243 15.1489 15.3585 15.0505C15.474 14.9522 15.6144 14.8877 15.7643 14.8643L21.1822 14.075C21.3166 14.0611 21.4449 14.0118 21.5541 13.9321C21.6633 13.8524 21.7494 13.7452 21.8036 13.6214L24.2429 8.71428C24.3078 8.575 24.4105 8.45673 24.5393 8.3729C24.6681 8.28908 24.8178 8.24306 24.9715 8.24009C25.1251 8.23711 25.2765 8.27729 25.4084 8.35607C25.5404 8.43484 25.6476 8.54905 25.7179 8.68571H25.7143ZM43.9286 30.9643C40.8505 35.5768 36.1972 38.9097 30.8393 40.3393L35.8822 49.075C36.0586 49.3809 36.3217 49.6276 36.6384 49.784C36.955 49.9404 37.3109 49.9994 37.661 49.9535C38.0112 49.9076 38.3399 49.759 38.6055 49.5263C38.8712 49.2937 39.0619 48.9875 39.1536 48.6464L40.975 41.8643L47.7536 43.6821C48.0947 43.7732 48.455 43.7611 48.7892 43.6474C49.1234 43.5337 49.4164 43.3235 49.6312 43.0433C49.846 42.7632 49.9729 42.4257 49.996 42.0734C50.019 41.7212 49.9372 41.37 49.7607 41.0643L43.9286 30.9643ZM19.1572 40.3428C13.7987 38.9188 9.14284 35.591 6.06073 30.9821L0.2393 41.0643C0.0628637 41.37 -0.0189978 41.7212 0.00405784 42.0734C0.0271134 42.4257 0.154052 42.7632 0.368836 43.0433C0.583621 43.3235 0.876615 43.5337 1.2108 43.6474C1.54499 43.7611 1.90538 43.7732 2.24644 43.6821L9.02859 41.8643L10.8464 48.6464C10.9381 48.9875 11.1288 49.2937 11.3945 49.5263C11.6602 49.759 11.9889 49.9076 12.339 49.9535C12.6891 49.9994 13.045 49.9404 13.3617 49.784C13.6783 49.6276 13.9415 49.3809 14.1179 49.075L19.1572 40.3428Z" fill="#876445"/>
</g>
<defs>
<clipPath id="clip0_1_3976">
<rect width="50" height="50" fill="white"/>
</clipPath>
</defs>
</svg>
