<svg width="25" height="25" viewBox="0 0 25 25" fill="none" xmlns="http://www.w3.org/2000/svg">
<g clip-path="url(#clip0_2294_85)">
<mask id="mask0_2294_85" style="mask-type:luminance" maskUnits="userSpaceOnUse" x="0" y="0" width="25" height="25">
<path d="M0 0H25V25H0V0Z" fill="white"/>
</mask>
<g mask="url(#mask0_2294_85)">
<path fill-rule="evenodd" clip-rule="evenodd" d="M8.61719 5.46886H9.5875L10.275 4.78136L11.9469 3.10949C12.0194 3.03673 12.1057 2.97901 12.2006 2.93963C12.2955 2.90024 12.3972 2.87997 12.5 2.87997C12.6028 2.87997 12.7045 2.90024 12.7994 2.93963C12.8943 2.97901 12.9806 3.03673 13.0531 3.10949L14.725 4.78136L15.4125 5.46886H18.75C18.9572 5.46886 19.1559 5.55117 19.3024 5.69769C19.4489 5.8442 19.5312 6.04291 19.5312 6.25011V9.58762L20.2188 10.2751L21.8906 11.947C21.9634 12.0196 22.0211 12.1058 22.0605 12.2007C22.0999 12.2956 22.1201 12.3974 22.1201 12.5001C22.1201 12.6029 22.0999 12.7046 22.0605 12.7995C22.0211 12.8945 21.9634 12.9807 21.8906 13.0532L20.2188 14.7251L19.5312 15.4126V18.7501C19.5312 18.9573 19.4489 19.156 19.3024 19.3025C19.1559 19.4491 18.9572 19.5314 18.75 19.5314H15.4125L14.725 20.2189L13.0531 21.8907C12.9806 21.9635 12.8943 22.0212 12.7994 22.0606C12.7045 22.1 12.6028 22.1203 12.5 22.1203C12.3972 22.1203 12.2955 22.1 12.2006 22.0606C12.1057 22.0212 12.0194 21.9635 11.9469 21.8907L10.275 20.2189L9.5875 19.5314H6.25C6.0428 19.5314 5.84409 19.4491 5.69757 19.3025C5.55106 19.156 5.46875 18.9573 5.46875 18.7501V15.4126L4.78125 14.7251L3.10938 13.0532C3.03662 12.9807 2.9789 12.8945 2.93951 12.7995C2.90013 12.7046 2.87985 12.6029 2.87985 12.5001C2.87985 12.3974 2.90013 12.2956 2.93951 12.2007C2.9789 12.1058 3.03662 12.0196 3.10938 11.947L4.78125 10.2751L5.46875 9.58762V6.25011C5.46875 6.04291 5.55106 5.8442 5.69757 5.69769C5.84409 5.55117 6.0428 5.46886 6.25 5.46886H8.61719ZM14.7109 1.45168C14.4207 1.16113 14.0761 0.930629 13.6967 0.773365C13.3173 0.616102 12.9107 0.535156 12.5 0.535156C12.0893 0.535156 11.6827 0.616102 11.3033 0.773365C10.9239 0.930629 10.5793 1.16113 10.2891 1.45168L8.61875 3.12511H6.25C5.4212 3.12511 4.62634 3.45435 4.04029 4.04041C3.45424 4.62646 3.125 5.42131 3.125 6.25011V8.6173L1.45156 10.2892C1.16101 10.5794 0.930514 10.9241 0.773251 11.3034C0.615988 11.6828 0.535042 12.0894 0.535042 12.5001C0.535042 12.9108 0.615988 13.3174 0.773251 13.6968C0.930514 14.0762 1.16101 14.4208 1.45156 14.7111L3.125 16.3814V18.7501C3.125 19.5789 3.45424 20.3738 4.04029 20.9598C4.62634 21.5459 5.4212 21.8751 6.25 21.8751H8.61719L10.2891 23.5486C10.5793 23.8391 10.9239 24.0696 11.3033 24.2269C11.6827 24.3841 12.0893 24.4651 12.5 24.4651C12.9107 24.4651 13.3173 24.3841 13.6967 24.2269C14.0761 24.0696 14.4207 23.8391 14.7109 23.5486L16.3813 21.8751H18.75C19.5788 21.8751 20.3737 21.5459 20.9597 20.9598C21.5458 20.3738 21.875 19.5789 21.875 18.7501V16.3829L23.5484 14.7111C23.839 14.4208 24.0695 14.0762 24.2267 13.6968C24.384 13.3174 24.465 12.9108 24.465 12.5001C24.465 12.0894 24.384 11.6828 24.2267 11.3034C24.0695 10.9241 23.839 10.5794 23.5484 10.2892L21.875 8.61886V6.25011C21.875 5.42131 21.5458 4.62646 20.9597 4.04041C20.3737 3.45435 19.5788 3.12511 18.75 3.12511H16.3828L14.7109 1.45168ZM10.2031 16.4532L16.4531 10.2032C16.5683 10.096 16.6606 9.96658 16.7247 9.82283C16.7887 9.67908 16.8231 9.5239 16.8259 9.36656C16.8287 9.20921 16.7998 9.05291 16.7408 8.90699C16.6819 8.76107 16.5942 8.62852 16.4829 8.51724C16.3716 8.40596 16.239 8.31824 16.0931 8.2593C15.9472 8.20036 15.7909 8.17141 15.6336 8.17419C15.4762 8.17697 15.321 8.21141 15.1773 8.27546C15.0335 8.33951 14.9042 8.43185 14.7969 8.54699L8.54688 14.797C8.43174 14.9043 8.33939 15.0337 8.27534 15.1774C8.21129 15.3211 8.17685 15.4763 8.17408 15.6337C8.1713 15.791 8.20024 15.9473 8.25918 16.0932C8.31812 16.2392 8.40585 16.3717 8.51713 16.483C8.62841 16.5943 8.76096 16.682 8.90688 16.7409C9.0528 16.7999 9.20909 16.8288 9.36644 16.826C9.52379 16.8233 9.67897 16.7888 9.82272 16.7248C9.96646 16.6607 10.0958 16.5684 10.2031 16.4532ZM17.1875 15.6251C17.1875 16.0395 17.0229 16.4369 16.7299 16.73C16.4368 17.023 16.0394 17.1876 15.625 17.1876C15.2106 17.1876 14.8132 17.023 14.5201 16.73C14.2271 16.4369 14.0625 16.0395 14.0625 15.6251C14.0625 15.2107 14.2271 14.8133 14.5201 14.5203C14.8132 14.2272 15.2106 14.0626 15.625 14.0626C16.0394 14.0626 16.4368 14.2272 16.7299 14.5203C17.0229 14.8133 17.1875 15.2107 17.1875 15.6251ZM9.375 10.9376C9.7894 10.9376 10.1868 10.773 10.4799 10.48C10.7729 10.1869 10.9375 9.78952 10.9375 9.37511C10.9375 8.96071 10.7729 8.56329 10.4799 8.27026C10.1868 7.97723 9.7894 7.81261 9.375 7.81261C8.9606 7.81261 8.56317 7.97723 8.27015 8.27026C7.97712 8.56329 7.8125 8.96071 7.8125 9.37511C7.8125 9.78952 7.97712 10.1869 8.27015 10.48C8.56317 10.773 8.9606 10.9376 9.375 10.9376Z" fill="#3C2A21"/>
</g>
</g>
<defs>
<clipPath id="clip0_2294_85">
<rect width="25" height="25" fill="white"/>
</clipPath>
</defs>
</svg>
