<svg width="100" height="41" viewBox="0 0 100 41" fill="none" xmlns="http://www.w3.org/2000/svg">
<rect y="0.697754" width="100" height="40" rx="5" fill="#FFFCF6"/>
<path d="M74.3101 21.8625L61.4325 19.8445L63.1396 27.5181L74.3101 21.8625Z" fill="#D12053"/>
<path d="M74.3101 21.8624L64.6064 8.38013L61.4349 19.8469L74.3101 21.8624Z" fill="#E2136E"/>
<path d="M61.1335 19.6919L50.9659 6.69775L64.2807 8.28833L61.1335 19.6919Z" fill="#D12053"/>
<path d="M56.5031 14.2617L50.8572 8.94116H52.3433L56.5031 14.2617Z" fill="#9E1638"/>
<path d="M77.0568 15.3093L74.6673 21.7906L70.7941 16.4337L77.0568 15.3093Z" fill="#D12053"/>
<path d="M64.6434 27.1301L74.0193 23.3637L74.4127 22.1665L64.6434 27.1301Z" fill="#E2136E"/>
<path d="M57.1443 34.2385L61.1608 20.1492L63.1982 29.3162L57.1443 34.2385Z" fill="#9E1638"/>
<path d="M77.4308 15.3596L76.4449 18.0357L80 17.9774L77.4308 15.3596ZM20 16.433C20.1724 16.4475 20.3473 16.4791 20.5318 16.4791C20.7164 16.4791 20.8669 16.4475 21.0636 16.433V22.1323C21.6246 21.178 22.3312 20.549 23.3706 20.549C25.2501 20.549 26.0563 22.4092 26.0563 24.1187C26.0563 26.1658 24.9636 28.1255 23.0476 28.1255C22.664 28.1339 22.2854 28.0372 21.9528 27.8459C21.6202 27.6546 21.3463 27.3759 21.1608 27.04C20.8402 27.3217 20.5561 27.6593 20.2525 27.9653H20.0097L20 16.433ZM21.0393 24.8157C21.0393 26.4767 21.7436 27.635 22.9019 27.635C24.4051 27.635 24.8883 25.6146 24.8883 24.1819C24.8883 22.5184 24.3395 21.2095 23.0379 21.195C21.5177 21.1828 21.0393 22.9823 21.0393 24.8181V24.8157Z" fill="#E2136E"/>
<path d="M30.9594 20.1188L29.8278 21.5759C30.8914 23.13 31.9939 24.6526 33.0623 26.2262L34.1405 27.926V28.011C33.8759 27.994 33.6354 27.96 33.412 27.96C33.1886 27.96 32.9069 27.994 32.669 28.011C32.3751 27.4671 32.0837 26.9644 31.751 26.4714L28.837 22.1611C28.7714 22.0931 28.6136 22.0397 28.6136 22.1101V28.011C28.3999 27.994 28.2129 27.96 28.0284 27.96C27.8438 27.96 27.6301 27.994 27.4431 28.011V16.4326C27.6301 16.4472 27.8317 16.4836 28.0284 16.4836C28.225 16.4836 28.3999 16.4472 28.6136 16.4326V21.6584C28.6136 21.7604 28.8127 21.6924 28.9438 21.5564C29.1968 21.2942 29.4336 21.0169 29.6529 20.7259L32.9288 16.4277C33.1012 16.4423 33.2736 16.4787 33.4606 16.4787C33.6476 16.4787 33.7909 16.4423 33.9803 16.4277L30.9594 20.1188ZM39.7719 26.707C39.7719 27.3092 39.7331 27.6152 40.5174 27.4161V27.7536C40.3893 27.8178 40.2551 27.8691 40.1167 27.9066C39.4247 28.045 38.8516 27.9212 38.7447 27.0154L38.6257 27.149C38.3944 27.4521 38.0959 27.6976 37.7538 27.8661C37.4117 28.0346 37.0353 28.1216 36.6539 28.1203C35.7117 28.1203 34.886 27.3772 34.886 26.2383C34.886 24.4826 36.1002 24.2519 37.346 24.0212C38.3999 23.8221 38.7593 23.7298 38.7593 22.9892C38.7593 21.8478 38.2008 21.1873 37.2027 21.1873C36.8619 21.1806 36.5272 21.2789 36.244 21.4687C35.9608 21.6585 35.7428 21.9307 35.6194 22.2485H35.4737V21.3937C36.0729 20.8724 36.8338 20.5739 37.6277 20.5487C39.024 20.5487 39.7841 21.3937 39.7841 23.1349L39.7719 26.707ZM38.7083 24.1645L38.2396 24.2713C37.3338 24.4705 35.9764 24.6235 35.9764 26.0295C35.9764 27.0008 36.4621 27.4865 37.278 27.4865C37.7001 27.4345 38.086 27.2224 38.3562 26.894C38.4533 26.7823 38.7204 26.52 38.7204 26.4083L38.7083 24.1645ZM42.1444 26.503C42.4601 27.1077 43.0478 27.6492 43.6743 27.6492C44.0318 27.631 44.3681 27.4742 44.612 27.2122C44.8559 26.9502 44.9882 26.6035 44.9808 26.2456C44.9808 24.1669 41.836 25.5171 41.836 22.8265C41.836 21.35 42.8074 20.5511 44.0046 20.5511C44.5339 20.5394 45.056 20.6774 45.5101 20.9493C45.379 21.3056 45.2735 21.6708 45.1945 22.0421H45.073C44.8982 21.5346 44.4344 21.0246 43.9414 21.0246C43.276 21.0246 42.7272 21.4739 42.7272 22.3068C42.7272 24.2762 45.872 23.2272 45.872 25.6919C45.872 27.3408 44.5946 28.1203 43.4193 28.1203C42.8307 28.1198 42.2545 27.9514 41.7583 27.6346C41.8775 27.2652 41.9708 26.8879 42.0376 26.5054L42.1444 26.503ZM47.6641 16.4326C47.8414 16.4472 48.0138 16.4787 48.1983 16.4787C48.3829 16.4787 48.5335 16.4472 48.7326 16.4326V22.0397C49.1988 21.0999 49.9298 20.5487 50.8768 20.5487C52.4213 20.5487 53.0211 21.6074 53.0211 23.5501V28.011C52.8195 27.994 52.6641 27.9649 52.4868 27.9649C52.3096 27.9649 52.1274 27.9965 51.9526 28.011V23.9022C51.9526 22.2024 51.6102 21.3452 50.4761 21.3452C49.2765 21.3452 48.7326 22.2097 48.7326 23.81V28.011C48.5335 27.994 48.3756 27.9649 48.1983 27.9649C48.0211 27.9649 47.8438 27.9965 47.6641 28.011V16.4326Z" fill="#231F20"/>
</svg>
