<svg width="38" height="38" viewBox="0 0 38 38" fill="none" xmlns="http://www.w3.org/2000/svg">
<g id="client-3-svg">
<path id="Vector" d="M37.5 18.7593C37.4992 21.4851 36.9041 24.1779 35.7562 26.6501C34.6082 29.1224 32.9351 31.3146 30.8533 33.0741L30.7688 33.1425C29.5432 34.1664 28.1919 35.0299 26.7478 35.7119C26.094 36.0192 25.4227 36.2877 24.7373 36.5161C21.1249 37.7277 17.2298 37.8146 13.5669 36.7654C12.1351 36.3563 10.758 35.7757 9.46547 35.0364C7.70495 34.0335 6.11883 32.7515 4.76893 31.2406L4.5357 30.9752C4.41105 30.8344 4.29042 30.6897 4.17381 30.5449C2.28704 28.2134 0.987244 25.4632 0.383595 22.5253C-0.220055 19.5873 -0.109942 16.5474 0.704694 13.6608C1.51933 10.7743 3.0147 8.12532 5.06523 5.93643C7.11576 3.74754 9.66156 2.08262 12.4889 1.0815C15.3162 0.0803745 18.3424 -0.227723 21.3135 0.183071C24.2845 0.593865 27.1136 1.71156 29.5632 3.44229C32.0128 5.17303 34.0113 7.46627 35.391 10.1294C36.7706 12.7926 37.4911 15.7479 37.492 18.7473L37.5 18.7593Z" fill="#E8E1EF"/>
<path id="Vector_2" d="M15.8628 10.7496C15.8628 10.7496 12.6098 8.15204 14.0895 5.99678C15.5692 3.84151 18.7418 6.03698 18.7418 6.03698C19.1448 5.67524 19.6556 5.45605 20.1955 5.41318C20.7354 5.37031 21.2744 5.50614 21.7294 5.79974C23.4745 6.80098 23.6756 9.24173 23.6756 9.24173C23.6756 9.24173 25.4569 9.1975 25.5574 11.3648C25.658 13.5322 23.3258 15.4622 23.3258 15.4622L15.8628 10.7496Z" fill="black"/>
<path id="Vector_3" d="M30.7689 33.1428C29.5433 34.1668 28.192 35.0302 26.7479 35.7122C26.0941 36.0195 25.4227 36.2881 24.7374 36.5165C21.1249 37.728 17.2299 37.8149 13.567 36.7658C12.1352 36.3566 10.7581 35.7761 9.46555 35.0367L9.24438 22.5072C14.2063 19.025 19.0195 19.8936 19.0195 19.8936C19.0195 19.8936 25.3405 19.1738 28.6418 22.1936C29.13 22.6364 29.5381 23.1601 29.8481 23.7417C30.3869 24.7389 30.6483 28.6956 30.7689 33.1428Z" fill="#6876AA"/>
<path id="Vector_4" d="M21.5646 16.6567L21.6089 20.7863C21.6089 20.7863 20.873 21.9926 18.4604 22.2017C16.663 22.3666 16.0237 21.9645 16.0237 21.9645L16.2569 19.8695L16.4821 17.8269L20.8368 16.8256L21.5646 16.6567Z" fill="#F48462"/>
<path id="Vector_5" d="M20.8368 16.8256C20.8173 16.9645 20.7781 17.0999 20.7202 17.2277C19.8154 19.3025 17.2943 19.773 16.2568 19.8735L16.482 17.8308L20.8368 16.8256Z" fill="black"/>
<path id="Vector_6" d="M15.4689 8.4254C15.4689 8.4254 13.3539 13.6085 14.2264 16.4916C15.099 19.3746 17.7328 18.8398 19.2929 18.2407C20.1774 17.9259 20.9608 17.3786 21.5608 16.6564C22.0124 16.7776 22.4908 16.753 22.9277 16.5862C23.3645 16.4194 23.7375 16.1189 23.9935 15.7276C24.9424 14.3323 24.2951 12.7761 23.4466 12.4384C22.5982 12.1006 21.613 12.7319 21.613 12.7319L22.3569 11.216C22.3569 11.216 18.8788 3.70473 15.4689 8.4254Z" fill="#F48462"/>
<path id="Vector_7" d="M21.7936 14.996C21.7625 14.9957 21.7318 14.9883 21.7039 14.9744C21.6761 14.9604 21.6517 14.9403 21.6328 14.9156C21.6172 14.8942 21.6059 14.87 21.5997 14.8443C21.5934 14.8185 21.5923 14.7918 21.5964 14.7657C21.6005 14.7395 21.6098 14.7144 21.6236 14.6919C21.6374 14.6693 21.6556 14.6497 21.677 14.6341L23.5227 13.279C23.5653 13.247 23.6189 13.2333 23.6717 13.2409C23.7245 13.2484 23.7721 13.2766 23.8041 13.3193C23.8347 13.3628 23.8471 13.4164 23.8389 13.4689C23.8306 13.5214 23.8023 13.5687 23.7599 13.6007L21.9143 14.9558C21.8799 14.9827 21.8373 14.9969 21.7936 14.996Z" fill="black"/>
<path id="Vector_8" d="M23.4747 14.9553H23.4265L22.196 14.6497C22.1706 14.6435 22.1466 14.6324 22.1254 14.6169C22.1043 14.6014 22.0865 14.5819 22.073 14.5594C22.0595 14.537 22.0507 14.512 22.0469 14.4861C22.0432 14.4602 22.0447 14.4338 22.0513 14.4084C22.0637 14.3568 22.096 14.3121 22.1412 14.2843C22.1864 14.2564 22.2408 14.2475 22.2925 14.2596L23.523 14.5652C23.5487 14.5708 23.5731 14.5816 23.5945 14.597C23.6159 14.6123 23.634 14.6319 23.6475 14.6545C23.6611 14.6771 23.6699 14.7023 23.6734 14.7284C23.6768 14.7545 23.6749 14.7811 23.6677 14.8065C23.6569 14.8493 23.632 14.8873 23.597 14.9143C23.562 14.9413 23.5189 14.9557 23.4747 14.9553Z" fill="black"/>
<path id="Vector_9" d="M18.9473 10.6044H18.8789C18.3876 10.4962 17.8862 10.4396 17.3831 10.4355C17.3567 10.4345 17.3308 10.4282 17.3068 10.4172C17.2828 10.4061 17.2612 10.3904 17.2433 10.371C17.2253 10.3516 17.2114 10.3288 17.2023 10.304C17.1932 10.2792 17.189 10.2528 17.1901 10.2264C17.1901 10.2 17.1954 10.1739 17.2059 10.1496C17.2163 10.1254 17.2316 10.1036 17.2508 10.0855C17.2701 10.0674 17.2928 10.0534 17.3176 10.0445C17.3424 10.0355 17.3688 10.0317 17.3952 10.0334C17.9366 10.0412 18.4757 10.1058 19.0036 10.2264C19.0569 10.2355 19.1044 10.2653 19.1357 10.3095C19.167 10.3536 19.1795 10.4083 19.1705 10.4616C19.1614 10.515 19.1315 10.5625 19.0874 10.5938C19.0433 10.6251 18.9886 10.6376 18.9352 10.6285L18.9473 10.6044Z" fill="black"/>
<path id="Vector_10" d="M14.9424 10.4518C14.8891 10.4561 14.8362 10.439 14.7955 10.4043C14.7548 10.3696 14.7295 10.3202 14.7253 10.2669C14.721 10.2135 14.7381 10.1607 14.7728 10.12C14.8075 10.0793 14.8569 10.054 14.9102 10.0497C15.1542 10.0028 15.4017 9.97723 15.6501 9.97333C15.7023 9.9794 15.7503 10.0053 15.7839 10.0457C15.8176 10.0862 15.8345 10.138 15.831 10.1905C15.8295 10.2167 15.8228 10.2424 15.8112 10.266C15.7996 10.2896 15.7833 10.3106 15.7635 10.3279C15.7436 10.3451 15.7205 10.3582 15.6955 10.3664C15.6705 10.3745 15.6441 10.3776 15.6179 10.3754C15.4006 10.3829 15.1842 10.4071 14.9705 10.4478L14.9424 10.4518Z" fill="black"/>
<path id="Vector_11" d="M15.9913 15.0438C15.9483 15.044 15.9063 15.0305 15.8716 15.0052C15.8369 14.9798 15.8112 14.944 15.7983 14.903C15.641 14.4166 15.5938 13.9013 15.6598 13.3944C15.7259 12.8875 15.9036 12.4016 16.1803 11.9717C16.2117 11.9285 16.259 11.8996 16.3118 11.8913C16.3646 11.883 16.4185 11.896 16.4617 11.9275C16.5049 11.9589 16.5338 12.0063 16.5421 12.0591C16.5504 12.1118 16.5374 12.1658 16.506 12.2089C16.2685 12.5887 16.1166 13.0157 16.0611 13.4602C16.0055 13.9046 16.0475 14.3559 16.1843 14.7824C16.1995 14.8336 16.1941 14.8887 16.1694 14.936C16.1446 14.9833 16.1023 15.0191 16.0516 15.0357L15.9913 15.0438Z" fill="black"/>
<path id="Vector_12" d="M14.9785 12.4343H14.9262C14.8752 12.4202 14.8318 12.3865 14.8055 12.3406C14.7791 12.2946 14.772 12.2402 14.7855 12.189L15.0348 11.24C15.0414 11.2136 15.0532 11.1888 15.0694 11.1669C15.0856 11.1451 15.1059 11.1266 15.1292 11.1126C15.1526 11.0986 15.1784 11.0893 15.2054 11.0853C15.2323 11.0813 15.2597 11.0827 15.2861 11.0893C15.3125 11.0959 15.3374 11.1076 15.3592 11.1238C15.3811 11.14 15.3996 11.1603 15.4136 11.1837C15.4276 11.207 15.4368 11.2329 15.4408 11.2598C15.4449 11.2867 15.4435 11.3142 15.4369 11.3406L15.1876 12.2936C15.1747 12.3377 15.1467 12.376 15.1085 12.4017C15.0703 12.4274 15.0243 12.439 14.9785 12.4343Z" fill="black"/>
<path id="Vector_13" d="M17.592 12.4586H17.5438C17.5182 12.4521 17.4941 12.4405 17.4729 12.4246C17.4517 12.4087 17.4339 12.3888 17.4205 12.366C17.407 12.3433 17.3982 12.318 17.3945 12.2918C17.3908 12.2656 17.3924 12.239 17.399 12.2133L17.6483 11.2604C17.6625 11.2093 17.6961 11.1659 17.7421 11.1396C17.788 11.1132 17.8424 11.1061 17.8936 11.1196C17.9192 11.1261 17.9432 11.1377 17.9642 11.1537C17.9852 11.1696 18.0027 11.1896 18.0159 11.2125C18.029 11.2354 18.0374 11.2607 18.0406 11.2868C18.0437 11.313 18.0416 11.3396 18.0343 11.3649L17.7891 12.3139C17.7761 12.356 17.75 12.3927 17.7145 12.4188C17.679 12.4449 17.6361 12.4588 17.592 12.4586Z" fill="black"/>
<path id="Vector_14" d="M15.0309 9.58733C15.1822 9.33157 15.3966 9.1189 15.6535 8.96965C15.9105 8.8204 16.2014 8.73956 16.4986 8.73488C16.8058 8.7327 17.1101 8.7941 17.3924 8.91519C17.6747 9.03629 17.929 9.21448 18.1391 9.43855C18.1391 9.43855 17.7049 11.1756 19.1162 12.0844C20.5276 12.9931 21.6053 12.7237 21.6053 12.7237L22.6185 12.3498L23.3504 10.858L20.3788 7.72158L16.5549 5.75128L14.6328 7.52857L15.0309 9.58733Z" fill="black"/>
<path id="Vector_15" d="M16.7838 16.0212H16.6993C16.6729 16.0192 16.6471 16.0119 16.6235 15.9999C16.5999 15.9879 16.5789 15.9713 16.5617 15.9511C16.5445 15.9309 16.5315 15.9076 16.5233 15.8823C16.5152 15.8571 16.5122 15.8305 16.5144 15.8041C16.5204 15.7518 16.5464 15.7039 16.5868 15.6702C16.6272 15.6365 16.679 15.6197 16.7315 15.6231C16.9677 15.638 17.2031 15.583 17.4083 15.465C17.6135 15.347 17.7795 15.1713 17.8855 14.9597C17.896 14.9353 17.9112 14.9133 17.9303 14.895C17.9494 14.8767 17.9721 14.8624 17.9969 14.853C18.0216 14.8436 18.048 14.8393 18.0745 14.8404C18.101 14.8414 18.127 14.8478 18.1509 14.8591C18.1994 14.8811 18.2372 14.9213 18.256 14.9711C18.2748 15.0208 18.2732 15.076 18.2514 15.1245C18.1199 15.4001 17.9112 15.6315 17.6507 15.7907C17.3901 15.9499 17.089 16.03 16.7838 16.0212Z" fill="black"/>
<path id="Vector_16" d="M16.2572 19.8688C15.6283 20.62 15.1652 21.4956 14.8981 22.4383C14.6086 23.3832 14.681 24.7785 14.878 24.7785C15.075 24.7785 16.5628 22.4825 17.5118 22.3418C18.4607 22.201 19.2529 24.9554 19.659 25.0519C20.0651 25.1484 21.6373 24.0628 22.1963 22.4946C22.3652 22.0649 22.4132 21.5972 22.3353 21.1421C22.2573 20.687 22.0563 20.262 21.7539 19.9131C21.7539 19.9131 16.8563 23.6285 16.2572 19.8688Z" fill="#F7B369"/>
<path id="Vector_17" d="M13.5751 36.7778C12.1434 36.3687 10.7663 35.7881 9.4737 35.0488C7.71318 34.0459 6.12706 32.7639 4.77716 31.2529L4.54395 30.9876C4.72087 30.4447 4.91387 29.9019 5.12699 29.3791C7.06109 24.5539 9.25255 22.5233 9.25255 22.5233L13.5751 36.7778Z" fill="#6876AA"/>
<path id="Vector_18" d="M33.5672 30.2436C32.7636 31.2744 31.8539 32.2178 30.853 33.0583L30.7686 33.1267C29.5429 34.1506 28.1917 35.0141 26.7476 35.6961L28.6334 22.1895C28.6334 22.1895 31.2953 24.2443 33.5672 30.2436Z" fill="#6876AA"/>
<path id="Vector_19" d="M9.2166 34.2847H9.19248C9.13977 34.2786 9.0916 34.252 9.05846 34.2106C9.02532 34.1691 9.0099 34.1163 9.01555 34.0635L9.39754 30.3441C9.40458 30.2918 9.43149 30.2443 9.47268 30.2113C9.51386 30.1784 9.56616 30.1626 9.6187 30.1672C9.64463 30.1697 9.6698 30.1773 9.69276 30.1896C9.71572 30.2019 9.736 30.2186 9.75246 30.2388C9.76891 30.259 9.7812 30.2823 9.78861 30.3072C9.79602 30.3322 9.79841 30.3584 9.79563 30.3843L9.40156 34.1158C9.3951 34.161 9.37312 34.2026 9.33937 34.2334C9.30563 34.2642 9.26223 34.2824 9.2166 34.2847Z" fill="#F7B369"/>
</g>
</svg>
