<svg width="51" height="50" viewBox="0 0 51 50" fill="none" xmlns="http://www.w3.org/2000/svg">
<g id="client-2-svg">
<path id="Vector" d="M50.4839 24.9981C50.4826 30.105 48.9172 35.089 45.9983 39.2794C43.0794 43.4699 38.9472 46.6656 34.1576 48.4368C29.368 50.2079 24.1509 50.4694 19.2082 49.186C14.2656 47.9027 9.83453 45.1361 6.51138 41.2585C6.10919 40.7865 5.72307 40.3039 5.35306 39.8051C3.01391 36.6211 1.46262 32.928 0.826351 29.0285C0.190083 25.1291 0.486963 21.1343 1.69265 17.3718C2.89834 13.6093 4.97851 10.1861 7.76262 7.38282C10.5467 4.57959 13.9555 2.47614 17.7095 1.24493C21.4635 0.0137136 25.4558 -0.310223 29.3592 0.299691C33.2626 0.909606 36.9658 2.436 40.1654 4.75374C43.3649 7.07147 45.9697 10.1145 47.7661 13.6335C49.5625 17.1524 50.4994 21.0471 50.5 24.9981H50.4839Z" fill="#E8E1EF"/>
<path id="Vector_2" d="M33.9511 40.4751L20.0086 49.399C14.7396 48.2176 9.99479 45.3614 6.48438 41.258C8.53821 36.7371 12.8121 30.1139 20.7058 27.8883C22.2192 27.4259 23.8362 27.4259 25.3497 27.8883C31.8168 29.9155 33.9511 40.4751 33.9511 40.4751Z" fill="#A37B90"/>
<path id="Vector_3" d="M46.7093 38.2176C43.2877 43.7078 37.8722 47.6586 31.5998 49.2406C25.3274 50.8225 18.6861 49.9126 13.0703 46.7017C13.6387 39.5798 14.2072 33.8951 14.6469 32.7206C15.521 30.3823 21.3768 28.7359 25.3719 27.894C27.5169 27.4381 29.1257 27.2021 29.1257 27.2021C34.4526 27.7296 39.4514 30.0187 43.3309 33.7074C44.647 35.0586 45.7825 36.5746 46.7093 38.2176Z" fill="#A37B90"/>
<path id="Vector_4" d="M19.9124 9.4353C19.9124 9.4353 17.3116 12.3795 18.738 15.6241C20.1644 18.8687 21.7034 9.7249 21.7034 9.7249L19.9124 9.4353Z" fill="black"/>
<path id="Vector_5" d="M28.6589 22.6541L28.7555 28.489C28.7555 28.489 27.7312 30.189 24.3206 30.5215C21.7842 30.7736 20.8779 30.2105 20.8779 30.2105L21.1836 27.2501L21.4839 24.3649L27.624 22.9008L28.6589 22.6541Z" fill="#F48462"/>
<path id="Vector_6" d="M27.6233 22.9013C27.6233 23.0622 28.5671 23.5663 28.4759 23.7808C27.2157 26.7197 22.5396 28.1945 21.0703 28.35L21.4832 24.3654L27.6233 22.9013Z" fill="black"/>
<path id="Vector_7" d="M21.017 9.72958C20.2267 10.3951 19.641 11.2709 19.3278 12.2555C18.561 14.5079 17.0219 19.7636 18.0301 22.9813C19.3439 27.1698 23.1191 26.3868 25.366 25.4965C26.6422 25.028 27.7672 24.2217 28.621 23.1637C29.2759 23.3369 29.9691 23.296 30.5991 23.0471C31.2292 22.7981 31.763 22.3541 32.1227 21.7801C33.4741 19.7368 32.5196 17.4629 31.2915 16.9534C30.0635 16.444 28.6478 17.3986 28.6478 17.3986L29.7203 15.1783C29.7203 15.1783 25.4518 6.11497 21.017 9.72958Z" fill="#F48462"/>
<path id="Vector_8" d="M28.9594 20.2944C28.9173 20.2942 28.8758 20.2839 28.8384 20.2643C28.8011 20.2447 28.769 20.2164 28.7449 20.1818C28.7036 20.1244 28.6861 20.0533 28.6961 19.9833C28.7061 19.9133 28.7428 19.8499 28.7986 19.8064L30.9436 18.1975C31.0009 18.1562 31.072 18.1387 31.142 18.1487C31.212 18.1587 31.2754 18.1954 31.3189 18.2511C31.3605 18.3093 31.3782 18.3813 31.3682 18.4522C31.3582 18.5231 31.3214 18.5874 31.2653 18.6319L29.1203 20.2408C29.0732 20.2743 29.0172 20.293 28.9594 20.2944Z" fill="black"/>
<path id="Vector_9" d="M31.3558 20.2196H31.2915L29.5541 19.8013C29.4859 19.7836 29.4273 19.7402 29.3903 19.6803C29.3533 19.6203 29.3409 19.5484 29.3556 19.4796C29.3632 19.4451 29.3776 19.4125 29.398 19.3837C29.4184 19.355 29.4444 19.3306 29.4744 19.3121C29.5044 19.2935 29.5379 19.2813 29.5727 19.2759C29.6076 19.2706 29.6432 19.2724 29.6774 19.2811L31.4202 19.6941C31.4887 19.713 31.5475 19.7574 31.5844 19.8183C31.6213 19.8791 31.6335 19.9517 31.6186 20.0212C31.6023 20.0783 31.5679 20.1286 31.5204 20.1644C31.473 20.2002 31.4153 20.2196 31.3558 20.2196Z" fill="black"/>
<path id="Vector_10" d="M19.3011 16.5516H19.2368C19.2026 16.5429 19.1705 16.5275 19.1423 16.5063C19.1141 16.4851 19.0903 16.4585 19.0724 16.4281C19.0544 16.3977 19.0427 16.3641 19.0378 16.3292C19.0329 16.2942 19.0349 16.2587 19.0438 16.2245L19.3816 14.8784C19.4005 14.8101 19.4452 14.7518 19.5062 14.7158C19.5672 14.6798 19.6398 14.6689 19.7087 14.6853C19.7429 14.6941 19.775 14.7095 19.8032 14.7307C19.8314 14.7519 19.8552 14.7784 19.8731 14.8088C19.8911 14.8392 19.9028 14.8728 19.9077 14.9078C19.9126 14.9427 19.9106 14.9783 19.9017 15.0125L19.5585 16.3586C19.5431 16.4147 19.5094 16.4642 19.4628 16.4991C19.4162 16.5341 19.3594 16.5525 19.3011 16.5516Z" fill="black"/>
<path id="Vector_11" d="M22.9954 16.7497H22.931C22.8971 16.7415 22.865 16.7267 22.8369 16.706C22.8087 16.6854 22.7849 16.6593 22.7669 16.6293C22.749 16.5994 22.7371 16.5661 22.7322 16.5315C22.7272 16.4969 22.7292 16.4617 22.738 16.4279L23.0812 15.0818C23.0886 15.0474 23.103 15.015 23.1235 14.9864C23.144 14.9578 23.1701 14.9337 23.2003 14.9156C23.2304 14.8976 23.264 14.8858 23.2988 14.8812C23.3337 14.8766 23.3691 14.8791 23.4029 14.8887C23.4718 14.9053 23.5313 14.9484 23.5685 15.0087C23.6057 15.069 23.6175 15.1415 23.6014 15.2105L23.2581 16.5566C23.2417 16.6132 23.207 16.6628 23.1595 16.6977C23.112 16.7326 23.0543 16.7508 22.9954 16.7497Z" fill="black"/>
<path id="Vector_12" d="M19.0913 13.6179C19.0202 13.6222 18.9503 13.598 18.897 13.5507C18.8437 13.5035 18.8114 13.437 18.8071 13.3658C18.8029 13.2947 18.827 13.2248 18.8743 13.1715C18.9216 13.1182 18.988 13.0859 19.0591 13.0816L20.1692 12.9636C20.2395 12.9561 20.31 12.9767 20.3652 13.0209C20.4205 13.0651 20.456 13.1293 20.4641 13.1996C20.4678 13.2348 20.4645 13.2705 20.4544 13.3044C20.4442 13.3384 20.4274 13.37 20.405 13.3974C20.3825 13.4248 20.3549 13.4475 20.3236 13.4642C20.2923 13.4809 20.2581 13.4912 20.2228 13.4946L19.1181 13.6179H19.0913Z" fill="black"/>
<path id="Vector_13" d="M24.111 14.5087C24.0772 14.5137 24.0429 14.5137 24.0091 14.5087L22.5022 13.8759C22.4685 13.8631 22.4377 13.8436 22.4116 13.8187C22.3856 13.7937 22.3648 13.7637 22.3507 13.7305C22.3365 13.6973 22.3292 13.6616 22.3291 13.6255C22.3291 13.5894 22.3363 13.5537 22.3504 13.5205C22.3645 13.4873 22.3851 13.4572 22.4111 13.4322C22.437 13.4071 22.4678 13.3876 22.5015 13.3747C22.5352 13.3618 22.5712 13.3558 22.6072 13.3572C22.6433 13.3585 22.6787 13.3671 22.7114 13.3825L24.2129 14.0153C24.2456 14.0283 24.2754 14.0476 24.3005 14.0723C24.3257 14.097 24.3456 14.1265 24.3591 14.159C24.3726 14.1915 24.3794 14.2264 24.3792 14.2616C24.3789 14.2968 24.3716 14.3316 24.3577 14.3639C24.3344 14.4089 24.2989 14.4463 24.2552 14.472C24.2116 14.4976 24.1616 14.5103 24.111 14.5087Z" fill="black"/>
<path id="Vector_14" d="M28.6474 17.4311C28.6474 17.4311 28.0468 19.8605 27.5749 19.5763C27.103 19.2921 26.674 15.774 27.0386 14.2134C27.4033 12.6528 27.6392 11.8591 27.6392 11.8591C27.6392 11.8591 21.2686 11.2906 19.5955 9.77825C17.9224 8.2659 21.467 7.28449 25.0974 7.97095C28.7278 8.6574 30.1596 10.025 30.1596 10.025C30.1596 10.025 32.4333 9.68708 33.2806 11.0707C34.1279 12.4543 32.2081 17.7315 32.2081 17.7315C32.2081 17.7315 31.5967 16.3907 28.6474 17.4311Z" fill="black"/>
<path id="Vector_15" d="M16.5176 19.9405C16.5176 19.9405 18.2979 17.9669 19.1988 18.2619C20.0997 18.5568 20.4376 19.8707 20.4376 19.8707C20.4376 19.8707 21.5101 18.3852 22.7006 18.7982C23.891 19.2111 26.4543 19.372 26.4543 19.7849C26.4543 20.1979 25.7411 20.3212 25.7411 20.3212C25.7411 20.3212 19.7351 21.0506 16.5176 19.9405Z" fill="black"/>
<path id="Vector_16" d="M28.6478 17.4305C28.6478 17.4305 28.5405 21.3669 28.6478 23.1742C28.755 24.9815 23.7035 27.7971 20.2394 26.2418C16.7752 24.6866 17.719 20.1442 17.719 20.1442L20.8078 20.4284C21.2875 20.1699 21.7997 19.9769 22.3307 19.8546C22.9733 19.7922 23.6213 19.8879 24.2183 20.1334L28.6478 17.4305Z" fill="black"/>
<path id="Vector_17" d="M21.2684 21.3295C21.2083 21.3285 21.1506 21.3057 21.1062 21.2652C21.0617 21.2247 21.0336 21.1694 21.0271 21.1096C21.0195 21.0449 21.0378 20.9799 21.078 20.9287C21.1182 20.8774 21.177 20.8441 21.2416 20.8361C21.5323 20.8037 21.8123 20.7076 22.0616 20.5547C22.3109 20.4017 22.5235 20.1957 22.6841 19.9512C22.7129 19.8933 22.7634 19.849 22.8246 19.8279C22.8858 19.8069 22.9528 19.8107 23.0112 19.8386C23.0695 19.8685 23.1139 19.9199 23.1349 19.982C23.1559 20.0441 23.152 20.1119 23.1238 20.1711C22.9281 20.4909 22.6613 20.7612 22.3442 20.9612C22.027 21.1612 21.6681 21.2853 21.2952 21.3241L21.2684 21.3295Z" fill="black"/>
<path id="Vector_18" d="M20.3041 19.4685C20.2553 19.4681 20.2075 19.4544 20.166 19.4289C20.1244 19.4034 20.0906 19.367 20.0681 19.3237C19.1994 17.5861 20.4489 15.7681 20.4971 15.6876C20.5391 15.6302 20.6017 15.5914 20.6718 15.5794C20.7419 15.5674 20.8139 15.5831 20.8725 15.6233C20.9304 15.6634 20.9702 15.7248 20.9832 15.794C20.9963 15.8632 20.9816 15.9348 20.9422 15.9933C20.9422 15.9933 19.8215 17.6344 20.5454 19.0824C20.5772 19.1457 20.5826 19.219 20.5605 19.2864C20.5384 19.3537 20.4906 19.4095 20.4274 19.4417C20.3893 19.4612 20.3468 19.4704 20.3041 19.4685Z" fill="black"/>
<path id="Vector_19" d="M22.7277 30.812C21.666 30.8148 20.6077 30.6924 19.5746 30.4474C19.5035 30.4296 19.4423 30.3843 19.4046 30.3214C19.3669 30.2586 19.3557 30.1833 19.3735 30.1122C19.3913 30.0411 19.4365 29.9799 19.4994 29.9422C19.5623 29.9045 19.6375 29.8933 19.7086 29.9111C19.773 29.9111 25.7629 31.4288 28.7552 27.8893C28.7774 27.8621 28.8049 27.8396 28.836 27.8232C28.867 27.8068 28.9011 27.7969 28.9361 27.7939C28.9711 27.7909 29.0063 27.7949 29.0397 27.8058C29.0731 27.8166 29.104 27.8341 29.1306 27.8571C29.1578 27.8793 29.1802 27.9068 29.1966 27.9379C29.2129 27.9689 29.2229 28.003 29.2259 28.038C29.2289 28.073 29.2249 28.1082 29.214 28.1416C29.2032 28.175 29.1857 28.2059 29.1627 28.2325C27.4092 30.3294 24.7869 30.812 22.7277 30.812Z" fill="#F7B369"/>
<path id="Vector_20" d="M19.6758 21.0452C19.6758 21.0452 20.3354 21.8121 20.9413 21.8121C21.5473 21.8121 22.0835 20.7771 22.0835 20.7771L19.6758 21.0452Z" fill="#F27E64"/>
</g>
</svg>
