<svg width="38" height="38" viewBox="0 0 38 38" fill="none" xmlns="http://www.w3.org/2000/svg">
<g id="client-1-svg">
<path id="Vector" d="M0.50002 19.2462C0.496383 21.7316 0.988592 24.1926 1.94782 26.4854C2.90706 28.7782 4.31404 30.8566 6.08641 32.5989C6.4886 33.001 6.92698 33.4032 7.37341 33.7612C8.08427 34.3439 8.83706 34.8736 9.62566 35.3458L10.0278 35.5831C13.0763 37.2985 16.5432 38.1284 20.038 37.9792C23.5327 37.8299 26.9163 36.7075 29.8074 34.7385C31.1353 33.8293 32.3422 32.7549 33.399 31.5411C33.5317 31.3883 33.6604 31.2354 33.8012 31.0786C35.6941 28.7493 37.0001 25.9995 37.6095 23.0606C38.2189 20.1216 38.1138 17.0793 37.3031 14.1894C36.4924 11.2995 34.9998 8.64641 32.9507 6.45322C30.9016 4.26004 28.3559 2.59083 25.5276 1.58591C22.6994 0.580998 19.6712 0.269743 16.6977 0.678315C13.7242 1.08689 10.8922 2.20334 8.43975 3.93384C5.98736 5.66433 3.98624 7.95828 2.60461 10.6229C1.22298 13.2874 0.501229 16.2448 0.50002 19.2462Z" fill="#E8E1EF"/>
<path id="Vector_2" d="M22.1341 14.5243C22.1341 14.5243 30.6766 8.89363 27.7124 5.65602C24.7483 2.41841 21.0281 10.4823 21.0281 10.4823L22.1341 14.5243Z" fill="black"/>
<path id="Vector_3" d="M6.10229 32.5985C6.50448 33.0007 6.94287 33.4029 7.3893 33.7608C9.30835 35.3281 11.5206 36.4971 13.8967 37.1995C14.1702 29.3528 12.2879 24.6633 12.2879 24.6633C12.2879 24.6633 7.3893 27.8527 6.10229 32.5985Z" fill="#6876AA"/>
<path id="Vector_4" d="M16.7964 8.61226C16.7964 8.61226 21.2848 5.6964 24.0076 9.33218C26.654 12.8674 24.0679 16.8732 24.0679 16.8732L17.9587 12.1113L16.7964 8.61226Z" fill="black"/>
<path id="Vector_5" d="M7.38989 33.761C10.8331 36.5761 15.1647 38.0758 19.6114 37.9926C24.0581 37.9093 28.3305 36.2485 31.6659 33.3065C31.7946 31.3358 31.7263 29.715 31.3723 28.7819C29.7636 24.5147 22.1864 22.9462 22.1864 22.9462C22.1864 22.9462 16.9901 22.9462 14.8947 23.5253C13.1331 24.02 9.95585 25.6207 8.52004 28.4682C7.78404 29.9322 7.50251 31.9391 7.38989 33.761Z" fill="#6876AA"/>
<path id="Vector_6" d="M22.3151 19.1018L22.5082 23.2966C22.5082 23.2966 21.8044 24.5394 19.3591 24.8491C17.5372 25.0823 16.8735 24.7003 16.8735 24.7003L17.0344 22.5606L17.1913 20.4773L21.5791 19.2989L22.3151 19.1018Z" fill="#F48462"/>
<path id="Vector_7" d="M21.5789 19.2786C21.5648 19.4172 21.5296 19.5528 21.4744 19.6808C20.6338 21.8204 18.0839 22.3915 17.0503 22.5323L17.2072 20.4489L21.5789 19.2786Z" fill="black"/>
<path id="Vector_8" d="M15.8155 10.9287C15.8155 10.9287 13.8528 16.2858 14.8542 19.1776C15.8557 22.0693 18.5021 21.4379 20.0827 20.7863C20.9712 20.4372 21.7482 19.8533 22.3309 19.0971C22.7953 19.2035 23.2813 19.1604 23.7198 18.9741C24.1582 18.7877 24.5265 18.4676 24.7722 18.0595C25.6892 16.6116 24.9733 15.0511 24.0965 14.7374C23.2197 14.4237 22.2183 15.0793 22.2183 15.0793L22.9181 13.5107C22.9181 13.5107 19.1134 6.00995 15.8155 10.9287Z" fill="#F48462"/>
<path id="Vector_9" d="M22.2183 15.0797C22.2183 15.0797 20.0062 15.6911 18.2688 13.3021C16.5313 10.9131 16.6037 9.87944 16.6037 9.87944L15.2323 12.7913C15.2323 12.7913 14.7577 10.8045 15.3932 9.614C16.0286 8.42352 16.7847 8.6045 16.7847 8.6045L21.8241 9.49334L23.4248 13.3785L22.2183 15.0797Z" fill="black"/>
<path id="Vector_10" d="M21.78 27.1088C20.6217 27.1088 19.5841 25.87 19.2181 25.3794C18.7234 25.8338 17.36 26.9881 16.443 26.9881C16.3327 26.9878 16.2236 26.9647 16.1226 26.9204C16.0216 26.8762 15.9308 26.8116 15.8558 26.7307C15.4295 26.2602 16.2821 25.0777 16.6602 24.5951C16.6863 24.5622 16.722 24.5383 16.7624 24.5267C16.8028 24.5152 16.8458 24.5166 16.8854 24.5307C20.5051 25.8057 22.4316 23.2518 22.516 23.1432C22.5395 23.1124 22.5712 23.0889 22.6075 23.0753C22.6438 23.0618 22.6832 23.0589 22.7211 23.0668C22.7586 23.0733 22.7933 23.091 22.8205 23.1176C22.8478 23.1441 22.8664 23.1783 22.874 23.2156C22.8981 23.3121 23.433 25.5805 22.7855 26.602C22.7111 26.727 22.6116 26.8351 22.4932 26.9196C22.3748 27.0041 22.2401 27.063 22.0977 27.0927C21.9927 27.1094 21.8862 27.1148 21.78 27.1088ZM19.5881 25.2024C19.9903 25.7212 21.0199 26.8876 22.0213 26.6784C22.1103 26.6601 22.1944 26.6229 22.2679 26.5695C22.3414 26.5161 22.4027 26.4477 22.4476 26.3687C22.8498 25.7172 22.6849 24.3578 22.5643 23.6741C21.7625 24.4905 20.7188 25.0265 19.5881 25.2024ZM16.8934 24.937C16.3907 25.6006 16.0368 26.3084 16.1534 26.4411C16.1922 26.4818 16.2391 26.514 16.291 26.5355C16.343 26.5569 16.3989 26.5673 16.4551 26.5658C17.0664 26.5658 18.1201 25.8017 18.7475 25.2587C18.1165 25.2487 17.4909 25.1401 16.8934 24.937Z" fill="#F7B369"/>
<path id="Vector_11" d="M29.8274 34.7383C31.1553 33.8291 32.3621 32.7547 33.4189 31.5409C33.5516 31.3881 33.6803 31.2352 33.8211 31.0784C30.672 26.2079 27.5188 24.9249 27.5188 24.9249C27.5188 24.9249 30.6317 30.9296 29.8274 34.7383Z" fill="#6876AA"/>
<path id="Vector_12" d="M9.64213 35.3459L10.0443 35.5832C9.98684 34.7873 10.0165 33.9876 10.1328 33.1982C10.2579 32.1554 10.6339 31.1584 11.2286 30.2927C11.8233 29.4269 12.6189 28.7182 13.5474 28.2272C13.5942 28.2068 13.6312 28.1687 13.65 28.1213C13.6688 28.0738 13.6681 28.0207 13.6479 27.9738C13.6382 27.9502 13.624 27.9288 13.606 27.9108C13.588 27.8927 13.5666 27.8784 13.543 27.8687C13.5195 27.859 13.4942 27.854 13.4687 27.8541C13.4432 27.8542 13.418 27.8593 13.3945 27.8692C13.2658 27.9255 10.3218 29.2407 9.75071 33.1419C9.64245 33.8712 9.60608 34.6094 9.64213 35.3459Z" fill="#F7B369"/>
<path id="Vector_13" d="M16.2098 17.5854C16.1673 17.5859 16.1258 17.573 16.0911 17.5484C16.0564 17.5238 16.0304 17.4889 16.0168 17.4486C15.6146 16.2421 16.4391 15.0114 16.4753 14.9591C16.4898 14.9371 16.5086 14.9184 16.5306 14.9038C16.5525 14.8893 16.5771 14.8793 16.603 14.8744C16.6289 14.8695 16.6554 14.8699 16.6812 14.8754C16.7069 14.881 16.7313 14.8917 16.7528 14.9068C16.7969 14.9363 16.8275 14.982 16.8381 15.034C16.8486 15.0859 16.8382 15.14 16.8091 15.1843C16.8091 15.1843 16.065 16.3145 16.4069 17.3239C16.4156 17.349 16.4192 17.3756 16.4174 17.4021C16.4156 17.4285 16.4085 17.4544 16.3965 17.478C16.3845 17.5017 16.3678 17.5227 16.3475 17.5398C16.3272 17.5568 16.3036 17.5696 16.2782 17.5773C16.2563 17.585 16.2329 17.5878 16.2098 17.5854Z" fill="black"/>
<path id="Vector_14" d="M22.5644 17.5855C22.5252 17.5869 22.4864 17.5765 22.4531 17.5557C22.4198 17.5349 22.3934 17.5047 22.3774 17.4688C22.3614 17.4329 22.3565 17.3931 22.3633 17.3544C22.3701 17.3157 22.3884 17.2799 22.4156 17.2517L23.8957 15.6108C23.9144 15.5919 23.9366 15.5769 23.9611 15.5667C23.9856 15.5565 24.0119 15.5513 24.0385 15.5513C24.065 15.5513 24.0913 15.5565 24.1158 15.5667C24.1403 15.5769 24.1625 15.5919 24.1812 15.6108C24.2 15.6291 24.2148 15.651 24.225 15.6752C24.2352 15.6993 24.2404 15.7253 24.2404 15.7515C24.2404 15.7777 24.2352 15.8037 24.225 15.8279C24.2148 15.852 24.2 15.8739 24.1812 15.8923L22.7012 17.5332C22.664 17.5675 22.615 17.5863 22.5644 17.5855Z" fill="black"/>
<path id="Vector_15" d="M24.1612 17.1227H24.1331L23.0834 16.9859C23.0569 16.983 23.0313 16.9747 23.008 16.9618C22.9847 16.9488 22.9642 16.9313 22.9478 16.9104C22.9313 16.8894 22.9192 16.8654 22.9121 16.8397C22.905 16.814 22.903 16.7872 22.9064 16.7607C22.9144 16.7084 22.9423 16.6612 22.9842 16.629C23.0262 16.5967 23.079 16.582 23.1316 16.5878L24.1854 16.7245C24.2387 16.7277 24.2886 16.752 24.324 16.792C24.3595 16.8319 24.3776 16.8844 24.3744 16.9377C24.3712 16.991 24.3469 17.0409 24.307 17.0763C24.267 17.1118 24.2146 17.1299 24.1612 17.1267V17.1227Z" fill="black"/>
<path id="Vector_16" d="M15.2443 13.0003C15.1974 13.0001 15.152 12.9836 15.116 12.9535C15.08 12.9233 15.0557 12.8816 15.0473 12.8354C15.0414 12.8097 15.0409 12.7832 15.0457 12.7573C15.0506 12.7314 15.0606 12.7068 15.0753 12.6849C15.09 12.6631 15.109 12.6444 15.1312 12.6302C15.1533 12.616 15.1782 12.6064 15.2041 12.6022L15.9683 12.4493C15.9939 12.4441 16.0203 12.444 16.046 12.449C16.0717 12.4541 16.0961 12.4642 16.1178 12.4788C16.1395 12.4934 16.1581 12.5122 16.1725 12.5341C16.1869 12.5559 16.1968 12.5805 16.2016 12.6062C16.2068 12.6321 16.207 12.6587 16.202 12.6847C16.1969 12.7106 16.1869 12.7353 16.1723 12.7573C16.1577 12.7794 16.139 12.7983 16.1171 12.8131C16.0952 12.8279 16.0706 12.8382 16.0447 12.8435L15.2846 12.9963L15.2443 13.0003Z" fill="black"/>
<path id="Vector_17" d="M19.1535 13.5917C19.1256 13.5972 19.0969 13.5972 19.069 13.5917L17.7458 12.9643C17.7218 12.9529 17.7002 12.9369 17.6824 12.9172C17.6645 12.8975 17.6507 12.8745 17.6417 12.8495C17.6328 12.8245 17.6288 12.7979 17.6301 12.7714C17.6314 12.7448 17.6379 12.7188 17.6493 12.6948C17.6606 12.6708 17.6766 12.6492 17.6963 12.6313C17.716 12.6135 17.739 12.5997 17.764 12.5907C17.7891 12.5818 17.8156 12.5778 17.8421 12.5791C17.8687 12.5804 17.8947 12.5869 17.9188 12.5983L19.242 13.2297C19.2953 13.2414 19.3418 13.2739 19.3712 13.3199C19.4006 13.3659 19.4105 13.4217 19.3988 13.475C19.3871 13.5284 19.3546 13.5749 19.3086 13.6043C19.2626 13.6337 19.2068 13.6436 19.1535 13.6319V13.5917Z" fill="black"/>
<path id="Vector_18" d="M15.4736 15.3327H15.4173C15.3661 15.3177 15.323 15.2831 15.2973 15.2363C15.2717 15.1895 15.2656 15.1345 15.2806 15.0833L15.534 14.1703L15.2846 13.8808C15.2499 13.8402 15.2328 13.7876 15.2369 13.7344C15.2411 13.6812 15.2662 13.6319 15.3067 13.5972C15.3473 13.5626 15.3999 13.5454 15.4531 13.5496C15.5063 13.5537 15.5556 13.5788 15.5903 13.6193L15.908 13.9894C15.9295 14.0145 15.9447 14.0444 15.9524 14.0765C15.9601 14.1087 15.96 14.1422 15.9522 14.1744L15.6667 15.1919C15.6544 15.2333 15.6288 15.2694 15.5939 15.2949C15.559 15.3203 15.5168 15.3336 15.4736 15.3327Z" fill="black"/>
<path id="Vector_19" d="M18.4294 15.5342H18.3771C18.3515 15.5277 18.3275 15.5161 18.3065 15.5001C18.2855 15.4842 18.2679 15.4642 18.2548 15.4413C18.2417 15.4184 18.2333 15.3931 18.2301 15.3669C18.2269 15.3407 18.229 15.3142 18.2363 15.2888L18.4897 14.3799L18.1237 13.9777C18.1049 13.959 18.0899 13.9368 18.0797 13.9123C18.0695 13.8878 18.0642 13.8615 18.0642 13.8349C18.0642 13.8084 18.0695 13.7821 18.0797 13.7576C18.0899 13.7331 18.1049 13.7108 18.1237 13.6921C18.142 13.6734 18.1639 13.6585 18.1881 13.6484C18.2123 13.6382 18.2382 13.633 18.2645 13.633C18.2907 13.633 18.3166 13.6382 18.3408 13.6484C18.365 13.6585 18.3869 13.6734 18.4052 13.6921L18.8476 14.1788C18.8692 14.2047 18.8844 14.2353 18.8921 14.2681C18.8997 14.3009 18.8997 14.335 18.8919 14.3678L18.6063 15.3854C18.5963 15.4256 18.5737 15.4617 18.542 15.4884C18.5102 15.5152 18.4708 15.5312 18.4294 15.5342Z" fill="black"/>
<path id="Vector_20" d="M16.8689 18.9651C16.7217 18.9648 16.5754 18.9431 16.4345 18.9007C16.3812 18.8853 16.3362 18.8492 16.3094 18.8006C16.2826 18.7519 16.2763 18.6946 16.2917 18.6413C16.3072 18.588 16.3432 18.543 16.3919 18.5162C16.4405 18.4894 16.4978 18.4831 16.5511 18.4985C17.3113 18.7238 18.0071 18.028 18.0151 18.0199C18.0338 18.0011 18.056 17.9861 18.0805 17.9759C18.105 17.9657 18.1313 17.9604 18.1579 17.9604C18.1844 17.9604 18.2107 17.9657 18.2352 17.9759C18.2597 17.9861 18.282 18.0011 18.3007 18.0199C18.3194 18.0383 18.3343 18.0602 18.3444 18.0844C18.3546 18.1085 18.3598 18.1345 18.3598 18.1607C18.3598 18.1869 18.3546 18.2129 18.3444 18.237C18.3343 18.2612 18.3194 18.2831 18.3007 18.3015C17.9208 18.6906 17.4113 18.9267 16.8689 18.9651Z" fill="black"/>
</g>
</svg>
