<svg width="100" height="41" viewBox="0 0 100 41" fill="none" xmlns="http://www.w3.org/2000/svg">
<rect y="0.697754" width="100" height="40" rx="5" fill="#FFFCF6"/>
<path d="M40.3438 28.9751C39.5625 29.647 38.6875 30.1626 37.7188 30.522C36.75 30.8813 35.7461 31.061 34.707 31.061C33.9102 31.061 33.1406 30.9556 32.3984 30.7446C31.6641 30.5415 30.9727 30.2524 30.3242 29.8774C29.6836 29.4946 29.0977 29.0376 28.5664 28.5063C28.0352 27.9751 27.5781 27.3892 27.1953 26.7485C26.8203 26.1001 26.5273 25.4087 26.3164 24.6743C26.1133 23.9321 26.0117 23.1626 26.0117 22.3657C26.0117 21.5688 26.1133 20.7993 26.3164 20.0571C26.5273 19.3149 26.8203 18.6235 27.1953 17.9829C27.5781 17.3345 28.0352 16.7446 28.5664 16.2134C29.0977 15.6821 29.6836 15.229 30.3242 14.854C30.9727 14.4712 31.6641 14.1782 32.3984 13.9751C33.1406 13.7642 33.9102 13.6587 34.707 13.6587C35.7461 13.6587 36.75 13.8384 37.7188 14.1978C38.6875 14.5493 39.5625 15.0649 40.3438 15.7446L38.5625 18.6743C38.0703 18.1431 37.4883 17.7368 36.8164 17.4556C36.1445 17.1665 35.4414 17.022 34.707 17.022C33.9648 17.022 33.2695 17.1626 32.6211 17.4438C31.9727 17.7251 31.4062 18.1079 30.9219 18.5923C30.4375 19.0688 30.0547 19.6353 29.7734 20.2915C29.4922 20.9399 29.3516 21.6313 29.3516 22.3657C29.3516 23.1001 29.4922 23.7915 29.7734 24.4399C30.0547 25.0806 30.4375 25.6431 30.9219 26.1274C31.4062 26.6118 31.9727 26.9946 32.6211 27.2759C33.2695 27.5571 33.9648 27.6978 34.707 27.6978C35.4414 27.6978 36.1445 27.5571 36.8164 27.2759C37.4883 26.9868 38.0703 26.5767 38.5625 26.0454L40.3438 28.9751ZM58.2734 22.3657C58.2734 23.1626 58.168 23.9321 57.957 24.6743C57.7539 25.4087 57.4648 26.1001 57.0898 26.7485C56.7148 27.3892 56.2617 27.9751 55.7305 28.5063C55.1992 29.0376 54.6133 29.4946 53.9727 29.8774C53.332 30.2524 52.6406 30.5415 51.8984 30.7446C51.1562 30.9556 50.3867 31.061 49.5898 31.061C48.793 31.061 48.0234 30.9556 47.2812 30.7446C46.5469 30.5415 45.8555 30.2524 45.207 29.8774C44.5664 29.4946 43.9805 29.0376 43.4492 28.5063C42.918 27.9751 42.4609 27.3892 42.0781 26.7485C41.7031 26.1001 41.4102 25.4087 41.1992 24.6743C40.9961 23.9321 40.8945 23.1626 40.8945 22.3657C40.8945 21.5688 40.9961 20.7993 41.1992 20.0571C41.4102 19.3149 41.7031 18.6235 42.0781 17.9829C42.4609 17.3423 42.918 16.7563 43.4492 16.2251C43.9805 15.6938 44.5664 15.2407 45.207 14.8657C45.8555 14.4907 46.5469 14.2017 47.2812 13.9985C48.0234 13.7876 48.793 13.6821 49.5898 13.6821C50.3867 13.6821 51.1562 13.7876 51.8984 13.9985C52.6406 14.2017 53.332 14.4907 53.9727 14.8657C54.6133 15.2407 55.1992 15.6938 55.7305 16.2251C56.2617 16.7563 56.7148 17.3423 57.0898 17.9829C57.4648 18.6235 57.7539 19.3149 57.957 20.0571C58.168 20.7993 58.2734 21.5688 58.2734 22.3657ZM54.9336 22.3657C54.9336 21.6313 54.793 20.9399 54.5117 20.2915C54.2305 19.6353 53.8477 19.0688 53.3633 18.5923C52.8867 18.1079 52.3203 17.7251 51.6641 17.4438C51.0156 17.1626 50.3242 17.022 49.5898 17.022C48.8477 17.022 48.1523 17.1626 47.5039 17.4438C46.8555 17.7251 46.2891 18.1079 45.8047 18.5923C45.3203 19.0688 44.9375 19.6353 44.6562 20.2915C44.375 20.9399 44.2344 21.6313 44.2344 22.3657C44.2344 23.1001 44.375 23.7915 44.6562 24.4399C44.9375 25.0806 45.3203 25.6431 45.8047 26.1274C46.2891 26.6118 46.8555 26.9946 47.5039 27.2759C48.1523 27.5571 48.8477 27.6978 49.5898 27.6978C50.3242 27.6978 51.0156 27.5571 51.6641 27.2759C52.3203 26.9946 52.8867 26.6118 53.3633 26.1274C53.8477 25.6431 54.2305 25.0806 54.5117 24.4399C54.793 23.7915 54.9336 23.1001 54.9336 22.3657ZM73.9531 22.2954C73.9531 23.0688 73.8516 23.8149 73.6484 24.5337C73.4531 25.2446 73.1719 25.9126 72.8047 26.5376C72.4375 27.1548 72 27.7212 71.4922 28.2368C70.9844 28.7446 70.418 29.1821 69.793 29.5493C69.168 29.9165 68.4961 30.2017 67.7773 30.4048C67.0664 30.6001 66.3242 30.6978 65.5508 30.6978H60.4883V13.8931H65.5508C66.3242 13.8931 67.0664 13.9946 67.7773 14.1978C68.4961 14.3931 69.168 14.6743 69.793 15.0415C70.418 15.4087 70.9844 15.8501 71.4922 16.3657C72 16.8735 72.4375 17.4399 72.8047 18.0649C73.1719 18.6821 73.4531 19.3501 73.6484 20.0688C73.8516 20.7798 73.9531 21.522 73.9531 22.2954ZM70.5898 22.2954C70.5898 21.6001 70.457 20.9478 70.1914 20.3384C69.9336 19.729 69.5742 19.1978 69.1133 18.7446C68.6602 18.2837 68.125 17.9204 67.5078 17.6548C66.8984 17.3892 66.2461 17.2563 65.5508 17.2563H63.875V27.3345H65.5508C66.2461 27.3345 66.8984 27.2056 67.5078 26.9478C68.125 26.6821 68.6602 26.3228 69.1133 25.8696C69.5742 25.4087 69.9336 24.8735 70.1914 24.2642C70.457 23.647 70.5898 22.9907 70.5898 22.2954Z" fill="#876445"/>
</svg>
