<svg width="50" height="50" viewBox="0 0 50 50" fill="none" xmlns="http://www.w3.org/2000/svg">
<g id="delivery-icon">
<path id="Vector" fill-rule="evenodd" clip-rule="evenodd" d="M2.08325 6.25008C2.08325 5.69755 2.30275 5.16764 2.69345 4.77694C3.08415 4.38624 3.61405 4.16675 4.16659 4.16675H27.0833C27.6358 4.16675 28.1657 4.38624 28.5564 4.77694C28.9471 5.16764 29.1666 5.69755 29.1666 6.25008V16.6667H37.4999C38.8679 16.6667 40.2224 16.9362 41.4862 17.4597C42.75 17.9832 43.8983 18.7504 44.8656 19.7177C45.8329 20.685 46.6002 21.8333 47.1237 23.0971C47.6471 24.3609 47.9166 25.7155 47.9166 27.0834V35.4167C47.9168 36.7579 47.4857 38.0636 46.6871 39.141C45.8884 40.2184 44.7644 41.0104 43.4812 41.4001C43.0991 42.6605 42.3286 43.768 41.2797 44.5645C40.2307 45.361 38.957 45.8058 37.6403 45.8353C36.3235 45.8649 35.0311 45.4777 33.9475 44.7291C32.8639 43.9805 32.0445 42.9087 31.6062 41.6667H18.3958C17.9575 42.9087 17.138 43.9805 16.0544 44.7291C14.9708 45.4777 13.6784 45.8649 12.3616 45.8353C11.0449 45.8058 9.77119 45.361 8.72226 44.5645C7.67334 43.768 6.90284 42.6605 6.52075 41.4001C5.23708 41.0108 4.11267 40.2189 3.3136 39.1415C2.51453 38.064 2.08317 36.7582 2.08325 35.4167V27.0834H14.5833C15.1358 27.0834 15.6657 26.8639 16.0564 26.4732C16.4471 26.0825 16.6666 25.5526 16.6666 25.0001C16.6666 24.4475 16.4471 23.9176 16.0564 23.5269C15.6657 23.1362 15.1358 22.9167 14.5833 22.9167H2.08325V18.7501H10.4166C10.9691 18.7501 11.499 18.5306 11.8897 18.1399C12.2804 17.7492 12.4999 17.2193 12.4999 16.6667C12.4999 16.1142 12.2804 15.5843 11.8897 15.1936C11.499 14.8029 10.9691 14.5834 10.4166 14.5834H2.08325V6.25008ZM29.1666 37.5001H31.6062C32.018 36.3343 32.7664 35.317 33.7566 34.5766C34.7467 33.8362 35.9342 33.4062 37.1689 33.3409C38.4035 33.2755 39.6297 33.5778 40.6925 34.2095C41.7553 34.8412 42.6069 35.7739 43.1395 36.8897C43.3332 36.6965 43.4869 36.4669 43.5917 36.2141C43.6964 35.9613 43.7502 35.6904 43.7499 35.4167V27.0834C43.7499 25.4258 43.0914 23.8361 41.9193 22.664C40.7472 21.4919 39.1575 20.8334 37.4999 20.8334H29.1666V37.5001ZM14.5833 39.5834C14.5833 39.0309 14.3638 38.501 13.9731 38.1103C13.5824 37.7196 13.0525 37.5001 12.4999 37.5001C11.9474 37.5001 11.4175 37.7196 11.0268 38.1103C10.6361 38.501 10.4166 39.0309 10.4166 39.5834C10.4166 40.1359 10.6361 40.6659 11.0268 41.0566C11.4175 41.4473 11.9474 41.6667 12.4999 41.6667C13.0525 41.6667 13.5824 41.4473 13.9731 41.0566C14.3638 40.6659 14.5833 40.1359 14.5833 39.5834ZM36.027 38.1105C35.833 38.3035 35.6791 38.533 35.5744 38.7859C35.4696 39.0387 35.416 39.3097 35.4166 39.5834C35.4165 40.0654 35.5835 40.5325 35.8892 40.9052C36.1949 41.2778 36.6204 41.533 37.0931 41.6271C37.5658 41.7212 38.0565 41.6485 38.4816 41.4214C38.9068 41.1943 39.24 40.8267 39.4245 40.3815C39.6091 39.9362 39.6335 39.4407 39.4936 38.9794C39.3538 38.5182 39.0584 38.1197 38.6576 37.8518C38.2569 37.584 37.7757 37.4634 37.296 37.5105C36.8164 37.5577 36.3679 37.7697 36.027 38.1105Z" fill="#876445"/>
</g>
</svg>
