<svg width="50" height="50" viewBox="0 0 50 50" fill="none" xmlns="http://www.w3.org/2000/svg">
<path opacity="0.5" fill-rule="evenodd" clip-rule="evenodd" d="M43.2291 25C43.2291 24.5856 43.0645 24.1882 42.7714 23.8951C42.4784 23.6021 42.081 23.4375 41.6666 23.4375H22.3958V26.5625H41.6666C42.081 26.5625 42.4784 26.3979 42.7714 26.1049C43.0645 25.8118 43.2291 25.4144 43.2291 25Z" fill="#876445"/>
<path d="M22.3958 37.5001C22.3956 37.8089 22.3038 38.1108 22.1321 38.3675C21.9604 38.6242 21.7164 38.8242 21.4311 38.9424C21.1458 39.0605 20.8318 39.0914 20.5289 39.0313C20.226 38.9711 19.9477 38.8225 19.7292 38.6043L7.22918 26.1043C6.93657 25.8113 6.77222 25.4142 6.77222 25.0001C6.77222 24.586 6.93657 24.1889 7.22918 23.8959L19.7292 11.3959C19.9477 11.1777 20.226 11.0291 20.5289 10.9689C20.8318 10.9087 21.1458 10.9397 21.4311 11.0578C21.7164 11.176 21.9604 11.376 22.1321 11.6327C22.3038 11.8894 22.3956 12.1913 22.3958 12.5001V37.5001Z" fill="#876445"/>
</svg>
