<svg width="341" height="101" viewBox="0 0 341 101" fill="none" xmlns="http://www.w3.org/2000/svg">
<rect x="38.4551" y="4.08765" width="13.879" height="18.5053" rx="2.7758" fill="url(#paint0_linear_140_3942)"/>
<circle cx="45.3967" cy="13.3403" r="2.31317" fill="#E5E5CB"/>
<circle cx="45.3965" cy="13.3405" r="0.925267" fill="#1A120B"/>
<path d="M36.1401 31.8457L3.42702 64.5588" stroke="url(#paint1_linear_140_3942)" stroke-width="5.08475" stroke-linecap="round"/>
<path d="M54.6494 31.8525L87.3625 64.5657" stroke="url(#paint2_linear_140_3942)" stroke-width="5.08475" stroke-linecap="round"/>
<path d="M41.603 44.8989L61.2309 64.5268" stroke="url(#paint3_linear_140_3942)" stroke-width="5.08475" stroke-linecap="round"/>
<path d="M41.603 44.9375L54.6883 31.8523" stroke="url(#paint4_linear_140_3942)" stroke-width="5.08475" stroke-linecap="round"/>
<path d="M36.144 97.3081L49.2293 84.2229" stroke="url(#paint5_linear_140_3942)" stroke-width="5.08475" stroke-linecap="round"/>
<path d="M29.5728 64.6001L49.2006 84.228" stroke="url(#paint6_linear_140_3942)" stroke-width="5.08475" stroke-linecap="round"/>
<path d="M36.103 97.2275L3.38991 64.5144" stroke="url(#paint7_linear_140_3942)" stroke-width="5.08475" stroke-linecap="round"/>
<path d="M54.6865 97.2344L87.3996 64.5213" stroke="url(#paint8_linear_140_3942)" stroke-width="5.08475" stroke-linecap="round"/>
<rect x="109.433" y="9.66382" width="228.898" height="65.9492" rx="8.47458" fill="#1A120B"/>
<g filter="url(#filter0_d_140_3942)">
<path d="M134.01 42.5622C134.959 40.6187 136.145 39.1045 137.569 38.0198C139.015 36.935 140.439 36.3927 141.84 36.3927C143.241 36.3927 144.394 36.9576 145.298 38.0876C146.224 39.1949 146.688 40.8107 146.688 42.935C146.688 46.3249 145.761 49.2062 143.908 51.5791C142.055 53.952 139.829 55.1384 137.23 55.1384C136.303 55.1384 135.366 54.9576 134.416 54.5961C136.631 54.0763 138.394 52.6413 139.705 50.291C141.015 47.9407 141.671 45.6017 141.671 43.274C141.671 42.1893 141.467 41.3079 141.061 40.63C140.676 39.952 140.123 39.613 139.4 39.613C138.021 39.613 136.801 40.4492 135.739 42.1215C134.676 43.7938 133.863 46.0876 133.298 49.0028C132.733 51.8955 132.45 54.9124 132.45 58.0537C132.45 61.2175 132.676 63.9633 133.128 66.291C131.275 66.2232 129.897 65.9181 128.993 65.3757C128.111 64.8559 127.671 63.8503 127.671 62.3588C127.671 61.8164 128.01 58.9576 128.688 53.7825C129.388 48.5848 129.739 44.5848 129.739 41.7825C129.739 38.9802 129.569 36.6187 129.23 34.6977C131.038 35.1497 132.281 35.9859 132.959 37.2062C133.659 38.4266 134.01 40.2119 134.01 42.5622ZM158.261 46.7994C157.176 46.7994 156.114 46.6752 155.075 46.4266C155.052 46.6526 155.041 47.0028 155.041 47.4774C155.041 49.3531 155.391 50.7655 156.092 51.7147C156.792 52.6639 157.628 53.1384 158.6 53.1384C159.572 53.1384 160.498 52.8446 161.38 52.2571C162.261 51.6695 163.029 50.8559 163.685 49.8164C164.498 49.9972 164.905 50.4153 164.905 51.0706C162.916 54.1215 160.351 55.6469 157.21 55.6469C155.312 55.6469 153.651 54.9237 152.227 53.4774C150.803 52.0085 150.092 49.9746 150.092 47.3757C150.092 45.4322 150.464 43.5904 151.21 41.8503C151.956 40.0876 153.142 38.6074 154.769 37.4096C156.397 36.1893 158.193 35.5791 160.159 35.5791C162.148 35.5791 163.606 36.0311 164.532 36.935C165.459 37.839 165.922 39.0254 165.922 40.4944C165.922 42.6187 165.176 44.2006 163.685 45.2401C162.216 46.2797 160.408 46.7994 158.261 46.7994ZM159.685 37.6808C158.532 37.6808 157.56 38.3927 156.769 39.8164C155.979 41.2401 155.459 42.9689 155.21 45.0028H155.719C157.685 45.0028 159.131 44.4944 160.058 43.4774C161.007 42.4605 161.481 41.2401 161.481 39.8164C161.481 39.2288 161.323 38.7316 161.007 38.3249C160.713 37.8955 160.272 37.6808 159.685 37.6808ZM174.721 44.1215C175.535 41.1836 176.506 39.0254 177.636 37.6469C178.789 36.2458 179.851 35.5452 180.823 35.5452C181.817 35.5452 182.563 35.9181 183.06 36.6638C183.557 37.387 183.806 38.3362 183.806 39.5113C183.806 40.6638 183.455 41.726 182.755 42.6977C182.077 43.6695 181.139 44.1554 179.941 44.1554C179.625 44.1554 179.252 44.065 178.823 43.8842C179.523 43.0028 179.874 41.9407 179.874 40.6977C179.874 39.9746 179.58 39.613 178.992 39.613C178.563 39.613 178.1 39.9181 177.602 40.5283C177.105 41.1158 176.631 41.9407 176.179 43.0028C175.727 44.0424 175.342 45.387 175.026 47.0367C174.732 48.6639 174.585 50.404 174.585 52.2571C174.585 52.4831 174.642 53.4435 174.755 55.1384C174.032 55.1836 173.568 55.2062 173.365 55.2062C172.077 55.2062 171.15 54.9802 170.585 54.5283C170.02 54.0763 169.738 53.3305 169.738 52.291C169.738 51.839 169.975 50.0989 170.45 47.0706C170.924 44.0424 171.162 41.6356 171.162 39.8503C171.162 38.0424 170.97 36.3814 170.585 34.8672C172.235 35.387 173.388 36.1328 174.043 37.1045C174.698 38.0537 175.026 39.1723 175.026 40.4605C175.026 41.726 174.924 42.9463 174.721 44.1215ZM196.921 35.3418C196.966 35.7938 196.989 36.1328 196.989 36.3588C196.989 37.4435 196.796 38.2006 196.412 38.63C196.028 39.0367 195.35 39.2401 194.378 39.2401C193.429 39.2401 192.695 39.2288 192.175 39.2062C191.294 45.6243 190.853 50.2232 190.853 53.0028C190.853 54.3362 190.876 55.2966 190.921 55.8842C190.989 56.4944 191.147 57.5226 191.395 58.9689C189.768 58.4492 188.57 57.6017 187.802 56.4266C187.034 55.274 186.65 53.9068 186.65 52.3249C186.65 49.952 186.989 46.4492 187.666 41.8164C187.825 40.6413 187.926 39.8616 187.972 39.4774C186.774 39.6808 185.553 40.065 184.311 40.63C184.265 40.1328 184.243 39.7599 184.243 39.5113C184.243 38.291 184.616 37.4661 185.361 37.0367C186.107 36.6074 187.181 36.3814 188.582 36.3588C189.034 34.1441 189.633 32.2345 190.378 30.6299C191.147 29.0254 191.983 27.8164 192.887 27.0028C194.604 25.4209 196.401 24.6299 198.277 24.6299C199.542 24.6299 200.604 25.0141 201.463 25.7825C202.344 26.5283 202.785 27.4548 202.785 28.5622C202.785 29.6469 202.412 30.5961 201.666 31.4096C200.921 32.2232 199.938 32.63 198.717 32.63C198.243 32.63 197.779 32.5509 197.327 32.3927C197.689 32.1215 198.039 31.6469 198.378 30.9689C198.74 30.291 198.921 29.6582 198.921 29.0706C198.921 28.4605 198.785 27.9859 198.514 27.6469C198.265 27.3079 197.926 27.1384 197.497 27.1384C196.57 27.1384 195.621 27.9181 194.65 29.4774C193.7 31.0141 192.989 33.3418 192.514 36.4605C194.525 36.4605 195.994 36.0876 196.921 35.3418ZM210.216 35.5791C210.894 35.5339 211.368 35.5113 211.639 35.5113C212.815 35.5113 213.707 35.726 214.317 36.1554C214.928 36.5848 215.233 37.3757 215.233 38.5283C215.233 38.8898 215.018 40.4831 214.589 43.3079C214.159 46.1102 213.945 48.517 213.945 50.5283C213.945 52.5396 214.159 54.3136 214.589 55.8503C212.894 55.3079 211.719 54.5396 211.063 53.5452C210.408 52.5509 210.08 51.3192 210.08 49.8503C210.08 49.2853 210.204 48.0085 210.453 46.0198C209.752 48.5961 208.679 50.7655 207.233 52.5283C205.809 54.2684 204.464 55.1384 203.199 55.1384C200.6 55.1384 199.3 53.2627 199.3 49.5113C199.3 48.2684 199.481 46.5396 199.843 44.3249C200.227 42.0876 200.419 40.3927 200.419 39.2401C200.419 38.0876 200.261 36.9237 199.945 35.7486C201.82 35.7486 203.176 35.9972 204.012 36.4944C204.871 36.9689 205.3 37.9294 205.3 39.3757C205.3 40.1441 205.063 41.6695 204.589 43.952C204.114 46.2345 203.877 47.952 203.877 49.1045C203.877 50.7768 204.329 51.613 205.233 51.613C205.685 51.613 206.204 51.3079 206.792 50.6977C207.38 50.065 207.945 49.2401 208.487 48.2232C209.029 47.1836 209.481 45.8955 209.843 44.3588C210.227 42.7994 210.419 41.2288 210.419 39.6469C210.419 38.0424 210.351 36.6864 210.216 35.5791ZM234.468 51.5452C234.468 52.6752 234.536 53.8729 234.672 55.1384C233.948 55.1836 233.474 55.2062 233.248 55.2062C231.982 55.2062 231.067 54.9915 230.502 54.5622C229.937 54.1102 229.655 53.4548 229.655 52.5961C229.655 51.7373 229.892 49.9746 230.366 47.3079C230.864 44.6187 231.112 42.5848 231.112 41.2062C231.112 39.8051 230.66 39.1045 229.756 39.1045C229.259 39.1045 228.717 39.4096 228.129 40.0198C227.542 40.6074 226.988 41.4209 226.468 42.4605C225.948 43.4774 225.508 44.7881 225.146 46.3927C224.807 47.9972 224.638 49.5452 224.638 51.0367C224.638 52.5057 224.705 53.8729 224.841 55.1384C224.118 55.1836 223.643 55.2062 223.417 55.2062C222.152 55.2062 221.236 54.9915 220.672 54.5622C220.107 54.1102 219.824 53.3644 219.824 52.3249C219.824 52.0763 220.05 50.3927 220.502 47.274C220.977 44.1554 221.214 41.6921 221.214 39.8842C221.214 38.0537 221.022 36.3814 220.638 34.8672C222.31 35.387 223.474 36.1328 224.129 37.1045C224.784 38.0763 225.112 39.274 225.112 40.6977C225.112 41.4209 225.033 42.3362 224.875 43.4435C225.643 41.1836 226.705 39.3079 228.061 37.8164C229.44 36.3249 230.762 35.5791 232.027 35.5791C233.316 35.5791 234.242 36.0537 234.807 37.0028C235.395 37.952 235.688 39.3192 235.688 41.1045C236.547 39.4548 237.53 38.1215 238.638 37.1045C239.745 36.0876 240.762 35.5791 241.688 35.5791C243.067 35.5791 244.039 35.9972 244.604 36.8333C245.191 37.6469 245.485 38.7655 245.485 40.1893C245.485 41.5904 245.259 43.5678 244.807 46.1215C244.378 48.6752 244.163 50.5396 244.163 51.7147C244.163 52.8672 244.31 53.7147 244.604 54.2571C244.897 54.7768 245.395 55.2288 246.095 55.613C245.801 55.6356 245.383 55.6469 244.841 55.6469C242.943 55.6469 241.587 55.3531 240.773 54.7655C239.982 54.178 239.587 53.1497 239.587 51.6808C239.587 50.8446 239.813 49.2175 240.265 46.7994C240.717 44.3588 240.943 42.5396 240.943 41.3418C240.943 39.8503 240.491 39.1045 239.587 39.1045C238.909 39.1045 238.174 39.6017 237.383 40.5961C236.615 41.5678 235.937 43.048 235.349 45.0367C234.762 47.0028 234.468 49.1723 234.468 51.5452ZM257.639 46.7994C256.554 46.7994 255.492 46.6752 254.452 46.4266C254.43 46.6526 254.418 47.0028 254.418 47.4774C254.418 49.3531 254.769 50.7655 255.469 51.7147C256.17 52.6639 257.006 53.1384 257.978 53.1384C258.949 53.1384 259.876 52.8446 260.757 52.2571C261.639 51.6695 262.407 50.8559 263.062 49.8164C263.876 49.9972 264.283 50.4153 264.283 51.0706C262.294 54.1215 259.729 55.6469 256.588 55.6469C254.69 55.6469 253.028 54.9237 251.605 53.4774C250.181 52.0085 249.469 49.9746 249.469 47.3757C249.469 45.4322 249.842 43.5904 250.588 41.8503C251.334 40.0876 252.52 38.6074 254.147 37.4096C255.774 36.1893 257.571 35.5791 259.537 35.5791C261.526 35.5791 262.983 36.0311 263.91 36.935C264.836 37.839 265.3 39.0254 265.3 40.4944C265.3 42.6187 264.554 44.2006 263.062 45.2401C261.593 46.2797 259.786 46.7994 257.639 46.7994ZM259.062 37.6808C257.91 37.6808 256.938 38.3927 256.147 39.8164C255.356 41.2401 254.836 42.9689 254.588 45.0028H255.096C257.062 45.0028 258.509 44.4944 259.435 43.4774C260.384 42.4605 260.859 41.2401 260.859 39.8164C260.859 39.2288 260.701 38.7316 260.384 38.3249C260.091 37.8955 259.65 37.6808 259.062 37.6808ZM282.813 22.6977C284.418 23.1271 285.514 23.9068 286.101 25.0367C286.712 26.1441 287.017 27.3757 287.017 28.7316C287.017 30.0876 286.802 32.404 286.373 35.6808C285.943 38.935 285.649 41.5339 285.491 43.4774C286.169 41.0593 287.13 39.1384 288.373 37.7147C289.638 36.291 290.994 35.5791 292.44 35.5791C293.887 35.5791 295.13 36.2684 296.169 37.6469C297.231 39.0254 297.762 40.7881 297.762 42.935C297.762 46.2571 296.87 49.1271 295.084 51.5452C293.322 53.9407 291.299 55.1384 289.017 55.1384C288.226 55.1384 287.435 54.9576 286.644 54.5961C287.615 54.3249 288.497 53.7712 289.288 52.935C290.079 52.0989 290.723 51.1384 291.22 50.0537C292.237 47.7938 292.745 45.5339 292.745 43.274C292.745 42.1667 292.531 41.1949 292.101 40.3588C291.695 39.5226 291.141 39.1045 290.44 39.1045C289.31 39.1045 288.158 40.2571 286.983 42.5622C285.83 44.8672 285.22 47.7373 285.152 51.1723V51.8164C285.197 52.6074 285.389 53.9181 285.728 55.7486C282.474 55.0028 280.847 52.6639 280.847 48.7316C280.847 47.1271 281.22 43.8955 281.966 39.0367C282.734 34.178 283.118 30.6299 283.118 28.3927C283.118 26.1554 283.017 24.2571 282.813 22.6977ZM305.885 48.291C305.885 50.9802 306.699 52.3249 308.326 52.3249C309.185 52.3249 310.021 51.8616 310.834 50.935C311.648 50.0085 312.303 48.7655 312.8 47.2062C313.32 45.6469 313.761 43.9859 314.123 42.2232C314.507 40.4379 314.789 38.5509 314.97 36.5622C315.286 32.7203 315.445 29.726 315.445 27.5791C315.445 25.4096 315.354 23.7825 315.173 22.6977C316.8 23.0593 317.942 23.8277 318.597 25.0028C319.252 26.178 319.58 27.6582 319.58 29.4435C319.58 31.2288 319.196 34.5509 318.428 39.4096C317.682 44.2684 317.309 47.8164 317.309 50.0537C317.309 52.291 317.411 54.1893 317.614 55.7486C316.01 55.3192 314.902 54.5509 314.292 53.4435C313.704 52.3136 313.411 50.9011 313.411 49.2062C312.71 51.1497 311.659 52.6865 310.258 53.8164C308.857 54.9463 307.411 55.5113 305.919 55.5113C304.428 55.5113 303.207 54.9463 302.258 53.8164C301.332 52.6639 300.868 50.9802 300.868 48.7655C300.868 45.2627 301.829 42.2571 303.75 39.7486C305.671 37.2175 307.942 35.952 310.563 35.952C311.309 35.952 312.484 36.1328 314.089 36.4944C312.687 36.8559 311.433 37.4887 310.326 38.3927C309.241 39.274 308.394 40.291 307.784 41.4435C306.518 43.726 305.885 46.0085 305.885 48.291Z" fill="#D49F6A"/>
</g>
<path d="M174.253 87.0262C174.253 86.5548 174.343 86.1126 174.523 85.6994C174.703 85.2863 174.946 84.9261 175.254 84.6189C175.566 84.3064 175.929 84.0601 176.342 83.88C176.755 83.7 177.198 83.6099 177.669 83.6099H182.897V85.8901H177.669C177.51 85.8901 177.362 85.9192 177.224 85.9775C177.086 86.0358 176.964 86.1179 176.859 86.2238C176.758 86.3244 176.678 86.4436 176.62 86.5813C176.562 86.719 176.533 86.8673 176.533 87.0262C176.533 87.1851 176.562 87.3361 176.62 87.4791C176.678 87.6168 176.758 87.7386 176.859 87.8446C176.964 87.9452 177.086 88.0246 177.224 88.0829C177.362 88.1412 177.51 88.1703 177.669 88.1703H179.949C180.42 88.1703 180.863 88.2603 181.276 88.4404C181.694 88.6152 182.057 88.8589 182.364 89.1714C182.677 89.4786 182.92 89.8414 183.095 90.2598C183.275 90.673 183.365 91.1152 183.365 91.5866C183.365 92.058 183.275 92.5003 183.095 92.9134C182.92 93.3266 182.677 93.6894 182.364 94.0019C182.057 94.3091 181.694 94.5527 181.276 94.7328C180.863 94.9129 180.42 95.0029 179.949 95.0029H174.888V92.7227H179.949C180.108 92.7227 180.256 92.6936 180.394 92.6353C180.532 92.5771 180.651 92.4976 180.752 92.397C180.857 92.2911 180.94 92.1692 180.998 92.0315C181.056 91.8938 181.085 91.7455 181.085 91.5866C181.085 91.4277 181.056 91.2794 180.998 91.1417C180.94 91.004 180.857 90.8848 180.752 90.7842C180.651 90.6782 180.532 90.5961 180.394 90.5379C180.256 90.4796 180.108 90.4505 179.949 90.4505H177.669C177.198 90.4505 176.755 90.3605 176.342 90.1804C175.929 90.0003 175.566 89.7566 175.254 89.4494C174.946 89.1369 174.703 88.7741 174.523 88.361C174.343 87.9425 174.253 87.4976 174.253 87.0262ZM188.985 84.182C188.985 84.3832 188.945 84.5713 188.866 84.746C188.791 84.9208 188.688 85.0744 188.556 85.2068C188.423 85.334 188.267 85.4373 188.087 85.5167C187.912 85.5909 187.724 85.6279 187.523 85.6279C187.322 85.6279 187.131 85.5909 186.951 85.5167C186.776 85.4373 186.622 85.334 186.49 85.2068C186.363 85.0744 186.26 84.9208 186.18 84.746C186.106 84.5713 186.069 84.3832 186.069 84.182C186.069 83.986 186.106 83.8006 186.18 83.6258C186.26 83.4457 186.363 83.2921 186.49 83.165C186.622 83.0326 186.776 82.9293 186.951 82.8552C187.131 82.7757 187.322 82.736 187.523 82.736C187.724 82.736 187.912 82.7757 188.087 82.8552C188.267 82.9293 188.423 83.0326 188.556 83.165C188.688 83.2921 188.791 83.4457 188.866 83.6258C188.945 83.8006 188.985 83.986 188.985 84.182ZM188.611 95.0029H186.426V86.4939H188.611V95.0029ZM194.231 95.0029H192.062V86.4939H192.586L193.301 87.3202C193.651 87.0024 194.045 86.7588 194.485 86.5893C194.93 86.4145 195.393 86.3271 195.875 86.3271C196.394 86.3271 196.884 86.4277 197.345 86.629C197.806 86.825 198.208 87.0977 198.553 87.4473C198.897 87.7916 199.167 88.1968 199.363 88.6629C199.564 89.1237 199.665 89.6163 199.665 90.1406V95.0029H197.496V90.1406C197.496 89.9182 197.454 89.709 197.369 89.513C197.284 89.3117 197.168 89.1369 197.019 88.9886C196.871 88.8403 196.699 88.7238 196.503 88.6391C196.307 88.5543 196.098 88.5119 195.875 88.5119C195.647 88.5119 195.433 88.5543 195.232 88.6391C195.03 88.7238 194.856 88.8403 194.707 88.9886C194.559 89.1369 194.442 89.3117 194.358 89.513C194.273 89.709 194.231 89.9182 194.231 90.1406V95.0029ZM210.44 88.1862L208.851 89.7831C208.772 89.5607 208.663 89.362 208.526 89.1873C208.388 89.0072 208.232 88.8562 208.057 88.7344C207.887 88.6126 207.702 88.5199 207.501 88.4563C207.3 88.3928 207.093 88.361 206.881 88.361C206.584 88.361 206.304 88.4219 206.039 88.5437C205.779 88.6655 205.552 88.8377 205.356 89.0601C205.165 89.2773 205.014 89.5368 204.903 89.8387C204.792 90.1406 204.736 90.4743 204.736 90.8398C204.736 91.1364 204.792 91.4145 204.903 91.674C205.014 91.9335 205.165 92.1613 205.356 92.3573C205.552 92.5532 205.779 92.7068 206.039 92.8181C206.304 92.9293 206.584 92.9849 206.881 92.9849C207.093 92.9849 207.297 92.9558 207.493 92.8975C207.689 92.8393 207.872 92.7572 208.041 92.6512C208.216 92.54 208.369 92.4076 208.502 92.254C208.64 92.0951 208.751 91.9203 208.836 91.7296L210.425 93.3266C210.223 93.6126 209.99 93.8695 209.725 94.0972C209.466 94.325 209.182 94.5183 208.875 94.6772C208.573 94.8361 208.253 94.9553 207.914 95.0347C207.58 95.1195 207.236 95.1618 206.881 95.1618C206.283 95.1618 205.718 95.0506 205.189 94.8281C204.664 94.6004 204.204 94.2905 203.806 93.8986C203.414 93.5066 203.105 93.0485 202.877 92.5241C202.649 91.9998 202.535 91.4383 202.535 90.8398C202.535 90.1883 202.649 89.5792 202.877 89.0125C203.105 88.4457 203.414 87.9531 203.806 87.5347C204.204 87.111 204.664 86.7773 205.189 86.5336C205.718 86.29 206.283 86.1682 206.881 86.1682C207.236 86.1682 207.583 86.2132 207.922 86.3032C208.266 86.3933 208.592 86.5257 208.899 86.7005C209.212 86.87 209.498 87.0792 209.757 87.3281C210.022 87.5771 210.25 87.8631 210.44 88.1862ZM216.552 92.9214C216.637 92.9478 216.722 92.9664 216.807 92.977C216.891 92.9823 216.976 92.9849 217.061 92.9849C217.273 92.9849 217.477 92.9558 217.673 92.8975C217.868 92.8393 218.051 92.7572 218.221 92.6512C218.395 92.54 218.549 92.4076 218.682 92.254C218.819 92.0951 218.93 91.9203 219.015 91.7296L220.604 93.3266C220.403 93.6126 220.17 93.8695 219.905 94.0972C219.645 94.325 219.362 94.5183 219.055 94.6772C218.753 94.8361 218.433 94.9553 218.094 95.0347C217.76 95.1195 217.416 95.1618 217.061 95.1618C216.462 95.1618 215.898 95.0506 215.368 94.8281C214.844 94.6057 214.383 94.2958 213.986 93.8986C213.594 93.5013 213.284 93.0299 213.057 92.4844C212.829 91.9335 212.715 91.3297 212.715 90.673C212.715 90.0003 212.829 89.3859 213.057 88.8297C213.284 88.2736 213.594 87.7995 213.986 87.4076C214.383 87.0156 214.844 86.7111 215.368 86.4939C215.898 86.2768 216.462 86.1682 217.061 86.1682C217.416 86.1682 217.763 86.2106 218.102 86.2953C218.441 86.38 218.761 86.5019 219.063 86.6608C219.37 86.8197 219.656 87.0156 219.921 87.2487C220.186 87.4764 220.419 87.7333 220.62 88.0193L216.552 92.9214ZM217.665 88.4484C217.564 88.4113 217.463 88.3875 217.363 88.3769C217.267 88.3663 217.167 88.361 217.061 88.361C216.764 88.361 216.483 88.4166 216.219 88.5278C215.959 88.6338 215.731 88.7874 215.535 88.9886C215.345 89.1899 215.194 89.4335 215.082 89.7196C214.971 90.0003 214.916 90.3181 214.916 90.673C214.916 90.7524 214.918 90.8424 214.924 90.9431C214.934 91.0437 214.947 91.147 214.963 91.2529C214.984 91.3536 215.008 91.4516 215.035 91.5469C215.061 91.6422 215.096 91.727 215.138 91.8011L217.665 88.4484ZM237.706 87.0262C237.706 87.4976 237.616 87.9425 237.436 88.361C237.256 88.7741 237.01 89.1369 236.697 89.4494C236.39 89.7566 236.03 90.0003 235.617 90.1804C235.203 90.3605 234.761 90.4505 234.29 90.4505H233.146C232.987 90.4505 232.839 90.4796 232.701 90.5379C232.563 90.5961 232.441 90.6782 232.335 90.7842C232.235 90.8848 232.155 91.004 232.097 91.1417C232.039 91.2794 232.01 91.4277 232.01 91.5866V92.7227H237.396V95.0029H229.729V91.5866C229.729 91.1152 229.819 90.673 230 90.2598C230.18 89.8414 230.423 89.4786 230.73 89.1714C231.043 88.8589 231.406 88.6152 231.819 88.4404C232.232 88.2603 232.674 88.1703 233.146 88.1703H234.29C234.449 88.1703 234.597 88.1412 234.735 88.0829C234.872 88.0246 234.992 87.9452 235.092 87.8446C235.198 87.7386 235.28 87.6168 235.339 87.4791C235.397 87.3361 235.426 87.1851 235.426 87.0262C235.426 86.8673 235.397 86.719 235.339 86.5813C235.28 86.4436 235.198 86.3244 235.092 86.2238C234.992 86.1179 234.872 86.0358 234.735 85.9775C234.597 85.9192 234.449 85.8901 234.29 85.8901H230.222V83.6099H234.29C234.761 83.6099 235.203 83.7 235.617 83.88C236.03 84.0601 236.39 84.3064 236.697 84.6189C237.01 84.9261 237.256 85.2863 237.436 85.6994C237.616 86.1126 237.706 86.5548 237.706 87.0262ZM247.727 89.3064C247.727 88.0405 247.515 87.1004 247.091 86.486C246.673 85.8716 246.088 85.5644 245.335 85.5644C244.589 85.5644 244.009 85.8689 243.595 86.478C243.182 87.0871 242.976 88.0299 242.976 89.3064C242.976 90.5723 243.182 91.5125 243.595 92.1269C244.009 92.7413 244.589 93.0485 245.335 93.0485C245.711 93.0485 246.048 92.9743 246.344 92.826C246.641 92.6724 246.89 92.442 247.091 92.1348C247.298 91.8276 247.454 91.441 247.56 90.9749C247.671 90.5035 247.727 89.9473 247.727 89.3064ZM249.896 89.3064C249.896 90.3869 249.777 91.3006 249.538 92.0474C249.3 92.7942 248.974 93.3981 248.561 93.8589C248.148 94.3197 247.663 94.6534 247.107 94.8599C246.556 95.0612 245.966 95.1618 245.335 95.1618C244.705 95.1618 244.112 95.0585 243.556 94.852C243.005 94.6401 242.523 94.3038 242.11 93.843C241.702 93.3769 241.379 92.7731 241.141 92.0315C240.902 91.2847 240.783 90.3763 240.783 89.3064C240.783 88.2259 240.902 87.3149 241.141 86.5734C241.379 85.8266 241.702 85.2227 242.11 84.7619C242.523 84.3011 243.005 83.9674 243.556 83.7609C244.112 83.5543 244.705 83.451 245.335 83.451C245.966 83.451 246.556 83.557 247.107 83.7688C247.663 83.9754 248.148 84.3117 248.561 84.7778C248.974 85.2439 249.3 85.8477 249.538 86.5893C249.777 87.3308 249.896 88.2365 249.896 89.3064ZM261.037 87.0262C261.037 87.4976 260.947 87.9425 260.767 88.361C260.587 88.7741 260.34 89.1369 260.028 89.4494C259.721 89.7566 259.36 90.0003 258.947 90.1804C258.534 90.3605 258.092 90.4505 257.62 90.4505H256.476C256.318 90.4505 256.169 90.4796 256.032 90.5379C255.894 90.5961 255.772 90.6782 255.666 90.7842C255.565 90.8848 255.486 91.004 255.428 91.1417C255.369 91.2794 255.34 91.4277 255.34 91.5866V92.7227H260.727V95.0029H253.06V91.5866C253.06 91.1152 253.15 90.673 253.33 90.2598C253.51 89.8414 253.754 89.4786 254.061 89.1714C254.374 88.8589 254.736 88.6152 255.15 88.4404C255.563 88.2603 256.005 88.1703 256.476 88.1703H257.62C257.779 88.1703 257.928 88.1412 258.065 88.0829C258.203 88.0246 258.322 87.9452 258.423 87.8446C258.529 87.7386 258.611 87.6168 258.669 87.4791C258.727 87.3361 258.757 87.1851 258.757 87.0262C258.757 86.8673 258.727 86.719 258.669 86.5813C258.611 86.4436 258.529 86.3244 258.423 86.2238C258.322 86.1179 258.203 86.0358 258.065 85.9775C257.928 85.9192 257.779 85.8901 257.62 85.8901H253.553V83.6099H257.62C258.092 83.6099 258.534 83.7 258.947 83.88C259.36 84.0601 259.721 84.3064 260.028 84.6189C260.34 84.9261 260.587 85.2863 260.767 85.6994C260.947 86.1126 261.037 86.5548 261.037 87.0262ZM271.058 89.3064C271.058 88.0405 270.846 87.1004 270.422 86.486C270.004 85.8716 269.418 85.5644 268.666 85.5644C267.919 85.5644 267.339 85.8689 266.926 86.478C266.513 87.0871 266.307 88.0299 266.307 89.3064C266.307 90.5723 266.513 91.5125 266.926 92.1269C267.339 92.7413 267.919 93.0485 268.666 93.0485C269.042 93.0485 269.379 92.9743 269.675 92.826C269.972 92.6724 270.221 92.442 270.422 92.1348C270.629 91.8276 270.785 91.441 270.891 90.9749C271.002 90.5035 271.058 89.9473 271.058 89.3064ZM273.227 89.3064C273.227 90.3869 273.107 91.3006 272.869 92.0474C272.631 92.7942 272.305 93.3981 271.892 93.8589C271.479 94.3197 270.994 94.6534 270.438 94.8599C269.887 95.0612 269.296 95.1618 268.666 95.1618C268.036 95.1618 267.443 95.0585 266.886 94.852C266.336 94.6401 265.854 94.3038 265.441 93.843C265.033 93.3769 264.71 92.7731 264.471 92.0315C264.233 91.2847 264.114 90.3763 264.114 89.3064C264.114 88.2259 264.233 87.3149 264.471 86.5734C264.71 85.8266 265.033 85.2227 265.441 84.7619C265.854 84.3011 266.336 83.9674 266.886 83.7609C267.443 83.5543 268.036 83.451 268.666 83.451C269.296 83.451 269.887 83.557 270.438 83.7688C270.994 83.9754 271.479 84.3117 271.892 84.7778C272.305 85.2439 272.631 85.8477 272.869 86.5893C273.107 87.3308 273.227 88.2365 273.227 89.3064Z" fill="#876445"/>
<defs>
<filter id="filter0_d_140_3942" x="127.671" y="22.6978" width="192.757" height="44.4407" filterUnits="userSpaceOnUse" color-interpolation-filters="sRGB">
<feFlood flood-opacity="0" result="BackgroundImageFix"/>
<feColorMatrix in="SourceAlpha" type="matrix" values="0 0 0 0 0 0 0 0 0 0 0 0 0 0 0 0 0 0 127 0" result="hardAlpha"/>
<feOffset dx="0.847458" dy="0.847458"/>
<feComposite in2="hardAlpha" operator="out"/>
<feColorMatrix type="matrix" values="0 0 0 0 0.54902 0 0 0 0 0.333333 0 0 0 0 0.101961 0 0 0 1 0"/>
<feBlend mode="normal" in2="BackgroundImageFix" result="effect1_dropShadow_140_3942"/>
<feBlend mode="normal" in="SourceGraphic" in2="effect1_dropShadow_140_3942" result="shape"/>
</filter>
<linearGradient id="paint0_linear_140_3942" x1="45.3946" y1="4.08765" x2="45.3946" y2="22.593" gradientUnits="userSpaceOnUse">
<stop stop-color="#CA965C"/>
<stop offset="0.475" stop-color="#876445"/>
<stop offset="1" stop-color="#3C2A21"/>
</linearGradient>
<linearGradient id="paint1_linear_140_3942" x1="32.5323" y1="27.4939" x2="2.39472" y2="63.7772" gradientUnits="userSpaceOnUse">
<stop stop-color="#CA965C"/>
<stop offset="0.904502" stop-color="#876445"/>
</linearGradient>
<linearGradient id="paint2_linear_140_3942" x1="-105.939" y1="225.188" x2="-135.41" y2="189.707" gradientUnits="userSpaceOnUse">
<stop offset="0.11" stop-color="#876445"/>
<stop offset="1" stop-color="#CA965C"/>
</linearGradient>
<linearGradient id="paint3_linear_140_3942" x1="-54.5552" y1="160.666" x2="-72.2049" y2="139.417" gradientUnits="userSpaceOnUse">
<stop stop-color="#876445"/>
<stop offset="1" stop-color="#AB7F51"/>
</linearGradient>
<linearGradient id="paint4_linear_140_3942" x1="118.401" y1="108.643" x2="130.139" y2="94.5109" gradientUnits="userSpaceOnUse">
<stop stop-color="#AE8152"/>
<stop offset="1" stop-color="#CA965C"/>
</linearGradient>
<linearGradient id="paint5_linear_140_3942" x1="48.9645" y1="83.9901" x2="37.2258" y2="98.1225" gradientUnits="userSpaceOnUse">
<stop offset="0.158379" stop-color="#59412F"/>
<stop offset="0.826282" stop-color="#3C2A21"/>
</linearGradient>
<linearGradient id="paint6_linear_140_3942" x1="29.6069" y1="64.559" x2="47.2565" y2="85.8077" gradientUnits="userSpaceOnUse">
<stop stop-color="#856244"/>
<stop offset="1" stop-color="#59412F"/>
</linearGradient>
<linearGradient id="paint7_linear_140_3942" x1="-157.198" y1="257.85" x2="-186.67" y2="222.369" gradientUnits="userSpaceOnUse">
<stop stop-color="#3C2A21"/>
<stop offset="1" stop-color="#876445"/>
</linearGradient>
<linearGradient id="paint8_linear_140_3942" x1="87.3569" y1="64.4604" x2="57.8855" y2="99.9415" gradientUnits="userSpaceOnUse">
<stop stop-color="#876445"/>
<stop offset="1" stop-color="#3C2A21"/>
</linearGradient>
</defs>
</svg>
