<svg width="158" height="55" viewBox="0 0 158 55" fill="none" xmlns="http://www.w3.org/2000/svg">
<g filter="url(#filter0_i_2294_109)">
<path d="M3 3.35474V51.6125H10.3436V3.35474C10.3436 3.35474 18.27 3.35474 23.6319 3.35474C28.9939 3.35474 31.6749 5.56945 31.6749 9.88234C31.6749 14.1952 27.4885 15.9767 23.6319 16.9928C19.7754 18.0088 17.5523 17.6594 17.5706 24.3364C17.5889 31.0134 17.5706 51.6125 17.5706 51.6125C17.5706 51.6125 29.3648 53.7107 31.6749 41.0051C33.985 28.2996 23.6319 24.3364 23.6319 24.3364" stroke="#876445" stroke-width="4.83871" stroke-linecap="round" stroke-linejoin="round"/>
</g>
<rect x="40.0755" y="3" width="117.129" height="32.0645" rx="4.03226" fill="#1A120B"/>
<g filter="url(#filter1_d_2294_109)">
<path d="M51.4 26.0322H49.4727V16.6008C49.4727 14.9879 49.9033 13.7304 50.7644 12.8283C51.6392 11.9262 52.7942 11.4751 54.2294 11.4751C55.7603 11.4751 56.9426 11.9125 57.7764 12.7873C58.6239 13.6621 59.0476 14.7761 59.0476 16.1293C59.0476 16.9767 58.8904 17.7148 58.576 18.3436C58.2753 18.9724 57.8653 19.4576 57.3459 19.7993C56.8265 20.141 56.2729 20.3939 55.6851 20.5579C55.0974 20.7219 54.4823 20.804 53.8399 20.804H52.3021V18.9997H54.0654C54.9812 18.9997 55.6988 18.7263 56.2182 18.1796C56.7513 17.6192 57.0178 16.9221 57.0178 16.0883C57.0178 15.2681 56.7718 14.5984 56.2797 14.079C55.8013 13.5459 55.111 13.2794 54.2089 13.2794C53.3341 13.2794 52.6438 13.5801 52.1381 14.1815C51.646 14.7692 51.4 15.5484 51.4 16.5188V26.0322ZM65.8215 15.9858C68.1451 16.0814 69.307 17.0451 69.307 18.8767C69.307 21.1593 67.8102 22.3007 64.8168 22.3007H63.9762V20.7219H64.9603C65.8761 20.7219 66.5117 20.5853 66.8671 20.3119C67.2225 20.0248 67.4002 19.5533 67.4002 18.8972C67.4002 18.4735 67.243 18.1591 66.9286 17.954C66.6142 17.7353 66.211 17.626 65.7189 17.626C64.7485 17.626 63.983 17.9677 63.4226 18.6511C62.8759 19.3346 62.6025 20.1547 62.6025 21.1115C62.6025 22.123 62.8964 22.9431 63.4841 23.5719C64.0855 24.2006 64.8646 24.515 65.8215 24.515C66.6826 24.515 67.3865 24.3031 67.9333 23.8794L69.1634 25.0891C68.2203 25.8545 67.1063 26.2373 65.8215 26.2373C64.2632 26.2373 63.0194 25.7794 62.0899 24.8636C61.1604 23.9478 60.6957 22.7654 60.6957 21.3165C60.6957 19.7036 61.1536 18.3983 62.0694 17.4005C62.9852 16.4026 64.2359 15.9311 65.8215 15.9858ZM71.0473 26.0322V20.4349C71.0473 18.863 71.3412 17.7763 71.929 17.1749C72.216 16.8742 72.5645 16.6487 72.9746 16.4983C73.3847 16.348 73.74 16.2591 74.0408 16.2318C74.3551 16.2045 74.7789 16.1908 75.3119 16.1908H77.1162V17.913H74.9429C74.6695 17.913 74.4577 17.9199 74.3073 17.9335C74.1569 17.9472 73.9793 17.995 73.7742 18.0771C73.5692 18.1591 73.3915 18.2889 73.2411 18.4666C72.9814 18.7947 72.8516 19.4508 72.8516 20.4349V26.0322H71.0473ZM83.2815 17.913H80.9237V26.0322H79.0784V17.913H77.6842L78.5043 16.1908H79.0784C79.0784 14.7966 79.55 13.6962 80.4931 12.8898C81.4363 12.0697 82.6391 11.6596 84.1017 11.6596V13.3819C81.983 13.3819 80.9237 14.3182 80.9237 16.1908H83.2815V17.913ZM93.0903 26.0322H89.5433C88.0261 26.0322 86.9394 25.8067 86.2833 25.3556C85.6955 24.9592 85.3197 24.4877 85.1556 23.9409C85.0053 23.3805 84.9301 22.6492 84.9301 21.7471V16.1908H86.7344V21.7266C86.7344 21.9726 86.7412 22.1845 86.7549 22.3622C86.7685 22.5262 86.8164 22.7449 86.8984 23.0183C86.9804 23.278 87.0966 23.4967 87.2469 23.6744C87.3973 23.8384 87.616 23.9888 87.903 24.1254C88.1901 24.2485 88.5386 24.31 88.9487 24.31H91.286V16.1908H93.0903V26.0322ZM95.7647 16.1908H104.806C105.777 16.1908 106.549 16.3753 107.123 16.7444C107.711 17.1134 108.094 17.5918 108.271 18.1796C108.463 18.7673 108.559 19.4713 108.559 20.2914V26.0322H106.754V20.2914C106.754 19.2252 106.433 18.5213 105.791 18.1796C105.463 18.0019 104.8 17.913 103.802 17.913H102.961V26.0322H101.157V17.913H97.5689V26.0322H95.7647V16.1908ZM115.838 15.9858C118.161 16.0814 119.323 17.0451 119.323 18.8767C119.323 21.1593 117.826 22.3007 114.833 22.3007H113.992V20.7219H114.976C115.892 20.7219 116.528 20.5853 116.883 20.3119C117.239 20.0248 117.416 19.5533 117.416 18.8972C117.416 18.4735 117.259 18.1591 116.945 17.954C116.63 17.7353 116.227 17.626 115.735 17.626C114.765 17.626 113.999 17.9677 113.439 18.6511C112.892 19.3346 112.619 20.1547 112.619 21.1115C112.619 22.123 112.912 22.9431 113.5 23.5719C114.102 24.2006 114.881 24.515 115.838 24.515C116.699 24.515 117.403 24.3031 117.949 23.8794L119.18 25.0891C118.236 25.8545 117.122 26.2373 115.838 26.2373C114.279 26.2373 113.036 25.7794 112.106 24.8636C111.177 23.9478 110.712 22.7654 110.712 21.3165C110.712 19.7036 111.17 18.3983 112.086 17.4005C113.001 16.4026 114.252 15.9311 115.838 15.9858ZM126.156 11.6801H128.002V21.1115C128.002 22.1913 128.275 23.032 128.822 23.6334C129.382 24.2211 130.148 24.515 131.118 24.515C132.13 24.515 132.922 24.228 133.496 23.6539C134.071 23.0661 134.358 22.2187 134.358 21.1115C134.358 20.059 134.043 19.2321 133.414 18.6306C132.799 18.0156 131.986 17.708 130.975 17.708C130.113 17.708 129.368 17.954 128.74 18.4461V16.6008C129.492 16.1908 130.305 15.9858 131.18 15.9858C132.628 15.9858 133.824 16.4573 134.768 17.4005C135.724 18.3299 136.203 19.5669 136.203 21.1115C136.203 22.7381 135.704 24.0024 134.706 24.9046C133.722 25.793 132.478 26.2373 130.975 26.2373C129.539 26.2373 128.378 25.7725 127.489 24.8431C126.601 23.9136 126.156 22.6697 126.156 21.1115V11.6801ZM146.039 11.6801H147.884V26.0322H143.066C141.576 26.0322 140.366 25.5607 139.437 24.6175C138.507 23.6607 138.043 22.4579 138.043 21.009C138.043 19.5874 138.521 18.3983 139.478 17.4415C140.448 16.471 141.596 15.9858 142.922 15.9858C143.77 15.9858 144.562 16.1908 145.301 16.6008V18.4461C144.617 17.954 143.824 17.708 142.922 17.708C142.102 17.708 141.405 18.0156 140.831 18.6306C140.27 19.2321 139.99 20.0248 139.99 21.009C139.99 22.0068 140.257 22.8064 140.79 23.4078C141.337 24.0093 142.095 24.31 143.066 24.31H146.039V11.6801Z" fill="#D49F6A"/>
</g>
<path d="M68.0943 47.2656C68.0943 47.0996 68.0601 46.9531 67.9918 46.8262C67.9234 46.6992 67.8274 46.5853 67.7037 46.4844C67.5735 46.39 67.4189 46.3053 67.2398 46.2305C67.064 46.1523 66.8671 46.0824 66.649 46.0205C66.3137 45.9261 66.0045 45.8105 65.7213 45.6738C65.4413 45.5339 65.2021 45.3776 65.0035 45.2051C64.8049 45.0293 64.6487 44.8307 64.5347 44.6094C64.4241 44.3848 64.3687 44.1325 64.3687 43.8525C64.3687 43.5498 64.4338 43.278 64.564 43.0371C64.6942 42.793 64.87 42.5846 65.0914 42.4121C65.3127 42.2428 65.5699 42.1143 65.8629 42.0264C66.1591 41.9352 66.47 41.8896 66.7955 41.8896C67.1405 41.8896 67.4612 41.9434 67.7574 42.0508C68.0569 42.1549 68.3173 42.3014 68.5386 42.4902C68.76 42.6823 68.9342 42.9118 69.0611 43.1787C69.1913 43.4424 69.2564 43.7354 69.2564 44.0576H68.0943C68.078 43.8786 68.039 43.7158 67.9771 43.5693C67.9185 43.4196 67.8355 43.291 67.7281 43.1836C67.6174 43.0794 67.4823 42.998 67.3228 42.9395C67.1666 42.8776 66.9859 42.8467 66.7808 42.8467C66.6018 42.8467 66.4358 42.8711 66.2828 42.9199C66.133 42.9655 66.0028 43.0306 65.8922 43.1152C65.7815 43.2031 65.6952 43.3089 65.6334 43.4326C65.5715 43.5563 65.5406 43.6947 65.5406 43.8477C65.5439 44.0104 65.5862 44.1536 65.6676 44.2773C65.7489 44.3978 65.858 44.5036 65.9947 44.5947C66.1347 44.6859 66.2942 44.7656 66.4732 44.834C66.6555 44.9023 66.8459 44.9658 67.0445 45.0244C67.2952 45.096 67.5393 45.1855 67.7769 45.293C68.0178 45.3971 68.2392 45.5241 68.441 45.6738C68.6916 45.8626 68.8918 46.0889 69.0416 46.3525C69.1946 46.613 69.2711 46.9141 69.2711 47.2559C69.2711 47.5716 69.2043 47.8499 69.0709 48.0908C68.9407 48.3317 68.7649 48.5319 68.5435 48.6914C68.3189 48.8574 68.0585 48.9827 67.7623 49.0674C67.4661 49.1488 67.1536 49.1895 66.8248 49.1895C66.4765 49.1895 66.133 49.1357 65.7945 49.0283C65.456 48.9176 65.1614 48.7581 64.9107 48.5498C64.6796 48.3545 64.4957 48.125 64.359 47.8613C64.2255 47.5977 64.1571 47.2949 64.1539 46.9531H65.3258C65.342 47.1712 65.3876 47.3617 65.4625 47.5244C65.5406 47.6839 65.6464 47.8158 65.7799 47.9199C65.9101 48.0273 66.0631 48.1071 66.2388 48.1592C66.4179 48.2113 66.6132 48.2373 66.8248 48.2373C67.0038 48.2373 67.1698 48.2161 67.3228 48.1738C67.4791 48.1315 67.6142 48.068 67.7281 47.9834C67.8388 47.902 67.9267 47.8011 67.9918 47.6807C68.0601 47.5602 68.0943 47.4219 68.0943 47.2656ZM71.792 43.8135H74.5947V48.1299H76.1474V49.0967H71.792V48.1299H73.4179V44.7852H71.792V43.8135ZM73.3105 42.4463C73.3105 42.3519 73.3268 42.2656 73.3593 42.1875C73.3919 42.1061 73.4391 42.0361 73.501 41.9775C73.5595 41.9222 73.6295 41.8799 73.7109 41.8506C73.7955 41.818 73.8899 41.8018 73.9941 41.8018C74.1699 41.8018 74.3115 41.8473 74.4189 41.9385C74.5296 42.0264 74.5931 42.1403 74.6093 42.2803C74.6321 42.4235 74.6077 42.5488 74.5361 42.6562C74.4645 42.7604 74.3603 42.8304 74.2236 42.8662C74.1552 42.9281 74.0739 42.9688 73.9795 42.9883C73.8851 43.0078 73.7809 42.9997 73.667 42.9639C73.5498 42.9281 73.4603 42.8646 73.3984 42.7734C73.3398 42.679 73.3105 42.57 73.3105 42.4463ZM78.6293 49.0967V43.8135H79.684L79.7572 44.5654C79.8288 44.4645 79.9069 44.3717 79.9916 44.2871C80.0795 44.1992 80.1722 44.1211 80.2699 44.0527C80.4261 43.9453 80.597 43.8623 80.7826 43.8037C80.9681 43.7451 81.1635 43.7158 81.3685 43.7158C81.6387 43.7158 81.8861 43.7549 82.1107 43.833C82.3353 43.9111 82.5274 44.0348 82.6869 44.2041C82.8464 44.3734 82.9701 44.5898 83.058 44.8535C83.1459 45.1139 83.1898 45.4297 83.1898 45.8008V49.0967H82.0228V45.8203C82.0228 45.6022 81.9984 45.4199 81.9496 45.2734C81.9008 45.127 81.8291 45.0098 81.7347 44.9219C81.6403 44.834 81.5264 44.7721 81.3929 44.7363C81.2595 44.6973 81.1065 44.6777 80.934 44.6777C80.7907 44.6777 80.6573 44.6973 80.5336 44.7363C80.4099 44.7721 80.2976 44.8242 80.1967 44.8926C80.1185 44.9447 80.0453 45.0081 79.9769 45.083C79.9086 45.1579 79.8483 45.2393 79.7963 45.3271V49.0967H78.6293ZM88.0349 48.2568C88.1814 48.2568 88.3214 48.2357 88.4549 48.1934C88.5916 48.1478 88.712 48.0843 88.8162 48.0029C88.9171 47.9215 88.9968 47.8255 89.0554 47.7148C89.1173 47.6042 89.1482 47.4821 89.1482 47.3486H90.2468C90.2501 47.6058 90.1915 47.8483 90.0711 48.0762C89.9539 48.3008 89.7944 48.4945 89.5926 48.6572C89.3875 48.8265 89.1515 48.96 88.8845 49.0576C88.6209 49.152 88.3426 49.1992 88.0496 49.1992C87.6427 49.1992 87.2862 49.1292 86.9802 48.9893C86.6775 48.846 86.4252 48.654 86.2234 48.4131C86.0183 48.1722 85.8637 47.8923 85.7595 47.5732C85.6554 47.251 85.6033 46.9076 85.6033 46.543V46.3721C85.6033 46.0107 85.6538 45.6689 85.7547 45.3467C85.8588 45.0244 86.0135 44.7428 86.2185 44.502C86.4236 44.2611 86.6775 44.0706 86.9802 43.9307C87.2862 43.7874 87.6411 43.7158 88.0447 43.7158C88.3637 43.7158 88.6583 43.7646 88.9285 43.8623C89.2019 43.96 89.4363 44.0967 89.6316 44.2725C89.8269 44.4482 89.9783 44.6582 90.0857 44.9023C90.1964 45.1465 90.2501 45.415 90.2468 45.708H89.1482C89.1482 45.5648 89.1205 45.4297 89.0652 45.3027C89.0131 45.1758 88.9383 45.0651 88.8406 44.9707C88.7397 44.8763 88.6192 44.8014 88.4793 44.7461C88.3426 44.6908 88.1944 44.6631 88.0349 44.6631C87.7908 44.6631 87.5873 44.7135 87.4246 44.8145C87.2651 44.9121 87.1381 45.0407 87.0437 45.2002C86.9428 45.3597 86.8712 45.542 86.8289 45.7471C86.7898 45.9521 86.7703 46.1605 86.7703 46.3721V46.543C86.7703 46.7578 86.7898 46.9694 86.8289 47.1777C86.8712 47.3828 86.9412 47.5635 87.0388 47.7197C87.1332 47.8825 87.2618 48.0127 87.4246 48.1104C87.5873 48.208 87.7908 48.2568 88.0349 48.2568ZM95.3068 49.1943C94.9162 49.1943 94.5581 49.1292 94.2326 48.999C93.9103 48.8688 93.6336 48.6882 93.4025 48.457C93.1714 48.2292 92.9924 47.9606 92.8654 47.6514C92.7417 47.3389 92.6799 47.002 92.6799 46.6406V46.4404C92.6799 46.027 92.745 45.6527 92.8752 45.3174C93.0054 44.9821 93.1844 44.6956 93.4123 44.458C93.6401 44.2204 93.9038 44.0381 94.2033 43.9111C94.506 43.7809 94.8283 43.7158 95.1701 43.7158C95.551 43.7158 95.8879 43.7809 96.1808 43.9111C96.4738 44.0381 96.7196 44.2155 96.9181 44.4434C97.1167 44.6745 97.2664 44.9495 97.3674 45.2686C97.4683 45.5876 97.5187 45.9359 97.5187 46.3135V46.8164H93.8566V46.8408C93.8924 47.0719 93.9478 47.2656 94.0226 47.4219C94.0975 47.5781 94.2 47.7181 94.3302 47.8418C94.4605 47.972 94.6135 48.0729 94.7892 48.1445C94.9683 48.2161 95.1636 48.252 95.3752 48.252C95.6649 48.252 95.9351 48.1966 96.1857 48.0859C96.4364 47.972 96.6431 47.8109 96.8058 47.6025L97.4308 48.208C97.2551 48.4619 96.9849 48.6898 96.6203 48.8916C96.259 49.0934 95.8211 49.1943 95.3068 49.1943ZM95.1652 44.6631C94.9992 44.6631 94.8446 44.694 94.7013 44.7559C94.5614 44.8145 94.436 44.8991 94.3254 45.0098C94.2147 45.1237 94.1219 45.2604 94.047 45.4199C93.9722 45.5794 93.9168 45.7601 93.881 45.9619H96.3664V45.8838C96.3664 45.7308 96.3387 45.5794 96.2834 45.4297C96.228 45.2767 96.1499 45.1432 96.049 45.0293C95.9513 44.9186 95.8276 44.8307 95.6779 44.7656C95.5314 44.6973 95.3605 44.6631 95.1652 44.6631ZM111.579 49.0967H106.809V48.2861L109.123 45.7666C109.315 45.555 109.476 45.3662 109.606 45.2002C109.737 45.0309 109.842 44.8763 109.924 44.7363C110.002 44.5964 110.057 44.4661 110.09 44.3457C110.126 44.222 110.144 44.0983 110.144 43.9746C110.144 43.8086 110.119 43.6572 110.07 43.5205C110.021 43.3838 109.95 43.2666 109.855 43.1689C109.761 43.0713 109.647 42.9948 109.514 42.9395C109.383 42.8841 109.237 42.8564 109.074 42.8564C108.866 42.8564 108.685 42.8857 108.532 42.9443C108.379 43.0029 108.252 43.0859 108.151 43.1934C108.047 43.3073 107.969 43.4456 107.917 43.6084C107.865 43.7679 107.839 43.9502 107.839 44.1553H106.667C106.667 43.846 106.724 43.5547 106.838 43.2812C106.952 43.0046 107.115 42.7637 107.326 42.5586C107.534 42.3535 107.788 42.1908 108.088 42.0703C108.391 41.9499 108.728 41.8896 109.099 41.8896C109.447 41.8896 109.758 41.9401 110.031 42.041C110.308 42.1419 110.541 42.2819 110.729 42.4609C110.915 42.64 111.057 42.8548 111.154 43.1055C111.252 43.3529 111.301 43.6263 111.301 43.9258C111.301 44.1504 111.263 44.3685 111.188 44.5801C111.117 44.7884 111.018 44.9951 110.891 45.2002C110.76 45.4053 110.606 45.612 110.427 45.8203C110.251 46.0286 110.059 46.2435 109.851 46.4648L108.269 48.1543H111.579V49.0967ZM118.719 46.3867C118.719 46.8424 118.665 47.2461 118.558 47.5977C118.454 47.946 118.302 48.2373 118.104 48.4717C117.909 48.7126 117.668 48.8949 117.381 49.0186C117.098 49.139 116.776 49.1992 116.414 49.1992C116.056 49.1992 115.734 49.139 115.448 49.0186C115.161 48.8949 114.919 48.7126 114.72 48.4717C114.518 48.2373 114.364 47.946 114.256 47.5977C114.152 47.2461 114.1 46.8424 114.1 46.3867V44.7021C114.1 44.2464 114.152 43.8444 114.256 43.4961C114.364 43.1445 114.517 42.8483 114.715 42.6074C114.914 42.3698 115.155 42.1908 115.438 42.0703C115.724 41.9466 116.047 41.8848 116.405 41.8848C116.766 41.8848 117.088 41.9466 117.371 42.0703C117.658 42.1908 117.902 42.3698 118.104 42.6074C118.299 42.8483 118.451 43.1445 118.558 43.4961C118.665 43.8444 118.719 44.2464 118.719 44.7021V46.3867ZM115.272 45.9717L117.533 44.2578C117.52 44.0039 117.484 43.7842 117.425 43.5986C117.37 43.4131 117.29 43.2617 117.186 43.1445C117.095 43.0404 116.982 42.9622 116.849 42.9102C116.719 42.8581 116.571 42.832 116.405 42.832C116.226 42.832 116.068 42.863 115.931 42.9248C115.794 42.9867 115.68 43.0778 115.589 43.1982C115.482 43.335 115.402 43.5124 115.35 43.7305C115.298 43.9453 115.272 44.1992 115.272 44.4922V45.4492C115.272 45.5729 115.272 45.6673 115.272 45.7324C115.272 45.7975 115.272 45.8773 115.272 45.9717ZM117.542 46.582V45.6836C117.542 45.6022 117.542 45.5176 117.542 45.4297C117.542 45.3418 117.542 45.2507 117.542 45.1562L115.282 46.8604C115.298 47.085 115.332 47.2835 115.384 47.4561C115.439 47.6286 115.513 47.7718 115.604 47.8857C115.695 48.0094 115.807 48.1022 115.941 48.1641C116.078 48.2259 116.235 48.2568 116.414 48.2568C116.59 48.2568 116.745 48.2275 116.878 48.1689C117.012 48.1071 117.126 48.0176 117.22 47.9004C117.328 47.7637 117.407 47.5846 117.459 47.3633C117.515 47.1419 117.542 46.8815 117.542 46.582ZM125.791 49.0967H121.02V48.2861L123.335 45.7666C123.527 45.555 123.688 45.3662 123.818 45.2002C123.948 45.0309 124.054 44.8763 124.136 44.7363C124.214 44.5964 124.269 44.4661 124.302 44.3457C124.337 44.222 124.355 44.0983 124.355 43.9746C124.355 43.8086 124.331 43.6572 124.282 43.5205C124.233 43.3838 124.162 43.2666 124.067 43.1689C123.973 43.0713 123.859 42.9948 123.725 42.9395C123.595 42.8841 123.449 42.8564 123.286 42.8564C123.078 42.8564 122.897 42.8857 122.744 42.9443C122.591 43.0029 122.464 43.0859 122.363 43.1934C122.259 43.3073 122.181 43.4456 122.129 43.6084C122.077 43.7679 122.051 43.9502 122.051 44.1553H120.879C120.879 43.846 120.936 43.5547 121.05 43.2812C121.164 43.0046 121.326 42.7637 121.538 42.5586C121.746 42.3535 122 42.1908 122.3 42.0703C122.602 41.9499 122.939 41.8896 123.31 41.8896C123.659 41.8896 123.97 41.9401 124.243 42.041C124.52 42.1419 124.752 42.2819 124.941 42.4609C125.127 42.64 125.268 42.8548 125.366 43.1055C125.464 43.3529 125.512 43.6263 125.512 43.9258C125.512 44.1504 125.475 44.3685 125.4 44.5801C125.329 44.7884 125.229 44.9951 125.102 45.2002C124.972 45.4053 124.817 45.612 124.638 45.8203C124.463 46.0286 124.271 46.2435 124.062 46.4648L122.48 48.1543H125.791V49.0967ZM132.931 46.3867C132.931 46.8424 132.877 47.2461 132.77 47.5977C132.666 47.946 132.514 48.2373 132.316 48.4717C132.12 48.7126 131.879 48.8949 131.593 49.0186C131.31 49.139 130.987 49.1992 130.626 49.1992C130.268 49.1992 129.946 49.139 129.659 49.0186C129.373 48.8949 129.13 48.7126 128.932 48.4717C128.73 48.2373 128.575 47.946 128.468 47.5977C128.364 47.2461 128.312 46.8424 128.312 46.3867V44.7021C128.312 44.2464 128.364 43.8444 128.468 43.4961C128.575 43.1445 128.728 42.8483 128.927 42.6074C129.125 42.3698 129.366 42.1908 129.65 42.0703C129.936 41.9466 130.258 41.8848 130.616 41.8848C130.978 41.8848 131.3 41.9466 131.583 42.0703C131.87 42.1908 132.114 42.3698 132.316 42.6074C132.511 42.8483 132.662 43.1445 132.77 43.4961C132.877 43.8444 132.931 44.2464 132.931 44.7021V46.3867ZM129.484 45.9717L131.744 44.2578C131.731 44.0039 131.695 43.7842 131.637 43.5986C131.582 43.4131 131.502 43.2617 131.398 43.1445C131.306 43.0404 131.194 42.9622 131.061 42.9102C130.931 42.8581 130.782 42.832 130.616 42.832C130.437 42.832 130.279 42.863 130.143 42.9248C130.006 42.9867 129.892 43.0778 129.801 43.1982C129.694 43.335 129.614 43.5124 129.562 43.7305C129.51 43.9453 129.484 44.1992 129.484 44.4922V45.4492C129.484 45.5729 129.484 45.6673 129.484 45.7324C129.484 45.7975 129.484 45.8773 129.484 45.9717ZM131.754 46.582V45.6836C131.754 45.6022 131.754 45.5176 131.754 45.4297C131.754 45.3418 131.754 45.2507 131.754 45.1562L129.493 46.8604C129.51 47.085 129.544 47.2835 129.596 47.4561C129.651 47.6286 129.724 47.7718 129.816 47.8857C129.907 48.0094 130.019 48.1022 130.153 48.1641C130.289 48.2259 130.447 48.2568 130.626 48.2568C130.802 48.2568 130.957 48.2275 131.09 48.1689C131.223 48.1071 131.337 48.0176 131.432 47.9004C131.539 47.7637 131.619 47.5846 131.671 47.3633C131.726 47.1419 131.754 46.8815 131.754 46.582Z" fill="#3C2A21"/>
<defs>
<filter id="filter0_i_2294_109" x="0.580627" y="0.935303" width="34.6412" height="54.017" filterUnits="userSpaceOnUse" color-interpolation-filters="sRGB">
<feFlood flood-opacity="0" result="BackgroundImageFix"/>
<feBlend mode="normal" in="SourceGraphic" in2="BackgroundImageFix" result="shape"/>
<feColorMatrix in="SourceAlpha" type="matrix" values="0 0 0 0 0 0 0 0 0 0 0 0 0 0 0 0 0 0 127 0" result="hardAlpha"/>
<feOffset dx="1.58242" dy="1.58242"/>
<feGaussianBlur stdDeviation="0.395605"/>
<feComposite in2="hardAlpha" operator="arithmetic" k2="-1" k3="1"/>
<feColorMatrix type="matrix" values="0 0 0 0 0.235294 0 0 0 0 0.164706 0 0 0 0 0.129412 0 0 0 1 0"/>
<feBlend mode="normal" in2="shape" result="effect1_innerShadow_2294_109"/>
</filter>
<filter id="filter1_d_2294_109" x="49.4727" y="11.4751" width="98.9238" height="15.2748" filterUnits="userSpaceOnUse" color-interpolation-filters="sRGB">
<feFlood flood-opacity="0" result="BackgroundImageFix"/>
<feColorMatrix in="SourceAlpha" type="matrix" values="0 0 0 0 0 0 0 0 0 0 0 0 0 0 0 0 0 0 127 0" result="hardAlpha"/>
<feOffset dx="0.512575" dy="0.512575"/>
<feComposite in2="hardAlpha" operator="out"/>
<feColorMatrix type="matrix" values="0 0 0 0 0.54902 0 0 0 0 0.333333 0 0 0 0 0.101961 0 0 0 1 0"/>
<feBlend mode="normal" in2="BackgroundImageFix" result="effect1_dropShadow_2294_109"/>
<feBlend mode="normal" in="SourceGraphic" in2="effect1_dropShadow_2294_109" result="shape"/>
</filter>
</defs>
</svg>
