<svg width="600" height="350" viewBox="0 0 600 350" fill="none" xmlns="http://www.w3.org/2000/svg">
<rect width="600" height="350" rx="10" fill="#EFE2D2"/>
<rect x="71" y="145" width="198" height="60" rx="5" fill="#CA965C"/>
<path d="M92.5625 187H88.0781V164.594H103.766V169.078H92.5625V173.562H99.2812V178.047H92.5625V187ZM119.828 178.484C119.828 179.734 119.604 180.901 119.156 181.984C118.708 183.057 118.099 183.99 117.328 184.781C116.557 185.562 115.651 186.182 114.609 186.641C113.578 187.089 112.469 187.312 111.281 187.312C110.104 187.312 108.995 187.089 107.953 186.641C106.922 186.182 106.016 185.562 105.234 184.781C104.464 183.99 103.854 183.057 103.406 181.984C102.958 180.901 102.734 179.734 102.734 178.484C102.734 177.214 102.958 176.036 103.406 174.953C103.854 173.87 104.464 172.938 105.234 172.156C106.016 171.365 106.922 170.745 107.953 170.297C108.995 169.849 110.104 169.625 111.281 169.625C112.469 169.625 113.578 169.839 114.609 170.266C115.651 170.682 116.557 171.281 117.328 172.062C118.099 172.833 118.708 173.766 119.156 174.859C119.604 175.943 119.828 177.151 119.828 178.484ZM115.531 178.484C115.531 177.797 115.417 177.177 115.188 176.625C114.969 176.062 114.667 175.583 114.281 175.188C113.896 174.781 113.443 174.474 112.922 174.266C112.411 174.047 111.865 173.938 111.281 173.938C110.698 173.938 110.146 174.047 109.625 174.266C109.115 174.474 108.667 174.781 108.281 175.188C107.906 175.583 107.609 176.062 107.391 176.625C107.172 177.177 107.062 177.797 107.062 178.484C107.062 179.13 107.172 179.729 107.391 180.281C107.609 180.833 107.906 181.312 108.281 181.719C108.667 182.125 109.115 182.448 109.625 182.688C110.146 182.917 110.698 183.031 111.281 183.031C111.865 183.031 112.411 182.922 112.922 182.703C113.443 182.484 113.896 182.177 114.281 181.781C114.667 181.385 114.969 180.906 115.188 180.344C115.417 179.781 115.531 179.161 115.531 178.484ZM126.453 187H122.188V170.266H123.219L124.625 172.25C125.312 171.625 126.094 171.146 126.969 170.812C127.844 170.469 128.75 170.297 129.688 170.297H133.453V174.547H129.688C129.24 174.547 128.818 174.63 128.422 174.797C128.026 174.964 127.682 175.193 127.391 175.484C127.099 175.776 126.87 176.12 126.703 176.516C126.536 176.911 126.453 177.333 126.453 177.781V187ZM167.094 187H162.625V171C162.625 170.688 162.562 170.396 162.438 170.125C162.323 169.854 162.161 169.62 161.953 169.422C161.755 169.214 161.521 169.052 161.25 168.938C160.979 168.823 160.688 168.766 160.375 168.766C160.062 168.766 159.771 168.823 159.5 168.938C159.229 169.052 158.99 169.214 158.781 169.422C158.583 169.62 158.427 169.854 158.312 170.125C158.198 170.396 158.141 170.688 158.141 171V187H153.656V171C153.656 170.688 153.599 170.396 153.484 170.125C153.37 169.854 153.208 169.62 153 169.422C152.802 169.214 152.568 169.052 152.297 168.938C152.026 168.823 151.734 168.766 151.422 168.766C151.109 168.766 150.818 168.823 150.547 168.938C150.276 169.052 150.036 169.214 149.828 169.422C149.63 169.62 149.474 169.854 149.359 170.125C149.245 170.396 149.188 170.688 149.188 171V187H144.703V171C144.703 170.073 144.875 169.203 145.219 168.391C145.573 167.568 146.052 166.854 146.656 166.25C147.271 165.635 147.984 165.156 148.797 164.812C149.62 164.458 150.495 164.281 151.422 164.281C152.255 164.281 153.057 164.432 153.828 164.734C154.599 165.026 155.292 165.453 155.906 166.016C156.521 165.453 157.208 165.026 157.969 164.734C158.74 164.432 159.542 164.281 160.375 164.281C161.302 164.281 162.172 164.458 162.984 164.812C163.807 165.156 164.521 165.635 165.125 166.25C165.74 166.854 166.219 167.568 166.562 168.391C166.917 169.203 167.094 170.073 167.094 171V187ZM177.125 182.906C177.292 182.958 177.458 182.995 177.625 183.016C177.792 183.026 177.958 183.031 178.125 183.031C178.542 183.031 178.943 182.974 179.328 182.859C179.714 182.745 180.073 182.583 180.406 182.375C180.75 182.156 181.052 181.896 181.312 181.594C181.583 181.281 181.802 180.938 181.969 180.562L185.094 183.703C184.698 184.266 184.24 184.771 183.719 185.219C183.208 185.667 182.651 186.047 182.047 186.359C181.453 186.672 180.823 186.906 180.156 187.062C179.5 187.229 178.823 187.312 178.125 187.312C176.948 187.312 175.839 187.094 174.797 186.656C173.766 186.219 172.859 185.609 172.078 184.828C171.307 184.047 170.698 183.12 170.25 182.047C169.802 180.964 169.578 179.776 169.578 178.484C169.578 177.161 169.802 175.953 170.25 174.859C170.698 173.766 171.307 172.833 172.078 172.062C172.859 171.292 173.766 170.693 174.797 170.266C175.839 169.839 176.948 169.625 178.125 169.625C178.823 169.625 179.505 169.708 180.172 169.875C180.839 170.042 181.469 170.281 182.062 170.594C182.667 170.906 183.229 171.292 183.75 171.75C184.271 172.198 184.729 172.703 185.125 173.266L177.125 182.906ZM179.312 174.109C179.115 174.036 178.917 173.99 178.719 173.969C178.531 173.948 178.333 173.938 178.125 173.938C177.542 173.938 176.99 174.047 176.469 174.266C175.958 174.474 175.51 174.776 175.125 175.172C174.75 175.568 174.453 176.047 174.234 176.609C174.016 177.161 173.906 177.786 173.906 178.484C173.906 178.641 173.911 178.818 173.922 179.016C173.943 179.214 173.969 179.417 174 179.625C174.042 179.823 174.089 180.016 174.141 180.203C174.193 180.391 174.26 180.557 174.344 180.703L179.312 174.109ZM191.547 187H187.281V170.266H188.312L189.719 171.891C190.406 171.266 191.182 170.786 192.047 170.453C192.922 170.109 193.833 169.938 194.781 169.938C195.802 169.938 196.766 170.135 197.672 170.531C198.578 170.917 199.37 171.453 200.047 172.141C200.724 172.818 201.255 173.615 201.641 174.531C202.036 175.438 202.234 176.406 202.234 177.438V187H197.969V177.438C197.969 177 197.885 176.589 197.719 176.203C197.552 175.807 197.323 175.464 197.031 175.172C196.74 174.88 196.401 174.651 196.016 174.484C195.63 174.318 195.219 174.234 194.781 174.234C194.333 174.234 193.911 174.318 193.516 174.484C193.12 174.651 192.776 174.88 192.484 175.172C192.193 175.464 191.964 175.807 191.797 176.203C191.63 176.589 191.547 177 191.547 177.438V187Z" fill="#3C2A21"/>
<path d="M242.333 157.083C242.002 157.083 241.684 157.215 241.45 157.449C241.215 157.684 241.083 158.002 241.083 158.333C241.083 158.665 241.215 158.983 241.45 159.217C241.684 159.452 242.002 159.583 242.333 159.583H247.65L239.17 168.063C236.53 165.877 233.149 164.792 229.729 165.033C226.31 165.274 223.115 166.823 220.807 169.358C218.499 171.893 217.257 175.219 217.337 178.646C217.418 182.073 218.815 185.337 221.239 187.761C223.663 190.185 226.927 191.583 230.354 191.663C233.781 191.743 237.107 190.501 239.642 188.193C242.177 185.886 243.726 182.69 243.967 179.271C244.208 175.851 243.123 172.47 240.937 169.83L249.417 161.352V166.667C249.417 166.998 249.548 167.316 249.783 167.551C250.017 167.785 250.335 167.917 250.667 167.917C250.998 167.917 251.316 167.785 251.551 167.551C251.785 167.316 251.917 166.998 251.917 166.667V158.333C251.917 158.002 251.785 157.684 251.551 157.449C251.316 157.215 250.998 157.083 250.667 157.083H242.333Z" fill="#3C2A21"/>
<path d="M449.712 247.105L363.056 302.565C330.308 295.222 300.818 277.472 279 251.971C291.765 223.874 318.328 182.713 367.389 168.881C376.795 166.008 386.846 166.008 396.252 168.881C436.447 181.48 449.712 247.105 449.712 247.105Z" fill="#CA965C"/>
<path d="M529 233.068C507.734 267.188 474.075 291.742 435.091 301.573C396.107 311.405 354.829 305.75 319.926 285.795C323.459 241.534 326.992 206.205 329.725 198.906C335.157 184.374 371.553 174.142 396.383 168.909C409.715 166.077 419.714 164.61 419.714 164.61C452.822 167.888 483.891 182.115 508.003 205.038C516.182 213.436 523.24 222.858 529 233.068Z" fill="#CA965C"/>
<path d="M362.455 54.1935C362.455 54.1935 346.29 72.4913 355.156 92.6554C364.021 112.82 373.587 55.9933 373.587 55.9933L362.455 54.1935Z" fill="black"/>
<path d="M416.815 136.345L417.415 172.607C417.415 172.607 411.049 183.173 389.852 185.239C374.087 186.806 368.455 183.306 368.455 183.306L370.354 164.908L372.221 146.977L410.383 137.878L416.815 136.345Z" fill="#F48462"/>
<path d="M410.382 137.882C410.382 138.881 416.248 142.014 415.681 143.348C407.849 161.612 378.786 170.778 369.653 171.744L372.22 146.981L410.382 137.882Z" fill="black"/>
<path d="M369.325 56.0216C364.413 60.1578 360.773 65.6005 358.826 71.7197C354.06 85.7179 344.495 118.381 350.76 138.378C358.926 164.408 382.39 159.542 396.355 154.009C404.287 151.098 411.279 146.087 416.586 139.511C420.656 140.588 424.964 140.334 428.88 138.786C432.796 137.239 436.114 134.48 438.349 130.912C446.748 118.214 440.816 104.082 433.183 100.916C425.551 97.7498 416.752 103.682 416.752 103.682L423.418 89.8841C423.418 89.8841 396.888 33.5578 369.325 56.0216Z" fill="#F48462"/>
<path d="M418.683 121.686C418.421 121.685 418.163 121.621 417.931 121.499C417.699 121.377 417.5 121.201 417.35 120.986C417.093 120.63 416.984 120.188 417.047 119.753C417.109 119.318 417.337 118.924 417.683 118.653L431.015 108.655C431.372 108.398 431.814 108.289 432.249 108.351C432.684 108.413 433.077 108.641 433.348 108.988C433.607 109.35 433.717 109.797 433.654 110.238C433.592 110.678 433.363 111.078 433.015 111.354L419.683 121.353C419.39 121.561 419.042 121.677 418.683 121.686Z" fill="black"/>
<path d="M433.581 121.216H433.181L422.382 118.617C421.959 118.506 421.594 118.237 421.365 117.864C421.135 117.492 421.058 117.045 421.149 116.617C421.196 116.403 421.285 116.2 421.412 116.021C421.539 115.842 421.701 115.691 421.887 115.576C422.074 115.461 422.282 115.384 422.498 115.351C422.715 115.318 422.936 115.329 423.149 115.384L433.981 117.95C434.407 118.068 434.772 118.344 435.001 118.722C435.23 119.1 435.306 119.551 435.214 119.983C435.113 120.338 434.898 120.651 434.604 120.873C434.309 121.095 433.95 121.216 433.581 121.216Z" fill="black"/>
<path d="M358.658 98.4199H358.258C358.045 98.3655 357.846 98.2697 357.67 98.138C357.495 98.0064 357.347 97.8413 357.236 97.6525C357.124 97.4636 357.051 97.2546 357.021 97.0374C356.99 96.8202 357.003 96.5991 357.058 96.3869L359.158 88.0212C359.275 87.5968 359.553 87.2346 359.932 87.0108C360.311 86.787 360.762 86.7191 361.191 86.8214C361.403 86.8758 361.603 86.9716 361.778 87.1032C361.953 87.2349 362.101 87.3999 362.213 87.5888C362.324 87.7777 362.397 87.9867 362.428 88.2039C362.458 88.4211 362.446 88.6421 362.39 88.8544L360.257 97.2201C360.161 97.5691 359.952 97.8763 359.662 98.0935C359.373 98.3107 359.019 98.4255 358.658 98.4199Z" fill="black"/>
<path d="M381.623 99.6507H381.223C381.012 99.6001 380.813 99.508 380.638 99.3796C380.463 99.2512 380.315 99.0891 380.203 98.9029C380.092 98.7166 380.018 98.5101 379.987 98.2951C379.956 98.0802 379.969 97.8612 380.023 97.6511L382.156 89.2854C382.203 89.0719 382.292 88.8701 382.42 88.6925C382.547 88.515 382.709 88.3653 382.897 88.2528C383.084 88.1404 383.293 88.0676 383.509 88.0388C383.726 88.0101 383.946 88.0259 384.156 88.0855C384.584 88.1884 384.954 88.4565 385.185 88.8312C385.416 89.2058 385.49 89.6567 385.39 90.0853L383.256 98.4509C383.154 98.8026 382.938 99.1107 382.643 99.3276C382.348 99.5445 381.99 99.6581 381.623 99.6507Z" fill="black"/>
<path d="M357.355 80.1865C356.913 80.213 356.479 80.0629 356.148 79.7692C355.816 79.4754 355.615 79.062 355.589 78.62C355.562 78.178 355.713 77.7437 356.006 77.4124C356.3 77.0811 356.713 76.8801 357.155 76.8536L364.054 76.1203C364.492 76.0735 364.93 76.2013 365.273 76.476C365.616 76.7507 365.837 77.15 365.888 77.5868C365.911 77.8059 365.89 78.0273 365.827 78.2383C365.764 78.4493 365.659 78.6458 365.52 78.8162C365.38 78.9867 365.209 79.1278 365.014 79.2314C364.82 79.335 364.607 79.3992 364.388 79.42L357.522 80.1865H357.355Z" fill="black"/>
<path d="M388.552 85.7229C388.342 85.7539 388.129 85.7539 387.919 85.7229L378.553 81.7901C378.343 81.7106 378.152 81.5897 377.99 81.4344C377.828 81.2792 377.699 81.0928 377.611 80.8866C377.523 80.6803 377.478 80.4584 377.477 80.2341C377.477 80.0098 377.522 79.7878 377.61 79.5813C377.697 79.3748 377.825 79.1882 377.987 79.0325C378.148 78.8767 378.339 78.7552 378.549 78.6752C378.758 78.5951 378.982 78.5581 379.206 78.5664C379.43 78.5748 379.65 78.6283 379.853 78.7238L389.185 82.6567C389.389 82.737 389.574 82.8574 389.73 83.0108C389.886 83.1641 390.01 83.3472 390.094 83.5493C390.178 83.7514 390.22 83.9682 390.219 84.1871C390.217 84.4059 390.172 84.6222 390.085 84.8231C389.941 85.1025 389.72 85.3352 389.449 85.4945C389.177 85.6537 388.866 85.7329 388.552 85.7229Z" fill="black"/>
<path d="M416.748 103.886C416.748 103.886 413.016 118.984 410.083 117.217C407.15 115.451 404.483 93.5869 406.75 83.8881C409.016 74.1893 410.482 69.2566 410.482 69.2566C410.482 69.2566 370.887 65.7237 360.489 56.3248C350.09 46.926 372.121 40.8268 394.684 45.0929C417.248 49.3591 426.147 57.8581 426.147 57.8581C426.147 57.8581 440.279 55.7583 445.545 64.3572C450.811 72.9561 438.879 105.752 438.879 105.752C438.879 105.752 435.079 97.4198 416.748 103.886Z" fill="black"/>
<path d="M341.362 119.487C341.362 119.487 352.427 107.222 358.026 109.055C363.625 110.888 365.725 119.053 365.725 119.053C365.725 119.053 372.391 109.821 379.79 112.388C387.189 114.954 403.121 115.954 403.121 118.52C403.121 121.087 398.688 121.853 398.688 121.853C398.688 121.853 361.359 126.386 341.362 119.487Z" fill="black"/>
<path d="M416.748 103.887C416.748 103.887 416.081 128.351 416.748 139.583C417.414 150.815 386.018 168.313 364.488 158.647C342.957 148.982 348.823 120.752 348.823 120.752L368.021 122.518C371.002 120.912 374.186 119.712 377.486 118.952C381.48 118.564 385.507 119.159 389.218 120.685L416.748 103.887Z" fill="black"/>
<path d="M370.89 128.112C370.517 128.106 370.158 127.964 369.882 127.713C369.606 127.461 369.431 127.117 369.39 126.746C369.343 126.344 369.457 125.94 369.707 125.621C369.957 125.303 370.322 125.096 370.724 125.046C372.53 124.845 374.27 124.248 375.82 123.297C377.37 122.347 378.691 121.066 379.689 119.547C379.868 119.187 380.182 118.911 380.562 118.781C380.943 118.65 381.359 118.673 381.722 118.847C382.085 119.033 382.36 119.352 382.491 119.738C382.622 120.124 382.597 120.545 382.422 120.913C381.206 122.9 379.547 124.581 377.576 125.823C375.605 127.066 373.374 127.838 371.057 128.079L370.89 128.112Z" fill="black"/>
<path d="M364.886 116.547C364.583 116.545 364.286 116.46 364.028 116.301C363.769 116.142 363.559 115.916 363.42 115.647C358.021 104.848 365.786 93.5499 366.086 93.0499C366.347 92.6931 366.736 92.4518 367.172 92.3771C367.607 92.3025 368.055 92.4004 368.419 92.65C368.779 92.8995 369.026 93.2806 369.107 93.711C369.189 94.1413 369.097 94.5863 368.853 94.9496C368.853 94.9496 361.887 105.148 366.386 114.147C366.584 114.541 366.618 114.997 366.48 115.415C366.343 115.834 366.045 116.181 365.653 116.38C365.416 116.501 365.152 116.559 364.886 116.547Z" fill="black"/>
<path d="M379.954 187.045C373.355 187.062 366.777 186.302 360.356 184.779C359.914 184.668 359.534 184.387 359.3 183.996C359.066 183.605 358.996 183.138 359.106 182.696C359.217 182.254 359.498 181.874 359.889 181.639C360.28 181.405 360.748 181.335 361.19 181.446C361.59 181.446 398.818 190.878 417.416 168.881C417.554 168.712 417.725 168.572 417.918 168.47C418.111 168.369 418.323 168.307 418.54 168.288C418.758 168.269 418.977 168.294 419.184 168.362C419.392 168.429 419.584 168.538 419.749 168.681C419.918 168.819 420.057 168.99 420.159 169.183C420.261 169.376 420.323 169.587 420.342 169.805C420.36 170.022 420.335 170.242 420.268 170.449C420.2 170.657 420.092 170.849 419.949 171.014C409.05 184.045 392.752 187.045 379.954 187.045Z" fill="#F7B369"/>
<path d="M360.988 126.347C360.988 126.347 365.087 131.113 368.854 131.113C372.62 131.113 375.953 124.68 375.953 124.68L360.988 126.347Z" fill="#F27E64"/>
</svg>
