<svg width="25" height="25" viewBox="0 0 25 25" fill="none" xmlns="http://www.w3.org/2000/svg">
<g id="menu-btn">
<path id="Vector" fill-rule="evenodd" clip-rule="evenodd" d="M2.5 10C2.5 9.66848 2.6317 9.35054 2.86612 9.11612C3.10054 8.8817 3.41848 8.75 3.75 8.75H16.635C16.9665 8.75 17.2845 8.8817 17.5189 9.11612C17.7533 9.35054 17.885 9.66848 17.885 10C17.885 10.3315 17.7533 10.6495 17.5189 10.8839C17.2845 11.1183 16.9665 11.25 16.635 11.25H3.75C3.41848 11.25 3.10054 11.1183 2.86612 10.8839C2.6317 10.6495 2.5 10.3315 2.5 10ZM2.5 5C2.5 4.66848 2.6317 4.35054 2.86612 4.11612C3.10054 3.8817 3.41848 3.75 3.75 3.75H21.25C21.5815 3.75 21.8995 3.8817 22.1339 4.11612C22.3683 4.35054 22.5 4.66848 22.5 5C22.5 5.33152 22.3683 5.64946 22.1339 5.88388C21.8995 6.1183 21.5815 6.25 21.25 6.25H3.75C3.41848 6.25 3.10054 6.1183 2.86612 5.88388C2.6317 5.64946 2.5 5.33152 2.5 5ZM2.5 15C2.5 14.6685 2.6317 14.3505 2.86612 14.1161C3.10054 13.8817 3.41848 13.75 3.75 13.75H21.25C21.5815 13.75 21.8995 13.8817 22.1339 14.1161C22.3683 14.3505 22.5 14.6685 22.5 15C22.5 15.3315 22.3683 15.6495 22.1339 15.8839C21.8995 16.1183 21.5815 16.25 21.25 16.25H3.75C3.41848 16.25 3.10054 16.1183 2.86612 15.8839C2.6317 15.6495 2.5 15.3315 2.5 15ZM2.5 20C2.5 19.6685 2.6317 19.3505 2.86612 19.1161C3.10054 18.8817 3.41848 18.75 3.75 18.75H16.635C16.9665 18.75 17.2845 18.8817 17.5189 19.1161C17.7533 19.3505 17.885 19.6685 17.885 20C17.885 20.3315 17.7533 20.6495 17.5189 20.8839C17.2845 21.1183 16.9665 21.25 16.635 21.25H3.75C3.41848 21.25 3.10054 21.1183 2.86612 20.8839C2.6317 20.6495 2.5 20.3315 2.5 20Z" fill="#3C2A21"/>
</g>
</svg>
