<svg width="100" height="41" viewBox="0 0 100 41" fill="none" xmlns="http://www.w3.org/2000/svg">
<rect y="0.697754" width="100" height="40" rx="5" fill="#FFFCF6"/>
<path d="M59.5488 16.0134H49.4924C49.299 16.0134 49.1539 16.1585 49.1539 16.3519V17.1254C49.1539 17.3188 49.299 17.4639 49.4924 17.4639H56.9863V21.6218C56.7929 21.3317 56.5512 21.0416 56.2611 20.7515C55.3908 19.8329 54.4239 19.3978 53.4569 19.3978C52.6833 19.3978 52.0065 19.7846 51.4746 20.5098C51.0395 21.09 50.7978 21.8152 50.7978 22.4437C50.7978 23.1206 50.8945 23.9425 51.4263 24.7161C52.0548 25.6347 53.0218 25.9248 53.892 25.9248C55.0524 25.9248 56.0194 25.1029 56.0194 24.0876C56.0194 23.459 55.7293 22.9756 55.1491 22.6855L54.6173 22.3954V23.2173C54.5689 23.459 54.1338 23.7975 53.6987 23.7975C53.3119 23.7975 52.9251 23.6524 52.7317 23.4107C52.5866 23.2173 52.49 22.9756 52.5383 22.7338C52.5383 22.4437 52.635 22.202 52.8767 21.9119C53.1185 21.6218 53.3602 21.4768 53.747 21.4768C54.7623 21.4768 55.5842 21.9602 56.2611 22.9272C56.7929 23.7491 57.083 24.571 57.083 25.4413V27.5203L58.5818 28.4389C58.6302 28.4872 58.6785 28.4872 58.7269 28.4872C58.9202 28.4872 59.0653 28.3422 59.0653 28.1488V17.4639H59.6455C59.8389 17.4639 59.9839 17.3188 59.9839 17.1254V16.3519C59.8389 16.1585 59.6938 16.0134 59.5488 16.0134Z" fill="#EC1C24"/>
<path d="M79.6134 16.0137H66.8978C66.7044 16.0137 66.5594 16.1587 66.5594 16.3521V17.7542C65.3507 16.4488 64.2387 15.8203 63.2234 15.8203C62.2564 15.8203 61.4828 16.0621 60.806 16.5455C60.1291 17.0774 59.7906 17.7059 59.7906 18.4311C59.7906 20.6551 62.3047 20.6551 62.8849 20.3167C62.9816 20.2683 63.1267 20.1716 63.3201 20.1716C63.8035 20.1716 63.9969 20.5584 63.9969 20.8969C63.9969 21.4287 63.2717 21.8638 62.4014 21.8638C61.918 21.8638 61.5795 21.7188 61.3861 21.4287L60.9994 20.8485L60.7093 21.5254C60.6609 21.6704 60.5642 21.8638 60.5642 22.1056C60.5642 22.6374 60.806 23.1209 61.2894 23.5077C61.7729 23.8944 62.3047 24.0878 62.8849 24.0878C63.8519 24.0878 64.6255 23.7494 65.1573 23.0725C65.5924 22.5407 65.7858 21.8638 65.7858 21.1386C65.7858 20.7035 65.6408 20.3167 65.3023 19.8332C64.9155 19.253 64.4321 18.9629 63.8519 18.9629C63.6585 18.9629 63.4168 19.0113 63.1267 19.108C63.03 19.0596 62.8849 19.108 62.8366 19.108C62.7399 19.108 62.5948 19.0596 62.4981 18.9146C62.4014 18.8179 62.3047 18.6729 62.3047 18.4311C62.3047 17.8993 62.8366 17.3191 63.7068 17.3191H63.7552C64.3354 17.3191 64.9155 17.6092 65.4957 18.1894C65.9309 18.6245 66.3176 19.0596 66.5594 19.5431V27.4722L68.0582 28.3425C68.1065 28.3908 68.1549 28.3908 68.2032 28.3908C68.3966 28.3908 68.5417 28.2458 68.5417 28.0524V17.4158H70.814V24.2812L72.6029 25.0065H72.6996C72.8446 25.0065 72.9897 24.8614 73.038 24.7164V24.668C73.3281 22.6374 74.2467 21.2353 75.7455 20.365V20.7518C75.7455 21.0419 75.7455 21.7671 75.7939 22.2023C75.7939 22.444 75.7939 22.589 75.8422 22.7341C75.8422 23.5077 75.9389 24.7647 76.229 25.635C76.7125 27.3272 77.5828 27.7139 78.2113 27.7623H78.2596C78.6464 27.7623 78.8881 27.6656 79.0815 27.4722C79.1782 27.3755 79.3233 27.1338 79.3233 26.8437C79.3233 26.5052 79.2749 26.2635 79.1782 26.1185L79.0332 25.8767L78.7431 25.9251C78.4047 26.0218 78.308 26.0218 78.308 25.9734H78.2596C78.1629 25.9734 78.1629 25.9734 78.1146 25.9251C78.0179 25.8767 77.8245 25.6833 77.6794 25.1515C77.5828 24.7647 77.5344 24.1845 77.5344 23.8944C77.5344 21.6704 78.0179 19.9782 78.6948 19.5915H78.7431C78.8398 19.5431 78.9365 19.4464 78.9365 19.3014C78.9365 19.253 78.9365 19.2047 78.8882 19.1563V19.108C78.5497 18.4311 77.8245 17.9476 76.8092 17.6575H76.6158C75.8422 17.8026 74.8753 18.3344 73.6666 19.3497C73.3765 19.5915 73.0864 19.8816 72.7963 20.1233V17.3675H79.6617C79.8551 17.3675 80.0002 17.2224 80.0002 17.029V16.2554C79.9518 16.1587 79.8068 16.0137 79.6134 16.0137Z" fill="#EC1C24"/>
<path d="M43.5455 21.1385C43.5455 21.477 43.5455 21.767 43.4972 22.1055C43.4005 23.5076 43.0137 24.813 42.4819 26.0217C42.2401 26.5052 41.9984 26.9886 41.7083 27.4238C39.6293 30.7114 35.9549 32.9355 31.7486 32.9355C29.9597 32.9355 28.2675 32.5487 26.7204 31.8235C22.7558 29.9379 20 25.8766 20 21.1385C20 16.5455 22.6591 12.5326 26.527 10.5986C26.2369 10.9854 25.9468 11.4206 25.7051 11.8557C25.7051 11.904 25.6567 11.904 25.6567 11.9524C25.5117 12.0974 25.3666 12.1941 25.2216 12.3392C25.0282 12.4842 24.8832 12.6776 24.6898 12.871C24.6414 12.9193 24.5931 12.9677 24.5931 13.016C24.5447 13.0644 24.4964 13.1127 24.4964 13.1611L24.303 13.3545C24.1579 13.4995 24.0612 13.6446 23.9645 13.7896C23.4811 14.4181 23.0943 15.1434 22.7558 15.8686C22.7075 15.9653 22.7075 16.0136 22.6591 16.1103C22.6108 16.207 22.6108 16.3037 22.5624 16.3521C22.4174 16.4488 22.4174 16.4971 22.4174 16.5455L22.2724 16.9806C22.224 17.0773 22.224 17.174 22.1757 17.2707C22.1757 17.319 22.1273 17.3674 22.1273 17.4157C22.1273 17.5124 22.079 17.6091 22.079 17.7058C22.0306 17.9475 21.9339 18.2376 21.9339 18.5277C21.9339 18.6244 21.9339 18.6728 21.8856 18.7695V19.9782C21.8856 23.1691 23.336 26.0217 25.6567 27.9073C27.4456 29.3577 29.718 30.228 32.1837 30.228C34.4077 30.228 36.4867 29.5027 38.1789 28.294C39.4359 27.4238 40.4513 26.2634 41.1765 24.9097C41.2732 24.7163 41.3699 24.5712 41.4666 24.3778C42.0467 23.1208 42.3852 21.767 42.4335 20.3166V19.9782C42.4335 19.6397 42.4335 19.3013 42.3852 18.9629L42.4335 19.0112C42.5786 19.1562 42.7236 19.3013 42.917 19.398C43.062 19.1562 43.2071 18.9145 43.4005 18.7211C43.4972 19.1562 43.5455 19.6397 43.5939 20.0749C43.4972 20.4616 43.5455 20.8001 43.5455 21.1385Z" fill="#EC1C24"/>
<path d="M42.3851 19.9784V20.3169C42.3851 22.3958 41.5148 24.1364 41.4181 24.3781C41.3214 24.5715 41.2248 24.7165 41.1281 24.9099C40.4028 26.2637 39.3392 27.424 38.1305 28.2943C36.4383 29.503 34.3593 30.2282 32.1353 30.2282C29.6696 30.2282 27.3972 29.3579 25.6083 27.9075C23.2876 26.0219 21.8372 23.1694 21.8372 19.9784V18.7697C21.8372 18.673 21.8372 18.6247 21.8855 18.528C21.9339 18.2379 22.0306 17.9478 22.0789 17.6577C22.0789 17.561 22.1272 17.4643 22.1272 17.3676C22.1272 17.3193 22.1756 17.2709 22.1756 17.2226C22.2239 17.1259 22.2239 17.0292 22.2723 16.9325C22.3206 16.7874 22.369 16.6907 22.4173 16.5457C22.4173 16.4974 22.4657 16.449 22.4657 16.4007C22.514 16.304 22.514 16.2073 22.5624 16.1589C22.6107 16.0622 22.6107 16.0139 22.6591 15.9172C22.9975 15.1436 23.3843 14.4667 23.8678 13.8382C23.9645 13.6932 24.1095 13.5481 24.2062 13.4031C24.2546 13.3547 24.3029 13.258 24.3996 13.2097C24.448 13.1613 24.448 13.113 24.4963 13.0646C24.5447 13.0163 24.593 12.9679 24.593 12.9196C24.738 12.7262 24.9314 12.5812 25.1248 12.3878C25.2699 12.2427 25.4149 12.0977 25.56 12.001C25.56 12.0493 25.5116 12.0977 25.5116 12.0977C25.5116 12.146 25.4633 12.1944 25.4633 12.2427C24.8831 13.4514 24.4963 14.8535 24.3513 16.4007C24.3029 16.7874 24.3029 17.2226 24.3029 17.6577C24.3029 23.0243 27.4455 27.3757 31.3617 27.3757H31.7969C32.377 27.3757 32.9089 27.279 33.4407 27.1339C36.0999 26.4087 38.0338 23.9913 38.0338 21.1388V20.9454C37.9854 19.2532 37.2602 17.7061 36.0999 16.6424C36.9218 16.6424 37.6953 16.7874 38.4206 16.9808C39.871 17.3676 41.1764 18.0445 42.2884 18.9148L42.3368 18.9631C42.3368 19.3015 42.3851 19.64 42.3851 19.9784Z" fill="#F6921E"/>
<path d="M42.3854 19.9782V20.3166C42.3854 22.5406 41.4184 24.3779 41.4184 24.4262C41.3217 24.6196 41.225 24.7646 41.1283 24.958C40.4031 26.3118 39.3394 27.4721 38.1307 28.3908C36.3902 29.6478 34.2629 30.3247 32.0872 30.3247C29.7182 30.3247 27.3974 29.5028 25.5602 28.004C23.1428 26.0217 21.7891 23.1208 21.7891 20.0265C21.7891 16.9323 23.1912 13.983 25.6086 12.0007L25.7053 11.9041C25.7053 11.9524 25.6569 11.9524 25.6569 12.0007C25.6569 12.0491 25.6086 12.0974 25.6086 12.0974C23.2395 14.0314 21.9341 16.9323 21.9341 19.9782C21.9341 23.0725 23.2879 25.925 25.7053 27.9073C27.4458 29.4061 29.7182 30.228 32.0872 30.228C34.2629 30.228 36.2935 29.5511 38.0824 28.2941C39.2911 27.4238 40.3547 26.2151 41.08 24.9097C41.1767 24.7163 41.2734 24.5713 41.37 24.3779C41.37 24.3779 42.3854 22.4923 42.337 20.3166V19.9782C42.337 19.6398 42.337 19.3013 42.2887 19.0112V18.9629L42.337 19.0112L42.3854 19.0596V19.9782Z" fill="#F6921E"/>
<path d="M39.5812 13.5961C39.5812 13.5961 31.1686 12.0006 27.2524 19.3012C27.2524 19.3012 27.9293 14.273 33.9245 11.9523L32.7158 9.72828C32.7158 9.72828 35.1332 7.55262 39.3395 8.13279L39.5812 13.5961Z" fill="#EC1C24"/>
<path d="M29.1863 17.4643C29.1863 17.4643 32.5223 13.0646 40.2096 14.2249L40.113 11.6625C40.113 11.6625 43.3039 11.5658 45.9147 13.7898L42.7237 18.6246C42.7237 18.6246 40.5481 16.0622 36.0034 16.0138C34.1178 15.9655 31.8454 16.2072 29.1863 17.4643Z" fill="#F6921E"/>
<path d="M30.9748 19.1564C30.9748 19.1564 30.2496 19.3014 30.298 18.963C30.298 18.8179 30.3947 18.7696 30.443 18.8179C30.443 18.7696 30.298 18.5762 30.6364 18.4795C30.7331 18.3344 30.8298 18.1894 30.8781 18.0927C30.9265 17.996 30.9748 17.851 31.2649 17.9477C31.555 17.996 31.8451 18.2861 31.8935 18.3828C32.0385 18.3828 32.2319 18.4311 32.1835 18.4311L32.0868 18.5278C32.0868 18.5278 32.1835 18.5762 31.8935 18.5762C31.8935 18.6245 31.9418 18.6729 31.9902 18.6729C32.0385 18.7212 31.9902 18.7212 31.9902 18.7696C31.9902 18.7696 32.0385 18.9146 31.8935 18.8663C31.7484 18.8179 31.7484 18.7696 31.7001 18.7696C31.6517 18.7696 31.555 18.7696 31.555 18.8179C31.555 18.8663 31.7001 18.963 31.555 18.963C31.5067 19.0113 31.6034 19.0597 31.555 19.0597C31.5067 19.108 31.1682 19.3498 31.0232 19.3981C30.8781 19.3981 30.8298 19.3498 30.8298 19.3014C30.8298 19.2531 30.9265 19.2047 31.0232 19.2047C30.9748 19.2047 31.0232 19.1564 30.9748 19.1564Z" fill="#EC1C24"/>
<path d="M30.9268 19.9296C30.8784 19.9296 30.6367 19.7846 30.7817 19.7362C30.8784 19.6395 31.3619 19.3495 31.4586 19.3011C31.5553 19.2528 31.7003 19.3978 31.5553 19.4945C31.4103 19.6395 30.9268 19.9296 30.9268 19.9296Z" fill="#EC1C24"/>
<path d="M31.652 19.5913C31.652 19.4946 31.7487 19.2045 31.7487 19.1562C31.7487 19.1078 31.9904 19.0595 31.9421 19.3496C31.8454 19.5913 31.652 19.688 31.652 19.5913Z" fill="#EC1C24"/>
<path d="M31.9902 19.0115C31.9902 19.0115 33.3439 18.9631 33.4406 19.0115C33.5373 19.0598 34.0208 19.785 33.8758 20.4136C33.7791 21.0421 33.5857 21.1871 32.7154 21.2838C32.7154 21.0904 32.6671 20.5586 32.5704 20.4136C32.4737 20.2685 32.1836 19.9301 32.0869 19.9301C32.0869 20.0751 32.0385 20.5103 32.0385 20.5103C32.0385 20.5103 31.6034 20.5586 31.5551 20.4619V19.785C31.5551 19.785 31.9418 19.4466 31.9902 19.3499C32.0385 19.3983 32.0869 19.5917 32.522 19.5433C32.522 19.5917 31.9902 19.64 31.9902 19.0115Z" fill="#EC1C24"/>
<path d="M31.4585 19.6399C31.4585 19.6399 31.0234 19.9783 30.9267 20.075C30.8784 20.1717 30.83 20.5585 31.3619 20.5585C31.4585 20.3168 31.4585 19.6399 31.4585 19.6399Z" fill="#EC1C24"/>
<path d="M30.4433 20.1715C30.2982 20.1715 30.2015 20.1232 30.2015 20.0265C30.2015 19.9298 30.3949 19.7847 30.54 19.8331C30.6367 19.8814 30.8784 19.9298 30.8784 20.3649C30.9751 20.4616 31.2168 20.655 31.5553 20.655C31.8937 20.655 32.0871 20.655 32.0871 20.7517V21.3802C32.0871 21.3802 31.7003 21.3802 30.7334 20.7034C30.6367 20.6067 30.5883 20.51 30.5883 20.3649C30.5883 20.2199 30.4916 20.1715 30.4433 20.1715Z" fill="#EC1C24"/>
<path d="M30.1533 20.2197C30.0083 20.2197 29.5248 20.6065 29.8632 20.7516L30.0566 20.5582C30.0566 20.5582 29.9599 20.7999 30.1533 20.8483C30.3467 20.8966 30.25 20.7516 30.3467 20.7516C30.395 20.8483 30.395 20.8966 30.4917 20.8966C30.5884 20.8966 30.5884 20.6065 30.4917 20.4615C30.4434 20.3164 30.3467 20.2197 30.1533 20.2197Z" fill="#EC1C24"/>
<path d="M32.1836 20.2681V21.5251C32.1836 21.5251 32.5704 21.3801 32.6187 21.2834C32.6187 21.09 32.522 20.2681 32.1836 20.2681Z" fill="#EC1C24"/>
<path d="M31.1683 21.0898C31.1683 21.0898 31.6518 21.4283 31.9419 21.525C31.8936 21.5733 31.7002 21.8634 31.6035 21.8151C31.5551 21.8151 31.2167 21.3316 31.1683 21.0898Z" fill="#EC1C24"/>
<path d="M28.7992 21.5735H29.4761V21.8152H28.8475L28.7992 21.5735Z" fill="#EC1C24"/>
<path d="M36.0032 21.429H33.2473L33.6824 21.7674H36.0032V21.429Z" fill="#EC1C24"/>
<path d="M32.7154 21.4282C32.7638 21.3799 33.1022 21.6216 33.0055 21.67C32.9088 21.7183 32.0386 22.0568 31.9902 22.0568C31.8935 22.0084 31.9419 21.815 32.0386 21.7667C32.0869 21.7183 32.5704 21.5733 32.7154 21.4282Z" fill="#EC1C24"/>
<path d="M31.7484 22.009C31.6517 21.9607 31.1199 22.4925 31.3616 22.5409C31.6033 22.5892 32.1835 22.6859 32.3286 22.7826C32.4736 22.7343 32.5703 22.5892 32.5703 22.5409C32.667 22.5409 32.812 22.6859 32.9571 22.6376C33.1021 22.5892 33.779 22.1057 33.779 22.009C33.634 21.9123 33.3439 21.7189 33.1988 21.7189C33.1021 21.6706 32.2319 22.2024 31.7484 22.009Z" fill="#EC1C24"/>
<path d="M31.4584 22.6854C31.5068 22.6854 32.232 22.9271 32.377 22.9271C32.5704 22.8788 32.5704 22.7337 32.6671 22.7337C32.7638 22.7337 32.8121 22.8304 32.9572 22.7337C33.1022 22.637 33.4407 22.3469 33.489 22.2986C33.489 22.3953 33.489 22.6854 32.8605 22.9755C32.232 23.2655 30.7332 23.7007 30.6848 23.8941C30.7332 23.8941 30.9266 23.8457 31.0716 23.7974C31.1683 23.8457 31.3134 24.0391 31.265 24.3776C31.2167 24.716 30.9749 25.2478 30.9749 25.3929V26.3115C30.9749 26.3598 31.12 26.795 30.9266 26.7466C30.7332 26.6983 30.6365 26.6983 30.5398 26.7466C30.4431 26.7466 30.298 26.8917 30.2014 26.8433C30.0563 26.8433 29.8629 26.7466 29.8629 26.6983C29.8629 26.6499 30.008 26.6499 30.153 26.6016C30.298 26.5532 30.3464 26.4082 30.5881 26.3115C30.5881 26.1664 30.4914 24.9577 30.4914 24.716C30.4914 24.4742 30.3947 23.9424 30.5398 23.749C30.6365 23.4589 31.2167 22.637 31.4584 22.6854Z" fill="#EC1C24"/>
<path d="M32.377 23.3624C32.377 23.4591 32.8121 24.5227 33.0055 24.5227C33.1989 24.5227 34.9878 24.136 35.3262 24.281C35.4229 24.426 35.6163 24.6678 35.6163 24.8128C35.6163 24.8128 35.6646 25.1513 35.6163 25.1996C35.6646 25.1996 35.8097 25.1513 35.858 25.0546C35.9064 24.9579 35.858 24.4744 35.858 24.3777C35.858 24.281 36.0998 23.8459 35.8097 23.8942C35.5196 23.8942 34.6977 23.8942 34.4076 23.8459C34.1658 23.7975 33.5373 23.6525 33.3923 23.7492C33.2472 23.8459 33.0538 24.0876 33.0538 24.136C33.0055 24.136 32.9571 24.0876 33.0538 23.8942C33.1022 23.7008 33.3439 23.169 33.2956 22.8789C33.1505 22.9273 32.377 23.3624 32.377 23.3624Z" fill="#EC1C24"/>
<path d="M31.3619 21.6704C31.3619 21.7188 31.4103 21.8155 31.4586 21.8638L30.0565 21.7671C30.0565 21.7671 29.9115 21.6704 29.9598 21.6221L31.3619 21.6704Z" fill="#EC1C24"/>
<path d="M29.8145 21.5738H31.2166C31.2166 21.5738 31.1199 21.4287 31.0715 21.332H29.7661C29.7661 21.332 29.6211 21.332 29.6211 21.6221C29.6211 21.6705 29.7178 21.7672 29.8145 21.5738Z" fill="#EC1C24"/>
<path d="M28.461 21.8157H28.7511C28.7511 21.8157 28.8478 21.7673 28.7511 21.6706C28.6544 21.5739 28.461 21.4772 28.6061 21.2838C28.461 21.2838 28.2676 21.2355 28.316 21.6706H28.1709C28.1709 21.6706 28.1226 21.4289 27.7841 21.4289C27.4457 21.4289 26.6238 21.7673 26.6238 21.7673C26.6238 21.7673 27.5424 22.009 27.7841 22.009C28.0259 22.009 28.1709 21.7673 28.1709 21.7673H28.2676C28.2676 21.7673 28.316 21.9607 28.3643 22.009V22.2991C28.3643 22.2991 28.2193 22.3475 28.2676 22.4925C28.2676 22.6376 28.3643 22.6376 28.4127 22.6376C28.461 22.6376 28.461 22.5892 28.6061 22.5892C28.6544 22.5409 28.6061 22.3475 28.5094 22.2991V22.1057C28.5094 22.1057 28.6061 22.009 28.6061 21.9607C28.5577 21.864 28.461 21.9124 28.461 21.8157Z" fill="#EC1C24"/>
<path d="M30.153 23.1694C30.2497 23.1211 30.2981 22.976 30.2981 22.976V22.1541C30.2981 21.9607 29.9596 21.8157 29.9113 21.8157C29.8629 21.864 29.7662 21.9124 29.7179 21.9124C29.6212 21.9124 29.5728 21.9124 29.4762 21.8157C29.1861 21.8157 29.041 22.1541 29.041 22.2025C29.041 22.2508 28.9927 22.8793 29.041 22.976C29.041 23.0727 29.1377 23.1694 29.1861 23.2178C29.1377 23.4112 28.8476 24.5232 29.2344 24.6682V24.8616H30.2014V24.6682C30.4915 24.4265 30.2497 23.4595 30.153 23.1694ZM29.041 22.1541C29.041 22.1058 29.1861 21.864 29.3795 21.864C29.4762 21.9607 29.5728 21.9607 29.6695 21.9607C29.7662 21.9607 29.8629 21.864 29.9113 21.864C30.008 21.9124 30.2014 22.0091 30.2014 22.1541V22.976C30.2014 23.0244 30.153 23.0727 30.1047 23.1211H29.9113V22.7343H29.2828V23.0727H29.1377C29.0894 23.0244 29.041 22.976 29.041 22.8793V22.1541ZM29.7179 24.4265H29.5245C29.4762 24.4265 29.4278 24.3781 29.4278 24.3298C29.4278 24.2814 29.4762 24.2331 29.5245 24.2331H29.7179C29.7662 24.2331 29.8146 24.2814 29.8146 24.3298C29.8146 24.3781 29.7662 24.4265 29.7179 24.4265ZM30.1047 24.5232L29.6212 23.9913L29.1861 24.5232C28.896 24.4265 29.0894 23.5562 29.1861 23.1694H30.1047C30.2014 23.5562 30.3464 24.3781 30.1047 24.5232Z" fill="#EC1C24"/>
<path d="M29.9599 23.5559C30.0565 23.4109 29.9115 23.3142 29.9115 23.3142H29.3313C29.1379 23.3142 29.1863 23.5559 29.1863 23.5559L29.5247 23.846C29.6214 23.846 29.8632 23.701 29.9599 23.5559Z" fill="#EC1C24"/>
<path d="M29.718 23.8941L30.0565 24.2809C30.0565 24.2809 30.0081 23.7974 30.0081 23.6523C29.9598 23.7007 29.718 23.8941 29.718 23.8941Z" fill="#EC1C24"/>
<path d="M29.2346 23.6523C29.2346 23.7974 29.1863 24.2809 29.1863 24.2809L29.5247 23.8941C29.5247 23.8941 29.3313 23.7007 29.2346 23.6523Z" fill="#EC1C24"/>
<path d="M29.9115 22.6375H29.9598V22.5891C29.9598 22.5408 29.9115 22.5408 29.9115 22.5408H29.3796C29.3313 22.5408 29.3313 22.5891 29.3313 22.5891V22.6375H29.3796H29.9115Z" fill="#EC1C24"/>
<path d="M29.1378 24.8611H29.0895V24.9094C29.0895 24.9578 29.1378 24.9578 29.1378 24.9578H30.1048C30.1531 24.9578 30.1531 24.9094 30.1531 24.9094V24.8611H30.1048H29.1378Z" fill="#EC1C24"/>
<path d="M25.8985 21.4286C25.8985 21.4286 22.079 13.0644 30.975 7.69775L33.1023 11.614C33.1023 11.614 31.6519 12.0974 30.1047 13.4512C28.4126 14.9016 26.6237 17.319 25.8985 21.4286Z" fill="#F6921E"/>
<path d="M50.1689 31.3885V32.017L50.7007 31.8236L50.8457 31.9686V32.162C50.8457 32.3554 50.7974 32.5488 50.6524 32.6939C50.5557 32.8389 50.3623 32.8872 50.1689 32.8872C49.9271 32.8872 49.7337 32.7905 49.5887 32.5972C49.4437 32.4521 49.347 32.2587 49.2503 32.017L49.3953 31.9203C49.5887 32.4521 49.8304 32.6939 50.1689 32.6939C50.3139 32.6939 50.4106 32.6455 50.5073 32.5488C50.604 32.4521 50.6524 32.3554 50.6524 32.2104C50.6524 32.162 50.6524 32.1137 50.604 32.0653L50.1205 32.2587L49.9755 32.0653V31.3885H49.1536V31.2434H50.9908V31.3885H50.1689Z" fill="#231F20"/>
<path d="M51.1844 32.8389V31.3885H50.9426V31.2434H51.5712V31.3885H51.3778V32.8389H51.1844Z" fill="#231F20"/>
<path d="M52.5864 31.3885V31.4851C52.7314 31.4851 52.8765 31.5335 53.0215 31.6302C53.1665 31.7269 53.2632 31.8236 53.2632 31.9686C53.2632 32.0653 53.2149 32.162 53.1182 32.2587C53.0215 32.3071 52.9248 32.3554 52.8281 32.3554H52.7798V32.162H52.8765C53.0215 32.162 53.0698 32.1137 53.0698 31.9686C53.0698 31.8236 52.9248 31.7269 52.5864 31.6785V32.8389H52.393L52.1029 32.4038C51.9578 32.2587 51.8128 32.2104 51.6194 32.2104L51.5711 31.9686C51.6678 31.8719 51.9578 31.7269 52.393 31.4851V31.3885H51.5227V31.2434H53.3599V31.3885H52.5864ZM52.393 31.6785C52.2963 31.7269 52.1996 31.7752 52.1512 31.8236L51.9095 32.0653C52.0062 32.1137 52.1029 32.2104 52.1512 32.3071C52.1996 32.3554 52.2963 32.4521 52.393 32.5972V31.6785Z" fill="#231F20"/>
<path d="M55.8255 30.9535C55.5354 30.7601 55.2453 30.6634 55.0519 30.6634C54.8585 30.6634 54.7135 30.7117 54.5685 30.8084C54.4234 30.9051 54.3751 31.0501 54.3751 31.2435H54.5685V31.3886H54.3751V32.7907H54.1817V31.3886H53.9883V31.2435H54.1817C54.1817 31.0018 54.2784 30.8084 54.4234 30.6634C54.5685 30.5183 54.7619 30.47 55.0036 30.47C55.1486 30.47 55.2937 30.5183 55.4871 30.5667C55.5838 30.615 55.7288 30.7117 55.9222 30.8084L55.8255 30.9535Z" fill="#231F20"/>
<path d="M55.9708 31.3885V32.8389H55.7774C55.6807 32.6939 55.5357 32.5488 55.294 32.4038C55.0522 32.2587 54.8588 32.2104 54.6654 32.2104L54.6171 31.9686C54.7138 31.8719 54.9072 31.7752 55.1973 31.6785C55.294 31.6302 55.4873 31.5819 55.8258 31.4368V31.3401H54.5204V31.1951H56.2126V31.3401H55.9708V31.3885ZM55.7774 31.6785C55.584 31.7269 55.294 31.8719 54.9072 32.0653C55.2456 32.2104 55.5357 32.3554 55.7774 32.5488V31.6785Z" fill="#231F20"/>
<path d="M56.1157 31.2434H57.9046V31.3885H56.1157V31.2434ZM57.131 32.8389C56.9376 32.8389 56.7442 32.7422 56.5509 32.5488C56.4058 32.4038 56.3091 32.2104 56.2124 31.9686L56.3091 31.8719C56.3575 32.0653 56.4542 32.2587 56.5992 32.4038C56.7442 32.5972 56.8893 32.6939 57.0827 32.6939C57.2277 32.6939 57.3244 32.6455 57.4211 32.5488C57.5178 32.4521 57.5662 32.3554 57.5662 32.2104C57.4211 32.3071 57.3244 32.3554 57.1794 32.3554C57.0827 32.3554 56.9376 32.3071 56.8893 32.2587C56.7926 32.162 56.7442 32.0653 56.7442 31.9686C56.7442 31.8719 56.7926 31.7752 56.8409 31.6785C56.8893 31.6302 56.986 31.5818 57.131 31.5818C57.2277 31.5818 57.2761 31.5818 57.3244 31.6302C57.3728 31.6785 57.4211 31.7269 57.4211 31.8236C57.4211 31.8719 57.3728 31.9686 57.3244 32.017L57.1794 31.9203C57.2277 31.8719 57.2277 31.8719 57.2277 31.8236C57.2277 31.7752 57.1794 31.7269 57.131 31.7269C57.0827 31.7269 57.0343 31.7269 56.986 31.7752C56.9376 31.8236 56.9376 31.8719 56.9376 31.9203C56.9376 32.017 56.986 32.0653 57.0343 32.1137C57.0827 32.162 57.131 32.2104 57.2277 32.2104C57.3728 32.2104 57.5178 32.162 57.6145 32.017L57.8079 32.2104C57.8079 32.4038 57.7596 32.5972 57.6145 32.6939C57.4695 32.7422 57.3244 32.8389 57.131 32.8389Z" fill="#231F20"/>
<path d="M58.0981 32.8389V31.3885H57.8563V31.2434H58.4848V31.3885H58.2431V32.8389H58.0981Z" fill="#231F20"/>
<path d="M59.2099 32.9356C59.0165 32.9356 58.8714 32.8872 58.7747 32.8389C58.6297 32.6939 58.533 32.4521 58.533 32.2104C58.533 32.0653 58.5813 31.9203 58.678 31.7752C58.7264 31.6785 58.8231 31.5335 58.9681 31.3885H58.3879V31.2434H59.3066V31.3885C59.1615 31.4368 59.0165 31.5335 58.9198 31.7269C58.7747 31.8719 58.7264 32.0653 58.7264 32.2104C58.7264 32.5972 58.8714 32.7905 59.2099 32.7905C59.2582 32.7905 59.3066 32.7905 59.3549 32.7422V32.9356H59.2099Z" fill="#231F20"/>
<path d="M60.4186 31.389V32.7911H60.2253V31.8724C60.2253 31.8241 60.1769 31.7757 60.1286 31.7274C60.0319 31.534 59.8868 31.4373 59.6934 31.4373C59.6451 31.4373 59.5484 31.4857 59.5 31.534L59.4033 31.6307C59.5 31.5823 59.5484 31.5823 59.5967 31.5823C59.6934 31.5823 59.7418 31.5823 59.8385 31.6307C59.8868 31.679 59.9352 31.7274 59.9352 31.8241C59.9352 31.9208 59.8868 32.0175 59.7901 32.1142C59.6934 32.2109 59.5967 32.3076 59.5 32.3076L59.4033 32.1625C59.5 32.1142 59.5484 32.0658 59.6451 32.0175C59.7418 31.9208 59.7901 31.8724 59.7901 31.7757C59.7901 31.7274 59.7418 31.679 59.6451 31.679C59.5484 31.679 59.5 31.6307 59.4517 31.6307H59.4033L59.3066 31.4373L59.5 31.2439C59.5967 31.1956 59.6451 31.1472 59.7418 31.1472C59.9352 31.1472 60.1286 31.2439 60.2736 31.4857V31.1472H60.612V31.2923H60.4186V31.389Z" fill="#231F20"/>
<path d="M62.0142 31.3885V32.8389H61.8208C61.7241 32.6939 61.579 32.5488 61.3373 32.4521C61.0955 32.3071 60.9022 32.2587 60.7088 32.2587L60.6604 32.017C60.9505 31.8236 61.3373 31.6785 61.8208 31.4851V31.3885H60.5637V31.2434H62.2076V31.3885H62.0142ZM61.8208 31.6785C61.5307 31.7752 61.2406 31.9203 60.9989 32.0653C61.2889 32.162 61.579 32.3071 61.8208 32.5488V31.6785ZM61.3373 32.8872C61.2889 32.8389 61.1922 32.7422 61.0472 32.6939L61.1439 32.5488C61.2406 32.5972 61.3373 32.6455 61.434 32.7422L61.3373 32.8872Z" fill="#231F20"/>
<path d="M64.6732 30.9535C64.3831 30.7601 64.093 30.6634 63.8996 30.6634C63.7062 30.6634 63.5612 30.7117 63.4161 30.8084C63.2711 30.9051 63.2227 31.0501 63.2227 31.2435H63.4161V31.3886H63.2227V32.7907H63.0293V31.3886H62.8359V31.2435H63.0293C63.0293 31.0018 63.126 30.8084 63.2711 30.6634C63.4161 30.5183 63.6095 30.47 63.8512 30.47C63.9963 30.47 64.1413 30.5183 64.3347 30.5667C64.4314 30.615 64.5765 30.7117 64.7699 30.8084L64.6732 30.9535Z" fill="#231F20"/>
<path d="M64.3348 31.3884V32.017L64.8666 31.8236L65.0116 31.9686V32.162C65.0116 32.3554 64.9633 32.5488 64.8183 32.6938C64.7216 32.8389 64.5282 32.8872 64.3348 32.8872C64.093 32.8872 63.8996 32.7905 63.7546 32.5971C63.6096 32.4521 63.5129 32.2587 63.4162 32.017L63.5612 31.9203C63.7546 32.4521 63.9963 32.6938 64.3348 32.6938C64.4798 32.6938 64.5765 32.6455 64.6732 32.5488C64.7699 32.4521 64.8183 32.3554 64.8183 32.2104C64.8183 32.162 64.8183 32.1137 64.7699 32.0653L64.2864 32.2587L64.093 32.1137V31.4368H63.2711V31.2917H65.1083V31.4368H64.3348V31.3884Z" fill="#231F20"/>
<path d="M66.9459 30.9535C66.6558 30.7601 66.3657 30.6634 66.1723 30.6634C65.9789 30.6634 65.8339 30.7117 65.6888 30.8084C65.5438 30.9051 65.4954 31.0501 65.4954 31.2435H65.6888V31.3886H65.4954V32.7907H65.302V31.3886H65.1086V31.2435H65.302C65.302 31.0018 65.3987 30.8084 65.5438 30.6634C65.6888 30.5183 65.8822 30.47 66.124 30.47C66.269 30.47 66.414 30.5183 66.6074 30.5667C66.7041 30.615 66.8492 30.7117 67.0426 30.8084L66.9459 30.9535Z" fill="#231F20"/>
<path d="M66.8005 31.3887C66.8489 31.5821 66.9939 31.6788 67.2356 31.6788H67.3323L67.4774 31.8722C67.3807 32.1139 67.3323 32.2589 67.3323 32.3556C67.3323 32.5974 67.3807 32.7424 67.429 32.8391L67.284 32.8875C67.1873 32.7424 67.1389 32.5974 67.1389 32.4523C67.1389 32.3556 67.1389 32.2589 67.1873 32.1623C67.1873 32.1139 67.2356 32.0172 67.284 31.8722C67.1389 31.8722 66.9939 31.8238 66.8972 31.7271C66.7522 31.6304 66.7038 31.5337 66.6555 31.3887C66.4621 31.5337 66.3654 31.6788 66.3654 31.8722C66.3654 31.9689 66.4137 32.0172 66.5104 32.0172C66.5588 32.0172 66.6071 32.0172 66.6555 31.9689C66.7038 31.9205 66.7522 31.9205 66.7522 31.8722H66.8972C66.9456 31.9205 66.9456 32.0172 66.9456 32.1623C66.9456 32.549 66.7522 32.6941 66.3654 32.6941C66.317 32.6941 66.2203 32.6941 66.1236 32.6457C66.0753 32.6457 66.0269 32.5974 65.9302 32.549C65.8819 32.4523 65.7852 32.3073 65.6885 32.1139L65.7852 32.0172C65.8335 32.1623 65.9302 32.3073 66.0753 32.5007L66.2203 32.549C66.2687 32.5974 66.317 32.5974 66.3654 32.5974C66.4621 32.5974 66.5588 32.549 66.6555 32.5007C66.7522 32.4523 66.7522 32.3556 66.7522 32.2589C66.7522 32.2106 66.7522 32.1623 66.7038 32.1139C66.6071 32.2106 66.5104 32.2589 66.4137 32.2589C66.317 32.2589 66.2203 32.2106 66.172 32.1623C66.1236 32.1139 66.0753 32.0172 66.0753 31.9205C66.0753 31.7755 66.1236 31.6304 66.2687 31.4854H65.5435V31.3403H67.5257V31.4854H66.8005V31.3887Z" fill="#231F20"/>
<path d="M67.8643 31.389V32.6461H67.961C68.106 32.6461 68.2511 32.5977 68.4445 32.501C68.6379 32.4043 68.7346 32.2593 68.7346 32.1143C68.7346 31.9692 68.6379 31.8725 68.4928 31.8725C68.4445 31.8725 68.3478 31.9209 68.2511 31.9692L68.1544 31.8242C68.2511 31.7275 68.3961 31.7275 68.5412 31.7275C68.6379 31.7275 68.7346 31.7758 68.8313 31.8725C68.8796 31.9692 68.928 32.0659 68.928 32.1626C68.928 32.3076 68.8313 32.4527 68.6862 32.5977C68.5412 32.6944 68.3961 32.7911 68.2511 32.7911C68.106 32.8395 67.961 32.8395 67.7193 32.8395V31.389H67.5742V31.244H68.6862V31.1956C68.6862 31.0989 68.6379 31.0022 68.5412 30.9539C68.4445 30.9056 68.3478 30.8572 68.2511 30.8572C68.106 30.8572 67.9127 30.9056 67.7193 31.0506L67.6709 30.9056C67.9127 30.7605 68.106 30.7122 68.2994 30.7122C68.4445 30.7122 68.5895 30.7605 68.7346 30.8572C68.8313 30.9539 68.928 31.0989 68.928 31.244H69.1214V31.389H67.8643Z" fill="#231F20"/>
<path d="M69.2179 32.8389V31.3885H68.9762V31.2434H69.6531V31.3885H69.4113V32.8389H69.2179Z" fill="#231F20"/>
<path d="M71.297 31.3884V32.8389H71.1036V32.5488C71.1036 32.2104 71.0069 32.0653 70.8619 32.0653C70.8136 32.0653 70.7652 32.1137 70.7169 32.162C70.6685 32.2104 70.6685 32.2587 70.6685 32.3554H70.4751C70.4751 32.3071 70.4268 32.2104 70.4268 32.162C70.3784 32.1137 70.3301 32.0653 70.2334 32.0653C70.1367 32.0653 70.0883 32.1137 70.04 32.162C69.9916 32.2104 69.9916 32.3071 69.9916 32.3554C69.9916 32.5488 70.0883 32.5971 70.3301 32.5971H70.3784L70.3301 32.7905H70.2817C70.1367 32.7905 70.04 32.7422 69.9433 32.6455C69.8466 32.5488 69.7982 32.4521 69.7982 32.3071C69.7982 32.162 69.8466 32.0653 69.9433 31.9686C70.04 31.8719 70.1367 31.8236 70.2817 31.8236C70.4268 31.8236 70.5235 31.9203 70.6202 32.0653C70.7169 31.9203 70.8619 31.8236 70.9586 31.8236C71.0553 31.8236 71.152 31.9203 71.2003 32.0653V31.4368H69.6532V31.2917H71.5388V31.4368H71.297V31.3884Z" fill="#231F20"/>
<path d="M72.4091 32.2104C72.4091 32.3071 72.4091 32.4038 72.4574 32.5005C72.5058 32.6455 72.6025 32.6939 72.6992 32.6939C72.7475 32.6939 72.7959 32.6939 72.8442 32.6455L72.8926 32.7905C72.8442 32.8389 72.7475 32.8389 72.6992 32.8389C72.4091 32.8389 72.2157 32.5972 72.2157 32.1137C72.2157 31.8236 72.4091 31.5335 72.7475 31.2434H73.0376V31.3885C72.8442 31.4368 72.6992 31.5335 72.6025 31.6785C72.4574 31.8236 72.4091 32.017 72.4091 32.2104Z" fill="#231F20"/>
<path d="M74.633 31.3884V32.8389H74.4396V32.5488C74.4396 32.2104 74.3429 32.0653 74.1978 32.0653C74.1495 32.0653 74.1011 32.1137 74.0528 32.162C74.0044 32.2104 74.0044 32.2587 74.0044 32.3554H73.8111C73.8111 32.3071 73.7627 32.2104 73.7627 32.162C73.7144 32.1137 73.666 32.0653 73.5693 32.0653C73.4726 32.0653 73.4243 32.1137 73.3759 32.162C73.3276 32.2104 73.3276 32.3071 73.3276 32.3554C73.3276 32.5488 73.4243 32.5971 73.666 32.5971H73.7144L73.666 32.7905H73.6177C73.4726 32.7905 73.3759 32.7422 73.2792 32.6455C73.1825 32.5488 73.1342 32.4521 73.1342 32.3071C73.1342 32.162 73.1825 32.0653 73.2792 31.9686C73.3759 31.8719 73.4726 31.8236 73.6177 31.8236C73.7627 31.8236 73.8594 31.9203 73.9561 32.0653C74.0528 31.9203 74.1978 31.8236 74.2945 31.8236C74.3912 31.8236 74.4879 31.9203 74.5363 32.0653V31.4368H72.9891V31.2917H74.8747V31.4368H74.633V31.3884Z" fill="#231F20"/>
<path d="M76.2284 31.3885V32.8389H76.035V32.7422C76.035 32.5972 75.9383 32.4521 75.7933 32.3071C75.6482 32.162 75.4548 32.0653 75.3581 32.0653C75.3098 32.0653 75.2131 32.0653 75.1648 32.1137C75.1164 32.162 75.0681 32.2104 75.0681 32.2587C75.0681 32.3071 75.0681 32.4038 75.1164 32.4038C75.1648 32.4521 75.2131 32.4521 75.3098 32.4521C75.3581 32.4521 75.4065 32.4521 75.4548 32.4038L75.5032 32.5972C75.4548 32.6455 75.3582 32.6455 75.2615 32.6455C75.1648 32.6455 75.0681 32.5972 74.9714 32.5005C74.923 32.4038 74.8747 32.3071 74.8747 32.2104C74.8747 32.0653 74.923 31.9686 74.9714 31.9203C75.0681 31.8236 75.1648 31.7752 75.2615 31.7752C75.5515 31.7752 75.7933 31.9203 75.9867 32.2587V31.3401H74.6813V31.1951H76.3251V31.3401H76.2284V31.3885Z" fill="#231F20"/>
<path d="M77.0989 32.9356C76.9055 32.9356 76.7605 32.8872 76.6638 32.8389C76.5187 32.6939 76.422 32.4521 76.422 32.2104C76.422 32.0653 76.4704 31.9203 76.5671 31.7752C76.6154 31.6785 76.7121 31.5335 76.8572 31.3885H76.277V31.2434H77.1956V31.3885C77.0505 31.4368 76.9055 31.5335 76.8088 31.7269C76.6638 31.8719 76.6154 32.0653 76.6154 32.2104C76.6154 32.5972 76.7605 32.7905 77.0989 32.7905C77.1472 32.7905 77.1956 32.7905 77.2439 32.7422V32.9356H77.0989Z" fill="#231F20"/>
<path d="M77.292 31.3885V32.017C77.5821 31.8236 77.8239 31.6785 78.0173 31.6302L78.2107 31.8719C78.114 32.1137 78.0656 32.2587 78.0656 32.4038C78.0656 32.5005 78.114 32.6455 78.1623 32.7905L78.0173 32.8389C77.9689 32.6455 77.9206 32.5488 77.9206 32.4521C77.9206 32.2587 77.9206 32.0653 77.9689 31.8719C77.7755 31.9686 77.5338 32.1137 77.2437 32.3554L77.0987 32.2104V31.3885H76.9536V31.2434H78.3557V31.3885H77.292Z" fill="#231F20"/>
<path d="M79.7577 31.3885V32.8389H79.5643V32.7422C79.5643 32.5972 79.4676 32.4521 79.3226 32.3071C79.1775 32.162 78.9841 32.0653 78.8874 32.0653C78.8391 32.0653 78.7424 32.0653 78.6941 32.1137C78.6457 32.162 78.5974 32.2104 78.5974 32.2587C78.5974 32.3071 78.5974 32.4038 78.6457 32.4038C78.6941 32.4521 78.7424 32.4521 78.8391 32.4521C78.8874 32.4521 78.9358 32.4521 78.9841 32.4038L79.0325 32.5972C78.9841 32.6455 78.8874 32.6455 78.7907 32.6455C78.6941 32.6455 78.5974 32.5972 78.5007 32.5005C78.404 32.4038 78.404 32.3071 78.404 32.2104C78.404 32.0653 78.4523 31.9686 78.5007 31.9203C78.5974 31.8236 78.6941 31.7752 78.7907 31.7752C79.0808 31.7752 79.3226 31.9203 79.516 32.2587V31.3401H78.2106V31.1951H79.8544V31.3401H79.7577V31.3885Z" fill="#231F20"/>
</svg>
