<svg width="50" height="50" viewBox="0 0 50 50" fill="none" xmlns="http://www.w3.org/2000/svg">
<path opacity="0.5" fill-rule="evenodd" clip-rule="evenodd" d="M6.77091 25C6.77091 25.4144 6.93553 25.8118 7.22856 26.1049C7.52158 26.3979 7.91901 26.5625 8.33341 26.5625H27.6042V23.4375H8.33341C7.91901 23.4375 7.52158 23.6021 7.22856 23.8951C6.93553 24.1882 6.77091 24.5856 6.77091 25Z" fill="#876445"/>
<path d="M27.6042 12.4999C27.6044 12.1911 27.6962 11.8892 27.8679 11.6325C28.0396 11.3758 28.2836 11.1758 28.5689 11.0576C28.8542 10.9395 29.1682 10.9086 29.4711 10.9687C29.774 11.0289 30.0523 11.1775 30.2708 11.3957L42.7708 23.8957C43.0634 24.1887 43.2278 24.5858 43.2278 24.9999C43.2278 25.414 43.0634 25.8111 42.7708 26.1041L30.2708 38.6041C30.0523 38.8223 29.774 38.9709 29.4711 39.0311C29.1682 39.0913 28.8542 39.0603 28.5689 38.9422C28.2836 38.824 28.0396 38.624 27.8679 38.3673C27.6962 38.1106 27.6044 37.8087 27.6042 37.4999V12.4999Z" fill="#876445"/>
</svg>
