<svg width="100" height="41" viewBox="0 0 100 41" fill="none" xmlns="http://www.w3.org/2000/svg">
<rect y="0.697754" width="100" height="40" rx="5" fill="#FFFCF6"/>
<path fill-rule="evenodd" clip-rule="evenodd" d="M62.1588 7.78039L54.7709 15.1683L55.2891 19.3166L56.6508 16.4645L60.8627 21.8439L66.7603 3.69775L47.1232 11.8637L52.4383 14.6501L62.1588 7.78039Z" fill="#8C3493"/>
<path d="M52.894 28.5189C52.894 28.5189 48.8756 28.5189 48.5516 28.5189C45.8622 28.6809 44.9872 24.2421 48.2925 23.6583C49.2646 23.6583 52.894 23.6583 52.894 23.6583V28.5189ZM55.7435 20.7419C55.7435 20.7419 49.489 20.7419 47.9665 20.7419C42.0361 21.6498 41.4208 30.2689 47.9016 31.4359H55.7435V23.6583C58.3576 23.7451 58.8977 27.0067 56.9747 28.1948C57.3637 28.6488 58.9196 30.3339 58.9196 30.3339C63.0022 26.8125 60.669 21.0229 55.7435 20.7419Z" fill="#8C3493"/>
<path fill-rule="evenodd" clip-rule="evenodd" d="M72.0099 24.6307C70.7137 24.6307 69.1585 24.6307 69.1585 24.6307L67.9266 27.4828C67.9266 27.4828 71.2319 27.4828 71.556 27.4828C72.2857 27.45 72.3178 28.5192 71.556 28.5841C70.6166 28.5841 65.27 28.5841 65.27 28.5841V23.6586H74.9262V20.7422C74.9262 20.7422 73.5819 20.7422 73.5008 20.7422C73.0791 14.7154 65.8692 14.5373 63.9738 17.8265C64.3467 18.1339 66.1122 19.7058 66.1122 19.7058C67.1982 18.0046 70.2116 18.0856 70.6488 20.7422H62.4186V31.4362H71.6858C73.7921 31.4034 74.7642 29.8481 74.9912 28.5192C75.1204 26.3808 73.8242 24.9548 72.0099 24.6307Z" fill="#8C3493"/>
<path fill-rule="evenodd" clip-rule="evenodd" d="M44.272 20.7419H40.5134C39.3143 22.2001 37.2402 28.0978 41.3556 32.5372C41.3556 32.5372 43.1378 31.0141 43.494 30.7229C42.2306 29.491 40.1244 24.4684 44.272 20.7419Z" fill="#8C3493"/>
<path fill-rule="evenodd" clip-rule="evenodd" d="M34.7039 32.6393C34.7039 33.9406 33.6488 34.995 32.3475 34.995C31.0462 34.995 29.9918 33.9406 29.9918 32.6393C29.9918 31.338 31.0462 30.283 32.3475 30.283C33.6488 30.283 34.7039 31.338 34.7039 32.6393Z" fill="#8C3493"/>
<path fill-rule="evenodd" clip-rule="evenodd" d="M34.6154 28.5189C34.6154 28.5189 30.5971 28.5189 30.2731 28.5189C27.5837 28.6809 26.7086 24.2421 30.014 23.6583C30.9861 23.6583 34.6154 23.6583 34.6154 23.6583V28.5189ZM29.6899 20.7419C23.7601 21.6498 23.1442 30.2689 29.625 31.4359H29.6681C30.1284 30.4136 31.1545 29.7019 32.3478 29.7019C33.5411 29.7019 34.5672 30.4136 35.0269 31.4359H37.4669C37.4669 31.079 37.4669 20.7419 37.4669 20.7419C37.4669 20.7419 31.213 20.7419 29.6899 20.7419Z" fill="#8C3493"/>
<path fill-rule="evenodd" clip-rule="evenodd" d="M32.3546 16.8986C32.3546 17.0336 32.2447 17.1435 32.1097 17.1435H30.8695V16.6259H32.1097C32.2447 16.6259 32.3546 16.7359 32.3546 16.8709V16.8986ZM32.4781 18.2153C33.4328 18.0533 33.9028 16.093 32.3476 15.6558C32.1695 15.6558 29.8202 15.6558 29.8202 15.6558V19.3822H30.8566V18.2153L32.0235 19.3822H33.6444L32.4781 18.2153Z" fill="#8C3493"/>
<path fill-rule="evenodd" clip-rule="evenodd" d="M35.4487 18.3138C34.9903 18.3138 34.6187 17.9422 34.6187 17.4838C34.6187 17.0253 34.9903 16.6537 35.4487 16.6537C35.9071 16.6537 36.2788 17.0253 36.2788 17.4838C36.2788 17.9422 35.9071 18.3138 35.4487 18.3138ZM35.4487 15.5955C34.4059 15.5955 33.5604 16.4409 33.5604 17.4838C33.5604 18.5266 34.4059 19.3721 35.4487 19.3721C36.4916 19.3721 37.337 18.5266 37.337 17.4838C37.337 16.4409 36.4916 15.5955 35.4487 15.5955Z" fill="#8C3493"/>
<path fill-rule="evenodd" clip-rule="evenodd" d="M46.1611 16.6694H47.8585V15.5745H46.4222C45.2932 15.5745 44.3693 16.427 44.3693 17.4685C44.3693 18.5101 45.2932 19.3626 46.4222 19.3626H47.8585V18.2677H46.1611C45.9123 18.2677 45.6905 18.1488 45.5478 17.9655H47.8585V16.9716H45.5478C45.6905 16.7883 45.9123 16.6694 46.1611 16.6694Z" fill="#8C3493"/>
<path fill-rule="evenodd" clip-rule="evenodd" d="M39.4148 18.2677C38.9873 18.2677 38.6375 17.918 38.6375 17.4904V17.4467C38.6375 17.0191 38.9873 16.6694 39.4148 16.6694H41.0279V15.5745H39.5813C38.4523 15.5745 37.5284 16.427 37.5284 17.4685C37.5284 18.5101 38.4523 19.3626 39.5813 19.3626H41.0279V18.2677H39.4148Z" fill="#8C3493"/>
<path fill-rule="evenodd" clip-rule="evenodd" d="M51.8006 15.646H48.1429V16.6258H49.4822V19.3043H50.4614V16.6258H51.8006V15.646Z" fill="#8C3493"/>
<path d="M43.0947 17.461L44.8949 15.646H43.438L42.4254 16.667V15.646H41.4462V19.3043H42.4254V18.2557L43.4656 19.3043H44.9232L43.0947 17.461Z" fill="#8C3493"/>
<path d="M57.8237 33.2492C57.6617 33.2814 57.5196 33.383 57.3968 33.554C57.2785 33.7167 57.22 33.8813 57.22 34.0484C57.22 34.1487 57.2406 34.2464 57.2824 34.3403C57.3345 34.4605 57.4058 34.5197 57.4959 34.5197C57.5415 34.5197 57.6007 34.4953 57.6733 34.4457L57.7749 34.7177C57.6829 34.773 57.5936 34.8006 57.5068 34.8006C57.3891 34.8006 57.276 34.7569 57.1667 34.6695C57.1037 34.6187 57.0432 34.5216 56.9866 34.3782C56.9584 34.3082 56.9442 34.2021 56.9442 34.0613V33.9623C56.9442 33.7405 57.0619 33.491 57.2972 33.2132C57.3473 33.156 57.4316 33.0744 57.5492 32.9702H57.9189V33.2396C57.8842 33.2441 57.852 33.2473 57.8237 33.2492Z" fill="#8C3493"/>
<path d="M59.1529 33.2402H58.4283C58.6334 33.3727 58.7395 33.5463 58.7485 33.7604C58.879 33.8118 59.014 33.9134 59.1529 34.0658V33.2402ZM59.4609 33.2402V34.7794H59.1529V34.5808C59.1529 34.512 59.1008 34.4245 58.9967 34.3178C58.9182 34.2368 58.8359 34.1661 58.7491 34.1063C58.6533 34.0401 58.5492 34.0073 58.436 34.0073C58.3209 34.0073 58.2374 34.0561 58.1853 34.1551C58.1788 34.1661 58.1756 34.1796 58.1756 34.1969C58.1756 34.2381 58.1956 34.2747 58.2361 34.3082C58.2759 34.3416 58.3164 34.3577 58.3582 34.3577C58.3904 34.3577 58.4688 34.3339 58.5929 34.2863L58.6836 34.566C58.546 34.6361 58.4322 34.6714 58.3402 34.6714C58.2374 34.6714 58.1441 34.6425 58.0586 34.5853C57.9738 34.5274 57.9114 34.4522 57.8722 34.3583C57.8548 34.3178 57.8458 34.2683 57.8458 34.2085C57.8458 34.0343 57.9185 33.9012 58.0625 33.8092C58.1628 33.7437 58.2701 33.7102 58.3839 33.7102C58.3942 33.7102 58.4045 33.7102 58.4135 33.7102C58.4109 33.6569 58.3827 33.5964 58.328 33.5289C58.2734 33.4627 58.22 33.4293 58.1673 33.4293H57.8265V33.2402H57.6896V32.9702H59.6711V33.2402H59.4609Z" fill="#8C3493"/>
<path d="M60.0604 33.2402V34.7794H59.7525V33.2402H59.5255V32.9702H60.2655V33.2402H60.0604Z" fill="#8C3493"/>
<path d="M61.5619 33.5733C61.5047 33.5926 61.4436 33.6144 61.3774 33.6402C61.281 33.6826 61.1054 33.7597 60.8508 33.8703L60.7923 33.896C61.0354 33.9809 61.2675 34.1069 61.4893 34.2734C61.5176 34.2947 61.542 34.3127 61.5619 34.3274V33.5733ZM61.5439 33.2402H60.1571V32.9702H62.0769V33.2402H61.8641V34.7794H61.5921C61.5658 34.7004 61.4327 34.5776 61.1922 34.4117C61.0945 34.3442 60.9588 34.2779 60.7865 34.2143C60.6027 34.1455 60.4567 34.1121 60.3474 34.1121L60.2658 33.8054C60.3371 33.7475 60.5358 33.6485 60.8605 33.5084C60.9981 33.4486 61.2257 33.3592 61.5439 33.2402Z" fill="#8C3493"/>
<path d="M62.4638 33.2402V34.7794H62.1565V33.2402H61.9296V32.9702H62.6689V33.2402H62.4638Z" fill="#8C3493"/>
<path d="M63.6309 35.0384C63.5061 34.9252 63.3731 34.8204 63.2316 34.722C63.1641 34.6757 63.0516 34.6237 62.8947 34.5664C62.7706 34.5214 62.6973 34.4989 62.6755 34.4989L62.6793 34.1389C62.7051 34.1389 62.7449 34.1402 62.7983 34.1434C62.8516 34.1466 62.8915 34.1485 62.9179 34.1485C63.0574 34.1485 63.1705 34.1305 63.258 34.0945C63.4232 34.0251 63.5061 33.9434 63.5061 33.8489C63.5061 33.7795 63.4746 33.7216 63.4116 33.6753C63.3506 33.6393 63.2882 33.6046 63.2252 33.5712C63.2078 33.5628 63.1898 33.5583 63.1731 33.5583C63.1358 33.5583 63.0953 33.568 63.0516 33.5866C62.9969 33.6123 62.9725 33.6406 62.9764 33.6721C62.9873 33.7518 63.0715 33.7853 63.2284 33.7731L63.0619 34.0283C62.9944 34.0328 62.9256 34.0116 62.8555 33.9647C62.7288 33.8791 62.6658 33.775 62.6658 33.6515C62.6658 33.5281 62.7301 33.4323 62.8587 33.3635C62.9635 33.3063 63.0837 33.2774 63.2188 33.2774C63.2773 33.2774 63.3287 33.2876 63.3711 33.3063C63.4136 33.3256 63.4566 33.3468 63.5004 33.3699C63.7093 33.4767 63.8141 33.638 63.8141 33.8547C63.8141 34.0103 63.7498 34.1357 63.6212 34.2315C63.5229 34.3035 63.3821 34.3556 63.1988 34.3877C63.2535 34.4128 63.3319 34.4565 63.4341 34.5182C63.609 34.65 63.7498 34.7683 63.8565 34.8725L63.6309 35.0384ZM62.561 33.2401V32.97H63.4701C63.4727 32.9591 63.474 32.9514 63.474 32.9475C63.474 32.8061 63.4071 32.7135 63.274 32.6685C63.2567 32.664 63.2368 32.6621 63.2149 32.6621C63.1821 32.6621 63.1422 32.6685 63.094 32.6814C63.0291 32.6987 62.9892 32.7084 62.9764 32.7109C62.9243 32.7193 62.8786 32.7354 62.8394 32.7591C62.7893 32.7939 62.7314 32.8254 62.6658 32.8537L62.5681 32.6254C62.6858 32.5438 62.8401 32.4743 63.0323 32.4165C63.1127 32.3927 63.1892 32.3811 63.2612 32.3811C63.3377 32.3811 63.4232 32.4087 63.5197 32.4647C63.683 32.5624 63.7678 32.7309 63.7749 32.97H63.9511V33.2401H62.561Z" fill="#8C3493"/>
<path d="M65.7929 33.2402V34.7794H65.4856V34.1686C65.4856 34.1153 65.4624 34.0613 65.4168 34.0047C65.3711 33.9488 65.3223 33.9205 65.2702 33.9205C65.222 33.9205 65.1763 33.95 65.1326 34.0092C65.0889 34.069 65.0677 34.1359 65.0677 34.2124H64.7346C64.7346 34.1269 64.7128 34.0536 64.669 33.9918C64.6247 33.9301 64.5745 33.8986 64.5173 33.8986C64.4691 33.8986 64.4228 33.916 64.3791 33.95C64.3354 33.9841 64.3116 34.024 64.3071 34.069L64.2974 34.1487V34.1802C64.2974 34.3384 64.3939 34.4175 64.5874 34.4175C64.6183 34.4175 64.6703 34.411 64.7443 34.3982L64.6363 34.7087C64.5732 34.7164 64.5347 34.7196 64.5218 34.7196C64.3778 34.7196 64.2447 34.6663 64.1225 34.5595C64.0743 34.519 64.0358 34.4573 64.0049 34.3744C63.9766 34.2998 63.9625 34.2272 63.9625 34.1564C63.9625 33.9899 64.0132 33.8549 64.1161 33.752C64.219 33.6485 64.3534 33.5964 64.5192 33.5964C64.6742 33.5964 64.8041 33.6704 64.9089 33.8176C65.022 33.6704 65.1448 33.5964 65.2753 33.5964C65.348 33.5964 65.4174 33.6292 65.4856 33.6948V33.2402H63.8217V32.9702H65.9671V33.2402H65.7929Z" fill="#8C3493"/>
<path d="M68.1189 33.5733C68.0623 33.5926 68.0006 33.6144 67.935 33.6402C67.8386 33.6826 67.6631 33.7597 67.4084 33.8703L67.3493 33.896C67.593 33.9809 67.8251 34.1069 68.0469 34.2734C68.0752 34.2947 68.0996 34.3127 68.1189 34.3274V33.5733ZM68.1015 33.2402H66.7147V32.9702H68.6345V33.2402H68.4217V34.7794H68.1498C68.1234 34.7004 67.9903 34.5776 67.7498 34.4117C67.6515 34.3442 67.5165 34.2779 67.3435 34.2143C67.1603 34.1455 67.0143 34.1121 66.905 34.1121L66.8227 33.8054C66.8947 33.7475 67.0934 33.6485 67.4181 33.5084C67.5557 33.4486 67.7833 33.3592 68.1015 33.2402Z" fill="#8C3493"/>
<path d="M69.1506 33.2402C69.0529 33.3746 69.0047 33.4858 69.0047 33.5733C69.0047 33.6138 69.0542 33.7765 69.1539 34.0606C69.2053 34.204 69.2317 34.3223 69.2317 34.4168C69.2317 34.5962 69.1314 34.7209 68.9308 34.7916C68.8697 34.8154 68.761 34.8341 68.6041 34.8495L68.6453 34.5833C68.8272 34.5448 68.9185 34.4811 68.9185 34.3911C68.9185 34.3075 68.8806 34.1796 68.8047 34.006C68.7289 33.833 68.6916 33.7057 68.6916 33.6247C68.6916 33.5199 68.7353 33.392 68.8227 33.2402H68.5026V32.9702H69.3609V33.2402H69.1506Z" fill="#8C3493"/>
<path d="M69.8092 33.2402V34.7794H69.5012V33.2402H69.2749V32.9702H70.0143V33.2402H69.8092Z" fill="#8C3493"/>
<path d="M70.5835 33.342C70.5526 33.3208 70.5218 33.3118 70.4909 33.3163C70.3745 33.3356 70.3167 33.3928 70.3167 33.4886C70.3167 33.5381 70.336 33.5831 70.3745 33.6249C70.4131 33.6661 70.4562 33.6873 70.5044 33.6873L70.5469 33.6808C70.6349 33.6532 70.6787 33.5998 70.6787 33.5208C70.6787 33.4462 70.6471 33.3864 70.5835 33.342ZM70.8555 34.9603C70.4652 34.6317 70.201 34.4344 70.0608 34.3681L70.0646 33.9432C70.6009 34.327 70.9519 34.633 71.1171 34.8613V35.1776L70.8555 34.9603ZM70.5192 33.9682C70.3752 33.9682 70.2595 33.9226 70.172 33.8319C70.0852 33.7413 70.0415 33.6243 70.0415 33.4815C70.0415 33.3491 70.0859 33.2391 70.1759 33.1504C70.2646 33.0617 70.3758 33.0173 70.5096 33.0173C70.6902 33.0173 70.8207 33.108 70.9018 33.2893C70.9365 33.3664 70.9545 33.4423 70.9545 33.5169C70.9545 33.6551 70.9165 33.7657 70.8413 33.8467C70.7661 33.9277 70.6587 33.9682 70.5192 33.9682Z" fill="#8C3493"/>
<path d="M73.0534 32.7886C72.6947 32.5636 72.4015 32.4504 72.1733 32.4504C71.9039 32.4504 71.7059 32.5359 71.5798 32.7063C71.5361 32.7661 71.5123 32.8542 71.5078 32.9692H71.7239V33.2393H71.5078V34.7785H71.1947V33.2393H70.9896V32.9692H71.1947C71.2011 32.7506 71.2732 32.5732 71.4107 32.4369C71.5477 32.3012 71.7341 32.2177 71.9701 32.1855C71.9939 32.1836 72.0402 32.1784 72.1077 32.1694H72.1726C72.3604 32.1694 72.5468 32.2099 72.7326 32.2909C72.8329 32.3379 72.9975 32.4311 73.2264 32.5719L73.0534 32.7886Z" fill="#8C3493"/>
<path d="M72.4898 33.5958C72.4397 33.6337 72.3632 33.6852 72.2603 33.7488C72.2346 33.7597 72.2044 33.7816 72.1709 33.8144C72.1368 33.8478 72.1047 33.878 72.0738 33.9057C72.1066 33.9353 72.1587 33.9771 72.2314 34.0304C72.2989 34.1069 72.385 34.2021 72.4898 34.3146V33.5958ZM72.7978 33.2402V33.2499C72.9264 33.2563 73.0607 33.2968 73.2003 33.3714C73.3964 33.4788 73.4947 33.6241 73.4947 33.808C73.4947 33.9153 73.4619 34.0079 73.3964 34.0857C73.3301 34.1635 73.2446 34.2149 73.1385 34.2394C73.0325 34.2644 72.9424 34.2677 72.8679 34.2509V33.9597C72.9032 33.9642 72.9354 33.9668 72.9662 33.9668C73.1205 33.9668 73.1977 33.9108 73.1977 33.8002C73.1977 33.6678 73.064 33.5849 72.7978 33.5508V34.7794H72.5265C72.4821 34.6939 72.439 34.6283 72.3953 34.5814C72.3799 34.564 72.3407 34.5133 72.277 34.4277C72.2577 34.4001 72.2217 34.3654 72.1696 34.3223C72.1169 34.2799 72.0809 34.2452 72.0616 34.2175C72.0526 34.2046 72.0282 34.1905 71.989 34.1757C71.8559 34.1288 71.7479 34.105 71.6649 34.105L71.5833 33.799C71.6514 33.7501 71.8038 33.6582 72.0417 33.5244C72.0591 33.5116 72.1317 33.4691 72.2596 33.3965C72.3053 33.3688 72.3824 33.3238 72.4898 33.2621V33.2402H71.5177V32.9702H73.631V33.2402H72.7978Z" fill="#8C3493"/>
<path d="M74.1544 33.342C74.1242 33.3208 74.0933 33.3118 74.0625 33.3163C73.9461 33.3356 73.8882 33.3928 73.8882 33.4886C73.8882 33.5381 73.9075 33.5831 73.9461 33.6249C73.984 33.6661 74.0278 33.6873 74.076 33.6873L74.1184 33.6808C74.2065 33.6532 74.2502 33.5998 74.2502 33.5208C74.2502 33.4462 74.2181 33.3864 74.1544 33.342ZM74.427 34.9603C74.0368 34.6317 73.7719 34.4344 73.6324 34.3681L73.6356 33.9432C74.1724 34.327 74.5228 34.633 74.6887 34.8613V35.1776L74.427 34.9603ZM74.0908 33.9682C73.9468 33.9682 73.831 33.9226 73.7436 33.8319C73.6561 33.7413 73.6124 33.6243 73.6124 33.4815C73.6124 33.3491 73.6574 33.2391 73.7468 33.1504C73.8362 33.0617 73.9474 33.0173 74.0805 33.0173C74.2618 33.0173 74.3923 33.108 74.4733 33.2893C74.508 33.3664 74.5254 33.4423 74.5254 33.5169C74.5254 33.6551 74.4881 33.7657 74.4129 33.8467C74.3377 33.9277 74.2296 33.9682 74.0908 33.9682Z" fill="#8C3493"/>
<path d="M40.0619 34.9114L40.6354 35.105L40.8649 34.9114L40.2914 34.7102L40.0619 34.9114Z" fill="#8C3493"/>
<path d="M39.7556 34.0437C39.8135 34.0604 39.89 33.9672 39.9472 33.8907C39.9472 33.9755 39.9472 34.1118 39.9472 34.2475C39.9472 34.3838 39.8386 34.5028 39.7556 34.5028C39.6733 34.5028 38.9533 34.5028 38.9533 34.5028V34.0437C38.9533 34.0437 39.6856 34.0437 39.7556 34.0437ZM40.2533 33.3191V32.9719H35.7495V33.3191H36.5062V34.0945C36.5062 34.0945 37.0862 34.0945 37.1563 34.0945C37.1563 34.0945 37.3408 34.0353 37.3858 33.9415C37.3858 34.0521 37.3858 34.2051 37.3858 34.2475C37.3858 34.3838 37.2836 34.5028 37.1563 34.5028C37.029 34.5028 36.2581 34.5028 36.2009 34.5028C36.143 34.5028 36.0858 34.477 36.0858 34.2475C36.0858 34.018 36.0858 33.5248 36.0858 33.5248H35.7495C35.7495 33.5248 35.7495 34.3754 35.7495 34.452C35.7495 34.5285 35.7977 34.7985 36.0395 34.7985C36.2819 34.7985 37.2842 34.7985 37.335 34.7985C37.5369 34.7921 37.6802 34.5863 37.6912 34.4134C37.6912 34.0392 37.6912 33.5248 37.6912 33.5248H37.3858C37.3536 33.6611 37.3729 33.7544 37.2328 33.7885C37.0926 33.7885 36.8502 33.7885 36.8502 33.7885V33.3191H37.9593V34.7985H38.3412V33.3191H38.6093V34.7985C38.6093 34.7985 39.7814 34.7985 39.8707 34.7985C39.9601 34.7985 40.2533 34.7239 40.2533 34.4012C40.2533 34.0778 40.2533 33.5248 40.2533 33.5248H39.9472C39.9472 33.6097 39.9344 33.7377 39.7942 33.7377C39.6541 33.7377 38.9533 33.7377 38.9533 33.7377V33.3191H40.2533Z" fill="#8C3493"/>
<path d="M40.6738 34.1444H41.4383V33.7368H40.6738V34.1444Z" fill="#8C3493"/>
<path d="M43.1199 34.5535C43.1199 34.5535 42.3869 34.5535 42.3554 34.5535C42.241 34.5368 42.1645 34.4012 42.1645 34.2475C42.1645 34.0945 42.1645 33.8392 42.1645 33.8392H43.1199V34.5535ZM41.8604 32.9719V33.3191H43.1199V33.5248H41.8604C41.8604 33.5248 41.8604 34.2899 41.8604 34.3497C41.8874 34.6185 42.0249 34.7985 42.2866 34.7985C42.5984 34.7985 43.4259 34.7985 43.4259 34.7985V33.3191H43.6934V34.7985H44.0373V32.9719H41.8604Z" fill="#8C3493"/>
<path d="M45.6893 33.3191H47.2491V33.5248C47.179 33.5248 46.835 33.5248 46.7907 33.5248C46.7714 33.6695 46.5354 33.7479 46.4846 33.5248C46.23 33.5248 45.6893 33.5248 45.6893 33.5248C45.6893 33.5248 45.6893 34.3157 45.6893 34.4012C45.6893 34.486 45.7022 34.7638 45.9356 34.7985C46.1522 34.7985 46.5612 34.7985 46.5612 34.7985V34.5028C46.5612 34.5028 46.2172 34.5028 46.1407 34.5028C46.0577 34.477 45.9877 34.4262 45.9877 34.2989C45.9877 34.1453 45.9877 33.8392 45.9877 33.8392H46.4081V34.0945H46.7907V33.8907C46.765 33.7968 47.1919 33.8052 47.2112 33.8907C47.2112 34.018 47.2112 34.7985 47.2112 34.7985H47.5551V33.3191H47.7847V34.7985H48.1286V32.9719H45.6893V33.3191Z" fill="#8C3493"/>
<path d="M44.8995 33.5862C44.7529 33.5862 44.634 33.5322 44.634 33.466C44.634 33.4004 44.7529 33.3464 44.8995 33.3464C45.0461 33.3464 45.165 33.4004 45.165 33.466C45.165 33.5322 45.0461 33.5862 44.8995 33.5862ZM45.147 33.0745C45.0069 33.0745 44.3344 33.0745 44.3344 33.0745C44.3344 33.0745 44.3344 33.4776 44.3344 33.5541C44.3665 33.7071 44.4482 33.8961 44.7265 33.9109C45.0069 33.9109 45.3765 33.9109 45.3765 33.9109V33.3194C45.3573 33.2191 45.2872 33.0912 45.147 33.0745Z" fill="#8C3493"/>
<path d="M44.3881 34.0901V34.391L45.3705 34.7986V34.4797L44.3881 34.0901Z" fill="#8C3493"/>
<path d="M53.1362 33.5862C52.9896 33.5862 52.8706 33.5322 52.8706 33.466C52.8706 33.4004 52.9896 33.3464 53.1362 33.3464C53.2827 33.3464 53.4017 33.4004 53.4017 33.466C53.4017 33.5322 53.2827 33.5862 53.1362 33.5862ZM53.3837 33.0745C53.2435 33.0745 52.5717 33.0745 52.5717 33.0745C52.5717 33.0745 52.5717 33.4776 52.5717 33.5541C52.6032 33.7071 52.6848 33.8961 52.9632 33.9109C53.2435 33.9109 53.6132 33.9109 53.6132 33.9109V33.3194C53.5939 33.2191 53.5238 33.0912 53.3837 33.0745Z" fill="#8C3493"/>
<path d="M52.6245 34.0901V34.391L53.6069 34.7986V34.4797L52.6245 34.0901Z" fill="#8C3493"/>
<path d="M55.1642 34.5535C55.1642 34.5535 54.4312 34.5535 54.3997 34.5535C54.2846 34.5368 54.2088 34.4012 54.2088 34.2475C54.2088 34.0945 54.2088 33.8392 54.2088 33.8392H55.1584L55.1635 33.8907H55.1642V34.5535ZM55.4702 33.5248V33.3191H56.1035V32.9719H53.9047V33.3191H55.1642V33.5248H53.9047C53.9047 33.5248 53.9047 34.2899 53.9047 34.3497C53.9317 34.6185 54.0693 34.7985 54.3303 34.7985C54.6428 34.7985 55.4702 34.7985 55.4702 34.7985V33.8907H55.7756C55.8264 33.8907 55.8393 33.865 55.8521 33.9415C55.8521 34.0353 55.8521 34.0945 55.8521 34.0945C55.8328 34.1716 55.8264 34.2224 55.7756 34.2475C55.7248 34.2475 55.6631 34.2475 55.6631 34.2475V34.5535H55.89C55.9666 34.5452 56.1067 34.4603 56.1196 34.3497C56.1196 34.18 56.1196 33.5248 56.1196 33.5248H55.4702Z" fill="#8C3493"/>
<path d="M50.4179 34.5535C50.4179 34.5535 49.6849 34.5535 49.6528 34.5535C49.5383 34.5368 49.4618 34.4012 49.4618 34.2475C49.4618 34.0945 49.4618 33.8392 49.4618 33.8392H50.4179V34.5535ZM49.1577 32.9719V33.3191H50.4179V33.5248H49.1577C49.1577 33.5248 49.1577 34.2899 49.1577 34.3497C49.1854 34.6185 49.3229 34.7985 49.584 34.7985C49.8964 34.7985 50.7233 34.7985 50.7233 34.7985V33.3191H51.1219L50.9766 33.6091V33.8135C50.9766 33.8135 51.1932 33.8135 51.2447 33.8135C51.3868 33.8296 51.4356 33.9241 51.4356 34.1704C51.4356 34.3407 51.3964 34.4635 51.2646 34.477C51.1817 34.477 51.0145 34.477 51.0145 34.477V34.7831C51.0145 34.7831 51.2061 34.7831 51.2826 34.7831C51.3591 34.7831 51.7095 34.8171 51.7417 34.477C51.7796 33.7878 51.8111 33.6091 51.3205 33.5583L51.3926 33.3191H51.9313V34.7985H52.2753V32.9719H49.1577Z" fill="#8C3493"/>
</svg>
