<svg width="44" height="44" viewBox="0 0 44 44" fill="none" xmlns="http://www.w3.org/2000/svg">
<g id="Group">
<path id="Vector" d="M23.0002 16.7501C27.0272 16.7501 30.2918 13.4855 30.2918 9.45841C30.2918 5.43134 27.0272 2.16675 23.0002 2.16675C18.9731 2.16675 15.7085 5.43134 15.7085 9.45841C15.7085 13.4855 18.9731 16.7501 23.0002 16.7501Z" fill="#876445" stroke="#876445" stroke-width="4" stroke-linecap="round" stroke-linejoin="round"/>
<path id="Vector_2" d="M2.16675 40.7084C2.16675 31.5032 10.5615 24.0417 20.9167 24.0417" stroke="#876445" stroke-width="4" stroke-linecap="round" stroke-linejoin="round"/>
<path id="Vector_3" d="M27.1667 28.4168C27.1667 27.3054 34.4584 25.0835 34.4584 25.0835C34.4584 25.0835 41.7501 27.3054 41.7501 28.4168C41.7501 37.3054 34.4584 41.7502 34.4584 41.7502C34.4584 41.7502 27.1667 37.3054 27.1667 28.4168Z" fill="#876445" stroke="#876445" stroke-width="4" stroke-linecap="round" stroke-linejoin="round"/>
</g>
</svg>
