<svg width="50" height="50" viewBox="0 0 50 50" fill="none" xmlns="http://www.w3.org/2000/svg">
<g id="support-icon" clip-path="url(#clip0_1_3978)">
<path id="Vector" fill-rule="evenodd" clip-rule="evenodd" d="M24.9536 5.35709C23.4606 5.33013 21.9769 5.59785 20.5875 6.14492C19.1982 6.692 17.9303 7.5077 16.8565 8.54534C15.7827 9.58297 14.9241 10.8222 14.3297 12.192C13.7354 13.5619 13.417 15.0355 13.3929 16.5285V32.1428C13.3929 33.09 13.0166 33.9984 12.3468 34.6682C11.677 35.338 10.7686 35.7142 9.82143 35.7142H5.35714C3.93634 35.7142 2.57373 35.1498 1.56907 34.1452C0.564412 33.1405 0 31.7779 0 30.3571L0 23.2142C0 21.7934 0.564412 20.4308 1.56907 19.4262C2.57373 18.4215 3.93634 17.8571 5.35714 17.8571H8.03571V16.4642C8.0683 14.2692 8.53297 12.1021 9.40319 10.0867C10.2734 8.07126 11.5321 6.24701 13.1075 4.71811C14.6828 3.18921 16.5439 1.98562 18.5844 1.17607C20.625 0.366517 22.805 -0.0331326 25 -5.55759e-05C27.195 -0.0331326 29.375 0.366517 31.4156 1.17607C33.4561 1.98562 35.3172 3.18921 36.8925 4.71811C38.4679 6.24701 39.7266 8.07126 40.5968 10.0867C41.467 12.1021 41.9317 14.2692 41.9643 16.4642V17.8571H44.6429C46.0637 17.8571 47.4263 18.4215 48.4309 19.4262C49.4356 20.4308 50 21.7934 50 23.2142V30.3571C50 31.7779 49.4356 33.1405 48.4309 34.1452C47.4263 35.1498 46.0637 35.7142 44.6429 35.7142H41.9643V37.4999C41.9647 39.9134 41.0766 42.2425 39.4693 44.0428C37.862 45.8431 35.648 46.9886 33.25 47.2607C32.7843 48.0921 32.1052 48.7843 31.2828 49.2658C30.4604 49.7473 29.5244 50.0008 28.5714 49.9999H23.2143C21.7935 49.9999 20.4309 49.4355 19.4262 48.4309C18.4216 47.4262 17.8571 46.0636 17.8571 44.6428C17.8571 43.222 18.4216 41.8594 19.4262 40.8547C20.4309 39.8501 21.7935 39.2857 23.2143 39.2857H28.5714C30.5071 39.2857 32.2036 40.3107 33.1429 41.8499C34.1272 41.6237 35.0058 41.0703 35.635 40.2802C36.2643 39.4901 36.607 38.51 36.6071 37.4999V16.5249C36.5826 15.0242 36.2609 13.5433 35.6606 12.1676C35.0602 10.792 34.1932 9.54903 33.1095 8.51055C32.0259 7.47206 30.7471 6.65867 29.3472 6.1174C27.9473 5.57613 26.454 5.31771 24.9536 5.35709Z" fill="#876445"/>
</g>
<defs>
<clipPath id="clip0_1_3978">
<rect width="50" height="50" fill="white"/>
</clipPath>
</defs>
</svg>
