<svg width="1013" height="2000" viewBox="0 0 1013 2000" fill="none" xmlns="http://www.w3.org/2000/svg">
<path d="M13 2000C-52.972 2000 -113.736 1983.51 -169.292 1950.52C-223.111 1919.27 -266.514 1876.74 -299.5 1822.92C-330.75 1767.36 -346.375 1706.6 -346.375 1640.62C-346.375 1557.29 -327.278 1487.85 -289.083 1432.29C-250.889 1376.74 -191.861 1311.63 -112 1236.98C-52.972 1183.16 -23.458 1131.94 -23.458 1083.33V1036.46H-70.333C-124.153 1036.46 -197.938 1090.28 -291.688 1197.92C-383.701 1305.56 -495.681 1359.37 -627.625 1359.37C-693.597 1359.37 -754.361 1343.75 -809.917 1312.5C-863.736 1279.51 -907.139 1236.11 -940.125 1182.29C-971.375 1126.74 -987 1065.97 -987 1000C-987 934.028 -971.375 874.132 -940.125 820.312C-907.139 764.757 -863.736 721.354 -809.917 690.104C-754.361 657.118 -693.597 640.625 -627.625 640.625C-497.417 640.625 -386.306 693.576 -294.292 799.479C-202.278 905.382 -127.625 958.333 -70.333 958.333H-23.458V916.667C-23.458 868.055 -52.972 816.84 -112 763.021L-171.896 708.333C-215.299 668.403 -255.229 620.66 -291.688 565.104C-328.146 507.812 -346.375 439.236 -346.375 359.375C-346.375 293.403 -330.75 233.507 -299.5 179.688C-266.514 124.132 -223.111 80.7292 -169.292 49.4791C-113.736 16.493 -52.972 0 13 0C78.97 0 138.87 16.493 192.69 49.4791C248.24 82.4652 291.65 125.868 322.9 179.688C355.88 233.507 372.37 293.403 372.37 359.375C372.37 489.583 319.42 600.694 213.52 692.708C107.62 784.722 54.67 859.375 54.67 916.667V958.333H96.33C155.36 958.333 230.01 905.382 320.29 799.479C408.83 693.576 519.94 640.625 653.63 640.625C719.6 640.625 779.49 657.118 833.31 690.104C888.87 721.354 932.27 763.889 963.52 817.708C996.51 871.528 1013 932.292 1013 1000C1013 1065.97 996.51 1126.74 963.52 1182.29C932.27 1236.11 888.87 1279.51 833.31 1312.5C779.49 1343.75 719.6 1359.37 653.63 1359.37C572.03 1359.37 501.72 1339.41 442.69 1299.48C385.4 1259.55 321.16 1201.39 249.98 1125C196.16 1065.97 144.94 1036.46 96.33 1036.46H54.67V1083.33C54.67 1147.57 107.62 1222.22 213.52 1307.29C319.42 1392.36 372.37 1503.47 372.37 1640.62C372.37 1706.6 355.88 1767.36 322.9 1822.92C291.65 1876.74 249.11 1919.27 195.29 1950.52C141.47 1983.51 80.71 2000 13 2000Z" fill="url(#paint0_radial_84_167)"/>
<defs>
<radialGradient id="paint0_radial_84_167" cx="0" cy="0" r="1" gradientUnits="userSpaceOnUse" gradientTransform="translate(13 1000) rotate(90) scale(1000)">
<stop stop-color="#E5D9D2" stop-opacity="0.5"/>
<stop offset="1" stop-color="#E5D9D2" stop-opacity="0"/>
</radialGradient>
</defs>
</svg>
