<svg width="600" height="350" viewBox="0 0 600 350" fill="none" xmlns="http://www.w3.org/2000/svg">
<rect width="600" height="350" rx="10" fill="#F2EEE2"/>
<rect x="49.5002" y="145" width="241" height="60" rx="5" fill="#D5CEA3"/>
<path d="M71.0627 187H66.5784V164.594H82.2659V169.078H71.0627V173.562H77.7815V178.047H71.0627V187ZM98.3284 178.484C98.3284 179.734 98.1044 180.901 97.6565 181.984C97.2086 183.057 96.5992 183.99 95.8284 184.781C95.0575 185.562 94.1513 186.182 93.1096 186.641C92.0784 187.089 90.969 187.312 89.7815 187.312C88.6044 187.312 87.495 187.089 86.4534 186.641C85.4221 186.182 84.5159 185.562 83.7346 184.781C82.9638 183.99 82.3544 183.057 81.9065 181.984C81.4586 180.901 81.2346 179.734 81.2346 178.484C81.2346 177.214 81.4586 176.036 81.9065 174.953C82.3544 173.87 82.9638 172.938 83.7346 172.156C84.5159 171.365 85.4221 170.745 86.4534 170.297C87.495 169.849 88.6044 169.625 89.7815 169.625C90.969 169.625 92.0784 169.839 93.1096 170.266C94.1513 170.682 95.0575 171.281 95.8284 172.062C96.5992 172.833 97.2086 173.766 97.6565 174.859C98.1044 175.943 98.3284 177.151 98.3284 178.484ZM94.0315 178.484C94.0315 177.797 93.9169 177.177 93.6877 176.625C93.469 176.062 93.1669 175.583 92.7815 175.188C92.3961 174.781 91.943 174.474 91.4221 174.266C90.9117 174.047 90.3648 173.938 89.7815 173.938C89.1982 173.938 88.6461 174.047 88.1252 174.266C87.6148 174.474 87.1669 174.781 86.7815 175.188C86.4065 175.583 86.1096 176.062 85.8909 176.625C85.6721 177.177 85.5627 177.797 85.5627 178.484C85.5627 179.13 85.6721 179.729 85.8909 180.281C86.1096 180.833 86.4065 181.312 86.7815 181.719C87.1669 182.125 87.6148 182.448 88.1252 182.688C88.6461 182.917 89.1982 183.031 89.7815 183.031C90.3648 183.031 90.9117 182.922 91.4221 182.703C91.943 182.484 92.3961 182.177 92.7815 181.781C93.1669 181.385 93.469 180.906 93.6877 180.344C93.9169 179.781 94.0315 179.161 94.0315 178.484ZM104.953 187H100.688V170.266H101.719L103.125 172.25C103.813 171.625 104.594 171.146 105.469 170.812C106.344 170.469 107.25 170.297 108.188 170.297H111.953V174.547H108.188C107.74 174.547 107.318 174.63 106.922 174.797C106.526 174.964 106.183 175.193 105.891 175.484C105.599 175.776 105.37 176.12 105.203 176.516C105.037 176.911 104.953 177.333 104.953 177.781V187ZM145.594 180.594C145.594 181.521 145.417 182.396 145.063 183.219C144.719 184.031 144.24 184.745 143.625 185.359C143.021 185.964 142.308 186.443 141.485 186.797C140.672 187.141 139.802 187.312 138.875 187.312C138.042 187.312 137.24 187.167 136.469 186.875C135.709 186.583 135.021 186.156 134.406 185.594C133.792 186.156 133.099 186.583 132.328 186.875C131.558 187.167 130.755 187.312 129.922 187.312C128.995 187.312 128.12 187.141 127.297 186.797C126.485 186.443 125.771 185.964 125.156 185.359C124.552 184.745 124.073 184.031 123.719 183.219C123.375 182.396 123.203 181.521 123.203 180.594V164.594H127.688V180.594C127.688 180.906 127.745 181.203 127.86 181.484C127.974 181.755 128.13 181.995 128.328 182.203C128.537 182.401 128.776 182.557 129.047 182.672C129.318 182.786 129.61 182.844 129.922 182.844C130.235 182.844 130.526 182.786 130.797 182.672C131.068 182.557 131.302 182.401 131.5 182.203C131.709 181.995 131.87 181.755 131.985 181.484C132.099 181.203 132.156 180.906 132.156 180.594V164.594H136.641V180.594C136.641 180.906 136.698 181.203 136.813 181.484C136.927 181.755 137.084 181.995 137.281 182.203C137.49 182.401 137.729 182.557 138 182.672C138.271 182.786 138.563 182.844 138.875 182.844C139.188 182.844 139.479 182.786 139.75 182.672C140.021 182.557 140.255 182.401 140.453 182.203C140.662 181.995 140.823 181.755 140.938 181.484C141.063 181.203 141.125 180.906 141.125 180.594V164.594H145.594V180.594ZM165.11 178.484C165.11 179.734 164.886 180.901 164.438 181.984C163.99 183.057 163.38 183.99 162.61 184.781C161.839 185.562 160.933 186.182 159.891 186.641C158.86 187.089 157.75 187.312 156.563 187.312C155.386 187.312 154.276 187.089 153.235 186.641C152.203 186.182 151.297 185.562 150.516 184.781C149.745 183.99 149.136 183.057 148.688 181.984C148.24 180.901 148.016 179.734 148.016 178.484C148.016 177.214 148.24 176.036 148.688 174.953C149.136 173.87 149.745 172.938 150.516 172.156C151.297 171.365 152.203 170.745 153.235 170.297C154.276 169.849 155.386 169.625 156.563 169.625C157.75 169.625 158.86 169.839 159.891 170.266C160.933 170.682 161.839 171.281 162.61 172.062C163.38 172.833 163.99 173.766 164.438 174.859C164.886 175.943 165.11 177.151 165.11 178.484ZM160.813 178.484C160.813 177.797 160.698 177.177 160.469 176.625C160.25 176.062 159.948 175.583 159.563 175.188C159.177 174.781 158.724 174.474 158.203 174.266C157.693 174.047 157.146 173.938 156.563 173.938C155.979 173.938 155.427 174.047 154.906 174.266C154.396 174.474 153.948 174.781 153.563 175.188C153.188 175.583 152.891 176.062 152.672 176.625C152.453 177.177 152.344 177.797 152.344 178.484C152.344 179.13 152.453 179.729 152.672 180.281C152.891 180.833 153.188 181.312 153.563 181.719C153.948 182.125 154.396 182.448 154.906 182.688C155.427 182.917 155.979 183.031 156.563 183.031C157.146 183.031 157.693 182.922 158.203 182.703C158.724 182.484 159.177 182.177 159.563 181.781C159.948 181.385 160.25 180.906 160.469 180.344C160.698 179.781 160.813 179.161 160.813 178.484ZM188.75 187H184.5V176.375C184.5 176.083 184.443 175.807 184.328 175.547C184.224 175.286 184.073 175.057 183.875 174.859C183.677 174.661 183.448 174.51 183.188 174.406C182.927 174.292 182.651 174.234 182.36 174.234C182.068 174.234 181.792 174.292 181.531 174.406C181.281 174.51 181.058 174.661 180.86 174.859C180.672 175.057 180.521 175.286 180.406 175.547C180.302 175.807 180.25 176.083 180.25 176.375V187H175.985V176.375C175.985 176.083 175.927 175.807 175.813 175.547C175.709 175.286 175.558 175.057 175.36 174.859C175.162 174.661 174.933 174.51 174.672 174.406C174.412 174.292 174.136 174.234 173.844 174.234C173.552 174.234 173.276 174.292 173.016 174.406C172.766 174.51 172.542 174.661 172.344 174.859C172.156 175.057 172.005 175.286 171.891 175.547C171.787 175.807 171.735 176.083 171.735 176.375V187H167.469V170.266H168.5L169.656 171.547C170.25 171.047 170.901 170.661 171.61 170.391C172.328 170.109 173.073 169.969 173.844 169.969C174.625 169.969 175.386 170.115 176.125 170.406C176.875 170.698 177.531 171.203 178.094 171.922C178.354 171.568 178.651 171.266 178.985 171.016C179.318 170.766 179.667 170.562 180.031 170.406C180.406 170.25 180.792 170.141 181.188 170.078C181.584 170.005 181.974 169.969 182.36 169.969C183.245 169.969 184.073 170.135 184.844 170.469C185.625 170.802 186.302 171.26 186.875 171.844C187.459 172.417 187.917 173.094 188.25 173.875C188.584 174.656 188.75 175.49 188.75 176.375V187ZM198.531 182.906C198.698 182.958 198.865 182.995 199.031 183.016C199.198 183.026 199.365 183.031 199.531 183.031C199.948 183.031 200.349 182.974 200.735 182.859C201.12 182.745 201.479 182.583 201.813 182.375C202.156 182.156 202.459 181.896 202.719 181.594C202.99 181.281 203.209 180.938 203.375 180.562L206.5 183.703C206.104 184.266 205.646 184.771 205.125 185.219C204.615 185.667 204.058 186.047 203.453 186.359C202.86 186.672 202.229 186.906 201.563 187.062C200.906 187.229 200.229 187.312 199.531 187.312C198.354 187.312 197.245 187.094 196.203 186.656C195.172 186.219 194.266 185.609 193.485 184.828C192.714 184.047 192.104 183.12 191.656 182.047C191.209 180.964 190.985 179.776 190.985 178.484C190.985 177.161 191.209 175.953 191.656 174.859C192.104 173.766 192.714 172.833 193.485 172.062C194.266 171.292 195.172 170.693 196.203 170.266C197.245 169.839 198.354 169.625 199.531 169.625C200.229 169.625 200.912 169.708 201.578 169.875C202.245 170.042 202.875 170.281 203.469 170.594C204.073 170.906 204.636 171.292 205.156 171.75C205.677 172.198 206.136 172.703 206.531 173.266L198.531 182.906ZM200.719 174.109C200.521 174.036 200.323 173.99 200.125 173.969C199.938 173.948 199.74 173.938 199.531 173.938C198.948 173.938 198.396 174.047 197.875 174.266C197.365 174.474 196.917 174.776 196.531 175.172C196.156 175.568 195.86 176.047 195.641 176.609C195.422 177.161 195.313 177.786 195.313 178.484C195.313 178.641 195.318 178.818 195.328 179.016C195.349 179.214 195.375 179.417 195.406 179.625C195.448 179.823 195.495 180.016 195.547 180.203C195.599 180.391 195.667 180.557 195.75 180.703L200.719 174.109ZM212.953 187H208.688V170.266H209.719L211.125 171.891C211.813 171.266 212.589 170.786 213.453 170.453C214.328 170.109 215.24 169.938 216.188 169.938C217.209 169.938 218.172 170.135 219.078 170.531C219.985 170.917 220.776 171.453 221.453 172.141C222.13 172.818 222.662 173.615 223.047 174.531C223.443 175.438 223.641 176.406 223.641 177.438V187H219.375V177.438C219.375 177 219.292 176.589 219.125 176.203C218.959 175.807 218.729 175.464 218.438 175.172C218.146 174.88 217.808 174.651 217.422 174.484C217.037 174.318 216.625 174.234 216.188 174.234C215.74 174.234 215.318 174.318 214.922 174.484C214.526 174.651 214.183 174.88 213.891 175.172C213.599 175.464 213.37 175.807 213.203 176.203C213.037 176.589 212.953 177 212.953 177.438V187Z" fill="#3C2A21"/>
<path d="M256.75 181.6C259.719 181.28 262.453 179.834 264.388 177.559C266.323 175.285 267.312 172.355 267.152 169.373C266.991 166.391 265.694 163.584 263.527 161.53C261.359 159.475 258.486 158.33 255.5 158.33C252.514 158.33 249.641 159.475 247.474 161.53C245.306 163.584 244.009 166.391 243.849 169.373C243.688 172.355 244.678 175.285 246.613 177.559C248.548 179.834 251.281 181.28 254.25 181.6V184.583H251.333C251.002 184.583 250.684 184.715 250.45 184.949C250.215 185.184 250.083 185.502 250.083 185.833C250.083 186.165 250.215 186.483 250.45 186.717C250.684 186.952 251.002 187.083 251.333 187.083H254.25V191.667C254.25 191.998 254.382 192.316 254.616 192.551C254.851 192.785 255.169 192.917 255.5 192.917C255.832 192.917 256.15 192.785 256.384 192.551C256.618 192.316 256.75 191.998 256.75 191.667V187.083H259.667C259.998 187.083 260.316 186.952 260.551 186.717C260.785 186.483 260.917 186.165 260.917 185.833C260.917 185.502 260.785 185.184 260.551 184.949C260.316 184.715 259.998 184.583 259.667 184.583H256.75V181.6Z" fill="#3C2A21"/>
<path d="M371.999 306.368C352.214 299.961 333.848 289.805 317.903 276.454L315.771 274.672C310.962 270.515 306.4 266.081 302.108 261.393C301.549 260.799 301.024 260.205 300.5 259.576C316.925 211.735 344.217 173.61 375.668 173.714C414.912 174.029 394.469 247.764 371.999 306.368Z" fill="#D5CEA3"/>
<path d="M442.762 76.9864C457.758 73.8632 473.329 75.0111 487.704 80.2992C502.08 85.5874 514.683 94.8037 524.08 106.9C558.781 149.394 537.22 201.672 482.145 200.169C427.071 198.667 414.421 142.509 414.421 142.509L442.762 76.9864Z" fill="black"/>
<path d="M510.596 288.264C502.324 293.616 493.587 298.212 484.491 301.998C482.08 302.977 479.669 303.92 477.223 304.794C459.566 311.132 440.943 314.36 422.183 314.334H418.339C381.518 313.532 346.069 300.208 317.836 276.558C321.121 239.865 325.559 210.371 331.465 201.879C343.87 184.022 358.443 177.417 375.601 173.923C384.757 172.036 394.437 171.022 404.92 169.52C421.689 167.582 438.629 167.652 455.382 169.729H455.591C471.806 171.616 486.169 174.936 493.787 178.675C500.112 181.541 506.262 230.674 510.596 288.264Z" fill="#D5CEA3"/>
<path d="M382.76 139.576C380.803 148.487 375.457 154.882 370.809 153.868C366.161 152.855 363.82 144.783 365.917 135.871C368.013 126.96 373.22 120.565 377.868 121.579C382.516 122.592 384.787 130.664 382.76 139.576Z" fill="#CA965C"/>
<path d="M550.5 251.853C533.157 273.903 510.454 291.143 484.558 301.93C482.146 302.908 479.735 303.852 477.289 304.726L447.306 169.451C450.018 169.293 452.736 169.293 455.448 169.451H455.658C472.152 170.43 518.07 169.801 550.5 251.853Z" fill="#D5CEA3"/>
<path d="M372.769 111.933C368.618 106.919 365.582 101.079 363.865 94.7999C362.147 88.5211 361.788 81.9484 362.81 75.5197C365.047 60.4233 371.686 55.3911 371.686 55.3911C371.686 55.3911 361.202 35.0179 391.5 35.6818C421.798 36.3458 446.854 33.7598 460.448 59.934C468.415 75.345 465.235 108.858 465.235 108.858L372.769 111.933Z" fill="black"/>
<path d="M440 135.697L439.791 172.949C439.791 172.949 433.011 183.607 411.275 185.25C395.095 186.438 390.028 178.26 390.028 178.26L394.117 145.761L433.43 137.374L440 135.697Z" fill="#F48462"/>
<path d="M439.971 133.459C439.784 134.675 439.407 135.854 438.852 136.953C430.431 155.439 401.146 163.023 391.816 163.792L394.122 145.445L439.971 133.459Z" fill="black"/>
<path d="M386.328 60.8112C386.328 60.8112 366.584 107.289 374.097 133.183C381.61 159.078 405.268 154.78 419.526 149.643C427.529 146.919 434.651 142.091 440.144 135.665C444.193 136.807 448.499 136.646 452.451 135.203C456.402 133.761 459.8 131.11 462.16 127.627C470.896 115.221 465.305 101.138 457.722 97.9933C450.138 94.8482 441.192 100.37 441.192 100.37L448.181 86.8456C448.181 86.8456 417.674 18.8765 386.328 60.8112Z" fill="#F48462"/>
<path d="M441.05 100.436C441.05 100.436 421.236 104.804 407.013 82.9633C392.79 61.1223 393.839 51.9666 393.839 51.9666L380.524 75.1005C380.524 75.1005 377.03 59.3051 383.285 49.0661C389.54 38.8271 396.04 40.8189 396.04 40.8189L440.107 50.9182L452.338 85.8638L441.05 100.436Z" fill="black"/>
<path d="M389.017 119.834C388.651 119.843 388.293 119.731 387.996 119.517C387.7 119.302 387.481 118.996 387.375 118.646C384.09 108.687 390.869 98.4128 391.254 97.9585C391.522 97.5787 391.927 97.3188 392.384 97.2339C392.841 97.149 393.313 97.246 393.7 97.5042C393.89 97.6307 394.054 97.794 394.18 97.9846C394.307 98.1752 394.394 98.3892 394.436 98.614C394.478 98.8387 394.475 99.0697 394.427 99.2932C394.378 99.5167 394.286 99.7284 394.154 99.9155C394.154 99.9155 387.969 109.246 390.66 117.563C390.793 118.003 390.752 118.478 390.544 118.889C390.335 119.299 389.976 119.613 389.541 119.765C389.371 119.816 389.195 119.84 389.017 119.834Z" fill="black"/>
<path d="M443.357 122.346C442.918 122.349 442.494 122.187 442.169 121.892C442.006 121.732 441.877 121.542 441.789 121.332C441.7 121.122 441.655 120.896 441.655 120.669C441.655 120.441 441.7 120.215 441.789 120.005C441.877 119.795 442.006 119.605 442.169 119.446L454.504 105.922C454.823 105.61 455.248 105.431 455.693 105.422C456.139 105.413 456.571 105.575 456.901 105.874C457.231 106.173 457.435 106.587 457.47 107.031C457.505 107.475 457.369 107.916 457.09 108.263L444.755 121.787C444.58 121.98 444.363 122.131 444.12 122.228C443.878 122.325 443.617 122.366 443.357 122.346Z" fill="black"/>
<path d="M456.604 118.574H456.36L447.693 117.386C447.23 117.326 446.809 117.084 446.524 116.714C446.239 116.344 446.113 115.875 446.173 115.412C446.233 114.948 446.475 114.528 446.845 114.243C447.216 113.958 447.684 113.832 448.147 113.892L456.884 115.045C457.111 115.079 457.329 115.158 457.526 115.276C457.723 115.395 457.895 115.551 458.031 115.736C458.167 115.921 458.266 116.132 458.321 116.355C458.376 116.578 458.386 116.81 458.352 117.037C458.308 117.466 458.103 117.863 457.779 118.148C457.455 118.433 457.036 118.586 456.604 118.574Z" fill="black"/>
<path d="M379.374 82.0882C378.971 82.0883 378.58 81.9492 378.268 81.6945C377.956 81.4397 377.742 81.085 377.661 80.6904C377.579 80.2322 377.679 79.76 377.94 79.3747C378.201 78.9894 378.603 78.7216 379.059 78.6286L387.236 77.056C387.689 76.9726 388.157 77.0679 388.542 77.322C388.926 77.5762 389.197 77.9692 389.298 78.4189C389.343 78.6462 389.343 78.8803 389.298 79.1076C389.252 79.3349 389.161 79.5507 389.031 79.7426C388.901 79.9345 388.734 80.0986 388.54 80.2253C388.346 80.352 388.128 80.4388 387.9 80.4807L379.723 82.0533L379.374 82.0882Z" fill="black"/>
<path d="M413.62 86.8769C413.367 86.8687 413.117 86.8093 412.886 86.7022L399.258 80.1325C398.847 79.9223 398.533 79.5608 398.383 79.1241C398.233 78.6873 398.258 78.2095 398.454 77.7911C398.555 77.5843 398.695 77.3994 398.867 77.247C399.04 77.0946 399.24 76.9778 399.458 76.9031C399.675 76.8284 399.906 76.7974 400.135 76.8119C400.365 76.8264 400.589 76.8859 400.795 76.9873L414.389 83.5571C414.596 83.6578 414.781 83.7982 414.933 83.9705C415.086 84.1427 415.203 84.3434 415.277 84.5609C415.352 84.7784 415.383 85.0086 415.369 85.2381C415.354 85.4676 415.294 85.692 415.193 85.8985C415.056 86.1979 414.834 86.4504 414.554 86.6244C414.274 86.7985 413.95 86.8862 413.62 86.8769Z" fill="black"/>
<path d="M379.76 101.138H379.271C378.826 101.009 378.451 100.707 378.228 100.301C378.006 99.8947 377.953 99.4166 378.083 98.9717L380.215 91.4584L378.188 89.0821C377.891 88.7253 377.748 88.2652 377.791 87.8032C377.834 87.3412 378.058 86.915 378.415 86.6184C378.772 86.3218 379.232 86.1792 379.694 86.2217C380.156 86.2643 380.582 86.4887 380.879 86.8456L383.5 89.9208C383.683 90.141 383.81 90.402 383.871 90.6818C383.932 90.9616 383.924 91.252 383.849 91.5283L381.438 99.9502C381.32 100.3 381.094 100.604 380.792 100.817C380.491 101.03 380.13 101.143 379.76 101.138Z" fill="black"/>
<path d="M403.169 103.058H402.679C402.456 102.998 402.248 102.894 402.067 102.751C401.885 102.608 401.734 102.43 401.623 102.228C401.512 102.026 401.443 101.803 401.421 101.573C401.398 101.344 401.422 101.112 401.491 100.891L403.623 93.4131L400.652 89.9186C400.482 89.7518 400.349 89.552 400.259 89.3315C400.169 89.111 400.124 88.8744 400.129 88.6363C400.134 88.3982 400.187 88.1635 400.286 87.9468C400.385 87.7301 400.527 87.5358 400.703 87.376C400.88 87.2161 401.087 87.0941 401.313 87.0173C401.538 86.9405 401.777 86.9106 402.014 86.9295C402.252 86.9483 402.483 87.0155 402.693 87.1269C402.904 87.2383 403.089 87.3915 403.239 87.5772L406.733 91.6309C406.92 91.8561 407.052 92.1217 407.119 92.4068C407.186 92.6918 407.185 92.9885 407.118 93.2733L404.706 101.695C404.622 102.053 404.429 102.377 404.154 102.621C403.878 102.865 403.534 103.017 403.169 103.058Z" fill="black"/>
<path d="M395.727 131.922C394.604 131.933 393.497 131.656 392.512 131.118C392.1 130.909 391.788 130.545 391.644 130.106C391.5 129.667 391.536 129.189 391.743 128.777C391.965 128.369 392.338 128.064 392.782 127.927C393.226 127.79 393.706 127.831 394.119 128.043C397.614 129.93 404.323 124.199 406.35 122.032C406.513 121.868 406.706 121.738 406.919 121.65C407.132 121.561 407.36 121.515 407.591 121.515C407.822 121.515 408.05 121.561 408.263 121.65C408.476 121.738 408.669 121.868 408.831 122.032C408.994 122.192 409.123 122.382 409.212 122.592C409.3 122.802 409.345 123.028 409.345 123.255C409.345 123.483 409.3 123.709 409.212 123.919C409.123 124.129 408.994 124.319 408.831 124.478C408.063 125.317 401.668 131.922 395.727 131.922Z" fill="black"/>
<path d="M390.905 170.923L372.384 174.138C372.384 174.138 372.803 198.984 407.644 202.094C442.485 205.204 465.863 170.643 465.863 170.643L429.275 165.96L390.905 170.923Z" fill="#F48462"/>
<path d="M458.172 141.498C458.731 150.619 455.341 158.237 450.589 158.517C445.836 158.796 441.538 151.702 440.944 142.581C440.35 133.461 443.774 125.842 448.527 125.563C453.279 125.283 457.578 132.552 458.172 141.498Z" fill="#CA965C"/>
<path d="M356.305 296.412C355.832 296.411 355.38 296.222 355.047 295.888C322.932 261.816 349.91 227.22 350.189 226.905C350.49 226.587 350.899 226.393 351.335 226.362C351.772 226.331 352.205 226.464 352.547 226.737C352.89 227.009 353.118 227.4 353.186 227.833C353.254 228.265 353.157 228.707 352.915 229.072C345.619 238.494 342.059 250.278 342.917 262.163C343.774 274.049 348.99 285.2 357.563 293.477C357.727 293.639 357.857 293.832 357.945 294.045C358.034 294.258 358.08 294.486 358.08 294.717C358.08 294.948 358.034 295.176 357.945 295.389C357.857 295.602 357.727 295.795 357.563 295.958C357.396 296.116 357.197 296.237 356.981 296.316C356.765 296.394 356.534 296.427 356.305 296.412Z" fill="#CA965C"/>
</svg>
